<svg width="181" height="179" viewBox="0 0 181 179" fill="none" xmlns="http://www.w3.org/2000/svg">
<path d="M29.2272 25.7988C63.5432 -8.51822 119.183 -8.51822 153.503 25.7988C187.817 60.1148 187.817 115.754 153.503 150.072C119.183 184.388 63.5442 184.386 29.2272 150.072C-5.08877 115.754 -5.08877 60.1148 29.2272 25.7988Z" fill="white"/>
<path d="M25.916 22.4878L25.54 22.5008L25.5681 23.5278L25.916 22.4878Z" fill="black"/>
<path d="M23.8911 26.9658C24.0811 26.9568 24.1991 27.1508 24.3911 27.1408C24.3911 27.1408 24.4751 26.2998 24.5591 25.4578C24.6531 24.6048 24.7481 23.7528 24.7481 23.7528C23.0401 23.8438 25.0091 26.9308 23.8911 26.9658Z" fill="black"/>
<path d="M23.2132 27.4258C22.1622 27.9038 22.6142 28.8758 22.7092 29.2718C22.3742 28.5018 24.1492 27.9528 23.2132 27.4258Z" fill="black"/>
<path d="M4.43848 113.76C4.40648 113.668 4.34748 113.551 4.29248 113.465C4.30648 113.633 4.36148 113.726 4.43848 113.76Z" fill="black"/>
<path d="M17.0603 133.856L17.8483 133.65C16.0893 132.222 15.0053 130.174 13.9893 128.091C13.5203 127.027 13.0723 125.946 12.5793 124.895C12.1073 123.834 11.6483 122.776 11.0483 121.794L11.4233 121.969C9.31231 116.614 7.43628 111.409 5.93228 106.048C4.43628 100.693 3.31829 95.1749 2.92529 89.3588C3.01129 89.5388 3.24131 89.5958 3.33731 89.7808C3.05431 89.2288 2.54229 88.6088 2.59329 87.9758C2.76129 87.8118 2.95829 88.1528 3.04129 88.3538C3.67429 87.1258 3.53829 85.3468 3.33429 83.6488C3.21429 81.9608 3.05131 80.3578 3.59931 79.6408C3.53031 78.9438 3.0433 78.5828 2.5903 78.9268C3.2073 69.7418 5.39429 60.0539 8.40329 50.9779C8.74729 50.6289 9.0993 50.6988 9.4523 50.9949C10.1803 46.9049 11.8443 42.9879 14.1133 39.4439C15.1863 37.6299 16.5083 35.9718 17.7743 34.2938C18.4363 33.4748 19.1343 32.6858 19.8113 31.8858C20.4833 31.0818 21.1733 30.2969 21.8973 29.5469C21.6883 28.9489 20.8963 29.8218 20.9983 28.8288C19.8323 29.6218 19.3453 30.8368 18.8403 31.9678C18.3363 33.1048 17.8193 34.1628 16.7333 34.8908L16.4843 34.3248C15.1803 35.5988 17.3663 35.3888 15.7513 36.5148C14.9683 36.8648 15.2993 35.9858 15.0723 36.2428C14.0543 37.8538 13.0373 39.5139 12.0603 41.1628C11.2043 42.8808 10.3943 44.6018 10.1923 46.4928C8.77229 46.7678 8.34131 50.0988 6.82831 50.9598C6.85031 52.0448 6.35129 52.9048 6.90729 53.5328C4.14129 59.5388 2.42528 66.0818 1.50128 72.7218C0.585283 79.3728 0.409297 86.1228 0.753297 92.8368C2.0643 95.9108 2.24831 99.2838 2.58631 102.864C2.83631 106.442 3.3013 110.214 4.6583 113.703C4.5983 113.774 4.51529 113.789 4.43829 113.76C5.0743 114.841 5.72229 116.195 6.29129 117.632C6.92129 119.048 7.48229 120.544 7.87329 121.943L9.7063 123.81C10.3023 125.897 11.1563 127.893 11.9893 129.911C12.9193 131.879 13.8563 133.864 14.9903 135.741C16.0453 137.669 17.3203 139.463 18.5443 141.295C19.8823 143.043 21.1683 144.842 22.6453 146.487C25.4843 149.873 28.6593 152.971 31.9673 155.906C35.2523 158.876 38.8093 161.525 42.4023 164.127C46.5473 167.001 50.8163 169.439 55.1693 171.525C59.5263 173.596 63.9783 175.34 68.5693 176.531C73.1523 177.744 77.8403 178.517 82.6073 178.744C87.3763 178.922 92.2133 178.558 97.0243 177.531C97.0123 177.748 97.1773 177.856 96.6793 177.982C102.25 177.195 107.473 177.227 112.557 175.523L112.59 175.739C118.781 173.317 125.164 171.046 131.242 168.076C137.297 165.124 143.01 161.42 147.236 156.702C153.15 151.943 158.873 146.083 163.535 139.32C165.924 135.98 167.941 132.362 169.803 128.712C171.592 125.02 173.106 121.228 174.326 117.42L174.726 117.602C176.453 111.408 178.195 105.371 179.374 99.1268C180.542 92.9038 181.085 86.4558 180.177 80.0358C180.128 73.3478 178.072 66.6468 175.417 60.3908C172.751 54.0958 169.464 48.2438 166.583 42.2768C165.421 38.1728 162.038 34.5989 158.599 31.4259C155.156 28.2029 151.497 25.5098 149.398 22.1238C148.793 21.3249 148.166 20.5378 147.525 19.7638C146.886 18.9868 146.171 18.2949 145.476 17.5769C144.097 16.1249 142.548 14.8778 140.994 13.6398C137.81 11.2728 134.385 9.23084 130.734 7.69984C123.48 4.50284 115.58 3.06885 107.757 2.55085C100.773 0.655851 93.4123 0.583836 86.3453 1.34184C79.2423 2.11284 72.4083 3.43184 65.3773 4.37684C63.9123 5.26084 62.3233 5.83083 60.6783 6.37983C59.8533 6.64583 58.9903 6.84083 58.1313 7.07383C57.2753 7.31383 56.3983 7.53285 55.5073 7.74885C53.7133 8.15085 51.9513 8.73084 50.1613 9.31684C48.4353 10.0228 46.6823 10.7568 45.1563 11.8688L45.6663 12.1928C44.1043 12.2118 43.0943 13.4658 42.2463 14.6428C41.3903 15.8228 40.6153 16.8228 39.2033 16.3088L39.3703 16.0568C38.4053 15.9438 38.2023 17.0798 38.0323 18.0888C37.8663 19.1098 37.7603 20.0478 36.9613 19.7288L37.1673 20.3478C35.9603 21.5358 36.5653 19.9208 35.4053 20.5748C35.0783 20.9568 35.9843 21.5578 34.9803 21.9538C34.0773 21.0668 33.3673 21.8568 32.6493 22.6018C31.9553 23.3748 31.2693 24.1238 30.2493 23.1348C30.9433 22.4748 28.4043 23.3729 29.5623 21.4529C28.9153 21.6659 26.8593 23.8158 27.9073 24.4788C28.6383 25.5598 28.6313 27.1208 30.5643 26.6108L30.1623 25.7118C31.2333 25.9758 30.8073 25.7398 31.4433 26.0968C33.1623 24.6618 34.2473 25.3989 35.8173 24.8189C35.7873 24.8079 35.7583 24.7988 35.7453 24.7478C35.8263 23.2148 37.3913 22.7299 38.1373 22.3139L38.7313 22.5089C39.8003 23.0519 39.3923 19.3218 40.0063 21.1958C43.2313 18.1128 47.5383 15.2918 51.9323 12.9578C52.2303 12.0188 55.3853 11.3228 53.8063 10.5828C54.7093 10.9898 56.0303 10.8868 57.3003 10.6708C58.5653 10.4418 59.7363 9.98485 60.3753 9.74085C60.3803 9.89385 60.3873 10.0679 60.1673 10.0899C61.7713 10.5609 62.3163 9.85785 62.8943 9.20185C63.4563 8.53285 64.0753 7.97783 65.6303 8.76783C65.5473 7.89183 66.6583 7.64684 67.8883 7.39884C69.1273 7.16984 70.4613 6.87385 70.8983 5.69685C71.2883 5.98885 71.4703 6.30886 71.4353 6.63386C75.7863 5.61386 80.7393 5.51584 84.4533 5.29084C85.2173 4.85484 86.0943 4.64385 87.0133 4.53785C87.9323 4.44285 88.8953 4.51385 89.8383 4.53285C91.7293 4.54385 93.5363 4.70184 94.9723 3.65684C96.1193 3.91984 97.5983 4.39086 99.1923 4.66386C100.778 5.02386 102.483 5.19684 104.13 5.03584L103.784 5.23884C107.384 5.64584 111.778 6.53484 114.554 5.97184C115.058 8.16084 116.626 8.29185 117.908 9.36985C119.205 9.25985 120.939 9.81384 122.855 10.3468C124.722 11.0048 126.767 11.6698 128.595 12.1538C128.689 13.2268 131.523 13.1628 131.033 14.4798C136.181 15.7618 141.402 18.7038 145.857 22.6438C150.332 26.5738 154.031 31.4678 156.646 36.3678L156.474 36.3019C157.904 36.9659 160.283 37.2578 161.894 37.9638C161.882 38.1528 161.689 38.2688 161.515 38.0068C162.208 38.7828 162.562 39.7598 162.906 40.7248C163.217 41.7148 163.506 42.6989 164.154 43.4999C163.955 43.6029 163.955 43.6019 163.597 43.4349C164.367 44.0829 164.659 45.0668 164.954 46.0788C165.263 47.0878 165.663 48.0748 166.642 48.8328L166.38 49.1098L167.46 50.1668C167.044 50.3338 166.419 50.5839 166.214 49.8399C168.118 53.7279 169.794 57.7538 171.308 61.8798C172.814 66.0078 174.115 70.2659 175.021 74.6479C175.947 79.0229 176.552 83.5058 176.732 88.0298C176.877 92.5508 176.58 97.1028 175.789 101.562L175.48 100.843L175.638 104.433C175.423 104.371 175.347 104.186 175.275 104.002C173.687 108.207 173.675 112.983 172.013 117.071C171.816 116.976 171.64 116.218 171.195 116.702C171.189 118.405 170.4 119.498 169.75 120.399C169.102 121.307 168.693 122.076 169.525 123.339C169.357 123.429 168.798 123.286 168.744 122.902C167.279 127.129 165.252 131.233 162.795 135.073C160.297 138.888 157.359 142.418 154.174 145.614C153.297 147.361 152.188 149.017 150.824 150.47C149.517 151.986 147.969 153.296 146.422 154.619C143.246 157.174 139.953 159.568 137.002 162.38L136.797 161.97C132.828 165.348 127.961 167.754 122.879 169.511C117.783 171.279 112.484 172.413 107.268 173.543C106.164 173.682 105.161 173.851 104.204 174.038C103.241 174.205 102.323 174.365 101.405 174.525C99.5713 174.902 97.7103 175.116 95.4763 175.3L95.3383 174.735C91.6293 175.948 87.5903 175.434 83.6763 174.615C79.7413 173.756 75.9143 172.809 71.8443 173.047L72.5413 172.407C71.0703 173.37 68.0753 170.855 67.9883 172.958L66.8103 171.996C63.8603 172.519 61.5633 171.438 59.3083 170.081C58.1573 169.448 57.0463 168.646 55.7753 168.018C54.4933 167.408 53.1353 166.782 51.4553 166.452L52.0623 166.209C50.3123 165.814 48.4013 165.013 47.4833 164.01C47.6953 164.048 47.6853 163.878 48.1103 163.968C47.1423 162.912 46.1053 161.947 44.9413 161.143C43.7643 160.359 42.5603 159.582 41.2873 158.873C39.9983 158.186 38.7423 157.425 37.4853 156.658C36.2113 155.913 35.0443 155.03 33.9603 154.079L35.0463 153.816C32.1723 152.885 29.2393 148.556 26.4343 146.219L26.8943 146.102L25.2433 145.102L25.8623 144.503C24.3123 142.729 22.8163 141.003 21.2623 139.315C19.8043 137.55 18.2923 135.823 17.0603 133.856Z" fill="black"/>
<path d="M3.04211 88.3539C3.03411 88.3679 3.03411 88.3889 3.01611 88.4049C3.09411 88.5479 3.08411 88.4779 3.04211 88.3539Z" fill="black"/>
<path d="M36.3574 24.5858C36.1644 24.6838 35.9974 24.7578 35.8174 24.8198C35.9644 24.9218 36.1964 24.6738 36.3574 24.5858Z" fill="black"/>
<path d="M50.9795 68.5299L50.8354 68.7579L51.4604 68.3539L50.9795 68.5299Z" fill="black"/>
<path d="M52.8497 68.1108C52.9217 67.9968 53.0867 67.8518 53.1597 67.7358L51.2667 68.7768C50.6247 69.7988 53.2797 67.4298 52.8497 68.1108Z" fill="black"/>
<path d="M52.8256 68.3849C52.6476 68.8929 53.4066 68.2718 53.6776 68.0768C53.0856 68.5528 53.5346 67.6049 52.8256 68.3849Z" fill="black"/>
<path d="M67.7112 82.5879C67.6922 82.5759 67.6522 82.5749 67.6152 82.5809C67.6202 82.6289 67.6582 82.6239 67.7112 82.5879Z" fill="black"/>
<path d="M73.8474 84.0418L74.4374 83.5318C72.7504 83.8028 72.9474 82.0078 71.7704 81.6868L72.0144 81.5438C70.3284 79.4298 67.6574 78.5958 65.3544 77.1278C65.4414 77.0988 65.6134 76.9468 65.7084 76.9138C65.4264 77.0138 64.9744 77.2648 64.9184 77.1158C65.0144 76.9678 65.2024 76.8888 65.2904 76.8668C65.8014 75.5598 63.5444 76.2738 63.9964 75.3238C63.7884 75.3088 63.3594 75.6388 63.1334 75.9888C61.4254 74.7458 59.6734 73.3408 57.4574 72.5508C57.5094 72.3538 57.7444 72.0928 58.0774 71.7998C55.3184 71.9898 54.5594 70.0558 53.4844 68.5028C53.0464 68.8398 53.2084 69.0478 52.6754 69.3208C52.6134 70.2278 54.3984 69.1458 54.0764 70.2338L53.6544 70.5578C53.6924 71.0768 54.6534 69.6718 54.4604 70.4428C54.2614 70.8698 53.9554 70.8908 53.9814 70.9708C54.7274 71.4098 55.0084 72.3658 56.4754 72.0148C55.8014 72.9648 57.0844 72.6798 56.5274 73.6748C57.0014 73.5078 57.0724 73.7438 57.6684 73.2648C59.3144 75.7678 62.2184 77.1018 64.2844 79.2858C66.8484 78.7108 66.1664 81.7748 67.8734 82.4278C67.8254 82.4908 67.7654 82.5498 67.7114 82.5878C68.4834 82.5848 69.2274 82.9628 69.4934 83.6148L70.5454 83.3408C71.9444 87.4688 75.7264 89.3348 77.9664 92.7078C78.3164 93.1558 78.6484 93.6088 78.9714 94.0608L79.4504 94.7378L79.6874 95.0738C79.7604 95.1798 79.9484 95.4008 80.0754 95.5598C81.2054 96.9478 82.4264 98.3959 83.7034 99.7468C84.9754 101.092 86.3044 102.341 87.5014 103.181C88.6924 104.014 89.7534 104.441 90.3184 103.972C90.4644 104.422 90.5874 104.714 90.5314 104.787C91.1094 104.995 91.9264 106.043 92.7474 106.991C92.8104 106.419 92.8364 105.721 92.6434 104.586L92.8614 105.054C92.4044 102.982 92.1914 101.588 92.0974 100.408C92.0034 99.2358 92.0304 98.2738 92.0524 97.2768C92.0734 96.2888 92.0914 95.2668 91.9794 94.1948C91.8674 93.1308 91.6274 92.0189 91.1334 91.0528C91.1524 90.5548 91.1704 90.0488 91.1894 89.5368C91.1954 89.0828 91.2024 88.6238 91.2084 88.1608C91.2084 87.2458 91.1854 86.3138 91.1374 85.3748C91.0424 83.4978 90.8514 81.5948 90.5684 79.7548L91.0074 79.7628C90.0794 76.8188 92.4124 73.9728 91.7104 71.0348C92.7124 68.0138 89.1884 64.8218 90.5254 61.7748C92.6874 59.8898 88.0524 57.4138 90.2934 55.6428C93.6694 52.0048 91.4964 48.4758 89.4734 44.8388C90.6764 41.4838 87.5864 38.1329 90.0424 34.8839C88.4684 33.3439 91.9904 31.6438 91.5354 29.9298L90.9904 29.9918C92.6444 29.3768 88.6754 28.6208 91.1344 28.2378L91.2454 28.3028C92.4964 27.9768 88.3064 27.5469 89.7894 27.3489L89.1744 27.2958C88.9964 26.9008 89.8734 27.2488 90.1194 26.9448C90.0424 26.8308 88.9964 26.9018 89.3504 26.6628C91.8724 26.6108 88.8034 25.6968 91.6374 25.6698C91.6374 25.8848 92.7374 25.3318 93.3284 25.8158C93.6194 25.6778 93.4784 25.0178 92.2764 25.0768C91.0004 25.0198 89.8874 24.7629 88.8994 25.1639L89.8294 25.2448C88.8994 25.3798 89.3644 25.3478 88.6674 25.3958C88.5444 25.9208 87.1924 25.9908 86.6324 26.3668C86.6594 26.3628 86.6854 26.3598 86.7334 26.3658C87.8474 26.6228 87.1864 26.9788 87.0274 27.1818L86.5094 27.2638C85.4254 27.3878 88.6244 27.8608 86.7674 27.7008C87.2284 28.7678 87.2064 29.9908 87.2284 31.1818C87.9344 31.3488 87.1634 32.0948 88.5254 31.8338C86.9734 32.1318 86.5804 33.0188 86.6404 33.3478C86.4954 33.3358 86.3294 33.3218 86.3874 33.2698C84.3744 33.9088 88.2504 34.0268 85.7894 34.6258C87.5274 34.7198 85.2334 35.7129 87.2774 36.0519C86.8914 36.1259 86.5434 36.1508 86.2334 36.1238C86.1944 37.2018 85.5664 38.3928 85.4884 39.3048C87.0124 40.0838 84.7984 41.1919 86.9034 41.8619C86.4574 42.4169 85.5794 43.3158 86.4244 44.0908L86.1664 44.0158C86.2894 44.8908 86.3984 45.9828 87.7234 46.5828C85.7064 46.8408 86.1104 47.2198 85.4644 47.5978C86.3994 48.1818 86.1244 49.3598 86.9734 50.2508C86.0434 50.3878 87.3684 50.9858 86.0164 51.0318C88.6234 53.5288 87.7114 56.6148 85.7414 59.2808L85.6454 59.2418C86.3874 59.5878 88.0264 59.9868 88.9834 60.3388C88.8654 60.3738 88.6414 60.3698 88.6484 60.2958C88.8994 60.7828 87.5714 61.2378 87.8194 61.7248C87.5954 61.7208 87.5954 61.7208 87.3814 61.6418C87.9834 62.0989 86.3014 62.5848 87.3474 63.1238L86.9904 63.1538L87.4914 63.4968C87.0454 63.4888 86.3734 63.4758 86.5184 63.2918C86.0824 67.4718 88.4004 71.7858 88.0654 76.0768L87.6414 75.9188L88.4004 76.7518C88.1744 76.7468 88.0654 76.7078 87.9644 76.6678C87.2054 77.7278 88.4684 78.8278 88.2764 79.8598C88.0594 79.8548 87.6274 79.6988 87.3804 79.8428C88.5994 80.6078 85.7974 81.0718 88.3274 81.4538C88.2094 81.4898 87.6404 81.5138 87.4374 81.4358C88.2764 83.5628 88.2284 85.7478 87.8184 87.8908C88.3904 88.3368 88.6914 88.7958 88.8464 89.2638C89.0024 89.6698 89.0144 89.9628 89.0124 90.3208C89.0084 91.0468 88.9444 91.5228 89.8534 93.0618L89.3974 92.6738C90.1984 94.3288 90.1704 95.7188 89.9834 96.5278C89.7954 97.4098 89.4484 97.7008 89.6094 99.0818C89.5834 99.1438 89.5714 99.2318 89.5714 99.3188C89.0894 98.8318 89.0334 99.3428 88.4554 98.8008L88.0644 97.6058C88.1704 98.4778 87.9244 98.4428 87.6064 98.0639C87.2834 97.6798 86.8914 96.9518 86.5604 96.2968C86.2244 95.6358 85.9504 95.0468 85.7114 94.7838C85.4664 94.5158 85.2554 94.5738 84.8954 95.0548L85.0604 94.1248C84.9184 94.8318 84.7554 94.5188 84.6254 94.3908C84.4954 94.2618 84.3594 94.2788 84.1314 95.5018C84.1314 95.5018 84.1134 95.2648 84.0964 95.0268C84.0864 94.7968 84.0754 94.5668 84.0754 94.5668C83.2274 95.6378 82.7364 94.7048 82.5564 93.9138C82.3394 93.0858 82.3544 92.3218 81.1754 92.3878L81.5904 92.1138C81.0384 92.0948 80.4924 91.9748 80.5974 91.4468C80.6804 91.4298 80.7664 91.3138 80.9244 91.2908C81.3954 89.0328 78.8934 89.5448 78.0024 88.5498L78.7514 88.0148C77.5434 88.3118 77.4074 86.7748 76.4644 86.5198L76.8014 86.2558L76.0724 86.3778L76.6724 85.7618C75.9374 84.9408 74.6794 84.7318 73.8474 84.0418Z" fill="black"/>
<path d="M65.2903 76.8668C65.2863 76.8748 65.2903 76.8788 65.2793 76.8938C65.3553 76.8648 65.3383 76.8598 65.2903 76.8668Z" fill="black"/>
<path d="M86.4585 26.5018C86.5105 26.4508 86.5625 26.4088 86.6335 26.3668C86.4585 26.3768 86.4965 26.4578 86.4585 26.5018Z" fill="black"/>
<path d="M148.152 32.6958L148.167 32.3448L147.212 32.4348L148.152 32.6958Z" fill="black"/>
<path d="M144.146 31.0919C144.14 31.2689 143.953 31.3919 143.947 31.5709C143.947 31.5709 144.72 31.5938 145.494 31.6168C146.277 31.6508 147.062 31.6839 147.062 31.6839C147.101 30.0919 144.095 32.1329 144.146 31.0919Z" fill="black"/>
<path d="M143.771 30.4838C143.408 29.5258 142.48 30.0128 142.109 30.1278C142.843 29.7628 143.216 31.3958 143.771 30.4838Z" fill="black"/>
<path d="M69.501 14.0139C69.58 13.9859 69.681 13.9319 69.753 13.8809C69.608 13.8879 69.529 13.9399 69.501 14.0139Z" fill="black"/>
<path d="M52.3942 25.1868L52.6262 25.9578C53.8002 24.3748 55.5592 23.4568 57.3502 22.6088C58.2662 22.2188 59.1962 21.8498 60.0982 21.4378C61.0082 21.0418 61.9122 20.6508 62.7462 20.1218L62.6102 20.4778C67.2032 18.7168 71.6432 17.1018 76.2252 15.7868C80.8002 14.4778 85.5232 13.4748 90.5112 13.1208C90.3572 13.2058 90.3072 13.4358 90.1492 13.5288C90.6222 13.2498 91.1552 12.7428 91.6982 12.7988C91.8382 12.9688 91.5452 13.1628 91.3722 13.2438C92.4212 13.8838 93.9442 13.7448 95.4012 13.5428C96.8492 13.4128 98.2292 13.2398 98.8352 13.7838C99.4332 13.7078 99.7532 13.2168 99.4662 12.7678C107.355 13.2908 115.669 15.1708 123.527 17.6698C123.816 17.9888 123.734 18.3368 123.453 18.6958C127.027 19.2048 130.42 20.6188 133.463 22.5868C135.022 23.5188 136.44 24.6708 137.873 25.7798C138.572 26.3588 139.244 26.9688 139.924 27.5608C140.61 28.1488 141.278 28.7508 141.918 29.3818C142.482 29.1458 141.736 28.4568 142.643 28.4888C141.995 27.4438 140.918 27.0528 139.92 26.6458C138.916 26.2388 137.986 25.8178 137.404 24.8228L137.935 24.5518C136.869 23.3838 136.908 25.4578 135.997 23.9838C135.733 23.2568 136.509 23.5198 136.29 23.3188C134.895 22.4468 133.474 21.5538 132.05 20.7128C130.566 19.9748 129.07 19.2928 127.402 19.1898C127.242 17.8228 124.306 17.5758 123.631 16.1288C122.67 16.1998 121.938 15.7518 121.354 16.3258C116.206 13.8788 110.565 12.3878 104.846 11.5898C99.1152 10.7998 93.3052 10.6558 87.5252 10.9178C84.8822 12.1868 81.9892 12.3158 78.9022 12.5508C75.8192 12.7118 72.5542 13.0308 69.5592 14.2338C69.4952 14.1718 69.4792 14.0888 69.5022 14.0138C68.5802 14.5928 67.4212 15.1718 66.1882 15.6678C64.9732 16.2168 63.6852 16.6918 62.4722 17.0038L60.9112 18.6928C59.1032 19.1648 57.3742 19.8658 55.6272 20.5538C53.9222 21.3258 52.2052 22.1108 50.5802 23.0688C48.9122 23.9588 47.3602 25.0418 45.7772 26.0838C44.2652 27.2238 42.7122 28.3218 41.2912 29.5838C35.4622 34.4778 30.5072 40.3248 26.0052 46.4808C23.4992 50.0238 21.3562 53.6758 19.5182 57.4068C17.6922 61.1408 16.1492 64.9628 15.0962 68.9138C14.0242 72.8558 13.3462 76.8978 13.1652 81.0068C13.0262 85.1168 13.3822 89.2878 14.3472 93.4208C14.1312 93.4108 14.0202 93.5538 13.9012 93.1258C14.6162 97.9128 14.4572 102.42 15.9652 106.786L15.7492 106.823C17.9312 112.127 19.8442 117.611 22.3642 122.848C24.8682 128.061 28.0292 132.994 32.1672 136.551C36.2112 141.65 41.2142 146.584 47.0012 150.598C49.8592 152.655 52.9582 154.391 56.0852 155.989C59.2482 157.527 62.4982 158.824 65.7612 159.865L65.5822 160.267C70.9052 161.71 76.0502 163.274 81.3942 164.367C86.7172 165.447 92.2572 165.999 97.7692 165.197C103.518 165.253 109.274 163.425 114.62 161.096C120.003 158.754 124.979 155.9 130.149 153.542C133.751 152.696 136.79 149.73 139.461 146.733C142.18 143.729 144.428 140.56 147.455 138.886C148.881 137.899 150.254 136.837 151.478 135.638C152.759 134.483 153.857 133.175 154.941 131.854C157.015 129.149 158.783 126.212 160.087 123.072C162.817 116.833 163.937 110.01 164.267 103.299C166.003 97.3518 166.029 91.0408 165.363 85.0058C164.687 78.9338 163.57 73.1158 162.963 67.0478C162.158 65.8068 161.668 64.4518 161.219 63.0378C161.002 62.3288 160.852 61.5858 160.672 60.8428C160.486 60.1018 160.322 59.3428 160.162 58.5708C159.865 57.0148 159.422 55.4808 158.957 53.9268C158.389 52.4288 157.781 50.9108 156.82 49.6048L156.474 50.0808C156.566 48.6808 155.421 47.8508 154.361 47.1568C153.297 46.4558 152.4 45.8228 152.99 44.5108L153.219 44.6458C153.504 42.8838 149.166 44.1698 149.918 42.6928L149.318 42.9218C148.287 41.9018 149.765 42.3458 149.238 41.3278C148.904 41.0538 148.269 41.9218 147.974 41.0298C148.876 40.1438 148.187 39.5448 147.542 38.9368C146.872 38.3488 146.228 37.7638 147.228 36.7548C147.792 37.3538 147.144 35.0618 148.851 36.0098C148.701 35.4248 146.843 33.6578 146.15 34.6768C145.089 35.4268 143.64 35.5278 143.966 37.2838L144.833 36.8488C144.507 37.8578 144.759 37.4478 144.378 38.0588C145.581 39.5448 144.802 40.6008 145.226 41.9928C145.238 41.9648 145.247 41.9378 145.296 41.9218C146.726 41.8878 147.058 43.2868 147.39 43.9378L147.161 44.4908C146.565 45.4958 150.118 44.8718 148.302 45.5558C150.966 48.2688 153.347 51.9488 155.316 55.6948C156.209 55.9048 156.685 58.6448 157.505 57.2158C157.05 58.0338 157.067 59.1888 157.206 60.2868C157.356 61.3798 157.727 62.3808 157.936 62.9238C157.786 62.9358 157.614 62.9498 157.606 62.7588C157.057 64.1748 157.717 64.6128 158.331 65.0848C158.954 65.5438 159.474 66.0578 158.62 67.4318C159.489 67.3248 159.673 68.2768 159.864 69.3268C160.04 70.3848 160.276 71.5188 161.423 71.8608C161.118 72.2048 160.794 72.3698 160.474 72.3498C161.316 76.0518 161.285 80.2688 161.449 83.4168C161.873 84.0628 162.07 84.8068 162.164 85.5858C162.246 86.3668 162.172 87.1838 162.144 87.9838C162.113 89.5888 161.966 91.1178 163.007 92.3518C162.743 93.3238 162.288 94.5758 162.025 95.9248C161.687 97.2678 161.533 98.7128 161.726 100.122L161.517 99.8218C161.173 102.879 160.419 106.605 161.076 109.027C158.922 109.362 158.863 110.709 157.851 111.759C158.007 112.884 157.55 114.361 157.113 115.995C156.568 117.586 156.015 119.328 155.654 120.91C154.617 120.922 154.836 123.422 153.541 122.905C152.603 127.363 150.123 131.842 146.732 135.605C143.351 139.385 139.089 142.438 134.832 144.517L134.879 144.36C134.381 145.658 134.27 147.876 133.74 149.364C133.568 149.339 133.451 149.147 133.676 149.001C133.022 149.605 132.164 149.87 131.319 150.126C130.452 150.352 129.59 150.561 128.917 151.126C128.813 150.927 128.813 150.927 128.94 150.597C128.409 151.288 127.549 151.498 126.67 151.718C125.795 151.947 124.943 152.262 124.33 153.161L124.072 152.89L123.201 153.871C123.033 153.457 122.777 152.834 123.42 152.683C120.102 154.269 116.682 155.684 113.176 156.975C109.67 158.259 106.053 159.384 102.326 160.172C98.6042 160.977 94.7862 161.51 90.9312 161.67C87.0782 161.798 83.1972 161.538 79.4022 160.834L80.0262 160.513L76.9462 160.744C77.0062 160.529 77.1672 160.448 77.3282 160.372C73.7782 158.893 69.6632 159.044 66.1892 157.582C66.2822 157.385 66.9502 157.178 66.5522 156.762C65.0712 156.834 64.1622 156.103 63.4122 155.514C62.6552 154.927 62.0092 154.568 60.8512 155.441C60.7822 155.282 60.9422 154.731 61.2812 154.657C57.6632 153.449 54.1582 151.731 50.8922 149.625C47.6472 147.484 44.6602 144.952 41.9722 142.202C38.8442 140.853 36.3942 138.353 34.1962 135.674C32.0272 132.949 30.0082 130.127 27.5032 127.661L27.9112 127.453C24.9402 124.107 22.9012 119.923 21.4452 115.559C19.9792 111.181 19.0802 106.635 18.1132 102.176C18.0052 101.231 17.8652 100.372 17.7052 99.5528C17.5592 98.7308 17.4202 97.9468 17.2812 97.1608C16.9492 95.5938 16.7542 94.0008 16.6032 92.0898L17.1702 91.9708C15.9912 88.8008 16.5182 85.3378 17.3012 82.0038C18.1192 78.6478 19.0032 75.4048 18.6492 71.8868L19.3032 72.5108C18.3172 71.2078 20.7072 68.7178 18.6222 68.5558L19.5372 67.5758C18.9142 64.9928 19.8962 63.0338 21.1252 61.1318C22.3522 59.2068 23.7772 57.3278 24.2802 54.4248L24.5482 54.9778C24.8442 53.4568 25.5032 51.8008 26.4212 51.0518C26.3972 51.2378 26.5602 51.2398 26.4972 51.6138C27.4652 50.8248 28.3222 49.9608 29.0222 48.9748C29.7052 47.9788 30.3632 46.9468 30.9592 45.8498C31.5352 44.7398 32.1672 43.6508 32.8112 42.5648C33.4352 41.4638 34.1832 40.4578 35.0032 39.5358L35.3232 40.5528C36.0152 37.9968 39.8342 35.6048 41.7942 33.1658L41.9332 33.6058L42.7372 32.1318L43.3282 32.7578C44.8522 31.4448 46.3162 30.1548 47.7492 28.8108C49.2432 27.5498 50.7092 26.2388 52.3942 25.1868Z" fill="black"/>
<path d="M91.3732 13.2438C91.3612 13.2358 91.3432 13.2358 91.3292 13.2178C91.2062 13.2948 91.2662 13.2848 91.3732 13.2438Z" fill="black"/>
<path d="M145.404 42.4708C145.328 42.3018 145.271 42.1538 145.228 41.9938C145.119 42.1358 145.333 42.3298 145.404 42.4708Z" fill="black"/>
</svg>
