<svg width="160" height="200" viewBox="0 0 160 200" fill="none" xmlns="http://www.w3.org/2000/svg">
<path d="M23.0023 69.9807L22.7393 70.0417L23.4673 70.1997L23.0023 69.9807Z" fill="black"/>
<path d="M24.6215 71.0228C24.7535 70.9928 24.9725 71.0067 25.1045 70.9757L23.0305 70.3647C21.8545 70.6377 25.4075 70.8428 24.6215 71.0228Z" fill="black"/>
<path d="M24.4111 71.2027C23.9261 71.4397 24.9011 71.5387 25.2311 71.5937C24.4751 71.5107 25.4631 71.1517 24.4111 71.2027Z" fill="black"/>
<path d="M24.8945 92.1047C24.8895 92.0827 24.8625 92.0527 24.8315 92.0307C24.8005 92.0677 24.8315 92.0917 24.8945 92.1047Z" fill="black"/>
<path d="M28.2051 97.5577L28.9821 97.6147C27.5981 96.5967 29.0061 95.4497 28.4011 94.3737L28.6741 94.4457C28.9771 91.7157 27.6781 89.1977 27.0861 86.4877C27.1681 86.5307 27.3981 86.5447 27.4881 86.5887C27.2171 86.4577 26.7201 86.3137 26.7871 86.1667C26.9601 86.1287 27.1481 86.2077 27.2261 86.2547C28.5111 85.6827 26.4111 84.5737 27.4021 84.2167C27.2651 84.0557 26.7291 83.9847 26.3221 84.0737C25.9941 81.9537 25.7481 79.6847 24.7401 77.5247C24.9161 77.4207 25.2661 77.4027 25.7091 77.4307C23.6241 75.5837 24.4551 73.6497 24.7931 71.7607C24.2441 71.6887 24.2121 71.9527 23.6431 71.7677C22.9571 72.3747 24.9851 72.8797 23.9891 73.4307L23.4611 73.3597C23.1211 73.7607 24.7941 73.4417 24.1121 73.8567C23.6691 74.0207 23.4381 73.8157 23.3991 73.8917C23.6161 74.7447 23.1391 75.6317 24.4241 76.4337C23.2761 76.6317 24.3851 77.3497 23.2871 77.6637C23.7401 77.8847 23.6241 78.1047 24.3851 78.1887C23.7781 81.1687 24.8891 84.2147 24.8051 87.2687C27.0261 88.6977 24.3761 90.4097 25.1211 92.1047C25.0431 92.1167 24.9591 92.1147 24.8931 92.1037C25.4421 92.6567 25.7001 93.4617 25.4261 94.1227L26.3641 94.6817C24.4341 98.6527 25.7901 102.711 24.9881 106.744C24.4341 111.328 22.8351 115.343 25.7601 119.806C25.5451 119.8 25.4251 119.836 25.3341 119.721C25.7821 121.009 24.9821 122.183 25.4471 123.396L25.2281 123.392C27.0581 126.402 24.9821 129.658 26.9571 132.559C26.7591 136.092 26.9571 140.086 27.5221 143.826L27.0831 143.817C28.0121 146.808 25.6791 149.7 26.3811 152.685C25.3781 155.755 28.9031 158.998 27.5661 162.094C25.4041 164.01 30.0391 166.526 27.7981 168.325C24.4211 172.022 26.5951 175.608 28.6181 179.304C27.4151 182.714 30.5051 186.118 28.0491 189.42C29.6231 190.984 26.1011 192.712 26.5561 194.453L27.1011 194.391C25.4471 195.016 29.4161 195.784 26.9571 196.174L26.8461 196.108C25.5951 196.439 29.7851 196.877 28.3021 197.078L28.9171 197.132C29.0951 197.532 28.2181 197.18 27.9721 197.488C28.0491 197.604 29.0951 197.532 28.7421 197.775C26.2201 197.828 29.2891 198.756 26.4551 198.784C26.4551 198.564 25.3561 199.127 24.7641 198.636C24.4731 198.776 24.6141 199.448 25.8171 199.387C27.0931 199.445 28.2061 199.706 29.1941 199.298L28.2641 199.216C29.1941 199.079 28.7291 199.112 29.4261 199.063C29.5491 198.53 30.9011 198.459 31.4611 198.077C31.4341 198.081 31.4081 198.084 31.3601 198.078C30.2461 197.817 30.9071 197.456 31.0661 197.249L31.5841 197.166C32.6681 197.04 29.4691 196.56 31.3261 196.722C30.8641 195.638 30.8871 194.396 30.8641 193.185C30.1591 193.015 30.9291 192.257 29.5671 192.522C31.1191 192.219 31.5121 191.318 31.4521 190.983C31.5981 190.996 31.7641 191.009 31.7061 191.062C33.7191 190.413 29.8431 190.292 32.3041 189.684C30.5661 189.589 32.8601 188.58 30.8161 188.235C31.2021 188.16 31.5501 188.134 31.8601 188.162C31.8991 187.067 32.5271 185.857 32.6051 184.931C31.0811 184.139 33.2951 183.014 31.1901 182.332C31.6361 181.768 32.5141 180.855 31.6691 180.067L31.9271 180.144C31.8041 179.255 31.6951 178.145 30.3701 177.535C32.3871 177.272 31.9831 176.889 32.6291 176.505C31.6941 175.911 31.9701 174.714 31.1201 173.809C32.0501 173.67 30.7251 173.062 32.0771 173.015C29.4701 170.479 30.3821 167.342 32.3521 164.634L32.4481 164.673C31.7071 164.321 30.0671 163.916 29.1101 163.559C29.2281 163.524 29.4521 163.528 29.4451 163.603C29.1941 163.108 30.5221 162.646 30.2741 162.152C30.4981 162.156 30.4981 162.156 30.7121 162.236C30.1101 161.772 31.7921 161.278 30.7461 160.73L31.1031 160.7L30.6021 160.351C31.0481 160.36 31.7201 160.373 31.5751 160.559C32.0111 156.312 29.6931 151.928 30.0281 147.568L30.4521 147.728L29.6931 146.882C29.9191 146.887 30.0281 146.927 30.1291 146.967C30.8881 145.89 29.6251 144.773 29.8171 143.723C30.0341 143.728 30.4661 143.887 30.7131 143.74C29.4941 142.964 32.2961 142.492 29.7661 142.103C29.8841 142.067 30.4541 142.042 30.6571 142.122C29.8181 139.96 29.8661 137.74 30.2761 135.562C27.9861 133.749 30.0591 131.721 28.2411 129.837L28.6971 129.846C27.0951 127.408 28.8061 124.82 28.4851 122.291C28.6701 121.241 28.1301 120.532 28.1001 119.478L28.6691 119.452C26.5021 117.677 30.6151 115.72 28.2311 113.867L29.0051 113.995C27.8051 113.708 29.4271 112.874 27.3741 112.984L27.9961 112.657C25.2821 111.398 29.2471 110.366 27.4871 108.824L27.9731 108.926C27.5961 108.516 27.2951 108.037 27.7431 107.734C27.8131 107.782 27.9571 107.759 28.0851 107.857C30.0151 106.573 27.8841 105.143 27.9571 103.788L28.8641 103.942C27.8001 103.287 28.7911 102.086 28.3031 101.224L28.7291 101.276L28.1271 100.84L28.9861 100.829C29.0471 99.7047 28.3051 98.6507 28.2051 97.5577Z" fill="black"/>
<path d="M27.2272 86.2537C27.2182 86.2567 27.2182 86.2617 27.2002 86.2657C27.2752 86.2987 27.2662 86.2827 27.2272 86.2537Z" fill="black"/>
<path d="M31.6384 197.939C31.5864 197.991 31.5344 198.034 31.4634 198.077C31.6384 198.066 31.6004 197.983 31.6384 197.939Z" fill="black"/>
<path d="M1.03927 35.4708L0.780273 35.5638L1.51427 35.7988L1.03927 35.4708Z" fill="black"/>
<path d="M2.70633 36.9967C2.83733 36.9487 3.05632 36.9647 3.18832 36.9157L1.08432 36.0477C-0.0776762 36.4837 3.48433 36.7227 2.70633 36.9967Z" fill="black"/>
<path d="M2.50446 37.2677C2.02946 37.6337 3.01046 37.7447 3.34246 37.8087C2.58446 37.7177 3.55446 37.1577 2.50446 37.2677Z" fill="black"/>
<path d="M13.2391 65.8417C13.2141 65.8207 13.1641 65.8047 13.1201 65.7987C13.1331 65.8627 13.1801 65.8707 13.2391 65.8417Z" fill="black"/>
<path d="M21.5082 68.0127L21.9103 67.3377C21.0213 67.6877 20.3832 67.2657 19.8052 66.8297C19.2302 66.3647 18.8053 65.7157 18.0343 65.5347L18.2833 65.3817C17.9343 65.0987 17.6262 64.7717 17.3012 64.4677C16.9742 64.1657 16.6363 63.8817 16.2843 63.6097C15.6103 63.0347 14.9522 62.4357 14.2232 61.8787C13.5432 61.2567 12.8642 60.6347 12.1782 60.0067C11.5322 59.3327 10.9112 58.6127 10.2992 57.8577C10.4012 57.8707 10.6132 57.7807 10.7232 57.7907C10.3922 57.7627 9.85025 57.8137 9.82525 57.5917C9.95625 57.4637 10.1712 57.4797 10.2682 57.5017C11.0802 56.2157 8.51625 55.7217 9.20325 54.8477C8.99725 54.6927 8.46625 54.8057 8.13725 55.0827C6.65625 52.3927 5.50125 49.3537 3.85725 46.4547C3.99525 46.2707 4.33425 46.1777 4.77725 46.1317C3.55025 45.0187 2.96125 43.6707 2.79825 42.2797C2.67425 40.8837 2.74825 39.4577 2.91425 38.0717C2.36225 37.9887 2.34325 38.3837 1.76525 38.1337C1.09425 39.0877 3.18325 39.6947 2.27725 40.5777L1.74025 40.5177C1.46025 41.1467 3.08025 40.5177 2.46125 41.1947C2.04325 41.4817 1.78525 41.2017 1.75625 41.3177C1.93425 41.9417 1.91025 42.5987 2.07325 43.2267C2.24425 43.8527 2.54725 44.4527 3.27525 44.9297C2.20225 45.4167 3.43325 46.2737 2.48025 46.9467C2.99925 47.1787 2.96025 47.5267 3.73125 47.4847C3.90225 49.7107 4.65725 51.8647 5.62525 53.9187C6.13325 54.9407 6.60125 55.9707 7.19925 56.9537C7.75925 57.9507 8.28525 58.9567 8.87325 59.9487C9.62425 60.1367 10.1133 60.4807 10.4633 60.9327C10.8523 61.3647 11.1093 61.9017 11.3393 62.4857C11.7503 63.6707 12.3043 64.9477 13.4083 65.6907C13.3633 65.7577 13.2992 65.8127 13.2402 65.8427C14.2362 66.0897 15.2853 66.7217 15.8493 67.6077C15.8493 67.6077 16.1673 67.5557 16.4873 67.5047C16.7993 67.4467 17.1123 67.3907 17.1123 67.3907C18.8123 69.9707 21.7902 71.6837 25.0272 72.1967C28.2902 72.7147 31.5933 72.0957 34.7053 71.1377C38.2043 69.8997 41.2412 67.9797 43.5162 65.4917C45.7722 63.0057 47.2952 59.9257 47.2792 56.3407C47.4702 56.4377 47.6023 56.4397 47.6123 56.6307C47.8413 55.6907 48.2232 54.8857 48.6262 54.0877C49.0332 53.2937 49.4272 52.4977 49.4432 51.5757L49.6493 51.6467C49.5303 50.4547 49.6833 49.3517 49.8133 48.2387C49.9663 47.1347 50.2853 46.0587 50.4553 44.9597C50.9003 42.7867 51.1372 40.5527 50.2792 38.4567C50.7582 33.5117 50.0962 27.7897 48.2812 22.8717L48.7102 22.7767C47.7552 20.8587 47.4812 18.8237 47.0462 16.7457C46.6392 14.6777 46.0342 12.5607 44.6162 10.8917C44.2832 9.79974 43.5342 8.91174 42.7662 8.07374C42.3402 7.68274 41.8702 7.32674 41.4042 6.97974C40.9332 6.63574 40.4702 6.29574 39.9412 6.02674C39.4302 5.74174 38.9272 5.46274 38.4472 5.17474C37.9632 4.88974 37.4352 4.67174 36.9732 4.38574C36.0642 3.77874 35.1212 3.31274 34.3482 2.45374C33.9772 1.69574 33.2943 1.31174 32.5523 1.11074C31.7903 0.949735 30.9212 1.11074 30.1412 1.21874C29.3422 1.39174 28.5923 1.68774 27.9143 1.70074C27.2283 1.76874 26.6023 1.74174 25.9163 1.21774C25.7443 1.12674 25.5693 1.03674 25.3943 0.960741C25.2213 0.904741 25.0473 0.85574 24.8713 0.81074C24.5183 0.72074 24.1593 0.653737 23.7983 0.607737C23.4403 0.571737 23.0643 0.511736 22.7163 0.552736C22.3683 0.590736 22.0223 0.648735 21.6793 0.722735C20.9903 0.866735 20.3093 1.07074 19.7263 1.44274C19.1363 1.79774 18.5282 2.14374 18.0382 2.62974C15.9702 4.48474 14.9332 7.19974 14.2302 9.74074C13.3382 10.5047 12.5993 11.4217 12.1293 12.4867C11.8803 13.0117 11.6352 13.5337 11.4412 14.0807L10.9253 15.7387C10.2343 17.9397 9.69625 20.0547 7.87625 21.8967C8.36025 23.1407 7.66325 24.0927 6.77425 25.1147C5.96125 26.1387 5.00025 27.2467 5.04025 28.5007L5.58925 28.4827C3.85925 29.1867 7.70425 30.6507 5.20425 30.9597L5.10225 30.8587C3.81325 31.2417 7.91825 32.1337 6.44525 32.3047L7.05725 32.4127C7.21725 32.9667 6.35725 32.4377 6.09825 32.8507C6.16825 33.0157 7.21725 32.9637 6.85325 33.2787C4.33125 33.2607 7.35725 34.6317 4.52225 34.6157C4.53325 34.3007 3.40925 35.0957 2.83825 34.3727C2.54025 34.5727 2.65025 35.5617 3.85625 35.4707C5.13525 35.5517 6.24225 35.9097 7.23725 35.3517L6.31125 35.2367C7.24725 35.0537 6.78125 35.0967 7.48025 35.0357C7.62725 34.3187 8.98125 34.2537 9.55725 33.7787C9.53025 33.7827 9.50425 33.7867 9.45625 33.7777C8.35325 33.3987 9.02925 32.9457 9.19625 32.6887L9.71725 32.6097C10.7912 32.5187 7.64724 31.6887 9.48825 32.0207C9.18024 30.5947 9.29226 28.9607 9.57426 27.4147C8.91326 27.0817 9.83325 26.2317 8.43625 26.3327C10.0043 26.1987 10.6453 25.1677 10.6903 24.7397C10.8293 24.7877 10.9862 24.8417 10.9152 24.8937C13.0582 24.5677 9.33025 23.4867 11.8883 23.3407C10.2363 22.7557 12.8243 22.1827 10.9932 21.1647C11.3892 21.1877 11.7312 21.2647 12.0162 21.3917C12.1252 21.0657 12.2723 20.7417 12.4383 20.4227C12.6273 20.1177 12.8343 19.8187 13.0393 19.5297C13.4563 18.9547 13.8273 18.3947 14.1013 17.9027C13.6123 17.1647 14.0283 16.6917 14.3603 16.2227C14.6793 15.7387 14.9702 15.2967 14.2682 14.4217C15.0202 14.0177 16.2743 13.5347 16.1453 12.3197L16.3043 12.5427C16.5703 12.0857 16.8262 11.5227 17.0292 10.9857C17.2242 10.4407 17.2833 9.81773 17.0373 9.08373C18.7273 10.1757 18.7323 9.60774 19.5053 9.77974C19.4143 9.22774 19.6623 8.74474 19.9653 8.25574C20.2992 7.81974 20.6722 7.35674 20.8422 6.68974C21.4672 7.33574 21.3503 5.91973 22.0953 7.04173C22.2143 6.59873 22.3893 6.18274 22.6083 5.79674C22.8323 5.42674 23.1242 5.16574 23.4342 4.89374C24.0462 4.30574 24.8442 4.11674 25.6372 3.98374C27.2622 3.89174 28.9153 4.60774 29.9123 5.93674L29.8533 6.02074C30.3213 5.39474 31.2162 3.84074 31.9562 3.13674C31.9582 3.26474 31.8792 3.47374 31.7962 3.43274C32.4692 3.43874 32.4753 4.87073 33.0913 4.84773C32.9893 5.04573 32.9883 5.04374 32.8123 5.20374C33.5772 4.92874 33.2232 6.68974 34.2952 6.08674L34.1332 6.40474C34.1332 6.40474 34.2862 6.34774 34.4412 6.29074C34.5962 6.23474 34.7463 6.20174 34.7463 6.20174C34.4853 6.56874 34.1032 7.09873 34.0122 6.87573C35.8202 8.33673 37.8832 9.80674 39.8402 11.7477C41.7802 13.6647 43.5803 16.0287 44.3953 18.7857L43.9233 18.7417L45.0353 19.5127C44.8203 19.5807 44.6982 19.5677 44.5843 19.5527C44.4723 20.3367 44.7682 20.9847 45.1762 21.6087C45.3752 21.9227 45.5923 22.2327 45.7743 22.5517C45.9403 22.8747 46.0552 23.2117 46.0902 23.5617C45.8772 23.6067 45.4102 23.5087 45.2152 23.7547C46.6332 24.4807 44.0362 25.6547 46.6262 25.6447C46.5192 25.7147 45.9652 25.8567 45.7492 25.7937C46.0672 26.4497 46.3353 27.1297 46.5583 27.8247C46.6673 28.1727 46.7732 28.5217 46.8552 28.8777C46.9202 29.2347 46.9752 29.5947 47.0212 29.9557C47.1112 30.6787 47.1672 31.4057 47.1842 32.1327C47.1582 32.8627 47.1013 33.5927 47.0223 34.3147C48.2453 35.4927 48.2032 36.8167 48.1692 38.1207C48.1402 39.4367 47.8753 40.7177 48.6773 42.1137L48.2252 42.0447C48.7612 43.7857 48.5123 45.5417 47.8883 47.1827C47.3483 48.8547 46.4732 50.4057 46.0792 52.0837C45.3792 53.3407 45.5923 54.4677 44.9573 55.7787L44.4282 55.5677C44.6502 56.3367 44.5413 56.9937 44.1883 57.5237C43.8313 58.0527 43.3022 58.4937 42.7882 58.9247C42.2952 59.3727 41.7113 59.7377 41.3493 60.2467C40.9683 60.7447 40.8022 61.3867 40.8372 62.2217L40.3453 61.6067C41.0233 62.6597 39.0643 62.4607 40.6993 63.7047L39.9443 63.6337C40.3593 65.2007 39.4642 65.5617 38.5792 65.8267C37.6412 66.0787 36.6323 66.1077 36.2673 67.4767L36.1173 66.9967C35.8523 67.5977 35.3973 68.1957 34.8193 68.0157C34.8423 67.9207 34.7492 67.8107 34.8012 67.6317C33.6072 67.2707 32.8602 67.5397 32.1262 68.1617C31.7702 68.4967 31.3663 68.7247 30.9613 69.0077C30.5493 69.2537 30.1203 69.5337 29.6573 69.5517L29.7243 68.6387C29.3893 69.1957 28.7583 69.2637 28.1143 69.2617C27.7913 69.2827 27.4622 69.2157 27.1432 69.1727C26.8232 69.1387 26.5143 69.1437 26.2163 69.2427L26.3292 68.8247C26.3292 68.8247 26.1713 68.9637 26.0133 69.1007C25.8483 69.2397 25.6842 69.3767 25.6842 69.3767L25.7942 68.5247C25.1062 68.3757 24.4123 68.3467 23.6703 68.3797C22.9523 68.3317 22.2142 68.2337 21.5082 68.0127Z" fill="black"/>
<path d="M10.2685 57.4998C10.2635 57.5088 10.2665 57.5148 10.2515 57.5278C10.3385 57.5358 10.3215 57.5198 10.2685 57.4998Z" fill="black"/>
<path d="M9.73714 33.6077C9.68414 33.6717 9.63013 33.7247 9.55713 33.7787C9.73313 33.7707 9.69814 33.6627 9.73714 33.6077Z" fill="black"/>
<path d="M153.449 103.308L153.263 103.068L152.984 103.841L153.449 103.308Z" fill="black"/>
<path d="M151.118 105.243C151.208 105.364 151.196 105.587 151.288 105.71C151.288 105.71 151.603 105.148 151.919 104.588C152.224 104.026 152.528 103.463 152.528 103.463C151.727 102.389 151.663 105.966 151.118 105.243Z" fill="black"/>
<path d="M150.651 105.08C150.018 104.656 149.874 105.656 149.764 105.995C149.898 105.226 150.888 106.113 150.651 105.08Z" fill="black"/>
<path d="M133.069 75.1827C133.066 75.2397 133.082 75.3187 133.103 75.3787C133.148 75.2887 133.126 75.2237 133.069 75.1827Z" fill="black"/>
<path d="M132.062 60.7497L131.322 60.4697C132.246 63.3067 130.287 65.9887 130.476 68.8467L130.235 68.6177C128.907 75.5747 129.119 82.2027 128.881 89.2297C128.814 89.1107 128.591 89.0437 128.516 88.9207C128.741 89.2907 129.186 89.7277 129.072 90.0947C128.888 90.1697 128.728 89.9427 128.666 89.8117C127.203 91.1157 128.922 94.2247 127.82 95.0167C127.903 95.4467 128.413 95.6947 128.845 95.5147C128.75 96.8817 128.654 98.2737 128.557 99.6787C128.49 100.459 128.508 100.895 128.601 101.388C128.714 101.857 128.918 102.266 129.2 102.635C130.352 104.125 132.941 104.859 135.413 104.934C135.604 105.157 135.573 105.508 135.407 105.925C137.774 105.401 139.991 105.291 142.299 105.363C144.596 105.422 146.957 105.632 149.312 105.594C149.442 105.032 148.791 105.056 149.197 104.449C147.686 103.891 146.555 105.985 145.168 105.018L145.326 104.486C144.354 104.171 145.152 105.826 144.134 105.154C143.736 104.715 144.231 104.48 144.046 104.442C141.979 104.668 139.969 104.075 137.958 105.086C137.673 103.904 135.86 104.694 135.471 103.446C134.896 103.774 134.499 103.519 134.092 104.191C132.631 103.566 131.335 102.8 130.784 102.139C130.503 101.81 130.372 101.574 130.277 101.243C130.228 101.077 130.209 100.875 130.206 100.637C130.196 100.605 130.206 100.479 130.218 100.351L130.248 99.9867L130.307 99.2567C130.614 95.3607 130.859 91.4277 131.402 87.5277C129.633 83.5627 132.932 79.5657 132.847 75.1427C132.929 75.1247 133.011 75.1427 133.071 75.1817C132.741 73.6917 132.796 71.5947 133.319 69.9547L132.607 68.3797C134.427 63.4867 135.436 58.4227 136.404 53.3287C137.463 48.2627 138.297 43.1087 139.967 38.1987C140.391 36.7937 140.808 35.4087 141.219 34.0417C141.694 32.6997 142.162 31.3747 142.627 30.0627C143.082 28.7507 143.534 27.4517 143.983 26.1587C144.477 24.8927 144.953 23.6317 145.4 22.3637C145.853 21.0977 146.242 19.8047 146.72 18.5737C146.946 17.9487 147.162 17.3197 147.368 16.6837L147.672 15.7267L147.744 15.4877L147.763 15.3817L147.8 15.1627C147.902 14.5277 148.002 13.8897 148.105 13.2447C148.27 12.4067 148.514 11.3187 148.951 9.82872C148.965 10.2717 149 10.4767 148.918 10.7877C149.161 10.2057 149.435 9.75072 149.69 9.40071C149.981 9.07771 150.255 8.85372 150.538 8.68772C150.689 8.61472 150.837 8.54472 150.983 8.46272C151.152 8.41672 151.306 8.32472 151.498 8.26972C151.574 8.25772 151.731 8.15472 151.756 8.22672C151.761 8.31272 151.769 8.39071 151.78 8.45871C151.803 8.59471 151.842 8.69272 151.9 8.75272L151.681 9.33072C152.139 9.10172 152.352 10.0287 152.446 11.1997C152.54 12.3917 152.513 13.8217 152.492 15.1567C152.487 16.0247 152.482 16.8917 152.478 17.7537C152.485 18.7507 152.508 19.7417 152.564 20.7267C152.676 22.6937 152.917 24.6267 153.411 26.5037C153.213 35.6427 153.411 45.9757 153.976 55.6487L153.538 55.6267C154.466 63.3667 152.133 70.8467 152.835 78.5697C151.832 86.5107 155.357 94.9017 154.02 102.912C151.858 107.868 156.493 114.377 154.252 119.033C150.875 128.595 153.049 137.874 155.072 147.434C153.869 156.255 156.959 165.062 154.503 173.604C156.077 177.652 152.555 182.122 153.01 186.625L153.555 186.464C151.901 188.081 155.87 190.068 153.411 191.075L153.3 190.905C152.049 191.761 156.239 192.893 154.756 193.414L155.371 193.553C155.549 194.589 154.673 193.675 154.427 194.475C154.503 194.776 155.549 194.589 155.196 195.217C152.674 195.353 155.743 197.755 152.91 197.827C152.91 197.26 151.81 198.715 151.218 197.442C150.928 197.804 151.068 199.542 152.271 199.385C153.547 199.533 154.661 200.211 155.648 199.156L154.718 198.943C155.648 198.588 155.183 198.673 155.88 198.546C156.003 197.167 157.355 196.983 157.915 195.993C157.888 196.003 157.862 196.013 157.814 195.998C156.7 195.322 157.361 194.387 157.52 193.852L158.038 193.637C159.122 193.312 155.923 192.069 157.78 192.488C157.318 189.684 157.341 186.469 157.318 183.337C156.613 182.899 157.383 180.939 156.021 181.623C157.573 180.839 157.966 178.507 157.906 177.642C158.052 177.674 158.218 177.711 158.16 177.846C160.173 176.167 156.297 175.856 158.758 174.282C157.02 174.036 159.314 171.424 157.27 170.533C157.656 170.339 158.004 170.273 158.314 170.345C158.353 167.511 158.981 164.381 159.059 161.984C157.535 159.936 159.749 157.024 157.644 155.262C158.09 153.802 158.968 151.441 158.123 149.403L158.381 149.601C158.258 147.302 158.149 144.43 156.824 142.853C158.841 142.173 158.437 141.179 159.083 140.186C158.148 138.651 158.424 135.552 157.574 133.21C158.504 132.851 157.179 131.277 158.531 131.157C155.924 124.595 156.836 116.481 158.806 109.474L158.902 109.576C158.161 108.667 156.521 107.619 155.564 106.693C155.682 106.602 155.906 106.613 155.899 106.807C155.648 105.527 156.976 104.33 156.728 103.052C156.952 103.062 156.952 103.062 157.166 103.269C156.564 102.07 158.246 100.79 157.2 99.3737L157.557 99.2947L157.056 98.3947C157.502 98.4157 158.174 98.4517 158.029 98.9327C158.465 87.9457 156.147 76.6037 156.482 65.3237L156.906 65.7377L156.147 63.5497C156.373 63.5627 156.482 63.6657 156.583 63.7707C157.342 60.9847 156.079 58.0937 156.271 55.3777C156.488 55.3907 156.92 55.8017 157.167 55.4217C155.948 53.4117 158.75 52.1927 156.221 51.1867C156.338 51.0927 156.908 51.0297 157.111 51.2337C156.272 45.6417 156.32 39.8997 156.73 34.2647C154.44 29.5737 156.513 24.3277 154.695 19.4537L155.151 19.4777C154.357 16.3327 154.362 13.0467 154.45 9.61071C154.489 7.88471 154.529 6.08972 154.52 4.28972L154.477 1.60971L154.432 0.304714C154.517 -0.0192855 154.174 0.15272 154.001 0.19772C153.79 0.25272 153.595 0.334715 153.414 0.441715C151.039 1.37972 149.867 3.72872 148.29 6.04572L148.17 5.28972C147.59 7.15472 147.016 8.30172 146.437 9.39272C145.873 10.4787 145.165 11.4307 144.352 12.5717C143.541 13.8127 142.948 14.8317 142.462 15.9837C141.995 17.1297 141.698 18.3387 141.909 19.6847L141.283 19.1127C142.18 20.2167 139.962 21.7537 141.999 22.1327L141.142 22.7417C141.53 23.7257 141.536 24.5357 141.33 25.2747C141.148 26.0207 140.77 26.7027 140.349 27.3967C139.509 28.7837 138.523 30.2517 138.831 32.3987L138.432 32.0217C138.49 33.1367 138.511 34.4157 137.891 35.0687C137.852 34.9317 137.7 34.9527 137.634 34.6757C136.31 36.0567 135.945 37.7897 135.802 39.5887C135.652 41.3887 135.735 43.2527 135.367 44.9667L134.56 44.3847C135.259 46.2727 133.662 49.1167 133.689 51.4017L133.299 51.1857L133.661 52.4087L132.811 52.2727C132.151 55.1107 132.475 57.9487 132.062 60.7497Z" fill="black"/>
<path d="M128.665 89.8117C128.674 89.8047 128.676 89.7917 128.695 89.7847C128.632 89.6887 128.636 89.7317 128.665 89.8117Z" fill="black"/>
<path d="M158.087 195.64C158.035 195.774 157.983 195.884 157.912 195.995C158.087 195.969 158.049 195.754 158.087 195.64Z" fill="black"/>
<path d="M86.0652 0.96167L85.8022 1.05566L86.5302 1.29867L86.0652 0.96167Z" fill="black"/>
<path d="M87.6835 2.55966C87.8155 2.51266 88.0345 2.53666 88.1675 2.48866L86.0925 1.55066C84.9165 1.96966 88.4695 2.28366 87.6835 2.55966Z" fill="black"/>
<path d="M87.4731 2.83667C86.9881 3.19967 87.9631 3.35067 88.2931 3.43667C87.5391 3.30967 88.5261 2.75667 87.4731 2.83667Z" fill="black"/>
<path d="M87.956 34.8847C87.951 34.8517 87.924 34.8067 87.894 34.7727C87.863 34.8287 87.894 34.8657 87.956 34.8847Z" fill="black"/>
<path d="M91.2671 43.2467L92.0441 43.3337C90.6601 41.7737 92.0681 40.0137 91.4631 38.3637L91.7361 38.4747C92.0391 34.2877 90.7401 30.4267 90.1491 26.2727C90.2311 26.3367 90.4601 26.3597 90.5501 26.4257C90.2791 26.2257 89.7821 26.0037 89.8491 25.7787C90.0221 25.7197 90.2091 25.8417 90.2881 25.9147C91.5731 25.0367 89.4731 23.3377 90.4641 22.7897C90.3271 22.5417 89.7911 22.4337 89.3841 22.5707C89.0561 19.3187 88.8101 15.8407 87.8021 12.5297C87.9781 12.3697 88.3281 12.3407 88.7711 12.3847C86.6861 9.55369 87.5161 6.58669 87.8551 3.69169C87.3061 3.58069 87.2741 3.98669 86.7051 3.70169C86.0201 4.63369 88.0471 5.40669 87.0511 6.25169L86.5231 6.14369C86.1831 6.75769 87.8561 6.26869 87.1741 6.90569C86.7321 7.15769 86.5001 6.84369 86.4611 6.96069C86.6781 8.26669 86.2011 9.62869 87.4861 10.8577C86.3381 11.1617 87.4471 12.2607 86.3491 12.7437C86.8021 13.0817 86.6861 13.4217 87.4471 13.5497C86.8411 18.1207 87.9511 22.7907 87.8671 27.4727C90.0871 29.6637 87.4381 32.2877 88.1831 34.8887C88.1041 34.9067 88.0211 34.9037 87.9551 34.8857C88.5041 35.7337 88.7621 36.9697 88.4881 37.9817L89.4261 38.8387C87.4961 44.9277 88.8521 51.1507 88.0501 57.3347C87.4961 64.3617 85.8971 70.5197 88.8221 77.3627C88.6071 77.3537 88.4871 77.4097 88.3971 77.2327C88.8441 79.2087 88.0441 81.0067 88.5091 82.8677L88.2901 82.8617C90.1201 87.4767 88.0441 92.4687 90.0191 96.9187C89.8211 102.336 90.0191 108.46 90.5841 114.193L90.1461 114.179C91.0741 118.767 88.7411 123.2 89.4431 127.778C88.4401 132.485 91.9651 137.459 90.6281 142.206C88.4661 145.144 93.1011 149.002 90.8601 151.761C87.4831 157.43 89.6571 162.929 91.6801 168.596C90.4771 173.824 93.5671 179.043 91.1111 184.107C92.6851 186.505 89.1631 189.156 89.6181 191.825L90.1631 191.729C88.5091 192.688 92.4781 193.865 90.0191 194.462L89.9081 194.361C88.6571 194.869 92.8471 195.54 91.3641 195.847L91.9791 195.93C92.1571 196.544 91.2811 196.002 91.0351 196.476C91.1111 196.655 92.1571 196.544 91.8041 196.916C89.2821 196.996 92.3511 198.42 89.5181 198.463C89.5181 198.127 88.4181 198.989 87.8261 198.234C87.5361 198.449 87.6761 199.479 88.8791 199.386C90.1551 199.474 91.2691 199.876 92.2561 199.25L91.3261 199.124C92.2561 198.914 91.7911 198.964 92.4881 198.889C92.6111 198.072 93.9631 197.962 94.5231 197.376C94.4961 197.382 94.4701 197.388 94.4221 197.378C93.3081 196.978 93.9691 196.424 94.1281 196.107L94.6461 195.98C95.7301 195.787 92.5311 195.049 94.3881 195.298C93.9261 193.636 93.9491 191.731 93.9261 189.873C93.2211 189.613 93.9911 188.452 92.6291 188.857C94.1811 188.392 94.5741 187.01 94.5141 186.498C94.6601 186.517 94.8261 186.539 94.7681 186.619C96.7811 185.624 92.9051 185.439 95.3661 184.506C93.6281 184.36 95.9221 182.812 93.8781 182.284C94.2641 182.169 94.6121 182.13 94.9221 182.172C94.9611 180.493 95.5891 178.638 95.6671 177.217C94.1431 176.002 96.3571 174.277 94.2521 173.233C94.6981 172.368 95.5761 170.968 94.7311 169.76L94.9891 169.877C94.8661 168.515 94.7571 166.813 93.4321 165.878C95.4491 165.475 95.0451 164.886 95.6911 164.297C94.7561 163.387 95.0321 161.55 94.1821 160.162C95.1121 159.949 93.7871 159.016 95.1391 158.945C92.5321 155.055 93.4441 150.247 95.4141 146.093L95.5101 146.154C94.7691 145.615 93.1291 144.994 92.1721 144.445C92.2901 144.391 92.5141 144.397 92.5071 144.512C92.2561 143.754 93.5841 143.044 93.3361 142.286C93.5601 142.293 93.5601 142.293 93.7741 142.415C93.1721 141.705 94.8541 140.946 93.8081 140.106L94.1651 140.059L93.6641 139.526C94.1101 139.539 94.7821 139.559 94.6371 139.844C95.0731 133.332 92.7551 126.61 93.0901 119.924L93.5141 120.169L92.7551 118.872C92.9811 118.88 93.0901 118.941 93.1911 119.003C93.9501 117.352 92.6871 115.638 92.8791 114.028C93.0961 114.036 93.5281 114.279 93.7751 114.054C92.5561 112.863 95.3581 112.14 92.8291 111.543C92.9461 111.487 93.5161 111.45 93.7191 111.571C92.8801 108.257 92.9281 104.852 93.3381 101.513C91.0481 98.7317 93.1211 95.6227 91.3031 92.7347L91.7591 92.7497C90.1571 89.0097 91.8681 85.0417 91.5471 81.1657C91.7321 79.5557 91.1921 78.4687 91.1621 76.8507L91.7311 76.8107C89.5641 74.0877 93.6771 71.0877 91.2931 68.2477L92.0671 68.4437C90.8671 68.0037 92.4891 66.7247 90.4361 66.8927L91.0581 66.3917C88.3441 64.4617 92.3091 62.8787 90.5491 60.5147L91.0361 60.6697C90.6581 60.0407 90.3571 59.3077 90.8051 58.8417C90.8751 58.9147 91.0191 58.8807 91.1471 59.0297C93.0771 57.0597 90.9461 54.8687 91.0191 52.7907L91.9261 53.0257C90.8621 52.0217 91.8531 50.1787 91.3651 48.8597L91.7911 48.9397L91.1891 48.2717L92.0481 48.2537C92.1101 46.5397 91.3681 44.9237 91.2671 43.2467Z" fill="black"/>
<path d="M90.2892 25.9147C90.2802 25.9187 90.2802 25.9267 90.2622 25.9327C90.3372 25.9847 90.3292 25.9587 90.2892 25.9147Z" fill="black"/>
<path d="M94.7014 197.166C94.6494 197.245 94.5974 197.311 94.5264 197.377C94.7014 197.361 94.6634 197.234 94.7014 197.166Z" fill="black"/>
<path d="M65.657 0.96167L65.394 1.03567L66.122 1.22967L65.657 0.96167Z" fill="black"/>
<path d="M67.2753 2.23171C67.4073 2.19371 67.6263 2.21171 67.7593 2.17371L65.6843 1.42871C64.5083 1.76171 68.0613 2.01171 67.2753 2.23171Z" fill="black"/>
<path d="M67.0649 2.44972C66.5799 2.73872 67.5549 2.85772 67.8849 2.92672C67.1299 2.82472 68.1179 2.38772 67.0649 2.44972Z" fill="black"/>
<path d="M67.5478 27.8937C67.5428 27.8677 67.5158 27.8317 67.4858 27.8047C67.4548 27.8497 67.4858 27.8787 67.5478 27.8937Z" fill="black"/>
<path d="M70.8589 34.5317L71.6359 34.6007C70.2519 33.3627 71.6599 31.9647 71.0549 30.6557L71.3279 30.7437C71.6309 27.4197 70.3319 24.3537 69.7409 21.0567C69.8229 21.1077 70.0519 21.1247 70.1419 21.1777C69.8709 21.0187 69.3739 20.8417 69.4409 20.6637C69.6139 20.6167 69.8009 20.7137 69.8799 20.7707C71.1649 20.0737 69.0649 18.7247 70.0559 18.2897C69.9189 18.0937 69.3829 18.0077 68.9759 18.1167C68.6479 15.5347 68.4019 12.7727 67.3939 10.1437C67.5699 10.0177 67.9199 9.9947 68.3629 10.0297C66.2779 7.7827 67.1079 5.4267 67.4469 3.1277C66.8979 3.0397 66.8659 3.3627 66.2969 3.1367C65.6119 3.8747 67.6389 4.4907 66.6429 5.1597L66.1149 5.0737C65.7749 5.5617 67.4479 5.1737 66.7659 5.6787C66.3239 5.8777 66.0919 5.6287 66.0529 5.72169C66.2699 6.75869 65.7929 7.8397 67.0779 8.8167C65.9299 9.0577 67.0389 9.9307 65.9409 10.3137C66.3939 10.5817 66.2779 10.8507 67.0389 10.9537C66.4329 14.5817 67.5429 18.2897 67.4589 22.0077C69.6789 23.7467 67.0299 25.8297 67.7749 27.8957C67.6959 27.9097 67.6129 27.9077 67.5469 27.8927C68.0959 28.5667 68.3539 29.5467 68.0799 30.3507L69.0179 31.0317C67.0879 35.8657 68.4439 40.8057 67.6419 45.7157C67.3669 48.7367 67.2569 51.7777 68.0289 54.6647C68.7899 57.5137 70.4769 60.2897 73.4989 61.7917C73.3229 61.9167 73.2599 62.0277 73.0879 61.9607C73.8389 62.4967 74.2489 63.2247 74.8109 63.8587C75.0779 64.1827 75.3399 64.5117 75.6439 64.8007C75.9689 65.0707 76.3229 65.3097 76.7229 65.4827L76.5849 65.6517C78.8099 66.2097 80.6079 67.2067 82.7089 67.7727C83.2339 67.8817 83.7549 68.0317 84.2869 68.0787C84.8199 68.1107 85.3539 68.1227 85.8769 68.0987C86.8069 67.9887 87.7139 67.7457 88.5979 67.2527C90.7479 67.3517 93.0389 67.3517 95.3619 67.2567C95.9429 67.2317 96.5149 67.2167 97.1399 67.1237L98.0509 67.0027C98.3509 66.9457 98.6439 66.8467 98.9369 66.7687C99.2279 66.6807 99.5229 66.6097 99.8039 66.5037L100.625 66.1337C101.179 65.9127 101.668 65.5727 102.154 65.2597L102.345 65.6557C103.794 64.3747 105.382 63.5577 106.962 62.4267C108.486 61.2957 109.94 59.8707 110.526 57.9947C111.857 56.4267 111.987 54.2067 111.877 52.1777C111.714 50.1017 111.442 48.2267 112.122 46.3607C114.325 44.0257 109.66 40.9647 111.91 38.7737C115.287 34.2737 113.113 29.9077 111.09 25.4087C112.293 21.2587 109.203 17.1147 111.659 13.0957C110.085 11.1907 113.607 9.0867 113.152 6.9677L112.607 7.04269C114.261 6.28169 110.292 5.3477 112.751 4.8727L112.862 4.9527C114.113 4.5507 109.923 4.0167 111.406 3.7727L110.791 3.70769C110.613 3.22069 111.489 3.6497 111.735 3.2727C111.659 3.1317 110.613 3.2197 110.966 2.9237C113.488 2.8597 110.419 1.72969 113.252 1.69469C113.252 1.96169 114.352 1.27669 114.944 1.87569C115.234 1.70569 115.094 0.8887 113.891 0.9617C112.615 0.8917 111.501 0.572695 110.514 1.06869L111.444 1.1687C110.514 1.3367 110.979 1.2967 110.282 1.3567C110.159 2.0047 108.807 2.0927 108.247 2.5577C108.274 2.5537 108.3 2.54769 108.348 2.55569C109.462 2.87369 108.801 3.3137 108.642 3.5657L108.124 3.66769C107.04 3.81969 110.239 4.40569 108.382 4.20869C108.844 5.52669 108.821 7.04069 108.844 8.51469C109.549 8.72069 108.779 9.6437 110.141 9.3217C108.589 9.6907 108.196 10.7877 108.256 11.1957C108.11 11.1797 107.944 11.1627 108.002 11.0987C105.989 11.8887 109.865 12.0357 107.404 12.7757C109.142 12.8917 106.848 14.1217 108.892 14.5417C108.506 14.6327 108.158 14.6627 107.848 14.6297C107.809 15.9637 107.181 17.4367 107.103 18.5647C108.627 19.5287 106.413 20.8987 108.518 21.7277C108.072 22.4147 107.194 23.5257 108.039 24.4847L107.781 24.3917C107.904 25.4737 108.013 26.8247 109.338 27.5667C107.321 27.8867 107.725 28.3537 107.079 28.8217C108.014 29.5447 107.738 31.0027 108.588 32.1037C107.658 32.2727 108.983 33.0137 107.631 33.0707C110.238 36.1587 109.326 39.9757 107.356 43.2737L107.26 43.2257C108.001 43.6537 109.641 44.1467 110.598 44.5807C110.48 44.6237 110.256 44.6187 110.263 44.5277C110.507 45.1127 109.201 45.7317 109.416 46.2507C109.192 46.2427 109.192 46.2417 108.982 46.1517C109.559 46.6847 107.869 47.1317 108.881 47.7807L108.522 47.7847L108.976 48.2007C108.534 48.1477 107.867 48.0697 108.034 47.8917C107.631 50.0677 107.605 52.3137 107.168 54.6237C106.749 56.9007 105.843 59.2607 104.08 60.7667L103.897 60.3507C103.897 60.3507 103.876 60.6397 103.854 60.9297C103.829 61.2217 103.793 61.5227 103.793 61.5227C103.647 61.3517 103.606 61.2447 103.567 61.1377C102.882 61.1957 102.57 61.6557 102.223 62.1247C101.872 62.5657 101.548 63.1507 101.005 63.2697C100.914 63.0727 100.855 62.6227 100.617 62.4627C100.552 63.1597 100.104 62.9787 99.7939 62.8267C99.4739 62.6877 99.2979 62.6757 99.5029 63.9427C99.4319 63.8427 99.2389 63.3067 99.2459 63.0887C98.8459 63.4927 98.3589 63.6777 97.8649 63.9117C97.6159 64.0247 97.3509 64.0467 97.0889 64.1057C96.8049 64.1477 96.6019 64.2117 96.2439 64.2147C94.9079 64.2557 93.5699 64.1417 92.2449 63.9367C90.0499 66.2087 87.5389 64.1947 85.3059 65.9317L85.3399 65.4767C83.9169 66.2607 82.3329 65.7867 81.0669 65.0277C79.7479 64.2737 78.7939 63.0857 77.5929 62.2627C77.2329 61.7587 76.7909 61.4897 76.3679 61.1727C75.9609 60.8477 75.4949 60.5487 75.1109 60.0507L75.5509 59.6887C74.8279 59.5817 74.3759 59.2097 74.1179 58.7207C73.8839 58.2137 73.8149 57.6087 73.7499 57.0257C73.7239 56.4187 73.7029 55.8317 73.4929 55.3347C73.2999 54.8277 72.9599 54.3907 72.2019 54.0637L72.9859 53.9567C71.7079 54.0237 73.0079 52.5967 71.0719 53.2967L71.5659 52.7447C70.0299 52.3647 70.1969 51.5357 70.4849 50.7317C70.7399 49.9137 71.2449 49.1057 70.2509 48.2567L70.7499 48.3357C70.2979 47.8837 70.0099 47.2997 70.4339 46.9127C70.5059 46.9677 70.6479 46.9347 70.7809 47.0467C72.6209 45.5167 70.5519 43.7557 70.6059 42.1117L71.5129 42.2987C70.4489 41.5017 71.4399 40.0387 70.9519 38.9907L71.3779 39.0537L70.7759 38.5237L71.6349 38.5097C71.7019 37.1477 70.9589 35.8627 70.8589 34.5317Z" fill="black"/>
<path d="M69.881 20.7727C69.872 20.7767 69.872 20.7827 69.854 20.7867C69.929 20.8267 69.92 20.8077 69.881 20.7727Z" fill="black"/>
<path d="M108.076 2.72568C108.128 2.66268 108.18 2.61068 108.251 2.55768C108.076 2.57068 108.114 2.67068 108.076 2.72568Z" fill="black"/>
</svg>
