<svg width="130" height="211" viewBox="0 0 130 211" fill="none" xmlns="http://www.w3.org/2000/svg">
<path d="M129.691 147.058L129.947 146.81L129.201 146.173L129.691 147.058Z" fill="black"/>
<path d="M127.95 142.911C127.822 143.039 127.601 142.99 127.472 143.119C127.472 143.119 128.008 143.709 128.545 144.298C129.082 144.902 129.618 145.505 129.618 145.505C130.761 144.357 127.185 143.647 127.95 142.911Z" fill="black"/>
<path d="M128.137 142.184C128.59 141.207 127.546 140.882 127.21 140.689C128.006 140.964 127.112 142.446 128.137 142.184Z" fill="black"/>
<path d="M99.5801 66.3307C99.6291 66.4007 99.7111 66.4837 99.7801 66.5427C99.7331 66.4027 99.6591 66.3397 99.5801 66.3307Z" fill="black"/>
<path d="M85.6643 50.2508L84.8923 50.4858C88.1673 53.0318 89.3463 57.5068 92.0333 60.6948L91.6543 60.6018C96.9243 69.6538 102.91 77.3238 108.219 86.3468C108.073 86.2388 107.842 86.2948 107.684 86.1878C108.161 86.5078 108.843 86.7878 109.038 87.3238C108.95 87.5328 108.645 87.3448 108.495 87.2178C108.412 88.4938 109.31 89.8448 110.201 91.0958C111.069 92.3568 111.913 93.5248 111.758 94.3558C112.144 94.8588 112.748 94.8838 112.971 94.3998C116.73 101.709 120.171 109.801 123.465 117.673C123.408 118.114 123.091 118.28 122.635 118.295C126.629 124.679 127.362 132.547 127.59 140C128.162 140.246 128.103 139.188 128.735 139.884C128.97 138.643 128.539 137.554 128.149 136.51C127.719 135.47 127.307 134.475 127.65 133.318L128.212 133.523C128.323 131.883 126.848 133.399 127.29 131.656C127.635 130.938 127.978 131.711 127.974 131.403C127.623 129.739 127.266 128.039 126.914 126.363C126.513 124.701 125.878 123.12 124.898 121.733C125.865 120.67 123.989 118.243 124.709 116.74C124.03 116.029 123.918 115.147 123.077 115.061C120.139 103.641 114.288 93.1098 108.844 82.6198C104.323 78.7648 103.404 71.7168 99.3813 66.4418C99.4263 66.3628 99.5013 66.3268 99.5803 66.3318C98.0003 64.7848 96.1843 62.2518 95.0663 59.9488L93.1353 58.6108C89.9073 51.6068 85.8073 45.0408 81.6373 38.5318C79.5523 35.2768 77.4483 32.0318 75.4553 28.7368C74.4483 27.0918 73.4913 25.4278 72.5603 23.7528C72.0913 22.9168 71.6643 22.0658 71.2243 21.2198L70.8983 20.5828L70.7363 20.2648L70.5323 19.8408L69.5723 17.7838C68.3713 15.5188 67.3543 12.5438 66.2733 9.65676C65.7333 8.09676 65.1973 6.54776 64.6663 5.01076C64.1693 3.51276 63.6763 2.02676 63.1873 0.551758L63.0313 0.772758C62.9793 0.865758 62.9273 0.875761 62.8753 1.07376L62.5573 2.03276L61.9163 3.96976C61.4803 5.29076 61.0483 6.60676 60.6163 7.91776C59.6693 10.7058 58.7283 13.4748 57.7913 16.2318C57.2683 17.5648 56.7453 18.8938 56.2243 20.2218L55.9363 20.9288L55.7043 21.4858C55.5513 21.8578 55.3983 22.2298 55.2253 22.5938L53.2543 27.0028C50.5923 32.8788 47.8453 38.7818 45.3093 45.2718C45.1363 45.1408 44.9623 45.1968 45.1133 44.7748C42.9693 49.2218 39.8653 52.5708 37.7233 56.7148L37.5483 56.5838C32.7933 67.2378 23.9173 76.4908 19.9223 87.1878C16.3663 92.9918 12.8993 99.4038 10.0523 106.209C7.19329 113.002 4.96027 120.183 3.70127 127.277L3.28028 127.151C2.52228 132.897 1.49729 138.457 0.936289 144.154C0.317289 149.815 0.375294 155.751 2.07929 161.384C2.26429 162.889 2.67329 164.357 3.07929 165.831C3.57529 167.278 4.07528 168.734 4.74928 170.125C5.36328 171.54 6.1433 172.885 6.8943 174.232C7.7213 175.543 8.52529 176.859 9.44529 178.1C11.2293 180.615 13.1693 182.986 15.1623 185.258C17.1493 187.538 19.1263 189.806 21.0793 192.047C23.0343 195.381 26.9023 197.651 30.7743 199.339C34.6753 201.068 38.5453 202.25 41.3523 204.513C47.3843 208.633 54.7183 210.419 61.8763 210.163C69.0643 209.982 76.0783 207.856 82.3843 204.709C85.5503 204.002 88.5773 202.754 91.4003 201.182C94.2263 199.612 96.8753 197.757 99.3383 195.726C104.276 191.636 108.534 187.123 113.177 182.723C114.287 179.856 116.301 177.504 118.324 174.877C120.338 172.275 122.393 169.398 123.198 166.062L122.601 166.126C123.775 165.223 123.567 163.716 123.438 162.42C123.249 161.096 123.134 159.963 124.495 159.467L124.554 159.74C125.29 159.23 124.697 158.339 124.121 157.557C123.547 156.77 122.982 156.085 123.754 155.811L123.17 155.523C123.185 154.001 123.885 155.441 124.278 154.301C124.255 153.85 123.189 154.007 123.645 153.136C124.907 153.163 124.843 152.202 124.816 151.269C124.807 150.335 124.759 149.422 126.176 149.417C126.154 150.287 127.309 148.087 127.851 150.077C128.157 149.525 128.084 146.805 126.874 147.056C125.594 146.832 124.493 145.836 123.488 147.388L124.41 147.705C123.468 148.214 123.935 148.095 123.233 148.267C123.075 150.261 121.685 150.454 121.019 151.784C121.047 151.773 121.075 151.762 121.121 151.786C122.185 152.829 121.349 154.092 121.095 154.807L120.544 155.035C119.445 155.314 122.29 157.535 120.559 156.659C120.38 160.609 119.157 165.023 117.509 169.111C117.976 169.975 116.071 172.18 117.728 171.864C117.259 171.961 116.801 172.208 116.373 172.54C115.924 172.862 115.499 173.267 115.12 173.694C114.383 174.559 113.742 175.472 113.467 176.011C113.364 175.899 113.246 175.772 113.39 175.638C111.95 176.148 112.005 176.952 111.976 177.735C111.95 178.506 111.917 179.305 110.261 179.484C110.875 180.114 110.191 180.858 109.457 181.688C108.685 182.493 107.915 183.415 108.285 184.542C107.809 184.501 107.485 184.343 107.313 184.069C104.751 187.071 101.162 189.586 98.5453 191.534C97.9293 193.02 96.4093 193.889 94.9843 194.734C94.2553 195.138 93.5563 195.557 92.9683 196.058C92.3643 196.533 91.8813 197.107 91.6033 197.874C89.5763 198.486 86.3373 199.146 84.0023 200.896L84.1643 200.554C81.2443 201.851 77.4763 203.006 75.5553 204.745C74.2053 202.957 72.9513 203.605 71.5023 203.164C69.5453 204.43 65.2403 204.49 61.9543 205.226C61.7133 204.755 61.0393 204.836 60.4033 204.868C59.7703 204.867 59.1783 204.813 59.1453 204.134C58.5693 204.252 57.9793 204.363 57.3813 204.446C56.7853 204.507 56.1803 204.553 55.5663 204.587C54.3333 204.685 53.0893 204.581 51.8163 204.497C49.2953 204.211 46.7093 203.654 44.2473 202.691C39.2743 200.879 34.8013 197.694 31.3723 194.203L31.5393 194.205C30.1223 194.092 27.9323 194.601 26.2983 194.493C26.2673 194.319 26.4173 194.152 26.6333 194.331C24.9973 193.392 24.5623 191.255 23.0753 190.211C23.2383 190.058 23.2393 190.059 23.5963 190.104C22.7833 189.734 22.3123 188.945 21.8283 188.144C21.3563 187.326 20.8083 186.56 19.7573 186.164L19.9503 185.842L18.7433 185.212C19.1023 184.945 19.6433 184.545 19.9723 185.146C15.1023 179.272 10.7533 172.737 7.80928 165.348C6.34228 161.665 5.23929 157.789 4.62129 153.811C4.31429 151.823 4.12728 149.81 4.07228 147.791C4.00628 146.788 4.08429 145.753 4.09529 144.735C4.13629 143.714 4.13828 142.691 4.23628 141.674L4.61927 142.295C4.61927 142.295 4.57427 142.095 4.53227 141.796C4.48527 141.496 4.42428 141.097 4.36128 140.696C4.23728 139.89 4.11329 139.085 4.11329 139.085C4.33629 139.123 4.43328 139.282 4.52128 139.441C5.01528 137.462 5.21229 135.438 5.28529 133.384C5.29929 132.355 5.42828 131.342 5.52128 130.331C5.64228 129.325 5.74829 128.323 6.03129 127.375C6.23829 127.441 6.52127 128.109 6.89027 127.629C6.63627 126.087 7.29627 125.034 7.74827 124.142C8.19427 123.243 8.52029 122.512 7.49729 121.458C7.64829 121.359 8.22129 121.43 8.33329 121.77C8.99129 117.759 10.2633 113.814 11.7483 109.954C13.3153 106.119 15.1543 102.382 17.2463 98.8218C17.8003 95.2378 19.5563 91.9928 21.4233 88.8008C23.3193 85.6158 25.3193 82.4648 26.5023 78.9328L26.8683 79.2078C30.5383 70.4318 37.5983 63.1628 42.5763 54.7898C44.9153 51.4848 45.9003 48.8768 47.9663 45.3848L48.5083 45.5888C48.9273 43.8448 49.6553 42.2438 50.5903 40.7308C51.4923 39.1978 52.5733 37.7318 53.6383 36.2358C55.7233 33.2318 57.7913 30.0818 58.1303 26.3098L58.6393 27.0778C57.9933 25.5808 60.7703 23.2588 58.6873 22.8538L59.7233 21.9238C59.5383 20.7508 59.7763 19.4288 60.1073 18.2658C60.4253 17.0738 60.8803 16.0678 61.3323 15.2928C61.8023 14.4998 62.2203 13.9728 62.5613 13.2748C62.7373 12.9288 62.9043 12.5578 63.0643 12.0948C63.1443 11.8628 63.2233 11.6078 63.3023 11.3178L63.3623 11.0938L63.3913 10.9768C63.4013 10.9368 63.4133 11.0128 63.4253 11.0248L63.5663 11.3278C63.7663 11.7218 63.9733 12.0578 64.2283 12.1208L64.0823 12.9778C64.3173 13.2608 64.7153 13.6638 65.0463 14.2688C65.3753 14.8928 65.7093 15.7438 65.8743 16.6028C65.7703 16.5438 65.7493 16.8248 65.5553 16.7078C65.8833 18.4668 66.1453 19.5688 66.5703 20.5008C66.7743 20.9678 67.0013 21.3938 67.2583 21.8208C67.5593 22.3108 67.9673 22.9148 68.3433 23.4438C69.8823 25.6338 71.6983 27.6688 73.0263 29.9108L71.9433 29.8778C74.1493 31.4888 75.7743 35.9188 77.9673 38.4548L77.5003 38.5138L78.9093 39.6018L78.2083 40.1018C80.4883 43.7678 83.3113 46.7678 85.6643 50.2508Z" fill="black"/>
<path d="M108.495 87.2178C108.497 87.2028 108.488 87.1858 108.499 87.1638C108.374 87.0828 108.41 87.1348 108.495 87.2178Z" fill="black"/>
<path d="M120.809 152.265C120.874 152.084 120.939 151.935 121.02 151.786C120.844 151.81 120.859 152.111 120.809 152.265Z" fill="black"/>
<path d="M110.381 168.451L110.646 168.494L110.019 168.09L110.381 168.451Z" fill="black"/>
<path d="M109.199 166.972C109.066 166.951 108.866 166.863 108.731 166.842L110.478 168.105C111.666 168.279 108.409 166.844 109.199 166.972Z" fill="black"/>
<path d="M109.452 166.891C109.982 166.854 109.097 166.435 108.803 166.278C109.487 166.605 108.448 166.571 109.452 166.891Z" fill="black"/>
<path d="M112.079 148.25C112.083 148.27 112.11 148.296 112.141 148.315C112.171 148.282 112.141 148.261 112.079 148.25Z" fill="black"/>
<path d="M108.666 143.955L107.903 144.479C108.591 144.318 108.599 144.796 108.509 145.249C108.42 145.722 108.233 146.162 108.544 146.478L108.272 146.495C108.207 147.013 108.261 147.41 108.34 147.956C108.414 148.515 108.552 149.069 108.718 149.629C109.042 150.747 109.523 151.889 109.683 153.076C109.605 153.033 109.377 153.004 109.29 152.959C109.55 153.091 110.034 153.256 109.956 153.378C109.781 153.397 109.601 153.313 109.525 153.266C108.202 153.638 110.208 154.787 109.194 154.995C109.318 155.147 109.845 155.271 110.256 155.24C110.339 157.127 110.306 159.134 110.804 161.272C110.612 161.324 110.267 161.258 109.842 161.13C110.691 162.183 110.75 163.115 110.499 163.952C110.265 164.798 109.73 165.547 109.263 166.283C109.757 166.53 109.87 166.312 110.348 166.665C111.183 166.353 109.444 165.277 110.524 165.102L111.007 165.329C111.44 165.073 109.76 164.849 110.521 164.687C110.987 164.674 111.152 164.926 111.209 164.87C111.225 164.046 111.945 163.367 110.887 162.322C112.04 162.428 111.114 161.512 112.246 161.481C111.851 161.176 112.011 161.001 111.286 160.759C111.927 159.49 111.973 158.085 112.006 156.695C112.039 155.3 111.835 153.916 112.019 152.553C109.9 151.167 112.54 149.79 111.848 148.246C111.927 148.236 112.01 148.238 112.076 148.249C111.562 147.835 111.24 146.835 111.484 146.046C111.482 146.025 110.536 145.635 110.538 145.656C110.97 144.48 111.185 143.167 111.284 141.881C111.369 141.194 111.263 140.701 111.187 140.165C111.103 139.637 110.999 139.122 110.89 138.616L110.216 135.595C110.155 135.35 110.129 135.049 110.045 134.836L109.765 134.232C109.571 133.829 109.362 133.428 109.105 133.026C108.804 132.617 108.382 132.22 107.81 132.004C107.241 131.812 106.766 131.822 106.364 131.84C105.554 131.903 104.839 132.073 104.039 132.553C103.253 133.03 102.399 133.942 101.668 135.354C100.94 136.75 100.352 138.607 100.147 140.452C100.02 140.238 99.9254 140.164 99.9424 139.952C99.6814 140.858 99.2714 141.418 98.8384 142.028C98.6224 142.329 98.4064 142.637 98.2224 142.971C98.1304 143.138 98.0464 143.31 97.9764 143.489C97.9214 143.637 97.9004 143.759 97.8844 143.908L97.6954 143.8C98.0564 146.974 94.9394 148.362 95.4174 151.472C93.7374 153.974 92.1444 156.927 90.6614 159.795L90.3164 159.522C89.9154 160.807 88.8254 161.563 87.7134 162.177C86.5884 162.801 85.4824 163.269 84.7494 164.216C84.2104 164.351 83.9384 164.516 83.2704 164.955C82.0954 165.761 81.4664 166.553 81.1064 167.55C80.9094 168.044 80.9314 168.63 81.0094 169.154C81.0854 169.681 81.1134 170.149 81.0594 170.66C80.6864 171.085 80.7984 171.588 81.1924 171.97C81.5724 172.366 82.2064 172.637 82.7844 172.81C83.9924 173.158 84.8204 173.052 84.8144 174.441C85.1114 176.736 86.6494 177.925 88.4034 178.123C89.2834 178.224 90.2274 178.086 91.0984 177.748C91.9744 177.417 92.7264 176.844 93.4074 176.28C94.8474 176.739 96.1754 175.88 97.2154 175.04C98.3024 174.178 99.1734 173.403 101.004 173.423C100.957 172.404 101.74 172.327 102.688 172.184C103.168 172.126 103.672 172.052 104.096 171.889C104.53 171.735 104.875 171.489 104.994 171.092L104.512 170.832C105.349 171.062 105.061 170.477 104.789 169.989C104.522 169.497 104.31 169.112 105.466 169.57L105.533 169.675C106.794 170.008 103.274 167.692 104.649 168.248L104.122 167.929C104.108 167.562 104.762 168.212 105.099 168.091C105.074 167.97 104.106 167.566 104.513 167.545C106.833 168.576 104.335 166.589 106.949 167.691C106.867 167.881 108.091 167.817 108.449 168.485C108.771 168.473 108.904 167.802 107.759 167.423C106.589 166.907 105.636 166.3 104.589 166.25L105.426 166.656C104.52 166.411 104.961 166.56 104.3 166.333C104.022 166.671 102.761 166.181 102.149 166.188C102.175 166.198 102.2 166.206 102.241 166.229C103.178 166.867 102.45 166.823 102.248 166.876L101.761 166.693C100.766 166.261 103.444 168.059 101.853 167.087C101.895 167.964 101.412 168.732 100.904 169.405C101.388 169.931 100.453 169.887 101.626 170.595C100.269 169.794 99.5964 169.966 99.4874 170.168C99.3884 170.062 99.2754 169.941 99.3414 169.958C98.4644 169.405 98.7264 169.801 98.9244 170.182C99.1294 170.554 99.2744 170.915 98.3044 170.138C98.8684 170.797 98.6344 170.812 98.4214 170.863C98.2034 170.912 98.0204 171.007 98.5494 171.874C98.2714 171.599 98.0474 171.33 97.8714 171.075C97.2924 171.463 96.3584 171.321 95.8764 171.455C96.0244 172.252 95.6704 172.205 95.3924 172.211C95.1074 172.237 94.8774 172.264 94.9914 173.335C94.4984 173.038 93.8434 172.277 93.5384 173.186L93.5424 172.925C93.0534 173.133 92.4294 173.271 92.0344 174.601C91.9324 172.577 91.8114 172.983 91.7104 172.315C91.3564 173.219 90.7874 172.831 89.9924 173.448C90.2234 172.54 89.4044 173.66 89.8684 172.383C88.6814 173.313 87.4794 173.185 86.7244 172.48C86.5334 172.305 86.3674 172.099 86.2334 171.862C86.1634 171.747 86.1014 171.624 86.0514 171.493C86.0094 171.372 86.0554 171.314 86.0684 171.221C86.1504 170.865 86.4124 170.51 86.8634 170.256L86.9554 170.213C86.2624 170.572 84.5244 171.15 83.3584 171.258C83.4714 171.203 83.7144 171.135 83.7314 171.17C83.5124 171.099 83.7264 170.902 83.9774 170.746C84.2184 170.588 84.4984 170.468 84.3064 170.395C84.5754 170.371 84.5764 170.373 84.8434 170.371C84.4444 170.338 84.7364 170.217 84.9754 170.149C85.2194 170.069 85.4024 170.048 84.7254 169.905L85.1804 169.939C85.1804 169.939 85.0164 169.897 84.8524 169.855C84.6904 169.806 84.5274 169.756 84.5274 169.756C85.1004 169.842 85.9594 169.965 85.7784 169.971C85.8844 169.81 85.8924 169.651 85.9164 169.463C85.9394 169.278 85.9854 169.088 86.1114 168.763C86.0204 168.676 86.6884 168.121 87.0594 167.7C87.4804 167.258 87.8654 166.811 88.2354 166.373C88.9804 165.498 89.6774 164.663 90.4724 163.931L90.6854 164.328L90.6434 163.24C90.8104 163.392 90.8674 163.493 90.9174 163.588C92.1544 163.332 91.8264 161.732 92.5394 161.116C92.7104 161.251 92.9644 161.628 93.2424 161.672C92.6854 160.385 95.1994 161.697 93.3554 159.926C93.4694 159.969 93.9454 160.283 94.0684 160.46C94.5244 158.394 95.6024 156.81 96.9494 155.389C95.8094 152.862 98.4704 152.401 97.6824 150.085L98.0774 150.315C97.8904 149.011 98.4314 148.086 99.1154 147.223L100.173 145.943C100.51 145.511 100.818 145.042 100.949 144.631C101.439 144.116 101.291 143.259 101.693 142.473L102.034 143.035C101.867 142.213 101.988 141.692 102.187 141.429C102.391 141.159 102.673 141.148 102.919 141.194C103.168 141.232 103.379 141.327 103.536 141.105C103.695 140.876 103.799 140.331 103.935 138.934L103.961 140.435C103.95 139.258 104.078 139.272 104.166 139.138C104.213 139.07 104.253 138.957 104.279 138.611C104.293 138.437 104.302 138.205 104.307 137.891C104.306 137.604 104.305 137.324 104.304 136.875C104.304 136.875 104.345 137.029 104.385 137.184C104.421 137.442 104.457 137.7 104.457 137.7C104.543 136.827 104.631 136.528 104.718 136.205C104.805 135.901 104.897 135.718 104.982 135.601C105.152 135.37 105.311 135.433 105.465 135.504C105.544 135.556 105.62 135.552 105.701 135.628C105.774 135.769 105.84 135.864 105.936 135.884C106.027 135.894 106.138 135.818 106.292 135.588C106.439 135.398 106.672 134.835 106.864 134.691C106.864 134.691 106.852 134.722 106.835 134.769C106.827 134.792 106.816 134.82 106.806 134.849C106.799 134.864 106.782 134.921 106.759 135.01C106.679 135.315 106.598 135.618 106.598 135.618C106.726 135.375 106.857 135.116 106.989 134.945C107.118 134.774 107.209 134.794 107.306 134.774C107.404 134.759 107.48 134.799 107.541 134.87C107.571 134.906 107.603 134.943 107.619 135.003C107.637 135.062 107.656 135.107 107.635 135.292C107.559 135.434 107.475 135.792 107.333 136.05C107.057 138.724 107.178 138.905 107.57 138.753C107.924 138.577 108.547 138.125 108.527 138.761L107.704 140.278C108.198 139.531 108.246 139.881 108.225 140.32C108.205 140.773 108.117 141.301 108.37 141.289L107.97 141.824C107.97 141.824 108.116 141.7 108.263 141.576C108.41 141.463 108.558 141.35 108.558 141.35L107.752 142.452C107.752 142.837 107.94 142.97 108.154 143.155C108.369 143.331 108.612 143.56 108.666 143.955Z" fill="black"/>
<path d="M109.527 153.266C109.536 153.264 109.536 153.26 109.555 153.258C109.483 153.224 109.49 153.238 109.527 153.266Z" fill="black"/>
<path d="M101.953 166.201C102.016 166.192 102.074 166.186 102.149 166.188C101.987 166.122 102.001 166.192 101.953 166.201Z" fill="black"/>
</svg>
