<svg width="222" height="166" viewBox="0 0 222 166" fill="none" xmlns="http://www.w3.org/2000/svg">
<path d="M29.6909 121.69C29.6909 99.0377 70.938 80.6777 121.822 80.6777C172.701 80.6777 213.949 99.0367 213.949 121.69C213.949 144.343 172.701 162.704 121.822 162.704C70.938 162.704 29.6909 144.342 29.6909 121.69Z" fill="white"/>
<path d="M25.0088 121.69L24.7568 121.949L25.5178 122.592L25.0088 121.69Z" fill="black"/>
<path d="M27.0319 125.728C27.1409 125.587 27.3659 125.604 27.4769 125.463C27.4769 125.463 26.8678 124.984 26.2538 124.442C25.9338 124.175 25.6849 123.885 25.4669 123.667C25.2589 123.444 25.1199 123.295 25.1199 123.295C24.5699 123.914 25.1809 124.387 25.9079 124.724C26.6169 125.074 27.3589 125.313 27.0319 125.728Z" fill="black"/>
<path d="M26.9475 126.464C26.6975 127.485 27.7696 127.607 28.1346 127.707C27.3196 127.603 27.9015 126.045 26.9475 126.464Z" fill="black"/>
<path d="M87.2087 162.533C87.1337 162.525 87.0297 162.535 86.9507 162.552C87.0707 162.605 87.1557 162.589 87.2087 162.533Z" fill="black"/>
<path d="M105.869 161.557L106.119 160.797C102.614 161.938 98.9316 160.113 95.3076 160.25L95.5847 160.01C86.6247 158.499 78.1446 158.089 69.2196 155.982C69.3796 155.947 69.4917 155.742 69.6577 155.7C69.1607 155.826 68.5466 156.153 68.0946 155.94C68.0246 155.736 68.3356 155.638 68.5106 155.611C67.7856 154.712 66.3866 154.485 65.0646 154.26C63.7366 154.058 62.4736 153.899 62.0916 153.207C61.5396 153.141 61.1206 153.554 61.2586 154.043C57.8356 152.921 54.3507 151.554 50.8977 150C47.4397 148.452 44.0056 146.737 40.6536 144.842C40.4676 144.476 40.6306 144.159 40.9786 143.868C34.6106 141.653 29.7336 135.46 27.8936 128.444C27.2906 128.335 27.5546 129.354 26.8066 128.822C26.7936 129.473 27.0577 129.995 27.3247 130.497C27.6187 130.984 27.9326 131.451 28.3196 131.845C29.0846 132.645 29.7096 133.434 29.8756 134.553L29.2796 134.599C29.8286 136.094 30.5697 134.147 30.8527 135.852C30.8507 136.611 30.2066 136.114 30.3436 136.371C32.3816 138.91 34.4057 141.671 37.4417 142.63C37.3347 143.288 37.9477 143.866 38.6317 144.417C39.3227 144.958 40.0546 145.521 40.1806 146.311C41.0856 146.427 41.6776 146.953 42.3536 146.505C46.5216 149.776 51.2926 152.149 56.1806 154.051C61.0776 155.964 66.1076 157.439 71.1146 158.924C73.7656 158.541 76.2956 159.309 78.9456 160.215C80.2676 160.669 81.6126 161.177 83.0006 161.553C84.3846 161.947 85.8016 162.26 87.2576 162.312C87.2826 162.396 87.2617 162.478 87.2127 162.535C89.1617 162.345 91.8956 162.491 94.0736 163.091L96.0747 162.4C102.607 164.21 109.428 164.871 116.255 165.056C123.091 165.241 129.939 164.961 136.797 164.862C144.576 164.557 151.936 164.171 159.139 162.876C166.32 161.578 173.395 159.442 180.08 155.499C180.133 155.708 180.29 155.78 179.949 155.996C183.928 154.102 187.959 153.292 191.512 151.016L191.598 151.218C195.808 148.064 200.442 145.397 204.576 141.906C206.662 140.206 208.561 138.239 210.128 136.069C210.501 135.509 210.909 134.986 211.222 134.393C211.543 133.807 211.851 133.219 212.143 132.633C212.644 131.404 213.09 130.18 213.285 128.904C214.437 126.074 214.978 122.835 214.633 119.597C214.293 116.355 213.042 113.208 211.279 110.446C209.511 107.672 207.244 105.256 204.779 103.155C202.316 101.044 199.622 99.2707 196.879 97.7367L197.136 97.3797C192.606 95.1087 188.335 92.6447 183.855 90.4417C179.39 88.2427 174.744 86.3007 169.773 85.3217C164.88 83.4807 159.485 82.9767 154.148 82.6917C148.796 82.4027 143.493 82.3227 138.377 81.2377C136.819 80.5587 135.089 80.3227 133.292 80.3307C131.496 80.3077 129.633 80.5637 127.793 80.8057C124.106 81.3017 120.53 81.9157 117.498 80.8467C111.267 79.2867 105.036 79.3897 98.9686 80.4487C92.8926 81.5067 86.9797 83.5247 81.1887 85.8447C75.5027 86.4837 70.1037 88.4747 64.9257 90.6387C59.7187 92.8057 54.7767 95.1257 49.4077 96.7787C47.5247 98.7337 45.0256 99.7767 42.3796 100.984C39.7416 102.158 36.9736 103.626 35.1416 106.056L35.6926 106.256C34.3356 106.489 34.0356 107.857 33.7816 108.991C33.5326 110.154 33.4006 111.146 31.9666 111.085L31.9916 110.837C31.1516 111.014 31.4956 112.005 31.8536 112.83C32.1936 113.663 32.6456 114.392 31.8416 114.408L32.3466 114.802C32.0386 116.045 31.6406 114.683 31.0316 115.54C30.9976 115.936 32.0576 116.033 31.5106 116.666C30.3036 116.394 30.1197 117.224 30.1107 118.046C30.0747 118.865 29.9857 119.636 28.5897 119.544C28.6357 119.157 28.3166 119.423 27.9636 119.58C27.6266 119.734 27.1317 119.769 26.9907 118.793C26.5677 119.286 26.6286 121.957 27.8286 121.694C29.1126 121.897 30.2017 122.741 31.2227 121.422L30.3087 121.141C31.2627 120.736 30.7917 120.826 31.4967 120.71C31.5537 120.307 31.6666 119.999 31.8456 119.757C32.0436 119.516 32.2756 119.338 32.5176 119.182C33.0086 118.871 33.5056 118.647 33.8936 118.209C33.8636 118.212 33.8356 118.216 33.7936 118.19C32.9276 117.228 33.8077 116.364 34.2147 115.912L34.7827 115.887C35.3497 115.93 35.0066 115.355 34.7366 114.867C34.5006 114.391 34.3076 114.034 35.0346 114.647C35.9616 111.67 38.3356 108.619 41.1116 106.098C41.0416 105.227 43.3446 104.242 41.8436 103.744C42.7086 104.023 43.7777 103.837 44.6967 103.476C45.6227 103.121 46.4886 102.665 46.8956 102.332C46.9446 102.475 47.0017 102.637 46.8347 102.683C48.2187 102.928 48.4687 102.245 48.7517 101.582C49.0347 100.934 49.3347 100.289 50.7957 100.878C50.4857 100.055 51.3246 99.7397 52.2206 99.3477C53.1196 98.9547 54.1166 98.5457 54.1436 97.3717C54.5336 97.6057 54.7596 97.8817 54.8206 98.1977C57.9706 96.6647 61.7966 95.7407 64.6036 94.7847C65.5356 93.6357 67.0646 93.2797 68.5206 92.8987C69.9946 92.5497 71.3726 92.1037 72.1506 90.8047C74.0516 90.7047 77.1236 90.7857 79.4216 89.3707L79.2376 89.6777C82.0306 88.8887 85.5487 88.0497 87.2907 86.3957C88.5047 88.2307 89.6646 87.6157 91.0046 88.0397C91.8867 87.4347 93.3117 87.0537 94.8657 86.6627C96.4277 86.3077 98.1187 85.9407 99.5507 85.3477C100.106 86.2247 101.957 84.7037 102.244 86.0337C110.278 82.5777 120.932 83.1677 129.698 85.5107L129.566 85.6017C130.743 84.8877 132.153 83.3277 133.398 82.4417C133.508 82.5667 133.482 82.7887 133.233 82.7677C134.895 82.6007 136.337 84.0247 137.98 83.9187C137.949 84.1407 137.949 84.1407 137.668 84.3337C139.251 83.8447 140.719 85.6627 142.613 84.8187L142.676 85.1847L143.871 84.8037C143.794 85.2437 143.676 85.9077 143.084 85.7007C149.994 86.6417 157.035 87.3417 164.098 88.4917C167.62 89.0847 171.154 89.7647 174.613 90.7167C178.079 91.6437 181.493 92.7937 184.735 94.2897L184.088 94.4757C184.088 94.4757 184.799 94.5707 185.51 94.6667C186.228 94.7527 186.927 94.8887 186.927 94.8897C186.82 95.0887 186.656 95.1327 186.494 95.1677C189.369 97.2757 193.141 97.8697 195.953 99.8587C195.822 100.033 195.161 100.13 195.43 100.588C196.827 100.717 197.428 101.639 197.979 102.303C198.547 102.961 199.024 103.418 200.283 102.801C200.304 102.966 200.016 103.463 199.695 103.471C202.661 105.212 205.359 107.478 207.424 110.179C208.479 111.516 209.292 112.992 209.968 114.496L210.384 115.651L210.59 116.226L210.727 116.816L210.998 117.989C211.057 118.384 211.085 118.78 211.131 119.172C212.691 121.611 212.551 124.85 211.492 127.665C210.449 130.54 208.743 133.084 207.418 136.015L207.093 135.695C205.088 139.24 201.739 141.991 198.137 144.156C194.511 146.342 190.595 148.012 186.83 149.871C183.558 151.083 181.575 152.486 178.244 153.66L177.974 153.152C175.536 155.161 172.36 155.593 169.222 155.986C166.056 156.338 162.917 156.659 160.126 158.43L160.387 157.588C159.686 158.953 156.652 157.912 157.388 159.846L156.196 159.424C154.36 161.142 152.383 161.133 150.304 160.999C148.217 160.864 146.028 160.594 143.554 161.743L143.839 161.224C142.515 161.735 140.944 162.215 139.889 161.85C140.041 161.767 139.955 161.63 140.268 161.477C135.843 159.928 131.249 162.328 126.681 162.373L127.172 161.449C125.007 162.571 120.979 161.614 118.103 162.042L118.285 161.618L116.818 162.197L116.801 161.336C113.078 161.165 109.527 161.757 105.869 161.557Z" fill="black"/>
<path d="M68.5107 155.611C68.5187 155.622 68.5348 155.627 68.5408 155.649C68.6708 155.611 68.6157 155.602 68.5107 155.611Z" fill="black"/>
<path d="M34.1636 117.891C34.0756 118.012 33.9916 118.11 33.8896 118.206C34.0676 118.219 34.0946 117.996 34.1636 117.891Z" fill="black"/>
<path d="M118.037 149.714C168.918 149.714 210.166 131.352 210.166 108.702C210.166 86.0514 168.918 67.6897 118.037 67.6897C67.1552 67.6897 25.9077 86.0514 25.9077 108.702C25.9077 131.352 67.1552 149.714 118.037 149.714Z" fill="white"/>
<path d="M214.849 108.702L215.101 108.443L214.339 107.8L214.849 108.702Z" fill="black"/>
<path d="M212.826 104.664C212.717 104.805 212.492 104.788 212.381 104.929C212.381 104.929 212.99 105.408 213.604 105.95C213.924 106.217 214.173 106.507 214.391 106.725C214.599 106.948 214.738 107.097 214.738 107.097C215.288 106.478 214.677 106.005 213.95 105.668C213.241 105.318 212.498 105.079 212.826 104.664Z" fill="black"/>
<path d="M212.91 103.928C213.16 102.906 212.088 102.785 211.723 102.685C212.538 102.789 211.956 104.347 212.91 103.928Z" fill="black"/>
<path d="M152.648 67.8587C152.723 67.8667 152.827 67.8577 152.906 67.8397C152.787 67.7867 152.701 67.8037 152.648 67.8587Z" fill="black"/>
<path d="M133.989 68.8347L133.739 69.5947C137.244 68.4537 140.926 70.2787 144.55 70.1417L144.273 70.3827C153.233 71.8937 161.713 72.3037 170.638 74.4107C170.478 74.4457 170.365 74.6507 170.199 74.6927C170.696 74.5667 171.31 74.2397 171.763 74.4527C171.833 74.6557 171.522 74.7547 171.347 74.7817C172.072 75.6807 173.471 75.9067 174.793 76.1327C176.121 76.3347 177.384 76.4937 177.766 77.1857C178.318 77.2517 178.737 76.8377 178.599 76.3497C182.022 77.4717 185.507 78.8387 188.96 80.3927C192.418 81.9407 195.852 83.6547 199.204 85.5507C199.39 85.9167 199.227 86.2347 198.879 86.5247C205.247 88.7397 210.124 94.9317 211.965 101.948C212.568 102.057 212.305 101.038 213.052 101.57C213.065 100.919 212.802 100.397 212.534 99.8947C212.24 99.4077 211.926 98.9407 211.538 98.5467C210.773 97.7467 210.148 96.9577 209.982 95.8387L210.578 95.7927C210.029 94.2977 209.288 96.2447 209.004 94.5397C209.006 93.7817 209.65 94.2777 209.513 94.0207C207.476 91.4817 205.451 88.7217 202.415 87.7617C202.522 87.1037 201.909 86.5257 201.225 85.9747C200.534 85.4337 199.802 84.8707 199.676 84.0807C198.771 83.9637 198.179 83.4377 197.503 83.8867C193.335 80.6157 188.564 78.2427 183.676 76.3417C178.78 74.4287 173.75 72.9537 168.743 71.4687C166.092 71.8517 163.562 71.0837 160.912 70.1767C159.589 69.7237 158.245 69.2147 156.857 68.8387C155.473 68.4447 154.055 68.1327 152.6 68.0797C152.575 67.9957 152.596 67.9137 152.645 67.8567C150.696 68.0467 147.962 67.9007 145.784 67.3007L143.783 67.9917C137.251 66.1817 130.43 65.5207 123.604 65.3357C116.767 65.1507 109.919 65.4307 103.061 65.5297C95.2818 65.8347 87.9219 66.2207 80.7189 67.5157C73.5369 68.8137 66.4629 70.9507 59.7779 74.8937C59.7239 74.6847 59.5679 74.6127 59.9089 74.3967C55.9299 76.2907 51.8999 77.1007 48.3459 79.3767L48.2599 79.1747C44.0509 82.3297 39.4159 84.9967 35.2819 88.4867C33.1969 90.1867 31.2969 92.1527 29.7299 94.3237C29.3569 94.8827 28.9489 95.4067 28.6359 95.9997C28.3149 96.5857 28.0079 97.1737 27.7149 97.7607C27.2139 98.9887 26.7679 100.213 26.5729 101.49C25.4209 104.32 24.8788 107.559 25.2248 110.797C25.5648 114.039 26.8159 117.186 28.5789 119.948C30.3469 122.722 32.6139 125.138 35.0789 127.238C37.5419 129.349 40.2359 131.122 42.9789 132.656L42.7219 133.013C47.2519 135.284 51.5219 137.748 56.0029 139.951C60.4679 142.15 65.1139 144.092 70.0849 145.071C74.9779 146.912 80.3729 147.416 85.7099 147.701C91.0619 147.99 96.3649 148.07 101.481 149.155C103.039 149.834 104.769 150.07 106.566 150.062C108.362 150.085 110.226 149.83 112.066 149.587C115.753 149.091 119.328 148.477 122.361 149.546C128.592 151.106 134.823 151.003 140.89 149.944C146.966 148.886 152.879 146.868 158.67 144.548C164.356 143.908 169.755 141.918 174.933 139.754C180.14 137.586 185.081 135.266 190.451 133.614C192.334 131.659 194.833 130.616 197.479 129.409C200.117 128.235 202.884 126.767 204.717 124.337L204.166 124.137C205.523 123.905 205.822 122.536 206.077 121.403C206.326 120.24 206.459 119.247 207.893 119.308L207.867 119.556C208.708 119.38 208.364 118.388 208.006 117.563C207.666 116.729 207.214 116.001 208.017 115.985L207.512 115.591C207.82 114.348 208.218 115.71 208.827 114.853C208.861 114.457 207.801 114.36 208.348 113.727C209.555 113.999 209.738 113.169 209.748 112.347C209.784 111.528 209.873 110.757 211.269 110.849C211.223 111.236 211.542 110.97 211.895 110.813C212.232 110.659 212.727 110.624 212.868 111.6C213.29 111.107 213.23 108.436 212.03 108.699C210.746 108.496 209.657 107.652 208.636 108.971L209.55 109.252C208.596 109.657 209.067 109.567 208.362 109.683C208.305 110.086 208.192 110.394 208.013 110.636C207.815 110.877 207.583 111.055 207.342 111.211C206.85 111.522 206.354 111.745 205.966 112.184C205.996 112.181 206.024 112.176 206.066 112.203C206.932 113.165 206.052 114.029 205.645 114.48L205.077 114.505C204.509 114.462 204.853 115.036 205.122 115.525C205.359 116.001 205.551 116.358 204.824 115.745C203.897 118.722 201.523 121.773 198.747 124.294C198.817 125.164 196.514 126.149 198.015 126.648C197.15 126.369 196.082 126.556 195.162 126.917C194.237 127.272 193.37 127.728 192.964 128.061C192.915 127.918 192.858 127.756 193.025 127.71C191.641 127.465 191.391 128.148 191.108 128.811C190.825 129.459 190.524 130.104 189.064 129.515C189.374 130.338 188.535 130.653 187.639 131.046C186.74 131.438 185.743 131.848 185.715 133.021C185.325 132.787 185.1 132.511 185.038 132.195C181.888 133.728 178.062 134.652 175.255 135.608C174.324 136.757 172.795 137.113 171.338 137.494C169.864 137.843 168.486 138.289 167.708 139.588C165.807 139.688 162.736 139.607 160.437 141.022L160.621 140.715C157.827 141.504 154.31 142.343 152.568 143.997C151.354 142.162 150.194 142.777 148.854 142.353C147.972 142.958 146.547 143.339 144.993 143.73C143.431 144.085 141.74 144.452 140.308 145.045C139.753 144.168 137.902 145.689 137.615 144.359C129.582 147.815 118.927 147.225 110.161 144.882L110.293 144.791C109.116 145.505 107.706 147.065 106.461 147.95C106.351 147.826 106.377 147.603 106.626 147.624C104.964 147.792 103.522 146.368 101.879 146.473C101.91 146.251 101.911 146.251 102.191 146.059C100.608 146.548 99.1388 144.73 97.2458 145.574L97.1829 145.208L95.9878 145.589C96.0648 145.149 96.1829 144.485 96.7739 144.692C89.8639 143.751 82.8239 143.051 75.7609 141.901C72.2379 141.308 68.7048 140.628 65.2458 139.676C61.7798 138.749 58.3659 137.599 55.1239 136.103L55.7709 135.917C55.7709 135.917 55.0599 135.822 54.3489 135.726C53.6309 135.64 52.9319 135.504 52.9319 135.503C53.0399 135.304 53.2039 135.26 53.3649 135.225C50.4899 133.117 46.7168 132.524 43.9048 130.534C44.0358 130.36 44.6968 130.264 44.4279 129.805C43.0319 129.675 42.4299 128.753 41.8799 128.09C41.3119 127.432 40.8349 126.975 39.5759 127.592C39.5549 127.427 39.8429 126.93 40.1639 126.922C37.1989 125.181 34.4999 122.915 32.4349 120.214C31.3789 118.878 30.5669 117.401 29.8899 115.897L29.4739 114.742L29.2668 114.166L29.1299 113.576L28.8589 112.403C28.7999 112.008 28.7719 111.612 28.7259 111.22C27.1659 108.781 27.3059 105.542 28.3649 102.727C29.4079 99.8517 31.1139 97.3067 32.4389 94.3767L32.7649 94.6967C34.7689 91.1517 38.1189 88.4007 41.7209 86.2347C45.3469 84.0497 49.2629 82.3787 53.0279 80.5207C56.2999 79.3087 58.2829 77.9057 61.6139 76.7317L61.8838 77.2407C64.3218 75.2307 67.4979 74.7987 70.6359 74.4057C73.8019 74.0537 76.9409 73.7327 79.7309 71.9617L79.4698 72.8037C80.1708 71.4387 83.2048 72.4797 82.4698 70.5457L83.6619 70.9677C85.4979 69.2497 87.4749 69.2587 89.5539 69.3927C91.6409 69.5277 93.8299 69.7977 96.3039 68.6487L96.0189 69.1677C97.3428 68.6577 98.9139 68.1767 99.9689 68.5417C99.8169 68.6237 99.9029 68.7607 99.5899 68.9147C104.015 70.4637 108.609 68.0627 113.178 68.0187L112.687 68.9437C114.852 67.8207 118.88 68.7777 121.755 68.3497L121.573 68.7737L123.04 68.1947L123.058 69.0547C126.779 69.2267 130.331 68.6347 133.989 68.8347Z" fill="black"/>
<path d="M171.346 74.7817C171.338 74.7697 171.323 74.7647 171.316 74.7427C171.186 74.7817 171.241 74.7897 171.346 74.7817Z" fill="black"/>
<path d="M205.694 112.5C205.782 112.38 205.867 112.282 205.968 112.186C205.79 112.173 205.763 112.396 205.694 112.5Z" fill="black"/>
<path d="M189.827 88.4397C189.827 111.092 148.575 129.452 97.6959 129.452C46.8129 129.452 5.56689 111.093 5.56689 88.4397C5.56689 65.7867 46.8129 47.4237 97.6959 47.4237C148.575 47.4247 189.827 65.7877 189.827 88.4397Z" fill="white"/>
<path d="M194.509 88.4397L194.761 88.1807L193.999 87.5377L194.509 88.4397Z" fill="black"/>
<path d="M192.486 84.4027C192.377 84.5437 192.152 84.5267 192.041 84.6677C192.041 84.6677 192.651 85.1467 193.264 85.6887C193.584 85.9557 193.833 86.2457 194.051 86.4637C194.259 86.6867 194.398 86.8357 194.398 86.8357C194.948 86.2167 194.337 85.7437 193.61 85.4067C192.901 85.0557 192.159 84.8167 192.486 84.4027Z" fill="black"/>
<path d="M192.57 83.6667C192.82 82.6447 191.748 82.5237 191.383 82.4237C192.198 82.5267 191.616 84.0847 192.57 83.6667Z" fill="black"/>
<path d="M132.308 47.5946C132.383 47.6026 132.487 47.5926 132.566 47.5756C132.447 47.5236 132.361 47.5396 132.308 47.5946Z" fill="black"/>
<path d="M113.649 48.5707L113.399 49.3307C116.904 48.1897 120.586 50.0147 124.21 49.8777L123.933 50.1187C132.893 51.6307 141.373 52.0397 150.298 54.1467C150.138 54.1827 150.025 54.3867 149.859 54.4287C150.356 54.3027 150.97 53.9757 151.423 54.1887C151.493 54.3917 151.182 54.4907 151.007 54.5177C151.732 55.4167 153.131 55.6437 154.453 55.8687C155.781 56.0707 157.044 56.2297 157.426 56.9217C157.978 56.9877 158.397 56.5747 158.259 56.0857C161.682 57.2077 165.167 58.5747 168.62 60.1287C172.078 61.6767 175.512 63.3917 178.864 65.2867C179.05 65.6527 178.887 65.9697 178.539 66.2607C184.907 68.4757 189.784 74.6677 191.624 81.6847C192.228 81.7937 191.964 80.7747 192.712 81.3067C192.725 80.6557 192.461 80.1337 192.194 79.6317C191.9 79.1447 191.586 78.6777 191.199 78.2837C190.434 77.4837 189.809 76.6947 189.642 75.5757L190.238 75.5297C189.689 74.0337 188.948 75.9817 188.665 74.2767C188.667 73.5177 189.311 74.0147 189.174 73.7577C187.136 71.2187 185.112 68.4577 182.076 67.4987C182.183 66.8407 181.57 66.2627 180.886 65.7117C180.195 65.1707 179.463 64.6077 179.337 63.8177C178.432 63.7007 177.84 63.1747 177.164 63.6237C172.996 60.3527 168.225 57.9787 163.337 56.0777C158.44 54.1647 153.411 52.6887 148.404 51.2037C145.753 51.5867 143.223 50.8187 140.573 49.9117C139.25 49.4587 137.906 48.9497 136.518 48.5737C135.134 48.1797 133.717 47.8667 132.261 47.8147C132.236 47.7307 132.257 47.6487 132.306 47.5917C130.357 47.7817 127.623 47.6357 125.446 47.0357L123.445 47.7267C116.913 45.9167 110.092 45.2557 103.265 45.0707C96.428 44.8857 89.58 45.1657 82.722 45.2647C74.943 45.5697 67.583 45.9567 60.38 47.2507C53.198 48.5487 46.124 50.6857 39.439 54.6287C39.385 54.4197 39.229 54.3477 39.57 54.1317C35.591 56.0257 31.561 56.8357 28.007 59.1117L27.921 58.9097C23.712 62.0637 19.077 64.7317 14.943 68.2217C12.857 69.9217 10.958 71.8887 9.39099 74.0597C9.01799 74.6187 8.61001 75.1427 8.29601 75.7357C7.97601 76.3217 7.66797 76.9097 7.37597 77.4967C6.87497 78.7247 6.428 79.9487 6.234 81.2257C5.082 84.0557 4.54 87.2947 4.885 90.5327C5.225 93.7747 6.47601 96.9217 8.23901 99.6847C10.007 102.459 12.274 104.875 14.739 106.976C17.202 109.087 19.896 110.86 22.639 112.394L22.382 112.751C26.912 115.022 31.182 117.486 35.663 119.689C40.128 121.888 44.774 123.83 49.745 124.809C54.638 126.65 60.034 127.154 65.37 127.439C70.722 127.728 76.025 127.808 81.141 128.893C82.698 129.572 84.429 129.808 86.226 129.8C88.022 129.823 89.886 129.568 91.726 129.325C95.413 128.829 98.989 128.215 102.021 129.284C108.252 130.844 114.483 130.741 120.55 129.682C126.626 128.624 132.539 126.606 138.33 124.286C144.016 123.646 149.415 121.656 154.593 119.492C159.8 117.324 164.742 115.004 170.112 113.352C171.995 111.397 174.494 110.354 177.14 109.147C179.778 107.973 182.545 106.505 184.378 104.075L183.827 103.875C185.184 103.643 185.484 102.275 185.738 101.141C185.987 99.9777 186.12 98.9847 187.553 99.0467L187.528 99.2947C188.368 99.1187 188.025 98.1267 187.666 97.3017C187.327 96.4687 186.874 95.7397 187.678 95.7237L187.173 95.3297C187.481 94.0867 187.878 95.4487 188.488 94.5917C188.522 94.1957 187.462 94.0987 188.009 93.4657C189.216 93.7377 189.399 92.9077 189.409 92.0857C189.445 91.2667 189.534 90.4957 190.93 90.5877C190.884 90.9747 191.203 90.7087 191.556 90.5517C191.893 90.3977 192.388 90.3627 192.529 91.3387C192.951 90.8457 192.891 88.1747 191.691 88.4377C190.407 88.2347 189.318 87.3907 188.297 88.7097L189.211 88.9907C188.257 89.3957 188.728 89.3057 188.023 89.4217C187.966 89.8247 187.853 90.1327 187.674 90.3747C187.476 90.6157 187.244 90.7937 187.003 90.9497C186.511 91.2607 186.015 91.4837 185.627 91.9227C185.657 91.9197 185.685 91.9147 185.727 91.9417C186.593 92.9037 185.713 93.7677 185.306 94.2187L184.737 94.2437C184.17 94.2007 184.514 94.7747 184.783 95.2637C185.02 95.7397 185.212 96.0967 184.485 95.4837C183.558 98.4607 181.183 101.512 178.408 104.033C178.478 104.903 176.175 105.888 177.676 106.387C176.811 106.108 175.743 106.295 174.823 106.655C173.898 107.011 173.031 107.466 172.625 107.799C172.576 107.656 172.519 107.494 172.686 107.448C171.302 107.203 171.052 107.886 170.769 108.549C170.486 109.197 170.185 109.842 168.724 109.253C169.034 110.076 168.195 110.391 167.299 110.783C166.4 111.176 165.403 111.585 165.375 112.759C164.986 112.525 164.76 112.249 164.699 111.933C161.549 113.466 157.723 114.39 154.915 115.346C153.984 116.495 152.455 116.851 150.998 117.232C149.524 117.582 148.146 118.028 147.368 119.326C145.467 119.426 142.395 119.345 140.097 120.76L140.281 120.454C137.487 121.242 133.97 122.082 132.228 123.735C131.014 121.9 129.854 122.515 128.513 122.092C127.631 122.697 126.206 123.078 124.652 123.469C123.09 123.824 121.399 124.191 119.967 124.784C119.412 123.907 117.561 125.428 117.274 124.098C109.24 127.554 98.586 126.964 89.819 124.621L89.952 124.53C88.775 125.244 87.365 126.804 86.12 127.689C86.01 127.565 86.036 127.342 86.285 127.363C84.623 127.531 83.182 126.107 81.539 126.212C81.57 125.99 81.57 125.99 81.851 125.798C80.268 126.287 78.799 124.469 76.906 125.313L76.843 124.947L75.648 125.328C75.725 124.888 75.842 124.224 76.434 124.431C69.524 123.49 62.484 122.79 55.42 121.64C51.898 121.047 48.364 120.367 44.905 119.415C41.439 118.488 38.025 117.338 34.783 115.841L35.43 115.655C35.43 115.655 34.72 115.56 34.009 115.464C33.291 115.378 32.592 115.241 32.592 115.241C32.699 115.042 32.864 114.998 33.025 114.962C30.15 112.855 26.377 112.261 23.565 110.271C23.696 110.097 24.357 110.001 24.088 109.542C22.692 109.412 22.09 108.49 21.54 107.827C20.972 107.169 20.495 106.712 19.235 107.329C19.215 107.164 19.502 106.666 19.824 106.659C16.858 104.918 14.16 102.652 12.095 99.9507C11.04 98.6137 10.227 97.1377 9.55102 95.6337L9.135 94.4787L8.92797 93.9027L8.79101 93.3127L8.51898 92.1397C8.46098 91.7447 8.43198 91.3477 8.38598 90.9567C6.82598 88.5167 6.96602 85.2787 8.02502 82.4637C9.06802 79.5887 10.774 77.0437 12.099 74.1137L12.425 74.4337C14.43 70.8887 17.779 68.1377 21.381 65.9717C25.007 63.7867 28.923 62.1157 32.688 60.2567C35.96 59.0447 37.943 57.6417 41.274 56.4677L41.544 56.9757C43.982 54.9667 47.158 54.5347 50.296 54.1407C53.462 53.7887 56.601 53.4677 59.392 51.6967L59.13 52.5387C59.831 51.1737 62.865 52.2147 62.13 50.2807L63.322 50.7027C65.158 48.9847 67.135 48.9937 69.214 49.1277C71.301 49.2627 73.49 49.5327 75.964 48.3837L75.679 48.9027C77.003 48.3917 78.574 47.9117 79.629 48.2767C79.477 48.3597 79.563 48.4967 79.25 48.6497C83.675 50.1987 88.269 47.7987 92.838 47.7537L92.347 48.6787C94.512 47.5557 98.54 48.5127 101.416 48.0847L101.234 48.5087L102.701 47.9297L102.718 48.7897C106.439 48.9637 109.991 48.3707 113.649 48.5707Z" fill="black"/>
<path d="M151.007 54.5187C150.999 54.5067 150.984 54.5017 150.977 54.4807C150.847 54.5187 150.902 54.5267 151.007 54.5187Z" fill="black"/>
<path d="M185.354 92.2377C185.442 92.1177 185.526 92.0196 185.628 91.9236C185.45 91.9106 185.423 92.1337 185.354 92.2377Z" fill="black"/>
<path d="M5.56689 69.8778C5.56689 47.2258 46.8149 28.8638 97.6959 28.8638C148.579 28.8638 189.827 47.2248 189.827 69.8778C189.827 92.5258 148.579 110.888 97.6959 110.888C46.8149 110.887 5.56689 92.5258 5.56689 69.8778Z" fill="white"/>
<path d="M0.883789 69.8777L0.632812 70.1357L1.3938 70.7787L0.883789 69.8777Z" fill="black"/>
<path d="M2.90789 73.9147C3.01689 73.7737 3.2419 73.7907 3.3529 73.6497C3.3529 73.6497 2.74388 73.1707 2.12988 72.6287C1.80988 72.3617 1.56089 72.0717 1.34289 71.8537C1.13489 71.6307 0.995845 71.4817 0.995845 71.4817C0.445845 72.1017 1.05687 72.5737 1.78387 72.9117C2.49187 73.2617 3.23489 73.5007 2.90789 73.9147Z" fill="black"/>
<path d="M2.82352 74.6507C2.57352 75.6727 3.64557 75.7937 4.01157 75.8937C3.19457 75.7907 3.77652 74.2327 2.82352 74.6507Z" fill="black"/>
<path d="M63.0866 110.718C63.0116 110.71 62.9086 110.719 62.8286 110.737C62.9486 110.789 63.0346 110.773 63.0866 110.718Z" fill="black"/>
<path d="M81.7468 109.741L81.9968 108.981C78.4918 110.122 74.8098 108.297 71.1858 108.434L71.4628 108.193C62.5028 106.682 54.0228 106.273 45.0978 104.166C45.2578 104.131 45.3698 103.926 45.5368 103.884C45.0398 104.01 44.4248 104.337 43.9728 104.124C43.9028 103.92 44.2138 103.822 44.3888 103.795C43.6638 102.896 42.2648 102.67 40.9418 102.444C39.6138 102.242 38.3508 102.083 37.9688 101.391C37.4168 101.325 36.9978 101.739 37.1358 102.227C33.7118 101.105 30.2278 99.7377 26.7738 98.1847C23.3158 96.6367 19.8818 94.9227 16.5288 93.0277C16.3438 92.6617 16.5058 92.3437 16.8538 92.0537C10.4858 89.8397 5.60776 83.6477 3.76676 76.6307C3.16376 76.5227 3.42778 77.5407 2.67978 77.0087C2.66678 77.6597 2.93079 78.1817 3.19779 78.6837C3.49179 79.1707 3.80578 79.6377 4.19278 80.0317C4.95778 80.8317 5.58379 81.6207 5.74979 82.7397L5.15378 82.7857C5.70278 84.2817 6.44382 82.3337 6.72782 84.0387C6.72582 84.7967 6.08178 84.3007 6.21878 84.5577C8.25678 87.0967 10.2818 89.8567 13.3168 90.8157C13.2098 91.4737 13.8228 92.0527 14.5068 92.6027C15.1978 93.1437 15.9298 93.7067 16.0558 94.4967C16.9608 94.6127 17.5528 95.1387 18.2288 94.6907C22.3978 97.9617 27.1688 100.335 32.0568 102.236C36.9528 104.149 41.9828 105.624 46.9898 107.108C48.3188 106.912 49.6068 107.025 50.9068 107.265C52.2018 107.52 53.4938 107.962 54.8208 108.399C56.1438 108.852 57.4878 109.361 58.8758 109.737C60.2598 110.131 61.6768 110.443 63.1328 110.495C63.1578 110.579 63.1368 110.661 63.0868 110.718C65.0358 110.528 67.7708 110.674 69.9478 111.274L71.9488 110.583C78.4808 112.393 85.3018 113.054 92.1278 113.238C98.9638 113.423 105.813 113.143 112.671 113.044C120.449 112.739 127.81 112.353 135.013 111.058C142.194 109.76 149.269 107.624 155.954 103.681C156.008 103.89 156.165 103.962 155.823 104.178C159.802 102.284 163.833 101.474 167.386 99.1977L167.472 99.3997C171.682 96.2457 176.316 93.5787 180.45 90.0877C182.536 88.3877 184.435 86.4217 186.002 84.2507C186.375 83.6917 186.784 83.1677 187.096 82.5747C187.417 81.9887 187.725 81.4007 188.017 80.8147C188.519 79.5857 188.964 78.3617 189.159 77.0857C190.31 74.2547 190.852 71.0157 190.506 67.7777C190.165 64.5357 188.914 61.3887 187.15 58.6267C185.382 55.8537 183.115 53.4367 180.65 51.3367C178.187 49.2257 175.493 47.4527 172.75 45.9197L173.007 45.5627C168.477 43.2917 164.207 40.8277 159.726 38.6247C155.261 36.4257 150.615 34.4837 145.644 33.5047C140.751 31.6637 135.356 31.1597 130.019 30.8747C124.667 30.5857 119.363 30.5057 114.248 29.4207C112.69 28.7417 110.959 28.5057 109.163 28.5137C107.367 28.4907 105.503 28.7467 103.663 28.9887C99.9758 29.4847 96.4008 30.0987 93.3678 29.0297C87.1368 27.4697 80.9058 27.5727 74.8388 28.6317C68.7628 29.6897 62.8498 31.7077 57.0588 34.0277C51.3728 34.6677 45.9738 36.6577 40.7958 38.8217C35.5888 40.9897 30.6478 43.3097 25.2778 44.9617C23.3948 46.9167 20.8958 47.9607 18.2498 49.1667C15.6118 50.3407 12.8448 51.8087 11.0118 54.2387L11.5628 54.4387C10.2048 54.6717 9.90577 56.0397 9.65177 57.1737C9.40277 58.3367 9.26977 59.3287 7.83677 59.2677L7.86179 59.0197C7.02179 59.1967 7.36579 60.1877 7.72379 61.0127C8.06379 61.8457 8.5158 62.5747 7.7128 62.5907L8.21781 62.9847C7.90981 64.2277 7.51181 62.8657 6.90281 63.7227C6.86881 64.1187 7.92881 64.2157 7.38181 64.8487C6.17481 64.5767 5.99179 65.4067 5.98179 66.2287C5.94579 67.0477 5.85679 67.8187 4.46079 67.7267C4.50679 67.3397 4.18781 67.6057 3.83481 67.7627C3.49681 67.9167 3.00279 67.9517 2.86179 66.9757C2.43979 67.4687 2.4998 70.1397 3.6998 69.8767C4.9838 70.0797 6.07278 70.9237 7.09378 69.6047L6.17978 69.3237C7.13378 68.9187 6.66277 69.0087 7.36777 68.8927C7.42477 68.4897 7.53777 68.1817 7.71677 67.9397C7.91477 67.6987 8.14679 67.5207 8.38779 67.3647C8.87979 67.0537 9.37577 66.8307 9.76377 66.3917C9.73477 66.3947 9.70677 66.3997 9.66477 66.3727C8.79877 65.4107 9.67879 64.5467 10.0858 64.0947L10.6538 64.0697C11.2218 64.1127 10.8778 63.5377 10.6088 63.0497C10.3718 62.5737 10.1798 62.2167 10.9068 62.8297C11.8338 59.8527 14.2078 56.8017 16.9838 54.2807C16.9128 53.4107 19.2158 52.4257 17.7158 51.9267C18.5808 52.2057 19.6488 52.0187 20.5688 51.6577C21.4938 51.3027 22.3608 50.8467 22.7668 50.5137C22.8158 50.6567 22.8728 50.8187 22.7058 50.8647C24.0898 51.1097 24.3398 50.4267 24.6228 49.7637C24.9058 49.1157 25.2068 48.4697 26.6668 49.0597C26.3568 48.2367 27.1958 47.9217 28.0918 47.5297C28.9908 47.1367 29.9878 46.7277 30.0158 45.5537C30.4048 45.7877 30.6308 46.0637 30.6918 46.3797C33.8418 44.8467 37.6678 43.9227 40.4748 42.9667C41.4068 41.8177 42.9358 41.4617 44.3918 41.0807C45.8658 40.7307 47.2438 40.2847 48.0218 38.9867C49.9228 38.8867 52.9948 38.9677 55.2928 37.5527L55.1088 37.8597C57.9028 37.0707 61.4198 36.2317 63.1618 34.5777C64.3758 36.4127 65.5358 35.7977 66.8758 36.2207C67.7578 35.6157 69.1828 35.2347 70.7368 34.8437C72.2988 34.4887 73.9898 34.1227 75.4218 33.5287C75.9768 34.4067 77.8278 32.8847 78.1148 34.2147C86.1478 30.7587 96.8028 31.3487 105.569 33.6917L105.437 33.7827C106.614 33.0687 108.024 31.5087 109.269 30.6227C109.379 30.7477 109.353 30.9697 109.104 30.9487C110.766 30.7817 112.208 32.2057 113.85 32.1007C113.819 32.3227 113.819 32.3227 113.538 32.5147C115.121 32.0257 116.59 33.8437 118.483 32.9997L118.546 33.3657L119.741 32.9847C119.664 33.4247 119.546 34.0887 118.955 33.8817C125.865 34.8227 132.905 35.5227 139.968 36.6727C143.49 37.2657 147.024 37.9457 150.483 38.8977C153.949 39.8247 157.363 40.9747 160.605 42.4707L159.958 42.6567C159.958 42.6567 160.669 42.7517 161.38 42.8477C162.098 42.9337 162.797 43.0697 162.797 43.0707C162.689 43.2697 162.525 43.3137 162.364 43.3487C165.239 45.4567 169.012 46.0497 171.824 48.0397C171.693 48.2137 171.032 48.3097 171.301 48.7687C172.697 48.8987 173.299 49.8197 173.85 50.4837C174.417 51.1417 174.895 51.5987 176.154 50.9817C176.175 51.1467 175.887 51.6437 175.566 51.6517C178.532 53.3927 181.23 55.6587 183.296 58.3597C184.352 59.6957 185.164 61.1727 185.841 62.6767L186.257 63.8317L186.464 64.4067L186.601 64.9967L186.873 66.1687C186.932 66.5637 186.96 66.9607 187.006 67.3517C188.566 69.7907 188.426 73.0287 187.369 75.8447C186.326 78.7197 184.62 81.2647 183.295 84.1947L182.969 83.8747C180.964 87.4187 177.615 90.1707 174.013 92.3357C170.387 94.5207 166.471 96.1917 162.706 98.0497C159.434 99.2617 157.451 100.665 154.12 101.839L153.85 101.33C151.412 103.339 148.236 103.771 145.098 104.165C141.932 104.517 138.793 104.838 136.002 106.609L136.263 105.767C135.562 107.132 132.528 106.091 133.264 108.025L132.072 107.603C130.236 109.321 128.26 109.312 126.18 109.178C124.093 109.043 121.904 108.773 119.43 109.922L119.715 109.403C118.391 109.914 116.82 110.394 115.765 110.029C115.917 109.946 115.831 109.81 116.144 109.656C111.719 108.107 107.125 110.508 102.557 110.552L103.048 109.627C100.883 110.75 96.8548 109.793 93.9788 110.221L94.1608 109.797L92.6938 110.376L92.6768 109.516C88.9558 109.349 85.4048 109.941 81.7468 109.741Z" fill="black"/>
<path d="M44.3887 103.795C44.3957 103.806 44.4117 103.811 44.4187 103.833C44.5487 103.796 44.4937 103.787 44.3887 103.795Z" fill="black"/>
<path d="M10.0386 66.0787C9.95064 66.1987 9.86565 66.2967 9.76465 66.3927C9.94265 66.4057 9.96964 66.1827 10.0386 66.0787Z" fill="black"/>
<path d="M124.196 102.632C175.078 102.632 216.327 84.2683 216.327 61.6158C216.327 38.9632 175.078 20.5997 124.196 20.5997C73.3134 20.5997 32.0649 38.9632 32.0649 61.6158C32.0649 84.2683 73.3134 102.632 124.196 102.632Z" fill="white"/>
<path d="M221.009 61.6158L221.261 61.3568L220.499 60.7137L221.009 61.6158Z" fill="black"/>
<path d="M218.986 57.5778C218.877 57.7188 218.652 57.7027 218.541 57.8438C218.541 57.8438 219.15 58.3227 219.764 58.8647C220.084 59.1317 220.333 59.4217 220.551 59.6397C220.759 59.8627 220.898 60.0117 220.898 60.0117C221.448 59.3927 220.837 58.9198 220.11 58.5818C219.401 58.2318 218.659 57.9928 218.986 57.5778Z" fill="black"/>
<path d="M219.07 56.8417C219.32 55.8197 218.248 55.6988 217.882 55.5988C218.698 55.7028 218.116 57.2607 219.07 56.8417Z" fill="black"/>
<path d="M158.806 20.7737C158.881 20.7817 158.985 20.7727 159.064 20.7547C158.944 20.7027 158.859 20.7187 158.806 20.7737Z" fill="black"/>
<path d="M140.146 21.7507L139.896 22.5107C143.402 21.3687 147.084 23.1937 150.708 23.0577L150.431 23.2987C159.391 24.8097 167.871 25.2187 176.796 27.3257C176.636 27.3607 176.524 27.5657 176.357 27.6077C176.854 27.4817 177.469 27.1547 177.921 27.3677C177.991 27.5717 177.68 27.6697 177.505 27.6967C178.23 28.5957 179.629 28.8227 180.952 29.0477C182.28 29.2497 183.543 29.4087 183.925 30.1007C184.478 30.1667 184.896 29.7537 184.758 29.2647C188.181 30.3867 191.666 31.7537 195.119 33.3077C198.577 34.8557 202.011 36.5697 205.364 38.4657C205.549 38.8317 205.387 39.1487 205.039 39.4397C211.407 41.6537 216.285 47.8467 218.125 54.8627C218.728 54.9707 218.464 53.9527 219.212 54.4847C219.225 53.8337 218.961 53.3117 218.694 52.8097C218.4 52.3227 218.086 51.8557 217.699 51.4617C216.934 50.6617 216.309 49.8727 216.142 48.7537L216.738 48.7077C216.189 47.2117 215.448 49.1597 215.165 47.4547C215.167 46.6957 215.811 47.1927 215.674 46.9347C213.636 44.3957 211.611 41.6357 208.575 40.6767C208.682 40.0187 208.069 39.4397 207.386 38.8897C206.695 38.3477 205.963 37.7857 205.837 36.9957C204.932 36.8787 204.34 36.3527 203.664 36.8017C199.496 33.5307 194.724 31.1577 189.836 29.2567C184.939 27.3437 179.909 25.8687 174.902 24.3837C172.251 24.7667 169.721 23.9987 167.071 23.0927C165.748 22.6387 164.404 22.1307 163.016 21.7547C161.632 21.3607 160.215 21.0487 158.759 20.9957C158.734 20.9117 158.755 20.8297 158.804 20.7727C156.855 20.9627 154.121 20.8167 151.943 20.2167L149.942 20.9077C143.409 19.0977 136.589 18.4367 129.762 18.2517C122.926 18.0667 116.077 18.3467 109.219 18.4457C101.44 18.7507 94.0801 19.1367 86.8771 20.4317C79.6951 21.7297 72.621 23.8657 65.936 27.8087C65.882 27.5997 65.7251 27.5277 66.0671 27.3117C62.0881 29.2057 58.057 30.0157 54.504 32.2917L54.418 32.0897C50.208 35.2437 45.5741 37.9117 41.4391 41.4017C39.3541 43.1017 37.4541 45.0687 35.8881 47.2397C35.5151 47.7987 35.1061 48.3227 34.7941 48.9157C34.4731 49.5027 34.165 50.0897 33.873 50.6767C33.372 51.9057 32.9261 53.1297 32.7311 54.4057C31.5801 57.2367 31.038 60.4757 31.384 63.7137C31.725 66.9557 32.9761 70.1027 34.7391 72.8647C36.5071 75.6377 38.7741 78.0547 41.2391 80.1547C43.7021 82.2667 46.396 84.0397 49.139 85.5727L48.8821 85.9297C53.4121 88.2007 57.6831 90.6647 62.1641 92.8677C66.6291 95.0667 71.275 97.0087 76.246 97.9877C81.139 99.8287 86.535 100.333 91.871 100.618C97.223 100.907 102.527 100.987 107.642 102.072C109.2 102.751 110.93 102.987 112.727 102.979C114.523 103.002 116.387 102.746 118.227 102.504C121.914 102.008 125.49 101.394 128.522 102.463C134.753 104.023 140.984 103.92 147.052 102.86C153.128 101.802 159.041 99.7837 164.832 97.4637C170.518 96.8237 175.917 94.8337 181.095 92.6687C186.302 90.5007 191.243 88.1807 196.613 86.5277C198.496 84.5727 200.995 83.5287 203.641 82.3217C206.279 81.1477 209.047 79.6797 210.879 77.2497L210.328 77.0497C211.685 76.8167 211.984 75.4487 212.239 74.3147C212.488 73.1517 212.621 72.1587 214.054 72.2197L214.029 72.4677C214.869 72.2917 214.525 71.2997 214.167 70.4747C213.828 69.6417 213.375 68.9127 214.179 68.8967L213.674 68.5037C213.982 67.2597 214.38 68.6227 214.989 67.7647C215.023 67.3687 213.963 67.2717 214.51 66.6387C215.717 66.9107 215.901 66.0807 215.91 65.2587C215.946 64.4397 216.035 63.6687 217.431 63.7607C217.385 64.1477 217.704 63.8817 218.057 63.7247C218.394 63.5707 218.889 63.5357 219.03 64.5117C219.452 64.0187 219.392 61.3477 218.192 61.6107C216.908 61.4077 215.819 60.5637 214.798 61.8827L215.712 62.1637C214.758 62.5687 215.229 62.4787 214.524 62.5947C214.467 62.9977 214.354 63.3057 214.175 63.5477C213.977 63.7887 213.745 63.9667 213.504 64.1227C213.012 64.4327 212.516 64.6567 212.128 65.0947C212.157 65.0917 212.185 65.0877 212.227 65.1137C213.093 66.0757 212.213 66.9397 211.806 67.3907L211.238 67.4157C210.671 67.3727 211.014 67.9467 211.284 68.4357C211.521 68.9117 211.713 69.2687 210.986 68.6557C210.06 71.6327 207.685 74.6847 204.91 77.2057C204.98 78.0767 202.677 79.0617 204.178 79.5597C203.313 79.2807 202.244 79.4667 201.325 79.8277C200.399 80.1837 199.533 80.6387 199.126 80.9717C199.077 80.8287 199.02 80.6667 199.187 80.6207C197.803 80.3757 197.553 81.0587 197.27 81.7217C196.987 82.3697 196.686 83.0157 195.226 82.4257C195.536 83.2487 194.697 83.5637 193.801 83.9557C192.902 84.3487 191.905 84.7577 191.878 85.9317C191.488 85.6977 191.262 85.4217 191.201 85.1057C188.051 86.6397 184.225 87.5627 181.418 88.5187C180.486 89.6677 178.957 90.0237 177.501 90.4047C176.027 90.7537 174.649 91.1997 173.871 92.4987C171.97 92.5987 168.898 92.5177 166.6 93.9327L166.784 93.6257C163.991 94.4147 160.473 95.2537 158.731 96.9077C157.517 95.0727 156.357 95.6877 155.016 95.2647C154.134 95.8697 152.709 96.2507 151.155 96.6417C149.593 96.9967 147.902 97.3637 146.47 97.9567C145.915 97.0787 144.064 98.6007 143.777 97.2707C135.743 100.727 125.089 100.137 116.322 97.7937L116.454 97.7027C115.277 98.4167 113.867 99.9767 112.622 100.863C112.511 100.738 112.538 100.516 112.787 100.537C111.125 100.704 109.683 99.2797 108.04 99.3847C108.071 99.1627 108.071 99.1627 108.352 98.9707C106.769 99.4597 105.301 97.6417 103.407 98.4857L103.344 98.1197L102.149 98.5007C102.226 98.0607 102.344 97.3967 102.935 97.6037C96.0251 96.6627 88.9851 95.9627 81.9211 94.8127C78.3991 94.2197 74.8651 93.5397 71.4061 92.5867C67.9401 91.6597 64.5261 90.5097 61.2841 89.0137L61.931 88.8277C61.931 88.8277 61.22 88.7317 60.509 88.6367C59.791 88.5507 59.092 88.4147 59.092 88.4147C59.199 88.2157 59.3641 88.1717 59.5251 88.1357C56.6501 86.0277 52.8771 85.4337 50.0651 83.4447C50.1961 83.2707 50.8571 83.1737 50.5881 82.7157C49.1921 82.5857 48.5901 81.6647 48.0391 81.0007C47.4721 80.3427 46.994 79.8857 45.735 80.5027C45.714 80.3377 46.0021 79.8407 46.3231 79.8327C43.3571 78.0917 40.6591 75.8257 38.5941 73.1247C37.5381 71.7877 36.7261 70.3107 36.0491 68.8077L35.6331 67.6527L35.4261 67.0767L35.2891 66.4867L35.017 65.3137C34.958 64.9187 34.93 64.5217 34.884 64.1307C33.324 61.6917 33.4641 58.4537 34.5211 55.6377C35.5641 52.7627 37.2701 50.2177 38.5941 47.2877L38.92 47.6077C40.925 44.0627 44.274 41.3107 47.876 39.1457C51.502 36.9597 55.418 35.2897 59.183 33.4307C62.455 32.2187 64.438 30.8157 67.769 29.6417L68.0391 30.1497C70.4771 28.1407 73.6531 27.7087 76.7911 27.3157C79.9571 26.9637 83.0961 26.6427 85.8871 24.8717L85.626 25.7137C86.327 24.3487 89.361 25.3897 88.626 23.4557L89.8181 23.8777C91.6541 22.1597 93.6311 22.1687 95.7101 22.3027C97.7971 22.4377 99.9861 22.7077 102.46 21.5587L102.175 22.0777C103.499 21.5677 105.07 21.0867 106.125 21.4517C105.973 21.5337 106.059 21.6707 105.746 21.8247C110.171 23.3737 114.765 20.9727 119.334 20.9287L118.843 21.8537C121.008 20.7307 125.036 21.6877 127.912 21.2597L127.73 21.6837L129.197 21.1047L129.215 21.9647C132.936 22.1427 136.488 21.5507 140.146 21.7507Z" fill="black"/>
<path d="M177.504 27.6967C177.497 27.6857 177.481 27.6807 177.474 27.6587C177.345 27.6957 177.399 27.7047 177.504 27.6967Z" fill="black"/>
<path d="M211.854 65.4147C211.942 65.2947 212.027 65.1957 212.128 65.0997C211.95 65.0867 211.923 65.3097 211.854 65.4147Z" fill="black"/>
<path d="M124.196 83.1528C175.078 83.1528 216.327 64.7911 216.327 42.1408C216.327 19.4905 175.078 1.12878 124.196 1.12878C73.3134 1.12878 32.0649 19.4905 32.0649 42.1408C32.0649 64.7911 73.3134 83.1528 124.196 83.1528Z" fill="white"/>
<path d="M27.3829 42.1407L27.1309 42.3997L27.8929 43.0428L27.3829 42.1407Z" fill="black"/>
<path d="M29.4059 46.1787C29.5149 46.0377 29.7399 46.0547 29.8509 45.9137C29.8509 45.9137 29.2409 45.4347 28.6279 44.8927C28.3079 44.6257 28.0589 44.3357 27.8409 44.1177C27.6329 43.8947 27.4939 43.7457 27.4939 43.7457C26.9439 44.3647 27.5549 44.8377 28.2819 45.1757C28.9909 45.5257 29.7339 45.7637 29.4059 46.1787Z" fill="black"/>
<path d="M29.3221 46.9148C29.0721 47.9368 30.144 48.0578 30.509 48.1578C29.694 48.0538 30.2761 46.4958 29.3221 46.9148Z" fill="black"/>
<path d="M89.5837 82.9857C89.5087 82.9777 89.4047 82.9877 89.3257 83.0047C89.4457 83.0567 89.5307 83.0407 89.5837 82.9857Z" fill="black"/>
<path d="M108.244 82.0098L108.494 81.2497C104.988 82.3907 101.306 80.5657 97.6831 80.7027L97.9602 80.4617C89.0002 78.9507 80.5201 78.5407 71.5951 76.4337C71.7551 76.3977 71.8671 76.1937 72.0331 76.1517C71.5361 76.2777 70.9221 76.6047 70.4701 76.3917C70.4001 76.1887 70.7111 76.0897 70.8861 76.0627C70.1611 75.1637 68.7621 74.9367 67.4401 74.7117C66.1121 74.5097 64.8491 74.3507 64.4671 73.6587C63.9151 73.5917 63.4961 74.0058 63.6341 74.4948C60.2111 73.3727 56.7261 72.0057 53.2731 70.4517C49.8151 68.9027 46.3811 67.1887 43.0291 65.2937C42.8431 64.9277 43.0062 64.6097 43.3532 64.3197C36.9852 62.1047 32.1081 55.9128 30.2681 48.8957C29.6651 48.7877 29.9291 49.8057 29.1811 49.2737C29.1681 49.9247 29.4321 50.4467 29.6991 50.9487C29.9931 51.4357 30.3071 51.9027 30.6951 52.2967C31.4591 53.0967 32.0851 53.8857 32.2511 55.0047L31.6551 55.0507C32.2041 56.5467 32.9451 54.5987 33.2291 56.3037C33.2271 57.0627 32.5831 56.5658 32.7201 56.8228C34.7571 59.3618 36.7821 62.1217 39.8181 63.0817C39.7111 63.7397 40.3241 64.3177 41.0081 64.8687C41.6991 65.4097 42.4311 65.9727 42.5571 66.7627C43.4621 66.8797 44.0541 67.4057 44.7301 66.9567C48.8981 70.2277 53.6691 72.6017 58.5571 74.5027C63.4541 76.4157 68.4831 77.8917 73.4901 79.3767C76.1411 78.9937 78.6711 79.7617 81.3211 80.6687C82.6431 81.1217 83.9881 81.6307 85.3761 82.0067C86.7601 82.4007 88.1781 82.7137 89.6331 82.7657C89.6581 82.8497 89.6371 82.9317 89.5881 82.9887C91.5371 82.7987 94.2711 82.9447 96.4491 83.5447L98.4501 82.8537C104.983 84.6647 111.803 85.3258 118.63 85.5098C125.466 85.6947 132.315 85.4147 139.173 85.3158C146.952 85.0107 154.312 84.6247 161.515 83.3297C168.697 82.0317 175.771 79.8947 182.456 75.9517C182.51 76.1607 182.666 76.2327 182.325 76.4487C186.304 74.5547 190.334 73.7448 193.888 71.4688L193.974 71.6707C198.184 68.5167 202.818 65.8487 206.953 62.3587C209.038 60.6587 210.938 58.6917 212.505 56.5217C212.878 55.9627 213.286 55.4387 213.599 54.8457C213.92 54.2597 214.228 53.6717 214.52 53.0858C215.021 51.8568 215.468 50.6337 215.662 49.3567C216.814 46.5257 217.356 43.2867 217.011 40.0487C216.671 36.8067 215.42 33.6597 213.657 30.8977C211.889 28.1237 209.622 25.7067 207.157 23.6067C204.694 21.4957 202 19.7227 199.257 18.1887L199.514 17.8318C194.984 15.5608 190.713 13.0967 186.233 10.8937C181.768 8.69473 177.122 6.75274 172.151 5.77374C167.258 3.93274 161.863 3.42874 156.526 3.14474C151.174 2.85474 145.87 2.77573 140.755 1.69073C139.197 1.01173 137.466 0.775749 135.67 0.783749C133.874 0.760749 132.01 1.01576 130.17 1.25876C126.483 1.75476 122.907 2.36874 119.875 1.29974C113.644 -0.26026 107.413 -0.15727 101.345 0.90173C95.2701 1.95973 89.3561 3.97773 83.5651 6.29773C77.8791 6.93773 72.4801 8.92773 67.3021 11.0917C62.0951 13.2597 57.1531 15.5797 51.7831 17.2317C49.9002 19.1867 47.4011 20.2297 44.7551 21.4367C42.1171 22.6107 39.3491 24.0787 37.5171 26.5077L38.0681 26.7077C36.7101 26.9397 36.4111 28.3087 36.1571 29.4427C35.9081 30.6047 35.7751 31.5977 34.3411 31.5367L34.3671 31.2888C33.5261 31.4648 33.8702 32.4567 34.2282 33.2817C34.5682 34.1147 35.0201 34.8437 34.2171 34.8597L34.7221 35.2527C34.4141 36.4967 34.0161 35.1337 33.4071 35.9917C33.3731 36.3877 34.4331 36.4847 33.8861 37.1177C32.6791 36.8457 32.4962 37.6757 32.4862 38.4977C32.4502 39.3167 32.3612 40.0878 30.9652 39.9958C31.0112 39.6088 30.6921 39.8747 30.3391 40.0317C30.0021 40.1857 29.5072 40.2207 29.3662 39.2447C28.9432 39.7377 29.0041 42.4087 30.2041 42.1457C31.4881 42.3487 32.5772 43.1927 33.5982 41.8737L32.6841 41.5927C33.6382 41.1877 33.1671 41.2777 33.8721 41.1617C33.9291 40.7587 34.0421 40.4507 34.2211 40.2087C34.4191 39.9677 34.6511 39.7898 34.8931 39.6338C35.3841 39.3228 35.8811 39.0987 36.2691 38.6607C36.2391 38.6637 36.2111 38.6678 36.1691 38.6418C35.3031 37.6797 36.1832 36.8157 36.5902 36.3637L37.1581 36.3387C37.7261 36.3817 37.3821 35.8068 37.1131 35.3188C36.8761 34.8428 36.6841 34.4858 37.4111 35.0988C38.3381 32.1217 40.7121 29.0707 43.4881 26.5497C43.4171 25.6787 45.7211 24.6937 44.2201 24.1957C45.0851 24.4747 46.1541 24.2887 47.0731 23.9277C47.9991 23.5727 48.8651 23.1167 49.2721 22.7837C49.3211 22.9267 49.3781 23.0887 49.2111 23.1347C50.5951 23.3797 50.8451 22.6967 51.1281 22.0337C51.4111 21.3857 51.7121 20.7407 53.1721 21.3297C52.8621 20.5067 53.7011 20.1917 54.5971 19.7997C55.4961 19.4067 56.4931 18.9977 56.5211 17.8237C56.9111 18.0577 57.1361 18.3337 57.1981 18.6497C60.3481 17.1157 64.1741 16.1928 66.9811 15.2368C67.9131 14.0878 69.4421 13.7317 70.8981 13.3507C72.3721 13.0017 73.7501 12.5557 74.5281 11.2567C76.4291 11.1567 79.5011 11.2378 81.7991 9.82275L81.6151 10.1297C84.4091 9.34073 87.9261 8.50174 89.6681 6.84774C90.8821 8.68274 92.0421 8.06773 93.3821 8.49173C94.2642 7.88673 95.6891 7.50474 97.2441 7.11474C98.8061 6.75974 100.496 6.39274 101.929 5.79974C102.483 6.67674 104.335 5.15575 104.622 6.48574C112.655 3.02974 123.31 3.61973 132.077 5.96273L131.945 6.05374C133.122 5.33974 134.532 3.77974 135.777 2.89474C135.887 3.01874 135.861 3.24173 135.612 3.22073C137.274 3.05273 138.716 4.47773 140.359 4.37173C140.328 4.59373 140.327 4.59373 140.047 4.78573C141.63 4.29673 143.099 6.11475 144.992 5.27075L145.055 5.63675L146.251 5.25573C146.174 5.69573 146.056 6.35974 145.464 6.15274C152.374 7.09374 159.415 7.79375 166.478 8.94375C170.001 9.53675 173.534 10.2167 176.993 11.1697C180.459 12.0967 183.873 13.2467 187.116 14.7427L186.469 14.9287C186.469 14.9287 187.18 15.0247 187.891 15.1197C188.609 15.2057 189.308 15.3417 189.308 15.3417C189.2 15.5407 189.036 15.5848 188.875 15.6208C191.75 17.7278 195.523 18.3217 198.335 20.3117C198.204 20.4857 197.543 20.5827 197.812 21.0407C199.208 21.1707 199.81 22.0927 200.36 22.7567C200.928 23.4147 201.405 23.8708 202.665 23.2537C202.686 23.4188 202.398 23.9167 202.077 23.9237C205.042 25.6647 207.741 27.9307 209.806 30.6317C210.861 31.9687 211.674 33.4447 212.35 34.9487L212.766 36.1037L212.972 36.6787L213.109 37.2687L213.38 38.4417C213.439 38.8367 213.467 39.2328 213.513 39.6248C215.073 42.0638 214.933 45.3027 213.874 48.1177C212.831 50.9927 211.125 53.5367 209.8 56.4677L209.474 56.1477C207.47 59.6927 204.12 62.4437 200.518 64.6097C196.892 66.7947 192.976 68.4657 189.211 70.3247C185.939 71.5367 183.956 72.9397 180.625 74.1137L180.355 73.6047C177.917 75.6137 174.741 76.0467 171.603 76.4397C168.437 76.7917 165.298 77.1127 162.507 78.8837L162.768 78.0417C162.067 79.4067 159.033 78.3657 159.769 80.2997L158.577 79.8777C156.741 81.5957 154.765 81.5867 152.685 81.4527C150.598 81.3187 148.409 81.0477 145.935 82.1967L146.22 81.6777C144.896 82.1888 143.325 82.6687 142.27 82.3037C142.422 82.2207 142.335 82.0847 142.649 81.9307C138.224 80.3817 133.63 82.7827 129.061 82.8267L129.552 81.9017C127.387 83.0247 123.359 82.0677 120.483 82.4957L120.665 82.0717L119.198 82.6507L119.181 81.7907C115.454 81.6177 111.902 82.2097 108.244 82.0098Z" fill="black"/>
<path d="M70.8857 76.0618C70.8937 76.0738 70.9098 76.0788 70.9158 76.0998C71.0458 76.0628 70.9907 76.0538 70.8857 76.0618Z" fill="black"/>
<path d="M36.5377 38.3418C36.4497 38.4628 36.3657 38.5608 36.2637 38.6568C36.4417 38.6698 36.4687 38.4468 36.5377 38.3418Z" fill="black"/>
<path d="M124.195 76.2707C166.539 76.2707 200.865 60.9902 200.865 42.1407C200.865 23.2913 166.539 8.01074 124.195 8.01074C81.8512 8.01074 47.5249 23.2913 47.5249 42.1407C47.5249 60.9902 81.8512 76.2707 124.195 76.2707Z" fill="white"/>
<path d="M42.8429 42.1407L42.5889 42.3658L43.3459 42.9197L42.8429 42.1407Z" fill="black"/>
<path d="M44.8068 45.5958C44.9188 45.4718 45.1417 45.4798 45.2557 45.3568C45.2557 45.3568 44.6608 44.9618 44.0618 44.5058C43.4738 44.0538 42.9407 43.5298 42.9407 43.5298C42.3857 44.0718 42.9958 44.4778 43.7098 44.7558C44.4088 45.0458 45.1428 45.2318 44.8068 45.5958Z" fill="black"/>
<path d="M44.7056 46.2317C44.4236 47.1247 45.4766 47.1927 45.8346 47.2627C45.0316 47.2047 45.6706 45.8407 44.7056 46.2317Z" fill="black"/>
<path d="M95.3107 76.5897C95.2487 76.5837 95.1608 76.5967 95.0938 76.6157C95.1927 76.6647 95.2647 76.6457 95.3107 76.5897Z" fill="black"/>
<path d="M110.928 75.2287L111.146 74.4657C108.211 75.6477 105.172 73.8937 102.148 74.1087L102.384 73.8627C94.946 72.5567 87.859 72.4337 80.392 70.7727C80.529 70.7297 80.635 70.5227 80.777 70.4737C80.35 70.6217 79.813 70.9737 79.44 70.7857C79.39 70.5887 79.659 70.4767 79.809 70.4417C78.685 68.7627 75.075 69.7217 74.473 68.4127C74.005 68.3787 73.624 68.8077 73.715 69.2777C67.97 67.4457 62.08 64.8277 56.35 61.8017C56.211 61.4717 56.382 61.1607 56.717 60.8607C51.168 59.2687 47.081 53.9027 45.567 47.9107C44.975 47.8417 45.198 48.7167 44.479 48.2857C44.481 49.3897 45.172 50.1777 45.815 50.8637C46.506 51.5307 47.074 52.1817 47.151 53.1737L46.576 53.2537C47.004 54.5587 47.842 52.7637 47.999 54.2707C47.943 54.9547 47.367 54.5507 47.478 54.7737C49.24 56.9197 50.916 59.3187 53.612 59.9807C53.462 60.6037 53.981 61.0937 54.558 61.5587C55.141 62.0167 55.758 62.4897 55.814 63.2257C56.621 63.2677 57.108 63.7257 57.746 63.2487C61.226 66.0397 65.244 68.0147 69.35 69.5787C73.464 71.1527 77.682 72.3447 81.864 73.5917C84.129 73.0957 86.231 73.7527 88.432 74.5557C90.623 75.3667 92.915 76.3227 95.356 76.3697C95.375 76.4527 95.355 76.5347 95.311 76.5927C96.955 76.3447 99.24 76.4247 101.05 76.9687L102.739 76.2377C108.163 77.9057 113.856 78.4817 119.55 78.6357C125.254 78.7907 130.962 78.5337 136.689 78.5177C143.182 78.3097 149.34 78.0757 155.364 77.0107C161.367 75.9437 167.282 74.1007 172.785 70.5797C172.842 70.7877 172.979 70.8667 172.699 71.0597C175.995 69.4097 179.415 68.8537 182.358 66.8797L182.446 67.0807C185.901 64.3077 189.771 62.0927 193.242 59.1727C194.991 57.7517 196.589 56.1027 197.891 54.2667C199.197 52.4427 200.148 50.3427 200.424 48.1857C201.396 45.8177 201.856 43.0987 201.565 40.3817C201.279 37.6607 200.226 35.0237 198.744 32.7167C195.732 28.0837 191.245 24.6797 186.67 22.1827L186.923 21.8237C183.108 19.9967 179.584 17.8967 175.871 16.0007C172.174 14.1087 168.315 12.4237 164.155 11.6637C160.096 10.0477 155.57 9.72972 151.112 9.58972C146.638 9.44572 142.22 9.47172 137.973 8.45672C135.39 7.14472 132.222 7.6047 129.163 8.1217C126.091 8.6367 123.122 9.24771 120.596 8.16971C115.405 6.58771 110.197 6.62472 105.147 7.56872C100.089 8.51172 95.189 10.3677 90.413 12.4627C85.663 12.8957 81.189 14.6297 76.908 16.4767C72.598 18.3297 68.524 20.2717 63.962 21.4627C62.463 23.2037 60.353 23.9937 58.087 24.9137C55.831 25.8047 53.427 26.9427 51.918 29.0047L52.445 29.2317C51.209 29.3357 51.027 30.5467 50.88 31.5377C50.736 32.5547 50.685 33.4067 49.312 33.2537L49.318 33.0377C48.526 33.1347 48.916 34.0277 49.32 34.7657C49.709 35.5137 50.193 36.1567 49.41 36.1197L49.926 36.4847C49.702 37.5197 49.23 36.3407 48.686 37.0377C48.67 37.3707 49.719 37.5067 49.209 38.0087C48.002 37.7207 47.87 38.4217 47.878 39.1087C47.864 39.7937 47.801 40.4317 46.402 40.3317C46.441 40.0057 46.129 40.2247 45.777 40.3517C45.438 40.4767 44.955 40.5027 44.791 39.6627C44.388 40.0787 44.459 42.3707 45.661 42.1427C46.944 42.3137 48.036 43.0097 49.052 41.9197L48.135 41.6857C49.085 41.3577 48.615 41.4297 49.319 41.3417C49.371 41.0137 49.483 40.7647 49.656 40.5707C49.845 40.3787 50.071 40.2387 50.306 40.1207C50.784 39.8827 51.274 39.7237 51.638 39.3897C51.609 39.3907 51.582 39.3927 51.539 39.3697C50.632 38.5477 51.462 37.8827 51.819 37.5367L52.37 37.5547C52.925 37.6307 52.549 37.1357 52.255 36.7077C51.988 36.2897 51.776 35.9727 52.524 36.5447C53.185 34.1177 55.121 31.6247 57.39 29.5597C57.247 28.7517 59.229 28.0457 57.841 27.4497C58.642 27.7837 59.574 27.6997 60.359 27.4447C61.149 27.1937 61.869 26.8327 62.199 26.5547C62.254 26.6937 62.318 26.8507 62.175 26.8797C63.411 27.2307 63.567 26.6037 63.761 25.9967C63.954 25.4027 64.171 24.8167 65.482 25.4907C65.149 24.6807 65.852 24.4427 66.598 24.1357C67.347 23.8277 68.172 23.5017 68.114 22.3737C68.466 22.6267 68.679 22.9097 68.754 23.2187C71.353 21.9617 74.55 21.3017 76.869 20.5267C77.591 19.4537 78.866 19.1877 80.074 18.8887C81.298 18.6167 82.435 18.2527 83.029 17.0047C84.626 16.9957 87.201 17.2107 89.069 15.8977L88.927 16.1947C91.234 15.5217 94.14 14.8087 95.544 13.2147C96.613 15.0757 97.559 14.4977 98.687 14.9577C99.404 14.3777 100.58 14.0337 101.864 13.6837C103.154 13.3637 104.552 13.0357 105.731 12.4717C106.208 13.3577 107.719 11.8707 107.98 13.2027C114.594 9.89373 123.481 10.5367 130.725 12.8167L130.615 12.9087C131.594 12.1897 132.777 10.6167 133.821 9.71973C133.911 9.84373 133.887 10.0657 133.681 10.0477C135.065 9.8657 136.246 11.2737 137.613 11.1447C137.584 11.3667 137.584 11.3667 137.348 11.5617C138.671 11.0547 139.863 12.8477 141.45 11.9707L141.496 12.3347L142.496 11.9337C142.424 12.3747 142.313 13.0387 141.826 12.8427C147.548 13.6597 153.388 14.1587 159.262 15.0307C162.191 15.4817 165.131 16.0057 168.007 16.7677C170.888 17.5097 173.724 18.4497 176.403 19.7027L175.839 19.9237C175.839 19.9237 176.44 19.9727 177.042 20.0217C177.65 20.0637 178.243 20.1467 178.242 20.1467C178.137 20.3467 177.993 20.3997 177.852 20.4457C180.174 22.3067 183.391 22.6027 185.703 24.2787C185.575 24.4547 184.989 24.5977 185.188 25.0127C186.397 25.0297 186.856 25.8487 187.285 26.4277C187.729 27.0037 188.111 27.3857 189.284 26.7007C189.288 26.8537 188.991 27.3427 188.704 27.3777C191.187 28.7487 193.432 30.5897 195.128 32.7947C195.995 33.8857 196.654 35.0937 197.197 36.3197C197.652 37.5707 198.049 38.8377 198.096 40.1157C199.575 42.0527 199.476 44.7347 198.606 47.0377C197.747 49.3987 196.346 51.4747 195.367 54.0037L195.037 53.6877C193.482 56.7137 190.682 59.0107 187.674 60.7807C184.642 62.5707 181.364 63.9047 178.249 65.4727C175.519 66.4507 173.906 67.7017 171.136 68.6817L170.881 68.1677C168.914 70.0107 166.242 70.2937 163.614 70.5457C160.961 70.7637 158.343 70.9577 156.063 72.6267L156.254 71.7987C155.711 73.1317 153.137 71.9977 153.812 73.9457L152.801 73.4917C151.313 75.1447 149.655 75.0867 147.914 74.9037C146.166 74.7197 144.335 74.4027 142.293 75.5057L142.522 74.9927C141.428 75.4807 140.124 75.9307 139.239 75.5527C139.364 75.4717 139.291 75.3337 139.55 75.1847C135.845 73.5727 132.054 75.9267 128.247 75.9517L128.651 75.0297C126.855 76.1427 123.502 75.1797 121.111 75.6177L121.264 75.1937L120.042 75.7767L120.031 74.9167C116.931 74.7607 113.973 75.3787 110.928 75.2287Z" fill="black"/>
<path d="M79.8091 70.4408C79.8151 70.4518 79.828 70.4557 79.832 70.4777C79.945 70.4337 79.8981 70.4278 79.8091 70.4408Z" fill="black"/>
<path d="M51.8887 39.1477C51.8077 39.2407 51.7307 39.3147 51.6357 39.3887C51.8117 39.4057 51.8267 39.2287 51.8887 39.1477Z" fill="black"/>
<path d="M119.844 21.9277L94.6348 37.1837L107.676 44.6177C107.676 44.6177 125.281 29.5568 146.444 37.1898C158.339 41.4788 151.325 61.2227 120.542 61.2227" fill="white"/>
<path d="M120.541 65.9057L120.609 66.1676L120.783 65.4366L120.541 65.9057Z" fill="black"/>
<path d="M121.669 64.2647C121.634 64.1337 121.647 63.9147 121.611 63.7827L120.965 65.8697C121.282 67.0397 121.468 63.4827 121.669 64.2647Z" fill="black"/>
<path d="M121.869 64.4717C122.137 64.9517 122.223 63.9737 122.273 63.6427C122.201 64.3997 121.793 63.4197 121.869 64.4717Z" fill="black"/>
<path d="M144.074 58.8748C144.054 58.8928 144.038 58.9327 144.032 58.9727C144.083 58.9777 144.092 58.9368 144.074 58.8748Z" fill="black"/>
<path d="M146.976 52.7867L146.492 52.1777C146.592 53.0177 146.175 53.3987 145.667 53.6397C145.172 53.9057 144.617 54.0658 144.331 54.6068L144.238 54.3398C141.859 55.5768 140.136 57.8188 137.589 59.3188C137.604 59.2258 137.545 59.0037 137.558 58.9017C137.519 59.2077 137.528 59.7188 137.358 59.7028C137.266 59.5508 137.287 59.3478 137.309 59.2578C136.355 58.2008 135.864 60.5687 135.217 59.7047C135.091 59.8777 135.156 60.4138 135.355 60.7838C133.246 61.7128 130.911 62.3617 128.706 63.6777C128.572 63.5148 128.509 63.1697 128.486 62.7267C126.747 65.0267 124.487 64.3757 122.464 64.0757C122.4 64.6257 122.69 64.6517 122.502 65.2247C123.197 65.9007 123.665 63.8597 124.311 64.8097L124.261 65.3418C124.722 65.6538 124.277 64.0057 124.771 64.6577C124.978 65.0887 124.767 65.3327 124.853 65.3667C125.772 65.1017 126.81 65.5027 127.558 64.1167C127.898 65.2357 128.559 64.0507 129.041 65.1017C129.228 64.6237 129.487 64.6967 129.475 63.9307C132.842 64.0837 135.947 62.2518 139.141 61.1768C139.327 60.5178 139.62 60.1427 139.99 59.9258C140.353 59.6878 140.794 59.6057 141.268 59.5587C142.216 59.4887 143.292 59.4377 143.967 58.6727C144.016 58.7347 144.054 58.8097 144.075 58.8727C144.353 58.0607 145.001 57.4387 145.759 57.2287L145.75 56.1037C148.088 55.6577 150.015 54.1607 151.467 52.2347C152.891 50.2567 153.937 47.9718 154.557 45.2747C154.827 43.7337 154.831 42.0687 154.387 40.4577C153.958 38.8487 153.059 37.3338 151.872 36.2448C150.693 35.1508 149.276 34.3988 147.83 34.1328C146.511 33.9428 145.247 34.0698 143.876 34.4138C143.938 34.2068 143.93 34.0807 144.075 34.0287C143.705 34.0357 143.367 33.9707 143.041 33.8687C142.707 33.8007 142.386 33.6977 142.066 33.5957C141.428 33.3907 140.788 33.1887 140.093 33.2987L140.131 33.0827C139.685 33.2397 139.254 33.3147 138.824 33.3867C138.392 33.4757 137.967 33.5207 137.544 33.5347C136.699 33.5657 135.861 33.4737 135.022 33.3967C134.183 33.3947 133.342 33.3977 132.525 33.5307C132.117 33.5987 131.715 33.6927 131.326 33.8457C130.94 34.0277 130.565 34.2568 130.211 34.5468C126.472 34.6958 122.324 35.9518 118.939 37.9478L118.784 37.5367C118.15 38.0637 117.455 38.3958 116.714 38.6328C115.978 38.8778 115.219 39.0797 114.435 39.2517C112.887 39.6237 111.308 40.0757 110.152 41.2287C109.832 41.3147 109.515 41.4718 109.257 41.6198C109.064 41.7298 108.885 41.8607 108.719 42.0357C108.386 42.3787 108.056 42.8488 107.669 43.4398L107.613 43.5247H107.549H107.418L107.143 43.5208C106.954 43.5158 106.752 43.5038 106.54 43.4828C106.117 43.4398 105.646 43.3558 105.165 43.2108C104.191 42.9158 103.317 42.4637 102.673 41.6307C102.591 41.2737 102.448 41.0027 102.26 40.7977C102.102 40.6097 101.909 40.4948 101.671 40.4138C101.2 40.2548 100.528 40.2247 99.7428 40.1277C98.9678 40.0357 98.0808 39.8777 97.4358 39.6087C96.7978 39.3437 96.4098 38.9717 96.8308 38.5667C97.2258 37.8637 97.5258 37.4707 97.4598 37.1447C99.1098 36.6137 99.3538 36.2258 99.7078 35.4268C99.8758 35.0338 100.053 34.5488 100.343 33.9568C100.614 33.3758 101.069 32.6438 101.552 31.9008C105.198 31.1008 106.617 26.6297 110.817 26.9597C111.389 24.7737 114.745 26.8597 116.054 25.5367L115.717 25.1037C117.128 26.1837 115.753 22.3758 117.372 24.2708L117.371 24.4008C118.312 25.2938 116.531 21.4737 117.477 22.6347L117.206 22.0797C117.469 21.7127 117.61 22.6527 118.011 22.6967C118.074 22.5687 117.469 21.7127 117.867 21.8847C119.22 24.0147 118.454 20.8907 119.946 23.2997C119.752 23.4177 120.82 24.0558 120.69 24.8268C120.965 24.9998 121.487 24.5197 120.811 23.5227C120.201 22.3997 119.857 21.3078 118.984 20.6808L119.392 21.5197C118.789 20.7977 119.059 21.1788 118.654 20.6078C118.117 20.7888 117.355 19.6698 116.725 19.3958C116.743 19.4168 116.759 19.4377 116.779 19.4807C117.124 20.5737 116.461 20.2027 116.196 20.1777L115.854 19.7798C115.182 18.9198 116.412 21.9147 115.594 20.2387C114.872 21.2157 113.759 21.8627 112.696 22.5317C112.911 23.2267 111.841 22.9737 112.78 23.9967C111.708 22.8317 110.705 22.9787 110.44 23.2097C110.376 23.0787 110.302 22.9287 110.379 22.9507C108.761 21.5767 110.661 24.9567 108.848 23.1787C109.663 24.7167 107.58 23.2967 108.333 25.2297C108.066 24.9397 107.864 24.6547 107.728 24.3757C106.736 24.9297 105.339 25.0427 104.476 25.4727C104.563 27.2017 102.418 25.9108 102.905 28.0768C102.174 27.9978 100.909 27.7368 100.649 28.8828L100.583 28.6208C100.402 28.7668 100.208 28.9187 100.021 29.0877C99.9278 29.1727 99.8358 29.2617 99.7498 29.3557C99.5858 29.4967 99.4128 29.6517 99.2598 29.8047C98.6418 30.4227 98.2198 31.0967 98.3308 31.8037C96.3348 30.6547 95.9768 31.3428 94.7058 31.3568C94.6388 31.9438 94.0788 32.4758 93.4668 33.0258C92.8628 33.5718 92.1958 34.1437 92.1328 34.6777C91.3478 34.6097 91.1918 34.8198 90.9908 34.9948C90.7878 35.1708 90.5308 35.3188 89.4038 35.2108C89.3878 36.0028 89.1688 36.6468 88.6338 37.2588C90.8358 38.1018 92.1388 38.8917 93.2638 39.8937C94.3768 40.8897 95.3238 42.1038 96.4908 43.6118L96.3428 43.6378C97.6068 43.5048 99.4178 42.6497 100.405 42.1107C100.372 42.2277 100.23 42.4037 100.141 42.3457C100.519 42.4167 100.641 42.7967 100.82 43.2087C100.934 43.5837 100.993 43.9277 101.283 43.9507C101.169 44.1437 101.169 44.1438 100.991 44.2878C101.706 44.0028 101.319 45.7187 102.329 45.0907L102.18 45.4167L102.742 45.1597C102.513 45.5427 102.169 46.1197 102.074 45.8977C102.381 46.1137 102.632 46.2758 103.012 46.4948C103.57 46.8148 104.137 47.1238 104.704 47.4178C105.838 47.9938 106.98 48.5687 108.062 48.9877C109.037 48.0217 110.017 47.0497 111 46.0757L111.702 45.4337C111.84 45.3107 111.874 45.2647 111.941 45.1947L112.127 44.9948C112.371 44.7238 112.644 44.4807 112.908 44.2267C113.436 43.7167 114.002 43.2477 114.607 42.8387C115.201 42.4097 115.841 42.0577 116.522 41.7907L116.572 42.2397L116.981 41.1867C117.075 41.3917 117.086 41.5077 117.095 41.6167C118.353 41.8227 118.856 40.2857 119.89 40.0267C119.966 40.2307 119.985 40.6937 120.207 40.8647C120.485 39.4637 121.886 41.9397 121.377 39.4327C121.45 39.5317 121.663 40.0597 121.66 40.2767C122.494 39.4947 123.477 39.0257 124.501 38.6917C125.517 38.3147 126.615 38.2757 127.683 38.2477C128.335 36.9057 129.314 36.7917 130.268 36.6697C130.749 36.6217 131.231 36.5608 131.706 36.4348C132.183 36.3268 132.65 36.1037 133.118 35.6367L133.121 36.0938C133.724 35.6777 134.362 35.4688 135.004 35.3828C135.646 35.3608 136.293 35.4637 136.933 35.6047C137.572 35.7577 138.21 35.9038 138.835 36.0898C139.458 36.2958 140.08 36.4577 140.725 36.4937C141.23 36.6797 141.684 36.6717 142.151 36.6397C142.617 36.6097 143.076 36.6347 143.601 36.7657L143.476 37.3228C144.629 36.5388 145.447 37.2858 146.19 37.9948C146.517 38.4028 146.853 38.7238 147.195 38.9648C147.374 39.0758 147.577 39.1377 147.828 39.1397C148.061 39.1637 148.343 39.1257 148.706 39.0217L148.144 39.5697C148.602 39.1667 148.773 39.3968 148.915 39.5508C149.068 39.6947 149.268 39.7337 149.946 38.9627C149.946 38.9627 149.899 39.1328 149.853 39.3018C149.802 39.4668 149.75 39.6317 149.75 39.6317C150.45 39.4027 150.876 39.5207 151.119 39.7567C151.342 40.0137 151.354 40.4138 151.337 40.7928C151.297 41.1888 151.188 41.5857 151.249 41.9147C151.259 42.2667 151.456 42.5498 151.961 42.8658L151.468 42.8597C151.89 43.1777 152.3 43.6907 151.833 44.0277C151.762 43.9827 151.619 44.0108 151.489 43.9218C150.553 44.5918 150.574 45.0837 150.728 45.7737C150.894 46.4367 151.172 47.2737 150.866 47.8987L150.088 47.4167C150.442 47.8897 150.313 48.3498 150.01 48.7318C149.734 49.1327 149.375 49.4888 149.321 49.9698L148.999 49.6867L149.248 50.3878L148.548 49.8887C147.874 50.6907 147.743 51.9617 146.976 52.7867Z" fill="black"/>
<path d="M137.31 59.2577C137.316 59.2647 137.321 59.2637 137.331 59.2797C137.34 59.1987 137.327 59.2127 137.31 59.2577Z" fill="black"/>
<path d="M116.513 19.3237C116.585 19.3397 116.651 19.3627 116.725 19.3987C116.626 19.2557 116.572 19.3317 116.513 19.3237Z" fill="black"/>
</svg>
