<svg width="216" height="175" viewBox="0 0 216 175" fill="none" xmlns="http://www.w3.org/2000/svg">
<path d="M214.946 170.771L215.247 170.508L214.415 169.824L214.946 170.771Z" fill="black"/>
<path d="M213.095 166.282C212.945 166.414 212.695 166.349 212.542 166.484L214.913 169.119C216.257 167.942 212.197 167.058 213.095 166.282Z" fill="black"/>
<path d="M213.335 165.507C213.89 164.485 212.774 164.061 212.397 163.823C213.261 164.18 212.132 165.729 213.335 165.507Z" fill="black"/>
<path d="M212.783 75.0369C212.789 75.1849 212.82 75.3799 212.855 75.5259C212.89 75.2699 212.855 75.1109 212.783 75.0369Z" fill="black"/>
<path d="M190.931 71.2828L190.685 72.1718C192.875 71.3808 195.207 71.3878 197.57 71.5058C198.752 71.5658 199.939 71.6518 201.123 71.6808C201.715 71.6958 202.305 71.6958 202.893 71.6698C203.186 71.6568 203.48 71.6388 203.772 71.6118C204.071 71.5848 204.277 71.5498 204.543 71.5078L204.253 71.8198C205.691 71.8728 207.067 71.8828 208.425 71.8588C208.441 72.8178 208.473 73.7648 208.518 74.7328C208.576 75.8208 208.633 76.9038 208.69 77.9818C208.825 80.3898 208.999 82.7828 209.186 85.1748C209.562 89.9608 209.993 94.7519 210.279 99.6908C210.185 99.5089 209.924 99.4478 209.82 99.2598C210.13 99.8218 210.698 100.447 210.622 101.078C210.425 101.242 210.209 100.901 210.119 100.698C208.65 103.161 211.052 107.933 209.919 109.473C210.075 110.166 210.689 110.472 211.153 110.086C211.528 119.216 211.808 128.984 212.961 138.284C212.76 138.731 212.359 138.812 211.854 138.689C214.237 146.638 213.288 154.969 212.901 163.102C213.528 163.414 213.566 162.273 214.216 163.074C214.999 160.459 212.682 158.285 213.82 155.913L214.424 156.218C214.814 154.492 212.901 155.868 213.68 154.077C214.186 153.372 214.45 154.254 214.494 153.926C214.246 150.259 214.791 146.434 213.322 142.981C214.634 142.127 213.368 139.04 214.622 137.684C214.104 136.736 214.236 135.784 213.367 135.422C214.06 122.587 212.792 109.473 212.888 96.3238C211.619 93.2468 211.742 89.8668 212.076 86.3428C212.242 84.5798 212.462 82.7818 212.586 80.9688C212.648 80.0618 212.687 79.1508 212.684 78.2388C212.682 77.7818 212.668 77.3258 212.643 76.8688L212.528 75.0628C212.618 74.9728 212.714 74.9698 212.788 75.0358C212.43 72.9508 212.18 70.6078 212.09 68.1968C210.117 68.2638 208.268 68.2418 206.536 68.1078C206.536 68.1078 205.569 68.3768 204.728 68.6438C203.807 68.9118 203.351 69.1798 203.317 69.1798C186.217 66.9748 168.745 68.5238 151.377 67.6078C131.642 66.9748 114.352 65.1468 95.1325 68.4908C95.1565 68.2448 95.0015 68.1078 95.4975 68.0048C89.9505 68.5168 84.8975 67.6028 79.6745 68.1338L79.6905 67.8838C66.7295 69.9758 52.7124 67.6028 40.2184 69.8608C38.7384 69.8438 37.2404 69.8268 35.6824 69.8088C33.9274 69.7998 32.1045 69.7898 30.1655 69.7808C30.1725 73.2048 30.1795 76.7168 30.1865 80.2808C30.2285 83.5378 30.2715 86.8428 30.3155 90.1648C30.4375 96.8098 30.6305 103.522 30.8925 110.055L30.3904 110.018C31.4514 122.901 28.7855 135.35 29.5875 148.205C29.2675 151.891 29.3505 155.634 29.6025 159.405C29.7285 161.291 29.8975 163.183 30.0795 165.079C30.2645 167.12 30.4505 169.165 30.6365 171.209C34.2085 170.924 37.0864 170.679 40.0984 170.589C43.0954 170.5 46.0755 170.567 49.0245 170.904C57.2725 173.375 68.1075 168.078 75.8555 170.638C91.7735 174.497 107.214 172.013 123.128 169.7C137.81 171.075 152.468 167.544 166.686 170.35C173.423 168.551 180.865 172.577 188.361 172.057L188.091 171.434C190.782 173.325 194.089 168.788 195.768 171.598L195.484 171.725C196.909 173.155 198.794 168.366 199.66 170.061L199.89 169.358C201.615 169.155 200.094 170.157 201.424 170.438C201.926 170.35 201.614 169.155 202.659 169.559C202.887 172.442 206.885 168.934 207.004 172.172C206.061 172.172 208.483 173.428 206.363 174.106C206.967 174.438 209.858 174.278 209.598 172.903C209.845 171.444 210.974 170.173 209.217 169.044L208.863 170.106C208.272 169.044 208.414 169.575 208.202 168.778C205.906 168.637 205.599 167.092 203.953 166.452C203.97 166.483 203.985 166.513 203.961 166.567C202.835 167.84 201.279 167.085 200.389 166.903L200.033 166.311C199.492 165.073 197.421 168.729 198.119 166.606C193.451 167.133 188.102 167.108 182.888 167.133C182.158 167.94 178.896 167.059 180.034 168.615C178.728 166.842 174.847 166.392 173.406 166.461C173.46 166.295 173.521 166.106 173.747 166.172C170.952 163.871 170.436 168.301 167.815 165.488C167.405 167.474 163.055 164.853 161.573 167.189C161.25 166.748 161.142 166.349 161.26 165.996C156.544 165.951 151.334 165.234 147.343 165.144C143.934 166.886 139.087 164.355 136.155 166.761C133.725 166.251 129.795 165.247 126.403 166.214L126.733 165.919C122.906 166.06 118.127 166.185 115.502 167.698C114.371 165.393 112.716 165.854 111.062 165.116C108.507 166.184 103.35 165.87 99.4534 166.841C98.8554 165.779 96.2364 167.292 96.0364 165.747C85.1144 168.727 71.6095 167.685 59.9465 165.433L60.1155 165.324C58.6025 166.172 56.8585 168.045 55.3185 169.138C55.1675 169.003 55.1845 168.747 55.5075 168.755C53.3775 169.042 51.3845 167.525 49.2575 167.808C49.2755 167.552 49.2754 167.552 49.6194 167.308C47.6234 167.996 45.4935 166.074 43.1365 167.269L43.0044 166.861L41.5054 167.433C41.5424 166.923 41.5994 166.156 42.4004 166.322C40.5374 166.271 38.6675 166.254 36.7825 166.261C36.3115 166.269 35.9825 166.303 35.4865 166.357L35.2785 165.153C35.1845 163.346 35.0894 161.535 34.9944 159.719C34.7794 156.018 34.5635 152.3 34.3475 148.573C33.9295 141.12 33.6005 133.63 33.7535 126.155L34.2375 126.843L33.3705 123.202C33.6285 123.222 33.7535 123.394 33.8685 123.569C34.7355 118.931 33.2925 114.119 33.5115 109.599C33.7595 109.62 34.2535 110.304 34.5345 109.671C33.1415 106.326 36.3434 104.297 33.4524 102.622C33.5874 102.467 34.2375 102.36 34.4705 102.701C33.9915 98.0468 33.7645 93.3298 33.7175 88.6048C33.6935 86.2418 33.7144 83.8768 33.7704 81.5168C33.8074 80.3368 33.8434 79.1588 33.8794 77.9808L33.9515 76.2788L34.0345 75.4418C33.6235 74.7198 33.3355 73.7698 33.1345 72.7458C33.9435 72.4748 35.1425 72.3598 36.3715 72.3118L37.5364 72.2878L38.8494 72.2808C39.7264 72.2818 40.6055 72.2828 41.4855 72.2838C45.0055 72.2818 48.5334 72.1958 51.9524 71.3198L51.9125 71.8408C62.4155 70.0108 73.5564 71.9658 84.4424 71.5988C88.9634 71.8098 92.0165 71.1928 96.5585 71.1598L96.6714 71.8098C104.317 69.3328 112.743 74.0348 120.72 71.3098L120.169 72.1948C121.406 70.8238 124.994 72.6768 124.523 70.3318L125.93 71.0428C131.349 67.9408 135.794 72.4728 142.435 70.4608L141.998 71.0178C143.764 70.5858 145.822 70.2428 147.13 70.7538C146.926 70.8338 147.021 70.9978 146.602 71.1448C152.132 73.3498 158.287 70.9148 164.122 70.9988L163.461 72.0358C166.281 70.8188 171.456 71.9518 175.163 71.3948L174.936 71.8808L176.812 71.1928L176.862 72.1748C181.682 72.2458 186.222 71.3988 190.931 71.2828Z" fill="black"/>
<path d="M210.117 100.699C210.127 100.685 210.127 100.664 210.148 100.647C210.062 100.504 210.072 100.573 210.117 100.699Z" fill="black"/>
<path d="M203.357 166.253C203.579 166.312 203.763 166.372 203.949 166.452C203.904 166.253 203.546 166.296 203.357 166.253Z" fill="black"/>
<path d="M80.7384 120.732L80.4424 120.85L81.2885 121.147L80.7384 120.732Z" fill="black"/>
<path d="M82.6794 122.637C82.8264 122.574 83.0774 122.588 83.2274 122.525C83.2274 122.525 82.6214 122.269 82.0154 122.013C81.4094 121.74 80.8024 121.466 80.8024 121.466C79.4844 122.041 83.5614 122.284 82.6794 122.637Z" fill="black"/>
<path d="M82.4565 122.981C81.9255 123.456 83.0476 123.56 83.4286 123.627C82.5596 123.54 83.6525 122.814 82.4565 122.981Z" fill="black"/>
<path d="M102.495 153.644C102.457 153.629 102.396 153.628 102.346 153.639C102.386 153.704 102.44 153.696 102.495 153.644Z" fill="black"/>
<path d="M112.607 153.449L112.898 152.607C111.935 153.168 111.053 152.959 110.24 152.595C109.437 152.174 108.685 151.655 107.739 151.677L107.967 151.428C106.968 150.973 106.028 150.459 105.01 150.111C104.002 149.74 103.047 149.273 102.009 148.913C100.98 148.536 100.022 148.018 98.9861 147.559C97.9581 147.086 97.0361 146.436 96.0521 145.803C96.1701 145.784 96.3692 145.612 96.4952 145.586C96.1212 145.663 95.5391 145.901 95.4061 145.678C95.4981 145.494 95.7492 145.433 95.8712 145.423C96.0432 144.568 95.4331 144.209 94.7791 143.909C94.1331 143.607 93.4671 143.345 93.7021 142.761C93.4121 142.653 92.8671 142.935 92.5981 143.354C89.9651 140.717 87.7352 137.436 85.2452 134.191C85.3672 133.941 85.7301 133.769 86.2221 133.637C85.3941 133.076 84.6981 132.41 84.2281 131.653C83.7801 130.888 83.4701 130.059 83.2491 129.21C82.9911 128.366 82.9841 127.469 82.9451 126.591C82.9421 125.706 82.8651 124.838 82.9461 123.969C82.3141 123.887 82.3041 124.384 81.6371 124.094C81.2581 124.702 81.7361 125.192 82.1451 125.648C82.5571 126.109 82.9191 126.536 82.4361 127.136L81.8211 127.103C81.5541 127.921 83.3441 126.994 82.6971 127.897C82.2481 128.294 81.9292 127.964 81.9072 128.114C82.1362 128.892 82.3302 129.695 82.5892 130.468C82.8842 131.23 83.2572 131.965 84.2202 132.432C83.1002 133.195 84.7532 134.034 83.7882 135.036C84.4152 135.239 84.4362 135.68 85.2922 135.488C85.7302 136.793 86.2512 138.097 86.9442 139.307C87.3132 139.9 87.6991 140.484 88.0961 141.06C88.4841 141.643 88.8991 142.206 89.3781 142.722C90.3081 143.775 91.2061 144.843 92.2521 145.777C92.7551 146.26 93.2511 146.748 93.7371 147.243C94.2591 147.702 94.7841 148.158 95.2891 148.636C96.2061 148.587 96.8431 148.857 97.4601 149.187C98.0641 149.533 98.5592 150.046 99.0472 150.618C99.5212 151.211 100.037 151.786 100.627 152.281C101.211 152.781 101.861 153.211 102.62 153.417C102.596 153.506 102.547 153.588 102.493 153.645C103.7 153.534 105.093 153.883 106.037 154.671L107.364 154.018C110.165 156.385 113.811 157.263 117.386 157.602L120.098 157.722C121.002 157.716 121.907 157.635 122.812 157.607L124.171 157.555L125.525 157.409C126.426 157.305 127.349 157.296 128.26 157.189C132.382 156.651 136.326 155.638 139.831 153.739C140.681 153.227 141.577 152.778 142.33 152.122C143.101 151.492 143.845 150.825 144.546 150.114C145.192 149.339 145.797 148.519 146.343 147.657C146.906 146.812 147.275 145.788 147.642 144.798C147.82 144.969 147.966 145.011 147.905 145.233C148.518 144.236 149.237 143.421 149.962 142.605C150.324 142.199 150.691 141.797 151.008 141.361C151.292 140.903 151.539 140.418 151.707 139.884L151.917 140.021C152.04 139.303 152.239 138.64 152.443 137.981C152.616 137.305 152.832 136.657 153.078 136.021C153.622 134.775 154.051 133.479 154.556 132.212C154.826 131.584 154.994 130.925 155.153 130.267C155.314 129.611 155.455 128.952 155.557 128.294C155.694 126.966 155.578 125.616 155.213 124.339C156.007 118.395 154.812 111.281 151.386 105.961L151.846 105.759C151.45 105.245 151.116 104.712 150.812 104.167C150.461 103.647 150.151 103.109 149.865 102.554C149.335 101.418 148.743 100.319 148.158 99.1808C147.62 98.0068 146.858 96.9828 146.103 95.9328C145.733 95.3998 145.264 94.9578 144.785 94.5268C144.304 94.0958 143.793 93.6948 143.249 93.3378C142.391 92.2928 141.27 91.4848 140.043 90.8798C139.408 90.6058 138.754 90.3658 138.098 90.1478L137.113 89.8318L136.09 89.6138C135.41 89.4728 134.74 89.3348 134.089 89.1768C133.442 89.0088 132.762 88.9438 132.131 88.7718C131.491 88.6238 130.884 88.4028 130.277 88.1778C129.663 87.9808 129.068 87.7198 128.488 87.3728C128.175 86.9738 127.806 86.6848 127.405 86.4828C126.997 86.3168 126.553 86.2478 126.097 86.2318C125.179 86.2258 124.219 86.3548 123.283 86.6738C122.345 86.9748 121.449 87.2758 120.609 87.3288C119.766 87.4138 118.977 87.3468 118.195 86.7318C116.598 85.7728 114.95 85.5688 113.32 85.5108C112.513 85.5308 111.728 85.6988 110.952 85.8858C110.175 86.0758 109.417 86.3298 108.714 86.7318C108.002 87.1058 107.313 87.5238 106.65 87.9698C106.004 88.4598 105.404 89.0228 104.816 89.5748L103.957 90.4208C103.689 90.7298 103.435 91.0538 103.181 91.3698C102.678 92.0108 102.185 92.6368 101.72 93.2748C101.074 93.5448 100.463 93.8818 99.8841 94.2648C99.5951 94.4548 99.3132 94.6578 99.0382 94.8688C98.7832 95.1018 98.5382 95.3478 98.2982 95.5978C97.8192 96.0968 97.3621 96.6188 96.9201 97.1428C96.5071 97.6968 96.1351 98.2828 95.7441 98.8378C94.9201 99.9208 94.3072 101.128 93.4222 102.126C92.9802 102.628 92.6011 103.172 92.0911 103.642C91.6121 104.13 90.9911 104.547 90.4041 105.003C90.5241 105.79 90.3241 106.403 89.9291 106.953C89.5111 107.492 88.9821 108.003 88.4151 108.538C87.8391 109.068 87.2141 109.618 86.6971 110.229C86.2441 110.858 85.9091 111.553 85.8471 112.312L86.4791 112.357C85.4401 112.651 85.8931 113.391 86.3511 114.02C86.8061 114.66 87.1632 115.18 85.7252 115.29L85.6171 115.159C84.8681 115.329 85.6471 115.791 86.4031 116.183C87.1591 116.58 87.8892 116.913 87.0222 116.981L87.7081 117.143C87.8301 117.798 86.8961 117.132 86.5811 117.61C86.6581 117.81 87.8551 117.796 87.4341 118.15C84.5531 118.042 87.9782 119.761 84.7402 119.69C84.7602 119.3 83.4551 120.269 82.8211 119.364C82.4751 119.608 82.5782 120.848 83.9592 120.731C85.4212 120.83 86.6821 121.254 87.8261 120.591L86.7701 120.453C87.8431 120.241 87.3101 120.29 88.1111 120.224C88.2951 119.388 89.8442 119.34 90.5112 118.827C90.4802 118.83 90.4492 118.834 90.3962 118.822C89.1462 118.354 89.9191 117.855 90.1231 117.578L90.7302 117.52C91.9882 117.496 88.4672 116.348 90.5382 116.847C90.4132 116.035 90.3691 115.15 90.5031 114.275C90.6661 113.406 90.8931 112.523 91.0991 111.648C90.4141 111.167 91.6492 110.372 90.0372 110.24C91.8922 110.373 92.7102 109.319 92.8602 108.855C93.0052 108.938 93.1701 109.031 93.0761 109.073C94.3361 109.113 93.9601 108.671 93.6551 108.225C93.3451 107.79 93.1072 107.352 94.5482 107.6C93.6972 107.092 93.9921 106.788 94.3111 106.459C94.6461 106.135 94.9541 105.769 94.0861 104.947C94.5221 105.079 94.8802 105.257 95.1622 105.473C95.5812 104.811 96.1581 104.203 96.8171 103.713C97.4621 103.212 98.0151 102.703 98.4931 102.264C98.2041 101.293 98.8242 100.905 99.3452 100.497C99.8472 100.059 100.373 99.7188 99.9132 98.4838C100.393 98.3918 101.038 98.3168 101.578 98.0818C102.15 97.8828 102.638 97.5478 102.802 96.8148L102.89 97.1178C103.788 96.1798 105.099 95.3508 105.131 93.5298C106.575 95.3148 106.849 94.7158 107.665 95.1338C107.799 94.4778 108.294 94.0288 108.85 93.5598C109.438 93.1618 110.085 92.7518 110.551 92.0618C111.071 92.9948 111.447 91.2508 111.969 92.7408C112.631 91.8228 113.467 91.0468 114.426 90.5658C115.397 90.1528 116.455 89.8468 117.543 89.8468C118.635 89.9038 119.738 90.0218 120.785 90.4308C121.829 90.8778 122.826 91.3448 123.701 92.0378L123.635 92.1378C124.207 91.3718 125.059 89.6078 125.81 88.6158C125.842 88.7568 125.792 89.0088 125.678 88.9828C126.085 88.8988 126.405 89.2578 126.706 89.6148C127.004 90.0038 127.282 90.3998 127.678 90.3538C127.613 90.6008 127.612 90.6008 127.44 90.8088C128.294 90.3278 128.489 92.3378 129.601 91.4148L129.521 91.8198L130.183 91.4558C130.008 91.9348 129.745 92.6548 129.547 92.4038C132.381 93.5608 135.339 94.5278 138.304 95.9598C139.015 96.3538 139.808 96.6658 140.479 97.1448C141.167 97.6028 141.862 98.0698 142.541 98.5648C143.163 99.1168 143.777 99.6878 144.368 100.283C144.97 100.869 145.414 101.589 145.893 102.27L145.356 102.361C145.356 102.361 145.725 102.491 146.093 102.622C146.463 102.756 146.839 102.898 146.839 102.898C146.623 103.035 146.484 103.054 146.351 103.071C146.431 104.006 146.96 104.631 147.594 105.227C148.26 105.802 148.817 106.465 149.095 107.23C148.866 107.328 148.316 107.324 148.157 107.643C149.032 107.877 148.862 108.487 148.746 108.955C148.636 109.429 148.666 109.739 150.121 109.511C150.014 109.611 149.417 109.872 149.159 109.844C149.409 110.181 149.648 110.53 149.875 110.886L150.207 111.429L150.458 112.002C150.779 112.774 151.06 113.571 151.29 114.382C151.437 115.209 151.543 116.048 151.616 116.884L151.665 117.51L151.634 118.143L151.54 119.398C152.991 120.73 152.876 122.309 152.819 123.832C152.749 124.597 152.576 125.35 152.582 126.127C152.579 126.516 152.608 126.91 152.687 127.317C152.742 127.718 152.822 128.128 152.982 128.56L152.479 128.424C152.938 130.558 152.195 132.574 151.184 134.384C150.619 135.268 150.084 136.163 149.476 137.002C148.839 137.826 148.297 138.692 147.798 139.588C146.603 140.808 146.466 142.154 145.276 143.43L144.766 143.024C144.755 144.973 143.126 145.619 141.682 146.236C140.933 146.528 140.152 146.749 139.548 147.19C139.243 147.407 138.974 147.671 138.751 148.009C138.51 148.32 138.312 148.698 138.17 149.184L137.873 148.33C138.2 149.735 136.102 148.843 137.423 150.783L136.611 150.445C136.428 152.286 135.323 152.399 134.217 152.39C133.082 152.378 131.887 152.074 131.009 153.488L130.993 152.901C130.509 153.576 129.798 154.057 129.18 153.703C129.236 153.606 129.158 153.457 129.274 153.275C127.965 152.457 126.994 152.84 125.942 153.276C124.911 153.743 123.851 154.574 122.722 154.536L122.895 153.489C122.418 154.122 121.654 154.181 120.859 154.161C120.061 154.167 119.238 153.901 118.526 154.169L118.635 153.688L117.888 154.338L117.94 153.358C117.049 153.32 116.182 153.347 115.289 153.435C114.397 153.517 113.478 153.654 112.607 153.449Z" fill="black"/>
<path d="M95.8713 145.424C95.8683 145.435 95.8753 145.44 95.8643 145.459C95.9663 145.437 95.9393 145.425 95.8713 145.424Z" fill="black"/>
<path d="M90.7173 118.641C90.6553 118.711 90.5923 118.77 90.5093 118.828C90.7083 118.824 90.6713 118.701 90.7173 118.641Z" fill="black"/>
<path d="M120.331 150.237L120.419 150.534L120.639 149.693L120.331 150.237Z" fill="black"/>
<path d="M121.727 148.321C121.679 148.174 121.686 147.923 121.638 147.772C121.638 147.772 121.456 148.375 121.276 148.977C121.077 149.58 120.879 150.182 120.879 150.182C121.32 151.508 121.463 147.436 121.727 148.321Z" fill="black"/>
<path d="M121.983 148.549C122.341 149.086 122.398 147.966 122.438 147.587C122.392 148.453 121.841 147.352 121.983 148.549Z" fill="black"/>
<path d="M144.375 133.763C144.366 133.791 144.373 133.839 144.389 133.881C144.445 133.856 144.431 133.812 144.375 133.763Z" fill="black"/>
<path d="M143.244 126.14L142.394 125.876C143.019 126.598 142.869 127.221 142.582 127.776C142.254 128.328 141.828 128.823 141.94 129.522L141.678 129.329C141.338 130.013 140.99 130.668 140.775 131.391C140.544 132.107 140.263 132.798 140.063 133.559C139.851 134.314 139.544 135.028 139.273 135.802C138.993 136.569 138.579 137.266 138.165 137.998C138.132 137.895 137.954 137.701 137.915 137.592C138.034 137.919 138.32 138.447 138.144 138.528C137.974 138.423 137.886 138.2 137.861 138.095C137.102 137.823 136.901 138.297 136.742 138.821C136.584 139.338 136.453 139.883 135.933 139.59C135.886 139.83 136.198 140.356 136.581 140.651C134.748 142.627 132.44 144.299 130.182 146.408C129.98 146.268 129.816 145.902 129.671 145.416C129.323 146.169 128.869 146.776 128.333 147.183C127.791 147.574 127.187 147.826 126.562 147.99C125.942 148.179 125.279 148.166 124.629 148.166C123.977 148.142 123.335 148.16 122.698 148.076C122.651 148.706 123.018 148.722 122.819 149.385C123.279 149.766 123.633 149.314 123.959 148.924C124.289 148.532 124.588 148.19 125.055 148.694L125.057 149.304C125.681 149.6 124.909 147.785 125.61 148.464C125.928 148.926 125.697 149.229 125.81 149.257C126.381 149.053 126.982 148.932 127.55 148.719C128.11 148.482 128.64 148.144 128.923 147.253C129.595 148.405 130.105 146.872 130.962 147.891C131.064 147.301 131.402 147.317 131.173 146.475C132.151 146.198 133.118 145.824 134.006 145.309C134.863 144.742 135.742 144.194 136.486 143.47C137.243 142.764 138.004 142.077 138.672 141.294C139.018 140.916 139.366 140.545 139.723 140.185C140.055 139.798 140.386 139.414 140.738 139.046C140.455 137.522 141.103 136.835 142.009 136.172C142.928 135.541 143.923 134.794 144.148 133.64C144.234 133.668 144.317 133.717 144.376 133.766C144.148 132.803 144.325 131.764 144.976 131.113C144.976 131.113 144.79 130.842 144.605 130.571C144.417 130.307 144.228 130.043 144.228 130.043C146.219 128.141 146.915 125.473 147.159 122.876L147.241 120.903C147.234 120.245 147.176 119.588 147.157 118.929L147.126 117.94L147.035 116.953C146.973 116.295 146.985 115.619 146.938 114.948C146.629 111.926 146.041 108.961 144.665 106.357C143.998 105.046 143.041 103.911 141.932 102.931C141.334 102.48 140.693 102.072 140.01 101.724C139.34 101.363 138.531 101.159 137.739 100.981C137.908 100.801 137.963 100.668 138.142 100.69C137.371 100.298 136.801 99.7558 136.223 99.2078C135.936 98.9348 135.652 98.6568 135.334 98.4258C135.002 98.2188 134.643 98.0488 134.236 97.9578L134.371 97.7468C133.812 97.7178 133.305 97.6198 132.809 97.5058C132.302 97.4148 131.824 97.2808 131.359 97.1168C130.445 96.7668 129.524 96.4148 128.607 96.0638C127.698 95.6918 126.727 95.4998 125.778 95.3658C124.814 95.3018 123.829 95.4608 122.902 95.8828C118.673 95.2468 113.567 96.1798 109.89 98.7778L109.683 98.3198C109.334 98.6358 108.966 98.8918 108.584 99.1158C108.219 99.3718 107.836 99.5888 107.436 99.7798C106.605 100.146 105.778 100.509 104.952 100.874C103.264 101.603 101.593 102.617 100.672 104.286C99.8603 104.849 99.2832 105.667 98.8942 106.578C98.7202 107.049 98.5812 107.538 98.4612 108.029L98.2962 108.766L98.2053 109.53C98.0853 110.539 97.9703 111.5 97.8243 112.426C97.7403 112.883 97.5923 113.313 97.4233 113.736C97.2743 114.166 97.0613 114.575 96.7613 114.972C96.3913 115.172 96.1332 115.422 95.9622 115.701C95.8162 115.986 95.7652 116.303 95.7692 116.63C95.7962 117.289 95.9892 117.984 96.3162 118.653C96.6302 119.324 96.9443 119.954 97.0113 120.541C97.1003 121.13 97.0083 121.677 96.3863 122.24C95.4263 123.382 95.1172 124.59 95.0022 125.776C94.9792 126.364 95.0822 126.935 95.2172 127.495C95.3542 128.056 95.5532 128.598 95.8692 129.094C96.1662 129.597 96.5082 130.076 96.8782 130.531C97.2782 130.972 97.7392 131.375 98.1962 131.76L98.8963 132.317C99.1493 132.488 99.4132 132.648 99.6712 132.805C100.193 133.117 100.707 133.415 101.223 133.689C101.796 135.634 103.471 136.882 105.139 137.8C105.927 138.331 106.786 138.719 107.461 139.354C108.178 139.932 108.788 140.667 109.294 141.74C110.525 141.308 111.035 142.267 111.735 143.24C112.071 143.744 112.423 144.298 112.837 144.741C113.262 145.14 113.751 145.424 114.303 145.431L114.378 144.808C114.524 145.812 115.101 145.305 115.575 144.824C116.059 144.345 116.441 143.967 116.456 145.39L116.357 145.503C116.446 146.24 116.815 145.446 117.123 144.678C117.435 143.909 117.691 143.167 117.71 144.028L117.846 143.338C118.307 143.192 117.813 144.145 118.139 144.449C118.283 144.369 118.303 143.174 118.538 143.59C118.404 146.469 119.671 143.022 119.586 146.259C119.304 146.245 119.997 147.536 119.332 148.182C119.508 148.524 120.42 148.405 120.332 147.026C120.402 145.565 120.699 144.3 120.235 143.162L120.137 144.22C119.993 143.15 120.026 143.682 119.983 142.883C119.408 142.711 119.395 141.163 119.068 140.506C119.07 140.538 119.072 140.568 119.062 140.621C118.722 141.878 118.4 141.112 118.224 140.917L118.205 140.315C118.242 139.067 117.327 142.622 117.748 140.54C117.197 140.709 116.597 140.782 116.007 140.713C115.421 140.622 114.829 140.471 114.241 140.338C113.838 141.05 113.39 139.943 113.137 141.51C113.408 139.71 112.774 139.032 112.457 138.953C112.533 138.807 112.621 138.639 112.639 138.722C112.823 137.531 112.465 137.948 112.103 138.292C111.75 138.642 111.393 138.918 111.775 137.542C111.288 138.404 111.108 138.162 110.91 137.917C110.716 137.661 110.49 137.439 109.741 138.351C109.905 137.934 110.093 137.582 110.299 137.293C109.866 137.011 109.501 136.578 109.223 136.091C108.937 135.613 108.648 135.202 108.375 134.88C107.548 135.299 107.332 134.837 107.094 134.47C106.831 134.114 106.626 133.765 105.508 134.344C105.509 133.966 105.555 133.455 105.451 133.059C105.371 132.639 105.158 132.322 104.542 132.311L104.822 132.194C104.163 131.632 103.593 130.8 101.931 131.02C103.79 129.682 103.264 129.582 103.765 128.935C103.172 128.932 102.818 128.634 102.453 128.293C102.138 127.929 101.815 127.522 101.202 127.265C102.16 126.809 100.516 126.713 102.003 126.215C101.158 125.856 100.478 125.334 100.063 124.708C99.6953 124.073 99.4602 123.358 99.4892 122.622C99.5562 121.882 99.7153 121.133 100.111 120.436C100.535 119.74 101.005 119.089 101.653 118.542L101.756 118.59C100.965 118.188 99.1692 117.531 98.1512 116.953C98.2902 116.937 98.5423 116.985 98.5223 117.064C98.4203 116.776 98.7613 116.573 99.1003 116.386C99.4613 116.202 99.8282 116.037 99.7522 115.759C100 115.822 99.9992 115.823 100.217 115.958C99.6772 115.321 101.633 115.363 100.636 114.509L101.035 114.604L100.613 114.101C101.092 114.272 101.816 114.529 101.596 114.641C102.439 112.799 102.904 110.786 103.718 108.683C104.108 107.624 104.663 106.634 105.292 105.667C105.646 105.225 106.02 104.79 106.417 104.379C106.808 103.96 107.3 103.659 107.772 103.344L107.925 103.834C107.925 103.834 107.973 103.527 108.02 103.221C108.076 102.909 108.13 102.598 108.13 102.598C108.269 102.814 108.305 102.942 108.336 103.063C109.049 103.125 109.442 102.731 109.813 102.237C110.165 101.721 110.577 101.256 111.114 101.096C111.214 101.324 111.28 101.84 111.534 102.03C111.596 101.234 112.072 101.479 112.418 101.639C112.771 101.793 112.982 101.8 112.664 100.377C112.748 100.49 112.998 101.091 113.006 101.336C113.843 100.465 114.911 99.9928 116.009 99.6588C117.134 99.4448 118.293 99.3598 119.429 99.5908C120.318 98.1838 121.426 98.2458 122.476 98.2848C123.004 98.3348 123.523 98.4608 124.066 98.4228C124.338 98.4078 124.616 98.3608 124.907 98.2638C125.195 98.1848 125.492 98.0728 125.812 97.8848L125.681 98.3898C127.232 97.7988 128.666 98.3358 129.907 99.1028C130.513 99.5288 131.119 99.9438 131.689 100.396C132.249 100.868 132.843 101.257 133.483 101.583C134.294 102.468 135.347 102.414 136.252 103.244L135.836 103.745C137.45 103.477 137.802 104.755 138.107 105.859C138.25 106.432 138.339 107.021 138.64 107.442C138.788 107.655 138.984 107.832 139.253 107.963C139.503 108.108 139.823 108.207 140.249 108.252L139.428 108.602C140.759 108.156 139.655 109.905 141.623 108.629L141.202 109.304C142.901 109.214 142.898 110.064 142.759 110.902C142.62 111.767 142.226 112.66 143.504 113.185L142.935 113.247C143.53 113.546 143.969 114.025 143.574 114.501C143.482 114.468 143.331 114.535 143.161 114.465C142.268 115.469 142.55 116.122 142.95 116.839C143.37 117.536 144.129 118.261 144.09 119.058L143.047 118.96C143.671 119.276 143.72 119.814 143.687 120.369C143.673 120.928 143.444 121.498 143.714 122.001L143.232 121.916L143.893 122.451L142.913 122.392C142.877 123.008 142.956 123.614 143.082 124.246C143.203 124.868 143.37 125.526 143.244 126.14Z" fill="black"/>
<path d="M137.861 138.095C137.87 138.099 137.874 138.094 137.892 138.106C137.858 138.016 137.852 138.037 137.861 138.095Z" fill="black"/>
<path d="M118.95 140.294C118.995 140.355 119.032 140.417 119.068 140.498C119.071 140.299 118.989 140.338 118.95 140.294Z" fill="black"/>
<path d="M91.4417 70.6898L91.7427 70.6338L90.9106 70.4898L91.4417 70.6898Z" fill="black"/>
<path d="M89.5916 69.7458C89.4416 69.7728 89.1916 69.7608 89.0386 69.7878L91.4095 70.3428C92.7535 70.0948 88.6936 69.9088 89.5916 69.7458Z" fill="black"/>
<path d="M89.8315 69.5828C90.3865 69.3678 89.2706 69.2788 88.8936 69.2288C89.7576 69.3038 88.6285 69.6298 89.8315 69.5828Z" fill="black"/>
<path d="M89.2798 47.5948C89.2858 47.6198 89.3168 47.6318 89.3518 47.6298C89.3868 47.5428 89.3518 47.5418 89.2798 47.5948Z" fill="black"/>
<path d="M81.2647 51.0538L81.0807 51.9428C81.5537 51.1518 82.0577 51.1588 82.4217 51.2768C82.8117 51.3948 83.0557 51.6248 83.6927 51.2788L83.4297 51.5908C83.8907 51.6828 84.4037 51.6458 85.0207 51.5288C85.1817 52.0848 85.4967 52.5738 85.8327 53.2338C86.1687 53.8848 86.5257 54.7078 86.7737 55.7058C86.6797 55.6688 86.4187 55.6738 86.3147 55.6418C86.6237 55.7358 87.1918 55.8668 87.1158 56.0288C86.9188 56.0708 86.7037 55.9918 86.6137 55.9478C85.1447 56.4938 87.5458 57.4768 86.4128 57.8068C86.5688 57.9528 87.1828 58.0158 87.6468 57.9348C88.0218 59.8548 88.3027 61.9078 89.4557 63.8618C89.2547 63.9568 88.8537 63.9728 88.3487 63.9478C90.7317 65.6188 89.7827 67.3698 89.3957 69.0788C90.0227 69.1438 90.0598 68.9048 90.7098 69.0728C91.4928 68.5228 89.1767 68.0658 90.3147 67.5678L90.9187 67.6308C91.3077 67.2688 89.3957 67.5578 90.1747 67.1818C90.6807 67.0338 90.9447 67.2188 90.9887 67.1498C90.7407 66.3788 91.2857 65.5748 89.8167 64.8488C91.1287 64.6698 89.8618 64.0208 91.1158 63.7358C90.5978 63.5368 90.7307 63.3368 89.8617 63.2608C90.2087 61.9108 90.0647 60.5478 89.8457 59.1758C89.7367 58.4898 89.6077 57.8028 89.5127 57.1138C89.4657 56.7598 89.4267 56.4438 89.4027 56.0588C89.3787 55.5118 89.3698 54.9688 89.3818 54.4198C88.1128 53.6618 88.2357 52.8368 88.5697 51.5558C88.9027 50.3388 89.4467 48.6328 89.0207 47.8418C89.1107 47.7388 89.2067 47.6498 89.2807 47.5948C89.2067 47.5738 89.1367 47.5448 89.0727 47.4788C87.8767 47.9588 86.8777 48.1558 86.3117 47.8798C86.3117 47.8798 85.9488 48.1478 85.5848 48.4158C85.2448 48.6848 84.9047 48.9518 84.9047 48.9518C84.1077 48.4008 82.9126 48.0838 81.6256 47.9048C81.3036 47.8598 80.9737 47.8238 80.6407 47.7948L79.8937 47.7278C79.4397 47.6948 78.9837 47.6838 78.5277 47.6828C76.7047 47.6798 74.8737 47.8378 73.0487 47.3798C68.9007 46.7468 65.2667 44.9188 61.2277 48.2628C61.2327 48.0168 61.2008 47.8798 61.3038 47.7768C60.1388 48.2888 59.0757 47.3748 57.9787 47.9058L57.9817 47.6558C56.6197 48.7018 55.2027 48.6318 53.7967 48.5818C52.2387 48.5328 49.8977 48.5038 49.1387 49.6328C48.4197 49.5898 47.6807 49.5638 46.8547 49.5528C46.8317 51.0558 46.8817 52.7278 47.0037 54.3448C47.1257 56.0298 47.3187 57.3478 47.5807 58.7348L47.0787 58.7268C47.6087 60.0808 47.2077 61.4128 46.7737 62.7428C46.5567 63.4078 46.3317 64.0728 46.2117 64.7408C46.1507 65.0288 46.1167 65.5358 46.1237 65.9488C46.1297 66.3808 46.1757 66.8078 46.2757 67.2048C46.0097 68.1018 46.0227 68.9988 46.1787 69.7348C46.3357 70.4778 46.6366 71.0598 46.9486 71.5048C48.1936 71.1438 49.2726 70.7688 50.1256 70.5858C50.9906 70.4028 51.6297 70.4138 52.3157 70.8238C54.0997 73.2948 56.3408 67.9978 57.9808 70.5578C61.3268 74.4168 64.5717 71.9328 67.9167 69.6198C71.0027 70.9948 74.0837 67.4638 77.0717 70.2698C78.4877 68.4708 80.0507 72.4968 81.6277 71.9768L81.5707 71.3538C82.1357 73.2448 82.8318 68.7078 83.1838 71.5178L83.1237 71.6448C83.4237 73.0748 83.8187 68.2858 84.0017 69.9808L84.0497 69.2778C84.4127 69.0748 84.0927 70.0768 84.3727 70.3578C84.4777 70.2698 84.4127 69.0748 84.6327 69.4788C84.6797 72.3618 85.5207 68.8538 85.5457 72.0918C85.3467 72.0918 85.8567 73.3478 85.4107 74.0258C85.5377 74.3578 86.1447 74.1978 86.0907 72.8228C86.1427 71.3638 86.3797 70.0928 86.0107 68.9638L85.9367 70.0258C85.8127 68.9638 85.8418 69.4948 85.7978 68.6978C85.3158 68.5568 85.2497 67.0118 84.9037 66.3718C84.9077 66.4028 84.9107 66.4328 84.9057 66.4868C84.6697 67.7598 84.3427 67.0048 84.1547 66.8228L84.0798 66.2308C83.9668 64.9928 83.5307 68.6488 83.6777 66.5258C82.6977 67.0528 81.5727 67.0278 80.4767 67.0528C80.3237 67.8598 79.6377 66.9788 79.8767 68.5348C79.6027 66.7618 78.7867 66.3118 78.4827 66.3808C78.4947 66.2148 78.5067 66.0258 78.5547 66.0918C77.9667 63.7908 77.8587 68.2208 77.3077 65.4078C77.2217 67.3938 76.3078 64.7728 75.9958 67.1088C75.9278 66.6678 75.9047 66.2688 75.9297 65.9158C74.9387 65.8708 73.8437 65.1538 73.0047 65.0638C72.2877 66.8058 71.2697 64.2748 70.6527 66.6808C70.1417 66.1708 69.3157 65.1668 68.6027 66.1338L68.6717 65.8388C67.8677 65.9798 66.8627 66.1048 66.3117 67.6178C66.0737 65.3128 65.7257 65.7738 65.3777 65.0358C64.8407 66.1038 63.7568 65.7898 62.9388 66.7608C62.8128 65.6988 62.2618 67.2118 62.2198 65.6668C59.9238 68.6468 57.0857 67.6048 54.6347 65.3528L54.6707 65.2438C54.3527 66.0918 53.9858 67.9648 53.6628 69.0578C53.6308 68.9228 53.6347 68.6668 53.7027 68.6748C53.1627 68.9618 53.1757 67.4448 52.9267 67.7278C52.9737 67.4718 52.9767 67.4718 53.0467 67.2278C52.9017 67.5718 52.8567 67.2628 52.8527 67.0178C52.8357 66.7728 52.8657 66.5908 52.5337 67.1888L52.6927 66.7808C52.6927 66.7808 52.6057 66.9248 52.5177 67.0668C52.4217 67.2098 52.3267 67.3528 52.3267 67.3528C52.5707 66.8428 52.9307 66.0758 52.8887 66.2418C52.7297 66.1058 52.5147 66.2048 52.0397 66.4118C51.7637 66.3608 51.2947 66.2018 50.9297 65.6458C50.8387 65.5098 50.7537 65.3558 50.6797 65.1868L50.6267 65.0568C50.6097 65.0088 50.5937 64.8888 50.5787 64.8088L50.4967 64.2708C50.4027 63.5528 50.3717 62.8348 50.4417 62.1178L50.9257 62.2628L50.0588 61.4978C50.3168 61.5018 50.4417 61.5378 50.5567 61.5748C51.4237 60.5998 49.9807 59.5888 50.1997 58.6378C50.4477 58.6428 50.9417 58.7858 51.2227 58.6538C49.8297 57.9508 53.0317 57.5238 50.1407 57.1728C50.2757 57.1398 50.9257 57.1168 51.1587 57.1898C51.0387 56.9448 50.9347 56.6998 50.8457 56.4538L50.7227 56.0998C50.6847 56.0408 50.6518 55.9798 50.6208 55.9158C50.4978 55.6628 50.4297 55.3818 50.4057 55.1088C50.3587 54.5608 50.4887 54.0638 50.7237 53.7988C50.3127 53.3218 50.0246 52.8948 49.8236 52.5208C49.7536 51.9798 50.4217 52.0608 50.9307 52.0588C51.4797 52.0568 51.8698 51.9708 52.2928 51.0948L52.4027 51.6158C52.7537 51.1588 53.2337 50.9368 53.8197 50.8578C54.3857 50.7778 54.9567 50.8388 55.5307 50.9458C56.6777 51.1608 57.8357 51.5568 58.9797 51.3738C59.9297 51.5848 60.5717 50.9678 61.5267 50.9348L61.5497 51.5848C63.1567 49.1078 64.9277 53.8098 66.6047 51.0848L66.4887 51.9698C66.7497 50.5988 67.5037 52.4518 67.4037 50.1068L67.6997 50.8178C68.8397 47.7158 69.7727 52.2478 71.1687 50.2358L71.0777 50.7928C71.4487 50.3608 71.8817 50.0178 72.1557 50.5288C72.1127 50.6088 72.1337 50.7728 72.0447 50.9198C73.2077 53.1248 74.5007 50.6898 75.7277 50.7738L75.5887 51.8108C76.1817 50.5938 77.2688 51.7268 78.0478 51.1698L78.0006 51.6558L78.3947 50.9678L78.4057 51.9498C79.4097 52.0168 80.4117 51.1688 81.2647 51.0538Z" fill="black"/>
<path d="M86.6135 55.9468C86.6235 55.9438 86.6235 55.9388 86.6445 55.9338C86.5585 55.9038 86.5685 55.9198 86.6135 55.9468Z" fill="black"/>
<path d="M84.7798 66.1718C84.8268 66.2308 84.8648 66.2908 84.9038 66.3708C84.8938 66.1718 84.8198 66.2148 84.7798 66.1718Z" fill="black"/>
<path d="M0.945312 56.1838L0.956299 56.3338L1.00928 55.9198L0.945312 56.1838Z" fill="black"/>
<path d="M1.23743 55.2668C1.23643 55.1868 1.2344 55.0718 1.2334 54.9908L1.04346 56.1718C1.09446 56.8448 1.20443 54.8168 1.23743 55.2668Z" fill="black"/>
<path d="M1.28027 55.3878C1.33327 55.6668 1.37431 55.1108 1.39331 54.9218C1.35931 55.3538 1.28427 54.7858 1.28027 55.3878Z" fill="black"/>
<path d="M6.62061 55.2648C6.61461 55.2668 6.60659 55.2828 6.60059 55.2998C6.60959 55.3178 6.61561 55.3008 6.62061 55.2648Z" fill="black"/>
<path d="M8.06506 53.4128L8.09204 52.9698C7.81004 53.7528 7.5401 52.9408 7.2561 53.2778L7.27905 53.1228C6.58705 52.9308 5.92402 53.6538 5.22302 53.9718C5.23102 53.9138 5.246 53.8058 5.255 53.7428C5.217 53.8958 5.17211 54.1798 5.13611 54.1398C5.12911 54.0398 5.15202 53.9338 5.16602 53.8898C5.04102 53.1518 4.72405 54.3428 4.64905 53.7738C4.60605 53.8508 4.57909 54.1568 4.59509 54.3898C4.04909 54.5618 3.46605 54.6858 2.89905 55.2458C2.87505 55.1438 2.87611 54.9438 2.89111 54.6908C2.38611 55.8688 1.90605 55.3798 1.43005 55.1728C1.40305 55.4848 1.47009 55.5058 1.41309 55.8288C1.55709 56.2248 1.71902 55.0708 1.84302 55.6438L1.81604 55.9448C1.91304 56.1418 1.8581 55.1838 1.9541 55.5768C1.9881 55.8308 1.93305 55.9618 1.95105 55.9838C2.17205 55.8668 2.39109 56.1448 2.61609 55.4168C2.64809 56.0748 2.84901 55.4458 2.91101 56.0748C2.97401 55.8178 3.02911 55.8868 3.06311 55.4528C3.81311 55.8208 4.60811 55.2088 5.38611 55.2788C5.78711 54.0208 6.18 55.5468 6.625 55.1328C6.627 55.1778 6.62509 55.2258 6.62109 55.2628C6.77109 54.9528 6.98104 54.8118 7.14404 54.9728L7.302 54.4408C8.283 55.5718 9.34106 54.8278 10.3571 55.3148C11.5171 55.6648 12.515 56.6078 13.702 54.9688C13.697 55.0918 13.7041 55.1598 13.6731 55.2108C14.0091 54.9648 14.2961 55.4298 14.6121 55.1738L14.608 55.2988C15.405 54.2748 16.2021 55.4848 16.9751 54.3768C17.8731 54.5168 18.895 54.4328 19.858 54.1368L19.849 54.3878C20.627 53.8788 21.3271 55.2328 22.1001 54.8538C22.8671 55.4488 23.752 53.4578 24.519 54.2458C24.973 55.4948 25.69 52.8658 26.113 54.1588C27.001 56.1148 27.951 54.8988 28.927 53.7698C29.777 54.4818 30.696 52.7428 31.498 54.1688C31.923 53.2808 32.3061 55.3058 32.7571 55.0588L32.75 54.7468C32.882 55.6958 33.143 53.4348 33.203 54.8418L33.1841 54.9038C33.2471 55.6208 33.4281 53.2308 33.4551 54.0798L33.478 53.7278C33.583 53.6288 33.4791 54.1278 33.5541 54.2708C33.5851 54.2278 33.584 53.6288 33.64 53.8328C33.612 55.2738 33.8991 53.5278 33.8601 55.1458C33.8041 55.1448 33.93 55.7768 33.795 56.1118C33.826 56.2788 34 56.2038 34.004 55.5158C34.039 54.7868 34.124 54.1538 34.036 53.5858L34 54.1158C33.98 53.5838 33.9811 53.8488 33.9801 53.4508C33.8461 53.3768 33.8501 52.6038 33.7621 52.2808C33.7621 52.2978 33.7611 52.3098 33.7611 52.3388C33.6761 52.9738 33.595 52.5928 33.545 52.5008L33.5321 52.2038C33.5171 51.5848 33.3431 53.4078 33.4141 52.3488C33.1301 52.6048 32.813 52.5818 32.504 52.5858C32.449 52.9878 32.2681 52.5418 32.3141 53.3218C32.2621 52.4328 32.039 52.2028 31.952 52.2338C31.957 52.1508 31.9641 52.0558 31.9761 52.0898C31.8431 50.9348 31.749 53.1488 31.634 51.7378C31.581 52.7288 31.3611 51.4118 31.2401 52.5768C31.2271 52.3558 31.226 52.1568 31.239 51.9798C30.96 51.9498 30.662 51.5828 30.427 51.5308C30.2 52.3958 29.9491 51.1228 29.7411 52.3198C29.6051 52.0608 29.386 51.5528 29.171 52.0308L29.1951 51.8838C28.9661 51.9478 28.681 52.0018 28.504 52.7538C28.47 51.6008 28.3651 51.8278 28.2781 51.4558C28.1111 51.9858 27.81 51.8198 27.566 52.2988C27.545 51.7668 27.369 52.5188 27.379 51.7458C26.69 53.2168 25.9041 52.6728 25.2461 51.5268L25.2571 51.4728C25.1551 51.8938 25.0261 52.8268 24.9191 53.3708C24.9121 53.3028 24.917 53.1748 24.936 53.1798C24.806 53.3198 24.7091 52.5578 24.5791 52.6958C24.5841 52.5678 24.584 52.5678 24.608 52.4468C24.48 52.7868 24.381 51.8228 24.224 52.4168L24.222 52.2128L24.125 52.4958C24.134 52.2408 24.1491 51.8568 24.1941 51.9418C23.1181 51.6618 21.9621 52.9538 20.8551 52.7298L20.9031 52.4898L20.675 52.9168C20.679 52.7878 20.6921 52.7268 20.7041 52.6688C20.4411 52.2278 20.1361 52.9398 19.8711 52.8238C19.8761 52.6998 19.924 52.4538 19.89 52.3118C19.672 53.0018 19.598 51.3988 19.457 52.8398C19.45 52.7728 19.4531 52.4468 19.4761 52.3318C18.9111 52.7948 18.3461 52.7518 17.7971 52.5018C17.2971 53.7968 16.8141 52.5978 16.3031 53.6218L16.3131 53.3618C15.6651 54.2578 15.0331 53.2618 14.3821 53.4268C14.1171 53.3138 13.9271 53.6168 13.6581 53.6258L13.66 53.3008C13.172 54.5258 12.74 52.1608 12.228 53.5098L12.2731 53.0688C12.1801 53.7528 11.994 52.8198 11.988 53.9928L11.915 53.6358C11.55 55.1768 11.3511 52.9048 10.9291 53.8988L10.963 53.6218C10.852 53.8348 10.725 54.0028 10.655 53.7448C10.668 53.7048 10.665 53.6228 10.692 53.5508C10.396 52.4398 9.9961 53.6468 9.6521 53.5948L9.70605 53.0768C9.52205 53.6808 9.23103 53.1048 9.00403 53.3778L9.02405 53.1348L8.90308 53.4758L8.91406 52.9848C8.62606 52.9468 8.34506 53.3628 8.06506 53.4128Z" fill="black"/>
<path d="M5.16504 53.8898C5.16504 53.8938 5.16611 53.8958 5.16711 53.9058C5.17811 53.8628 5.17304 53.8668 5.16504 53.8898Z" fill="black"/>
<path d="M33.7285 52.1848C33.7405 52.2138 33.7505 52.2458 33.7605 52.2858C33.7605 52.1858 33.7385 52.2058 33.7285 52.1848Z" fill="black"/>
<path d="M46.3185 33.2438L46.4144 33.1278L46.0884 33.3888L46.3185 33.2438Z" fill="black"/>
<path d="M45.4645 33.6948C45.4095 33.7548 45.3314 33.8378 45.2764 33.8978L46.2365 33.1828C46.6655 32.6598 45.1775 34.0428 45.4645 33.6948Z" fill="black"/>
<path d="M45.5175 33.5758C45.6715 33.3368 45.2544 33.7088 45.1094 33.8298C45.4334 33.5438 45.0975 34.0068 45.5175 33.5758Z" fill="black"/>
<path d="M41.4355 29.8088C41.4415 29.8118 41.4586 29.8058 41.4756 29.7978C41.4806 29.7788 41.4635 29.7858 41.4355 29.8088Z" fill="black"/>
<path d="M39.0715 30.0998L38.7435 30.4008C39.4975 30.0398 39.1365 30.8208 39.5835 30.7828L39.4585 30.8788C39.8425 31.5178 40.8406 31.4748 41.5846 31.7518C41.5386 31.7878 41.4526 31.8548 41.4026 31.8938C41.5366 31.8098 41.7666 31.6388 41.7666 31.6938C41.7036 31.7698 41.6116 31.8298 41.5706 31.8518C41.1526 32.4748 42.2156 31.8448 41.8776 32.3088C41.9636 32.2848 42.1956 32.0828 42.3446 31.9038C42.8726 32.1748 43.3945 32.5068 44.2075 32.5118C44.1545 32.6018 44.0156 32.7448 43.8296 32.9168C45.0236 32.4328 45.0436 33.1318 45.2566 33.6248C45.4936 33.4188 45.4585 33.3548 45.7245 33.1628C45.8915 32.7738 44.9705 33.4888 45.2745 32.9858L45.5035 32.7878C45.5675 32.5758 44.9445 33.3068 45.1455 32.9548C45.2955 32.7458 45.4276 32.6928 45.4296 32.6628C45.1826 32.5878 45.2126 32.2288 44.5386 32.5918C44.9706 32.0948 44.3846 32.4028 44.7736 31.9038C44.5476 32.0438 44.5545 31.9558 44.2285 32.2438C43.9215 31.4358 42.9025 31.3038 42.3695 30.6908C41.1985 31.3078 41.9606 29.9238 41.3416 29.9008C41.3716 29.8678 41.4056 29.8348 41.4346 29.8098C41.1086 29.9248 40.8525 29.8748 40.8425 29.6408L40.3556 29.9108C40.4046 28.3868 39.0976 28.1598 38.6746 27.0748C38.0486 25.9838 37.9545 24.5838 35.9315 24.9078C36.0205 24.8228 36.0626 24.7678 36.1206 24.7538C35.6986 24.6898 35.8066 24.1468 35.3916 24.1028L35.4816 24.0168C34.1756 24.1778 34.4175 22.7308 33.0725 22.9708C32.4965 22.2218 31.6736 21.5448 30.7476 21.0628L30.9286 20.8888C29.9936 20.6928 30.4075 19.2108 29.5665 18.9268C29.4055 17.9438 27.3646 18.7388 27.3346 17.6168C27.8606 16.3888 25.5015 17.7658 26.0815 16.5288C26.7715 14.4768 25.2185 14.6678 23.7065 14.7768C23.5635 13.6488 21.6706 14.2408 22.0586 12.6308C21.1256 12.9648 22.2415 11.2288 21.7325 11.0798L21.5216 11.3088C22.0806 10.5288 20.3175 11.9718 21.2485 10.9128L21.3065 10.8818C21.7555 10.3188 19.9646 11.9118 20.5326 11.2798L20.2716 11.5158C20.1246 11.5108 20.5476 11.2268 20.5906 11.0708C20.5376 11.0788 20.1245 11.5108 20.2235 11.3238C21.2435 10.3038 19.8186 11.3558 20.9696 10.2178C21.0106 10.2588 21.3535 9.71378 21.6875 9.56978C21.7795 9.42678 21.5985 9.35579 21.1185 9.84879C20.5875 10.3488 20.0846 10.7438 19.7576 11.2158L20.1526 10.8598C19.7986 11.2568 19.9825 11.0658 19.7075 11.3538C19.7565 11.5038 19.2185 12.0578 19.0605 12.3548C19.0715 12.3438 19.0816 12.3338 19.1016 12.3148C19.6046 11.9188 19.4015 12.2518 19.3755 12.3548L19.1796 12.5778C18.7606 13.0348 20.1556 11.8458 19.3676 12.5578C19.7576 12.5788 19.9785 12.8238 20.2135 13.0438C20.5325 12.7938 20.3596 13.2448 20.8656 12.6498C20.2886 13.3288 20.2956 13.6568 20.3826 13.6958C20.3206 13.7518 20.2505 13.8148 20.2645 13.7818C19.5635 14.7108 21.1675 13.1818 20.2765 14.2818C21.0035 13.6048 20.2556 14.7138 21.1526 13.9618C21.0086 14.1298 20.8715 14.2738 20.7395 14.3938C20.9275 14.6168 20.8965 15.0968 21.0365 15.3038C21.8055 14.8438 21.1116 15.9438 22.0966 15.2308C22.0196 15.5158 21.8305 16.0408 22.3225 15.8508L22.2025 15.9398C22.4175 16.0588 22.6685 16.2258 23.3225 15.8108C22.5485 16.6678 22.7845 16.5798 22.5925 16.9108C23.0845 16.6488 23.1946 16.9858 23.7096 16.8178C23.3556 17.2158 24.0096 16.8008 23.4666 17.3508C25.0026 16.7888 25.2126 17.7468 24.9126 19.0488L24.8666 19.0798C25.2346 18.8498 25.9786 18.2698 26.4346 17.9558C26.3926 18.0098 26.3016 18.0988 26.2896 18.0808C26.4836 18.0748 26.0286 18.6928 26.2216 18.6878C26.1296 18.7768 26.1296 18.7768 26.0276 18.8468C26.3596 18.6938 25.7656 19.4598 26.2936 19.1458L26.1536 19.2938L26.4226 19.1588C26.2386 19.3368 25.9626 19.6018 25.9866 19.5098C26.5986 20.4888 28.3586 20.3928 29.0326 21.3528L28.8296 21.4928L29.2955 21.3488C29.2025 21.4378 29.1505 21.4738 29.1025 21.5068C28.9935 22.0148 29.7155 21.7208 29.8325 21.9958C29.7435 22.0818 29.5375 22.2248 29.4635 22.3508C30.1055 22.0098 29.0495 23.2198 30.1545 22.2828C30.1125 22.3368 29.8856 22.5688 29.7876 22.6358C30.5316 22.7088 30.9246 23.1498 31.1626 23.7268C32.4336 23.1538 31.9645 24.3678 33.0575 23.9978L32.8695 24.1788C33.9755 23.9998 33.7596 25.1748 34.3606 25.5258C34.4806 25.7978 34.8325 25.7168 35.0405 25.9048L34.8136 26.1378C36.0276 25.6068 34.7125 27.6228 36.0295 27.0208L35.6896 27.3068C36.2326 26.8808 35.7256 27.6878 36.5426 26.8458L36.3495 27.1568C37.6905 26.3088 36.2655 28.0918 37.2695 27.6788L37.0515 27.8548C37.2815 27.7818 37.4936 27.7508 37.3676 27.9888C37.3296 28.0078 37.2756 28.0698 37.2046 28.1018C36.6566 29.1178 37.7915 28.5358 38.0135 28.8218L37.6145 29.1558C38.1705 28.8538 37.9895 29.4778 38.3485 29.4468L38.1655 29.6068L38.4916 29.4488L38.1426 29.7958C38.3286 30.0298 38.8265 29.9338 39.0715 30.0998Z" fill="black"/>
<path d="M41.5705 31.8508C41.5735 31.8468 41.5745 31.8458 41.5795 31.8378C41.5425 31.8618 41.5495 31.8618 41.5705 31.8508Z" fill="black"/>
<path d="M19.0133 12.4498C19.0243 12.4208 19.0383 12.3908 19.0583 12.3538C18.9893 12.4268 19.0203 12.4268 19.0133 12.4498Z" fill="black"/>
<path d="M66.7262 0.64978L66.5762 0.659782L66.9922 0.701782L66.7262 0.64978Z" fill="black"/>
<path d="M67.6473 0.89978C67.7263 0.89778 67.8433 0.895784 67.9233 0.893784L66.7403 0.735779C66.0683 0.785779 68.0973 0.86578 67.6473 0.89978Z" fill="black"/>
<path d="M67.5271 0.938762C67.2491 0.987762 67.805 1.01876 67.994 1.03476C67.563 1.00876 68.1281 0.936762 67.5271 0.938762Z" fill="black"/>
<path d="M67.7272 5.66479C67.7242 5.65979 67.7081 5.65279 67.6911 5.64679C67.6731 5.65479 67.6912 5.66079 67.7272 5.66479Z" fill="black"/>
<path d="M69.5983 6.92777L70.0424 6.94878C69.2554 6.70578 70.0633 6.45878 69.7223 6.21078L69.8783 6.23077C70.0613 5.61577 69.3272 5.03577 69.0002 4.41777C69.0562 4.42477 69.1682 4.43777 69.2292 4.44377C69.0762 4.41277 68.7913 4.37477 68.8313 4.34177C68.9303 4.33377 69.0373 4.35378 69.0813 4.36478C69.8173 4.24778 68.6223 3.97778 69.1893 3.90578C69.1123 3.86878 68.8052 3.84678 68.5732 3.86478C68.3932 3.38278 68.2613 2.86677 67.6923 2.36977C67.7933 2.34877 67.9943 2.34777 68.2463 2.35677C67.0613 1.92077 67.5443 1.49177 67.7443 1.06777C67.4313 1.04677 67.4113 1.10578 67.0873 1.05878C66.6923 1.18978 67.8493 1.32277 67.2773 1.43777L66.9763 1.41677C66.7803 1.50377 67.7373 1.44678 67.3463 1.53378C67.0923 1.56678 66.9613 1.51877 66.9393 1.53577C67.0603 1.72977 66.7843 1.92677 67.5153 2.11977C66.8593 2.15377 67.4903 2.32677 66.8623 2.38777C67.1203 2.44177 67.0523 2.49078 67.4873 2.51678C67.1303 3.18478 67.7533 3.88278 67.6943 4.57178C68.9573 4.91578 67.4373 5.27777 67.8573 5.66777C67.8123 5.66977 67.7643 5.66877 67.7273 5.66577C68.0393 5.79577 68.1833 5.97978 68.0243 6.12678L68.5583 6.26177C67.4413 7.14177 68.2013 8.07078 67.7283 8.97478C67.3953 10.0058 66.4663 10.8988 68.1233 11.9338C68.0003 11.9298 67.9312 11.9378 67.8802 11.9108C68.1312 12.2058 67.6703 12.4638 67.9313 12.7418L67.8063 12.7388C68.8413 13.4358 67.6434 14.1528 68.7614 14.8268C68.6354 15.6228 68.7343 16.5268 69.0433 17.3768L68.7924 17.3708C69.3124 18.0558 67.9683 18.6868 68.3583 19.3688C67.7743 20.0528 69.7763 20.8178 69.0013 21.5058C67.7593 21.9188 70.3973 22.5288 69.1113 22.9158C67.1683 23.7198 68.3973 24.5498 69.5403 25.4038C68.8403 26.1628 70.5933 26.9608 69.1783 27.6838C70.0723 28.0508 68.0533 28.4098 68.3063 28.8068L68.6183 28.7978C67.6703 28.9238 69.9353 29.1338 68.5293 29.1988L68.4663 29.1828C67.7503 29.2448 70.1433 29.3828 69.2953 29.4148L69.6464 29.4328C69.7474 29.5248 69.2473 29.4368 69.1053 29.5048C69.1493 29.5308 69.7473 29.5248 69.5433 29.5758C68.1023 29.5648 69.8523 29.8028 68.2323 29.7828C68.2333 29.7328 67.6034 29.8498 67.2664 29.7338C67.1004 29.7618 67.1774 29.9158 67.8654 29.9128C68.5944 29.9378 69.2293 30.0078 69.7953 29.9248L69.2653 29.8978C69.7963 29.8758 69.5313 29.8778 69.9293 29.8738C70.0013 29.7548 70.7743 29.7508 71.0963 29.6698C71.0793 29.6698 71.0663 29.6698 71.0383 29.6698C70.4023 29.6008 70.7813 29.5238 70.8733 29.4798L71.1693 29.4658C71.7883 29.4468 69.9623 29.3088 71.0233 29.3618C70.7633 29.1128 70.7803 28.8328 70.7723 28.5588C70.3703 28.5138 70.8123 28.3498 70.0333 28.3968C70.9213 28.3428 71.1493 28.1428 71.1163 28.0668C71.1993 28.0708 71.2944 28.0758 71.2614 28.0878C72.4134 27.9588 70.1993 27.8968 71.6083 27.7808C70.6153 27.7438 71.9293 27.5368 70.7623 27.4398C70.9843 27.4258 71.1834 27.4238 71.3604 27.4328C71.3864 27.1858 71.7494 26.9178 71.7974 26.7088C70.9304 26.5168 72.1993 26.2818 70.9983 26.1088C71.2553 25.9848 71.7613 25.7868 71.2803 25.6008L71.4263 25.6208C71.3603 25.4198 71.3013 25.1678 70.5463 25.0168C71.6993 24.9758 71.4703 24.8858 71.8413 24.8048C71.3093 24.6618 71.4713 24.3938 70.9883 24.1818C71.5193 24.1598 70.7653 24.0088 71.5383 24.0108C70.0583 23.4138 70.5903 22.7138 71.7263 22.1198L71.7812 22.1298C71.3583 22.0428 70.4243 21.9368 69.8783 21.8478C69.9453 21.8398 70.0733 21.8438 70.0693 21.8608C69.9273 21.7468 70.6883 21.6538 70.5483 21.5408C70.6763 21.5438 70.6763 21.5438 70.7983 21.5628C70.4563 21.4528 71.4192 21.3568 70.8232 21.2228L71.0273 21.2198L70.7423 21.1358C70.9973 21.1428 71.3814 21.1518 71.2974 21.1928C71.5624 20.2368 70.2543 19.2248 70.4613 18.2428L70.7023 18.2828L70.2714 18.0848C70.4004 18.0888 70.4623 18.0988 70.5203 18.1078C70.9583 17.8718 70.2403 17.6078 70.3533 17.3728C70.4773 17.3758 70.7244 17.4158 70.8654 17.3848C70.1724 17.1978 71.7743 17.1168 70.3303 17.0058C70.3973 16.9988 70.7234 16.9988 70.8394 17.0188C70.3674 16.5228 70.4024 16.0218 70.6464 15.5338C69.3434 15.1028 70.5363 14.6638 69.5033 14.2218L69.7643 14.2288C68.8583 13.6628 69.8453 13.0938 69.6703 12.5198C69.7793 12.2838 69.4743 12.1198 69.4613 11.8798L69.7863 11.8788C68.5543 11.4578 70.9113 11.0538 69.5563 10.6128L69.9983 10.6488C69.3133 10.5728 70.2433 10.3998 69.0703 10.4058L69.4263 10.3378C67.8803 10.0278 70.1493 9.83177 69.1493 9.46677L69.4272 9.49377C69.2132 9.39777 69.0423 9.28677 69.2993 9.22277C69.3393 9.23477 69.4213 9.23078 69.4943 9.25378C70.6013 8.98178 69.3893 8.63877 69.4353 8.33277L69.9532 8.37678C69.3482 8.21878 69.9183 7.95577 69.6433 7.75777L69.8853 7.77377L69.5433 7.66978L70.0343 7.67477C70.0723 7.42077 69.6523 7.17577 69.5983 6.92777Z" fill="black"/>
<path d="M69.0814 4.36377C69.0774 4.36477 69.0754 4.36577 69.0654 4.36677C69.1084 4.37477 69.1034 4.37177 69.0814 4.36377Z" fill="black"/>
<path d="M71.1952 29.6398C71.1662 29.6518 71.1352 29.6608 71.0952 29.6688C71.1952 29.6688 71.1732 29.6498 71.1952 29.6398Z" fill="black"/>
<path d="M98.3424 33.0538L98.4664 33.1388L98.1685 32.8458L98.3424 33.0538Z" fill="black"/>
<path d="M97.7795 32.2838C97.7165 32.2358 97.6236 32.1648 97.5596 32.1158L98.3845 32.9768C98.9405 33.3598 97.4075 32.0288 97.7795 32.2838Z" fill="black"/>
<path d="M97.8969 32.3298C98.1449 32.4668 97.7288 32.0938 97.5918 31.9638C97.9128 32.2538 97.4269 31.9548 97.8969 32.3298Z" fill="black"/>
<path d="M100.654 28.5728C100.653 28.5788 100.661 28.5938 100.672 28.6088C100.69 28.6138 100.68 28.5988 100.654 28.5728Z" fill="black"/>
<path d="M99.9735 26.4318L99.6395 26.1388C100.105 26.8178 99.3216 26.4998 99.4346 26.9058L99.3256 26.7938C98.8046 27.1508 99.0176 28.0568 98.8926 28.7358C98.8526 28.6958 98.7725 28.6158 98.7295 28.5728C98.8305 28.6928 99.0285 28.8998 98.9775 28.9008C98.8965 28.8438 98.8255 28.7618 98.7965 28.7248C98.1505 28.3538 98.9165 29.3098 98.4305 29.0098C98.4675 29.0868 98.6935 29.2948 98.8845 29.4278C98.7275 29.9108 98.5135 30.3898 98.6505 31.1268C98.5585 31.0808 98.4015 30.9558 98.2115 30.7898C98.8655 31.8658 98.2256 31.8938 97.8086 32.0948C98.0396 32.3078 98.0916 32.2748 98.3156 32.5138C98.7036 32.6598 97.8835 31.8328 98.4005 32.1028L98.6226 32.3078C98.8296 32.3638 98.0485 31.8078 98.4065 31.9848C98.6245 32.1188 98.6975 32.2378 98.7245 32.2388C98.7505 32.0138 99.0865 32.0358 98.6355 31.4288C99.1685 31.8148 98.7816 31.2868 99.3096 31.6328C99.1416 31.4308 99.2246 31.4348 98.9026 31.1428C99.5926 30.8538 99.5376 29.9268 100.008 29.4348C99.2346 28.3798 100.643 29.0528 100.556 28.4908C100.592 28.5178 100.629 28.5488 100.656 28.5738C100.494 28.2798 100.494 28.0478 100.708 28.0338L100.375 27.5958C101.788 27.6188 101.77 26.4298 102.695 26.0318C103.59 25.4488 104.864 25.3438 104.212 23.5118C104.306 23.5918 104.363 23.6288 104.387 23.6818C104.373 23.2978 104.891 23.3888 104.859 23.0118L104.956 23.0918C104.579 21.9078 105.955 22.1088 105.498 20.8908C106.088 20.3578 106.568 19.6018 106.851 18.7548L107.042 18.9158C107.06 18.0648 108.496 18.4208 108.611 17.6528C109.489 17.4938 108.399 15.6518 109.427 15.6098C110.651 16.0698 108.97 13.9478 110.211 14.4578C112.221 15.0568 111.774 13.6488 111.41 12.2778C112.424 12.1318 111.549 10.4228 113.098 10.7528C112.628 9.91082 114.423 10.8988 114.47 10.4368L114.222 10.2478C115.038 10.7448 113.402 9.16481 114.538 9.99581L114.577 10.0468C115.175 10.4468 113.393 8.84382 114.075 9.34982L113.811 9.11781C113.79 8.98281 114.125 9.36381 114.278 9.40081C114.26 9.35281 113.79 8.98282 113.979 9.07082C115.096 9.98282 113.879 8.70381 115.129 9.73281C115.098 9.76981 115.661 10.0748 115.852 10.3758C115.999 10.4578 116.034 10.2918 115.496 9.86282C114.943 9.38682 114.491 8.93581 113.999 8.64481L114.396 8.99881C113.967 8.68381 114.176 8.84781 113.863 8.60181C113.733 8.64781 113.129 8.16681 112.828 8.02881C112.84 8.03881 112.85 8.04781 112.872 8.06481C113.325 8.51581 112.983 8.33681 112.884 8.31381L112.645 8.13981C112.151 7.76481 113.489 9.01481 112.695 8.30981C112.744 8.66381 112.557 8.86881 112.395 9.08281C112.681 9.36981 112.235 9.21881 112.872 9.67081C112.146 9.15581 111.845 9.16681 111.823 9.24581C111.761 9.18981 111.691 9.12781 111.724 9.13981C110.746 8.51681 112.434 9.95181 111.265 9.15881C112.016 9.80881 110.864 9.14481 111.713 9.94981C111.532 9.82181 111.376 9.69881 111.243 9.58181C111.07 9.75481 110.623 9.73282 110.457 9.86282C111.015 10.5548 109.881 9.93881 110.71 10.8238C110.434 10.7588 109.916 10.5948 110.177 11.0378L110.075 10.9318C110.003 11.1278 109.892 11.3578 110.388 11.9458C109.464 11.2558 109.586 11.4678 109.248 11.2988C109.574 11.7408 109.283 11.8468 109.528 12.3118C109.099 11.9968 109.595 12.5828 108.994 12.0988C109.781 13.4848 108.933 13.6888 107.682 13.4328L107.645 13.3918C107.921 13.7228 108.584 14.3898 108.955 14.8008C108.898 14.7638 108.801 14.6808 108.814 14.6708C108.854 14.8468 108.205 14.4418 108.243 14.6168C108.145 14.5338 108.144 14.5338 108.062 14.4418C108.26 14.7408 107.451 14.2128 107.833 14.6878L107.673 14.5628L107.844 14.8048C107.649 14.6408 107.355 14.3928 107.446 14.4138C106.651 14.9818 107.047 16.5788 106.28 17.2028L106.116 17.0208L106.33 17.4428C106.231 17.3598 106.189 17.3128 106.15 17.2688C105.664 17.1758 106.06 17.8288 105.827 17.9388C105.732 17.8588 105.564 17.6728 105.435 17.6088C105.861 18.1868 104.562 17.2458 105.619 18.2348C105.562 18.1978 105.307 17.9948 105.229 17.9068C105.291 18.5838 104.955 18.9458 104.465 19.1698C105.214 20.3158 104.015 19.9068 104.546 20.8938L104.347 20.7258C104.704 21.7278 103.584 21.5458 103.367 22.0968C103.137 22.2088 103.273 22.5278 103.137 22.7188L102.883 22.5158C103.583 23.6108 101.496 22.4448 102.281 23.6318L101.958 23.3268C102.444 23.8138 101.613 23.3648 102.531 24.0958L102.212 23.9248C103.227 25.1298 101.337 23.8608 101.892 24.7668L101.692 24.5718C101.8 24.7798 101.865 24.9718 101.625 24.8608C101.601 24.8268 101.534 24.7778 101.492 24.7148C100.461 24.2318 101.195 25.2538 100.97 25.4588L100.593 25.1018C100.968 25.6028 100.362 25.4468 100.453 25.7718L100.273 25.6078L100.474 25.9018L100.096 25.5898C99.9086 25.7568 100.085 26.2078 99.9735 26.4318Z" fill="black"/>
<path d="M98.7966 28.7248C98.8016 28.7268 98.8026 28.7278 98.8106 28.7328C98.7836 28.6988 98.7846 28.7048 98.7966 28.7248Z" fill="black"/>
<path d="M112.729 7.9858C112.759 7.9958 112.79 8.0078 112.827 8.0268C112.749 7.9638 112.752 7.9918 112.729 7.9858Z" fill="black"/>
<path d="M130.481 47.5418L130.455 47.3928L130.456 47.8108L130.481 47.5418Z" fill="black"/>
<path d="M130.334 48.4827C130.344 48.5607 130.357 48.6777 130.367 48.7567L130.399 47.5647C130.284 46.8997 130.412 48.9267 130.334 48.4827Z" fill="black"/>
<path d="M130.286 48.3658C130.212 48.0938 130.237 48.6508 130.242 48.8398C130.222 48.4078 130.347 48.9638 130.286 48.3658Z" fill="black"/>
<path d="M125.815 49.0228C125.82 49.0188 125.825 49.0028 125.828 48.9848C125.819 48.9678 125.815 48.9858 125.815 49.0228Z" fill="black"/>
<path d="M124.802 51.0058L124.827 51.4498C124.979 50.6428 125.294 51.4238 125.496 51.0598L125.494 51.2158C126.096 51.3388 126.574 50.5528 127.128 50.1668C127.128 50.2228 127.127 50.3378 127.126 50.3968C127.141 50.2408 127.148 49.9558 127.183 49.9908C127.2 50.0888 127.192 50.1968 127.186 50.2428C127.371 50.9638 127.507 49.7478 127.632 50.3048C127.66 50.2238 127.65 49.9168 127.611 49.6878C128.051 49.4618 128.527 49.2808 128.943 48.6668C128.973 48.7658 128.995 48.9638 129.009 49.2168C129.306 47.9958 129.762 48.4338 130.184 48.5918C130.173 48.2788 130.115 48.2648 130.127 47.9378C129.963 47.5588 129.952 48.7218 129.786 48.1648L129.775 47.8628C129.672 47.6758 129.822 48.6238 129.7 48.2428C129.643 47.9938 129.677 47.8578 129.658 47.8378C129.485 47.9768 129.271 47.7218 129.161 48.4678C129.063 47.8178 128.963 48.4618 128.842 47.8438C128.817 48.1058 128.764 48.0428 128.782 48.4778C128.111 48.1868 127.511 48.8738 126.849 48.8828C126.649 50.1728 126.154 48.6948 125.825 49.1508C125.819 49.1058 125.815 49.0588 125.814 49.0218C125.722 49.3438 125.561 49.5048 125.406 49.3618L125.332 49.9068C124.385 48.8808 123.578 49.7258 122.672 49.3428C121.659 49.1118 120.719 48.2738 119.901 50.0208C119.892 49.8988 119.879 49.8318 119.899 49.7778C119.644 50.0558 119.353 49.6218 119.115 49.9088L119.105 49.7848C118.545 50.8818 117.746 49.7588 117.217 50.9358C116.447 50.8868 115.599 51.0728 114.821 51.4628L114.802 51.2128C114.203 51.7958 113.469 50.5198 112.861 50.9748C112.153 50.4588 111.626 52.5258 110.895 51.8208C110.379 50.6248 110.062 53.3088 109.567 52.0658C108.609 50.2108 107.943 51.5138 107.246 52.7328C106.455 52.1108 105.873 53.9318 105.044 52.5928C104.784 53.5178 104.242 51.5438 103.89 51.8338L103.93 52.1438C103.716 51.2128 103.742 53.4878 103.539 52.0948L103.548 52.0308C103.417 51.3238 103.525 53.7188 103.41 52.8778L103.428 53.2288C103.351 53.3368 103.384 52.8328 103.306 52.6978C103.285 52.7438 103.351 53.3378 103.282 53.1408C103.149 51.7048 103.097 53.4698 102.955 51.8568C103.002 51.8528 102.828 51.2378 102.905 50.8908C102.861 50.7278 102.723 50.8208 102.795 51.5038C102.844 52.2318 102.842 52.8698 102.977 53.4248L102.95 52.8948C103.024 53.4208 102.995 53.1578 103.04 53.5528C103.16 53.6138 103.24 54.3818 103.35 54.6948C103.349 54.6778 103.347 54.6648 103.345 54.6368C103.347 53.9968 103.457 54.3668 103.509 54.4538L103.552 54.7468C103.631 55.3618 103.58 53.5308 103.635 54.5928C103.846 54.3098 104.114 54.2998 104.373 54.2658C104.375 53.8608 104.575 54.2858 104.453 53.5148C104.593 54.3928 104.806 54.5998 104.875 54.5598C104.879 54.6428 104.884 54.7378 104.87 54.7058C105.106 55.8408 104.945 53.6318 105.195 55.0208C105.132 54.0298 105.459 55.3178 105.434 54.1468C105.469 54.3658 105.492 54.5638 105.5 54.7408C105.737 54.7428 106.027 55.0778 106.23 55.1058C106.327 54.2228 106.675 55.4638 106.72 54.2518C106.864 54.4958 107.102 54.9798 107.231 54.4828L107.226 54.6308C107.412 54.5448 107.645 54.4618 107.712 53.6968C107.865 54.8408 107.929 54.6028 108.042 54.9648C108.125 54.4218 108.396 54.5568 108.55 54.0568C108.624 54.5828 108.691 53.8188 108.767 54.5868C109.186 53.0558 109.905 53.5188 110.581 54.5908L110.577 54.6458C110.617 54.2168 110.625 53.2768 110.656 52.7258C110.669 52.7918 110.679 52.9188 110.663 52.9168C110.757 52.7648 110.921 53.5128 111.015 53.3618C111.025 53.4898 111.025 53.4898 111.018 53.6128C111.089 53.2608 111.277 54.2098 111.343 53.6038L111.367 53.8068L111.418 53.5158C111.438 53.7698 111.467 54.1528 111.42 54.0738C112.355 54.2438 113.185 52.8448 114.139 52.9558L114.125 53.1998L114.27 52.7528C114.28 52.8818 114.277 52.9438 114.273 53.0028C114.542 53.4148 114.72 52.6758 114.956 52.7658C114.965 52.8898 114.952 53.1388 114.995 53.2768C115.103 52.5688 115.34 54.1548 115.302 52.7078C115.316 52.7738 115.348 53.0978 115.341 53.2148C115.765 52.6978 116.244 52.6848 116.733 52.8788C117.012 51.5418 117.548 52.6858 117.866 51.6148L117.886 51.8758C118.333 50.9188 118.972 51.8468 119.5 51.6168C119.735 51.7028 119.861 51.3828 120.087 51.3458L120.12 51.6698C120.397 50.4028 121.016 52.7098 121.3 51.3188L121.31 51.7608C121.314 51.0728 121.571 51.9808 121.449 50.8148L121.549 51.1628C121.689 49.5958 122.103 51.8338 122.349 50.8038L122.351 51.0828C122.421 50.8598 122.509 50.6808 122.596 50.9298C122.589 50.9708 122.601 51.0518 122.586 51.1268C122.955 52.2018 123.159 50.9618 123.454 50.9798L123.465 51.4998C123.555 50.8818 123.861 51.4238 124.023 51.1308L124.032 51.3748L124.097 51.0238L124.141 51.5128C124.381 51.5258 124.573 51.0838 124.802 51.0058Z" fill="black"/>
<path d="M127.187 50.2438C127.185 50.2388 127.185 50.2368 127.183 50.2278C127.179 50.2718 127.182 50.2668 127.187 50.2438Z" fill="black"/>
<path d="M103.386 54.7897C103.372 54.7617 103.361 54.7317 103.348 54.6927C103.359 54.7917 103.375 54.7697 103.386 54.7897Z" fill="black"/>
</svg>
