<svg width="191" height="199" viewBox="0 0 191 199" fill="none" xmlns="http://www.w3.org/2000/svg">
<path d="M33.4584 86.8377L33.1924 86.7737L33.7234 87.3107L33.4584 86.8377Z" fill="black"/>
<path d="M34.2044 88.7827C34.3384 88.8147 34.5184 88.9407 34.6534 88.9737L33.2414 87.2687C32.0504 86.9807 34.9984 88.9807 34.2044 88.7827Z" fill="black"/>
<path d="M33.9093 88.8748C33.3403 88.8908 34.1234 89.4848 34.3744 89.7108C33.7714 89.2428 34.8533 89.3448 33.9093 88.8748Z" fill="black"/>
<path d="M21.1783 111.893C21.1873 111.866 21.1824 111.821 21.1694 111.781C21.1204 111.806 21.1313 111.847 21.1783 111.893Z" fill="black"/>
<path d="M20.6143 119.49L21.2513 119.94C20.6923 118.139 22.6353 117.592 22.7883 116.118L22.9783 116.334C24.9573 113.51 25.4173 110.116 26.6103 106.868C26.6553 106.955 26.8443 107.086 26.8953 107.179C26.7433 106.902 26.4043 106.494 26.5533 106.368C26.7273 106.413 26.8403 106.593 26.8783 106.683C28.3523 106.703 27.2303 104.445 28.3133 104.55C28.2963 104.306 27.8753 103.96 27.4673 103.855C28.5183 101.38 29.7313 98.7857 30.2173 95.9277C30.4353 95.9027 30.7503 96.0567 31.1153 96.3087C30.4703 93.2547 32.4083 91.5617 33.8883 89.6727C33.4583 89.3187 33.2643 89.5917 32.8883 89.1057C31.9123 89.4237 33.3503 90.9877 32.1413 91.0897L31.7283 90.7487C31.1813 91.0157 32.8323 91.5037 31.9793 91.6157C31.4933 91.5727 31.4213 91.2337 31.3393 91.2977C30.9913 92.3347 30.0203 93.0647 30.6283 94.5807C29.5093 94.2227 30.0193 95.5587 28.8703 95.3517C29.1243 95.8187 28.8843 96.0007 29.4893 96.4727C27.0893 99.4177 26.1353 103.292 24.1413 106.577C25.1643 109.245 21.7933 109.785 21.3713 112.006C21.2953 111.98 21.2253 111.936 21.1763 111.891C21.3033 112.768 21.0203 113.775 20.3673 114.357L20.8283 115.435C16.6583 118.798 15.2793 123.898 12.0473 127.892C10.3653 130.25 8.54732 132.325 7.11432 134.599C6.75632 135.167 6.4223 135.748 6.1203 136.35C5.8213 136.942 5.54928 137.569 5.30328 138.293C4.80528 139.686 4.5723 141.241 4.6723 142.889C4.4773 142.799 4.34728 142.798 4.32428 142.621C4.08628 144.369 2.8043 145.624 2.8653 147.376L2.65332 147.318C3.05232 149.531 2.71629 151.555 2.70929 153.691C2.68929 155.785 3.07433 158.031 4.67133 159.51C5.38133 161.719 6.7353 163.934 8.6283 165.588C10.4863 167.285 12.7893 168.431 15.0803 169.073L14.9023 169.474C16.8503 169.777 18.5113 170.598 20.3243 171.326C22.1163 172.058 24.0373 172.631 25.9893 172.332C29.9193 173.384 33.9513 169.823 37.8633 171.172C40.2733 173.334 43.4393 168.699 45.7033 170.94C50.3543 174.317 54.8673 172.143 59.5173 170.12C63.8073 171.323 68.0903 168.233 72.2463 170.689C74.2153 169.115 76.3893 172.637 78.5793 172.182L78.5013 171.637C79.2883 173.291 80.2543 169.322 80.7443 171.781L80.6613 171.892C81.0783 173.143 81.6293 168.953 81.8823 170.436L81.9493 169.821C82.4533 169.643 82.0093 170.519 82.3973 170.765C82.5433 170.689 82.4533 169.643 82.7583 169.996C82.8233 172.518 83.9923 169.449 84.0283 172.282C83.7523 172.282 84.4603 173.382 83.8403 173.974C84.0173 174.264 84.8613 174.124 84.7853 172.921C84.8573 171.645 85.1873 170.531 84.6743 169.544L84.5703 170.474C84.3973 169.544 84.4393 170.009 84.3773 169.312C83.7063 169.189 83.6173 167.837 83.1363 167.277C83.1413 167.304 83.1463 167.33 83.1383 167.378C82.8093 168.492 82.3553 167.831 82.0943 167.672L81.9903 167.154C81.8323 166.07 81.2273 169.269 81.4313 167.412C80.0673 167.874 78.5033 167.851 76.9803 167.874C76.7663 168.579 75.8133 167.809 76.1463 169.171C75.7643 167.619 74.6303 167.226 74.2093 167.286C74.2253 167.14 74.2423 166.974 74.3093 167.032C73.4933 165.019 73.3413 168.895 72.5763 166.434C72.4563 168.172 71.1853 165.878 70.7523 167.922C70.6573 167.536 70.6263 167.188 70.6603 166.878C69.2823 166.839 67.7603 166.211 66.5943 166.133C65.5983 167.657 64.1823 165.443 63.3243 167.548C62.6143 167.102 61.4663 166.224 60.4743 167.069L60.5713 166.811C59.4533 166.934 58.0553 167.043 57.2893 168.368C56.9583 166.351 56.4753 166.755 55.9913 166.109C55.2453 167.044 53.7383 166.768 52.5983 167.618C52.4233 166.688 51.6593 168.013 51.6003 166.661C48.4093 169.268 44.4623 168.356 41.0543 166.386L41.1033 166.29C40.6623 167.031 40.1523 168.671 39.7013 169.628C39.6573 169.51 39.6623 169.286 39.7573 169.293C39.1353 169.544 38.5533 168.216 37.9313 168.464C37.9363 168.24 37.9363 168.24 38.0373 168.026C37.4533 168.628 36.8303 166.946 36.1423 167.992L36.1033 167.635L35.6653 168.136C35.6753 167.69 35.6923 167.018 35.9273 167.163C33.2553 166.945 30.5393 167.416 27.8063 167.898C26.4393 168.14 25.2293 168.354 23.9153 168.411C23.2713 168.441 22.6323 168.411 21.9933 168.368C21.3653 168.279 20.7253 168.205 20.1233 168.014L20.3903 167.64L19.2713 168.163C19.3303 167.945 19.4023 167.849 19.4703 167.761C18.9543 167.262 18.3503 167.19 17.6893 167.207C17.0553 167.181 16.3533 167.25 15.8483 166.908C15.9393 166.711 16.2663 166.381 16.2123 166.09C15.5833 166.48 15.4053 165.99 15.2673 165.646C15.1143 165.307 14.9583 165.153 14.1643 166.167C14.1833 166.045 14.4313 165.533 14.6033 165.393C13.3913 165.202 12.2453 164.704 11.3233 163.946C10.4013 163.188 9.68331 162.212 9.20831 161.159C7.72031 161.004 7.1203 159.979 6.7243 158.959C6.3573 157.896 6.12531 156.858 5.07831 155.86L5.53131 155.806C4.53231 154.474 4.53429 152.819 4.87329 151.295C5.19829 149.745 5.89127 148.311 6.16827 146.791C6.44127 146.203 6.51632 145.666 6.60632 145.12C6.68232 144.571 6.74031 144.006 6.99731 143.4L7.53229 143.594C7.24229 142.878 7.34331 142.29 7.64331 141.796C7.93131 141.295 8.40327 140.88 8.89227 140.485C9.83327 139.697 10.8303 138.874 10.3753 137.268L10.9653 137.794C10.1083 136.881 12.0353 136.783 10.1903 135.877L10.9343 135.831C9.37533 133.103 13.4593 133.961 12.9053 131.4L13.2623 131.754C13.1943 131.118 13.2343 130.447 13.8133 130.34C13.8443 130.427 13.9823 130.475 14.0323 130.645C16.5113 130.21 15.5653 127.587 16.4813 126.147L17.1703 126.768C16.6593 125.522 18.2743 124.708 18.3943 123.527L18.7293 123.797L18.4833 123.022L19.2353 123.439C19.9923 122.252 20.0123 120.732 20.6143 119.49Z" fill="black"/>
<path d="M26.8782 106.684C26.8692 106.683 26.8652 106.689 26.8472 106.683C26.8912 106.757 26.8952 106.736 26.8782 106.684Z" fill="black"/>
<path d="M82.9663 167.106C83.0303 167.158 83.0843 167.21 83.1393 167.281C83.1253 167.106 83.0223 167.144 82.9663 167.106Z" fill="black"/>
<path d="M109.679 175.741L109.756 176.004L109.956 175.277L109.679 175.741Z" fill="black"/>
<path d="M110.991 174.123C110.953 173.991 110.971 173.772 110.932 173.639L110.161 175.714C110.506 176.89 110.764 173.337 110.991 174.123Z" fill="black"/>
<path d="M111.217 174.333C111.516 174.818 111.64 173.843 111.709 173.513C111.605 174.268 111.153 173.28 111.217 174.333Z" fill="black"/>
<path d="M137.516 173.85C137.489 173.855 137.452 173.882 137.424 173.912C137.471 173.944 137.5 173.912 137.516 173.85Z" fill="black"/>
<path d="M144.378 170.539L144.449 169.762C143.169 171.146 141.724 169.738 140.371 170.343L140.462 170.07C137.026 169.767 133.858 171.066 130.449 171.657C130.502 171.575 130.52 171.346 130.575 171.256C130.411 171.527 130.228 172.024 130.044 171.957C129.996 171.784 130.096 171.597 130.154 171.518C129.434 170.233 128.04 172.333 127.59 171.342C127.388 171.479 127.299 172.015 127.411 172.422C124.743 172.75 121.889 172.996 119.171 174.004C119.041 173.828 119.017 173.478 119.053 173.035C116.73 175.12 114.295 174.29 111.919 173.951C111.827 174.5 112.161 174.532 111.927 175.101C112.692 175.786 113.326 173.759 114.02 174.755L113.931 175.283C114.435 175.623 114.034 173.95 114.556 174.632C114.763 175.074 114.505 175.306 114.601 175.345C115.672 175.128 116.79 175.605 117.799 174.32C118.048 175.468 118.95 174.359 119.347 175.457C119.624 175.004 119.903 175.12 120.008 174.359C123.758 174.965 127.59 173.855 131.433 173.939C133.231 171.719 135.384 174.368 137.519 173.623C137.534 173.702 137.531 173.785 137.516 173.851C138.212 173.302 139.226 173.044 140.056 173.318L140.759 172.38C145.756 174.31 150.863 172.954 155.938 173.756C158.822 174.032 161.526 174.57 164.212 174.674C164.883 174.7 165.554 174.699 166.226 174.659C166.888 174.622 167.567 174.544 168.318 174.395C169.772 174.129 171.237 173.554 172.612 172.643C172.633 172.858 172.697 172.97 172.555 173.079C174.188 172.412 175.915 172.893 177.402 171.966L177.459 172.178C179.175 170.725 181.097 170.004 182.95 168.944C184.773 167.915 186.526 166.458 187.009 164.336C188.568 162.617 189.809 160.337 190.295 157.87C190.836 155.413 190.677 152.845 190.088 150.54L190.525 150.494C189.813 148.655 189.694 146.806 189.419 144.872C189.157 142.954 188.692 141.004 187.457 139.463C186.403 135.534 181.303 133.822 180.516 129.761C181.183 126.593 175.586 126.168 176.395 123.087C176.994 117.37 172.855 114.55 168.778 111.534C167.674 107.217 162.857 105.052 162.907 100.226C160.559 99.3077 162.522 95.6637 161.033 93.9937L160.6 94.3347C161.639 92.8257 157.718 93.9757 159.603 92.3197L159.741 92.3367C160.616 91.3507 156.712 92.9687 157.87 92.0077L157.304 92.2577C156.898 91.9097 157.879 91.8567 157.898 91.3967C157.758 91.3087 156.898 91.9107 157.052 91.4687C159.203 90.1497 155.96 90.6727 158.397 89.2257C158.536 89.4647 159.133 88.3017 159.957 88.5417C160.12 88.2437 159.576 87.5817 158.572 88.2487C157.43 88.8247 156.301 89.0957 155.703 90.0337L156.56 89.6587C155.841 90.2727 156.223 90.0047 155.65 90.4067C155.879 91.0497 154.753 91.8027 154.508 92.4997C154.529 92.4817 154.549 92.4657 154.594 92.4477C155.723 92.1757 155.378 92.8997 155.37 93.2047L154.974 93.5547C154.115 94.2337 157.188 93.1577 155.477 93.9087C156.559 94.8597 157.322 96.2237 158.103 97.5327C158.821 97.3647 158.629 98.5757 159.643 97.6067C158.49 98.7127 158.716 99.8907 158.979 100.226C158.845 100.286 158.693 100.353 158.709 100.266C157.374 101.98 160.807 100.173 159.059 102.067C160.623 101.301 159.273 103.549 161.259 102.902C160.972 103.177 160.686 103.379 160.401 103.504C161.056 104.717 161.274 106.35 161.79 107.399C163.608 107.5 162.397 109.834 164.649 109.523C164.618 110.361 164.431 111.794 165.66 112.23L165.389 112.275C166.054 113.182 166.848 114.337 168.378 114.339C166.797 115.634 167.388 115.851 167.07 116.592C168.253 116.772 168.767 118.214 170.073 118.776C169.355 119.392 170.885 119.392 169.743 120.12C173.597 121.58 174.78 125.454 174.778 129.391L174.671 129.396C175.534 129.408 177.208 129.03 178.262 128.941C178.182 129.039 177.986 129.146 177.945 129.061C178.473 129.474 177.615 130.642 178.14 131.057C177.944 131.164 177.944 131.164 177.708 131.184C178.52 131.388 177.375 132.768 178.625 132.841L178.335 133.053L178.988 133.182C178.596 133.396 178.006 133.717 178.014 133.442C179.161 135.865 180.926 137.981 182.711 140.107C183.604 141.169 184.395 142.111 185.1 143.219C185.448 143.762 185.742 144.33 186.024 144.907C186.261 145.494 186.517 146.086 186.652 146.703L186.195 146.659L187.208 147.367C186.99 147.425 186.871 147.411 186.761 147.394C186.586 148.091 186.826 148.65 187.171 149.213C187.465 149.775 187.876 150.349 187.833 150.958C187.616 150.978 187.167 150.859 186.941 151.051C187.593 151.401 187.258 151.799 187.029 152.092C186.812 152.395 186.757 152.606 188.033 152.786C187.917 152.831 187.349 152.872 187.141 152.793C187.581 153.938 187.723 155.18 187.528 156.356C187.333 157.532 186.846 158.643 186.172 159.582C186.781 160.949 186.193 161.98 185.509 162.833C184.772 163.684 183.988 164.402 183.649 165.809L183.376 165.444C182.722 166.974 181.287 167.8 179.798 168.268C178.293 168.761 176.705 168.879 175.25 169.399C174.604 169.456 174.103 169.661 173.584 169.855C173.071 170.064 172.553 170.296 171.9 170.377L171.799 169.815C171.325 170.424 170.766 170.631 170.188 170.618C169.61 170.619 169.014 170.419 168.428 170.191C167.275 169.77 166.063 169.318 164.9 170.515L165.061 169.741C164.7 170.941 163.651 169.319 163.79 171.372L163.378 170.75C161.795 173.464 160.496 169.499 158.556 171.259L158.683 170.772C158.167 171.15 157.566 171.451 157.183 171.003C157.243 170.933 157.215 170.789 157.338 170.661C155.722 168.731 153.923 170.862 152.218 170.789L152.411 169.882C151.587 170.946 150.075 169.955 148.992 170.443L149.057 170.017L148.509 170.619L148.494 169.76C147.081 169.696 145.753 170.439 144.378 170.539Z" fill="black"/>
<path d="M130.155 171.517C130.16 171.526 130.166 171.526 130.171 171.544C130.212 171.469 130.192 171.478 130.155 171.517Z" fill="black"/>
<path d="M154.441 92.7347C154.453 92.6527 154.471 92.5797 154.505 92.4977C154.361 92.5957 154.446 92.6677 154.441 92.7347Z" fill="black"/>
<path d="M148.563 61.9468L148.752 61.7498L148.022 61.9408L148.563 61.9468Z" fill="black"/>
<path d="M146.505 61.6208C146.41 61.7208 146.211 61.8128 146.115 61.9138L148.297 61.5438C149.144 60.6568 145.938 62.2108 146.505 61.6208Z" fill="black"/>
<path d="M146.574 61.3197C146.845 60.8187 145.938 61.1997 145.618 61.3037C146.324 61.0167 145.695 61.9027 146.574 61.3197Z" fill="black"/>
<path d="M133.005 38.7847C133.024 38.8057 133.066 38.8247 133.106 38.8337C133.11 38.7787 133.068 38.7677 133.005 38.7847Z" fill="black"/>
<path d="M126.707 34.4977L125.998 34.8247C127.837 35.2407 127.34 37.1957 128.54 38.0657L128.258 38.1237C129.714 41.2507 132.423 43.3457 134.64 46.0017C134.542 45.9967 134.335 46.0957 134.229 46.0937C134.545 46.1007 135.067 46.0097 135.101 46.2027C134.976 46.3307 134.763 46.3387 134.665 46.3267C133.912 47.5927 136.429 47.7507 135.795 48.6357C136.015 48.7427 136.524 48.5517 136.82 48.2507C138.438 50.3967 140.078 52.7457 142.31 54.5957C142.223 54.7967 141.931 54.9927 141.53 55.1827C144.498 56.1527 144.996 58.6757 145.89 60.9037C146.411 60.7087 146.273 60.4027 146.882 60.3217C147.094 59.3167 145.021 59.7797 145.537 58.6817L146.038 58.4937C146.081 57.8877 144.833 59.0717 145.162 58.2777C145.442 57.8787 145.77 57.9857 145.757 57.8827C145.033 57.0637 144.887 55.8567 143.27 55.6247C144.14 54.8347 142.728 54.6077 143.48 53.7167C142.95 53.7027 142.911 53.4047 142.2 53.6927C140.85 50.1417 137.971 47.3787 136.123 44.0087C133.302 43.5617 134.519 40.3717 132.807 38.8967C132.868 38.8437 132.942 38.8047 133.005 38.7847C132.182 38.4567 131.451 37.7077 131.274 36.8517L130.109 36.7107C129.282 31.4187 125.555 27.6747 123.712 22.8787C122.51 20.2427 121.624 17.6307 120.37 15.2537C120.057 14.6577 119.721 14.0787 119.35 13.5177C118.987 12.9617 118.579 12.4137 118.076 11.8357C117.119 10.7097 115.888 9.72974 114.411 8.99374C114.587 8.86874 114.652 8.75674 114.817 8.82574C113.422 7.74474 112.975 6.00774 111.429 5.18374L111.583 5.02974C109.468 4.26874 107.882 2.96674 106.036 1.89074C104.233 0.826744 102.095 0.0367377 100.015 0.680738C97.7473 0.189738 95.1523 0.254739 92.7733 1.06774C90.3753 1.82874 88.2303 3.24974 86.5293 4.91274L86.2703 4.55774C85.0343 6.09374 83.4923 7.12074 81.9553 8.32674C80.4253 9.51374 78.9692 10.8907 78.2512 12.7307C75.3762 15.6077 76.4422 20.8807 73.3192 23.5927C70.2422 24.5997 72.6732 29.6577 69.6002 30.4987C64.3492 32.8387 63.9763 37.8337 63.4033 42.8727C60.2163 45.9867 60.7503 51.2407 56.5463 53.6107C56.9253 56.1027 52.7883 56.2247 52.0863 58.3487L52.5983 58.5537C50.7723 58.4077 53.7272 61.2297 51.3522 60.4247L51.2973 60.2967C50.0053 60.0317 53.3593 62.6047 51.9473 62.0817L52.4462 62.4467C52.3482 62.9727 51.8112 62.1497 51.4042 62.3627C51.3972 62.5287 52.3482 62.9727 51.8892 63.0597C49.6712 61.8567 51.7452 64.4027 49.2742 63.0157C49.4122 62.7777 48.1063 62.8407 47.9033 62.0077C47.5623 62.0157 47.2613 62.8177 48.3413 63.3527C49.4103 64.0537 50.2092 64.8957 51.3212 64.9457L50.5673 64.3907C51.4593 64.7057 51.0363 64.5098 51.6713 64.8047C52.1123 64.2847 53.3283 64.8838 54.0543 64.7467C54.0293 64.7367 54.0043 64.7277 53.9663 64.6977C53.1653 63.8557 53.9653 63.7927 54.2343 63.6467L54.7343 63.8147C55.7523 64.2197 53.2843 62.0967 54.7913 63.2027C55.0733 61.7907 55.8743 60.4477 56.6173 59.1167C56.1123 58.5787 57.2562 58.1387 55.9102 57.7457C57.4452 58.1917 58.3522 57.4057 58.5112 57.0117C58.6292 57.0987 58.7642 57.1967 58.6812 57.2247C60.8322 57.5237 57.5512 55.4547 60.0662 56.0227C58.6212 55.0497 61.2422 55.0957 59.6882 53.6987C60.0702 53.8097 60.3883 53.9577 60.6383 54.1417C61.3623 52.9677 62.6653 51.9627 63.3173 50.9927C62.4963 49.3677 65.1223 49.2487 63.7263 47.4537C64.4673 47.0617 65.8022 46.5067 65.5662 45.2247L65.7413 45.4367C66.1943 44.4077 66.7983 43.1427 66.0343 41.8167C67.9463 42.5387 67.8382 41.9187 68.6392 41.8227C68.2022 40.7087 69.1952 39.5417 69.0292 38.1307C69.9222 38.4437 69.1573 37.1187 70.3573 37.7437C69.6943 33.6757 72.4582 30.7147 75.8682 28.7487L75.9273 28.8387C75.5063 28.0847 74.3412 26.8237 73.7382 25.9557C73.8622 25.9767 74.0532 26.0927 74.0012 26.1717C74.0942 25.5067 75.5353 25.6667 75.6323 25.0037C75.8233 25.1207 75.8232 25.1207 75.9572 25.3147C75.7282 24.5087 77.4963 24.8107 76.9353 23.6917L77.2633 23.8377L77.0482 23.2077C77.4292 23.4397 78.0023 23.7897 77.7603 23.9207C79.2843 21.7157 80.2352 19.1287 81.1832 16.5207C81.6582 15.2157 82.0783 14.0607 82.6853 12.8957C82.9813 12.3227 83.3273 11.7847 83.6843 11.2517C84.0753 10.7517 84.4583 10.2357 84.9263 9.81074L85.1163 10.2287L85.2222 8.99674C85.3812 9.15674 85.4282 9.26774 85.4702 9.37174C86.1602 9.17474 86.5253 8.68574 86.8403 8.10574C87.1803 7.56974 87.4713 6.92674 88.0203 6.66074C88.1453 6.83874 88.2683 7.28674 88.5463 7.38574C88.5233 6.64674 89.0353 6.73774 89.4043 6.78874C89.7733 6.82574 89.9852 6.76774 89.5033 5.57274C89.6003 5.65074 89.9192 6.12174 89.9542 6.34174C90.7252 5.38774 91.7313 4.64374 92.8483 4.22574C93.9653 3.80574 95.1702 3.67174 96.3192 3.78774C97.1992 2.57574 98.3862 2.56974 99.4672 2.73574C100.572 2.94874 101.586 3.26874 102.974 2.85874L102.793 3.27874C104.446 3.07974 105.879 3.90974 107.029 4.96474C108.209 6.02174 109.104 7.33874 110.283 8.33774C110.654 8.86874 111.083 9.20174 111.51 9.55374C111.948 9.89274 112.409 10.2267 112.805 10.7497L112.368 11.1177C113.134 11.2237 113.592 11.6047 113.869 12.1127C114.16 12.6127 114.284 13.2277 114.381 13.8487C114.593 15.0577 114.807 16.3337 116.425 16.7417L115.674 16.9897C116.894 16.7037 116.014 18.4227 117.722 17.2767L117.389 17.9447C120.532 17.9587 117.747 21.0657 120.242 21.8667L119.757 21.9997C120.342 22.2577 120.903 22.6287 120.707 23.1837C120.616 23.1667 120.506 23.2627 120.334 23.2207C119.471 25.5847 122.216 26.0767 123.005 27.5897L122.122 27.8767C123.456 28.0577 123.353 29.8627 124.317 30.5577L123.916 30.7137L124.711 30.8877L123.974 31.3287C124.626 32.5788 125.932 33.3577 126.707 34.4977Z" fill="black"/>
<path d="M134.665 46.3267C134.671 46.3187 134.668 46.3127 134.682 46.2997C134.596 46.3017 134.614 46.3147 134.665 46.3267Z" fill="black"/>
<path d="M54.2922 64.6877C54.2162 64.7177 54.1432 64.7387 54.0552 64.7497C54.2132 64.8247 54.2332 64.7167 54.2922 64.6877Z" fill="black"/>
<path d="M153.35 26.1187L153.087 26.0837L153.766 26.3627L153.35 26.1187Z" fill="black"/>
<path d="M154.755 27.1238C154.887 27.1408 155.096 27.2058 155.229 27.2238L153.319 26.3398C152.143 26.1858 155.541 27.2288 154.755 27.1238Z" fill="black"/>
<path d="M154.525 27.1688C154.021 27.1748 154.948 27.4848 155.258 27.6028C154.541 27.3588 155.549 27.4158 154.525 27.1688Z" fill="black"/>
<path d="M151.833 38.9707C151.831 38.9567 151.81 38.9327 151.783 38.9127C151.748 38.9257 151.774 38.9467 151.833 38.9707Z" fill="black"/>
<path d="M154.205 42.8808L154.947 43.1148C153.764 42.1848 155.297 41.9118 154.876 41.1528L155.129 41.2648C155.834 39.8188 154.96 38.0728 154.799 36.4058C154.872 36.4508 155.091 36.5178 155.172 36.5658C154.931 36.4218 154.473 36.2118 154.559 36.1468C154.732 36.1708 154.901 36.2638 154.97 36.3108C156.297 36.3278 154.437 35.1598 155.448 35.2188C155.341 35.0928 154.834 34.9128 154.427 34.8568C154.43 33.5868 154.535 32.2548 153.889 30.7868C154.075 30.7738 154.415 30.8548 154.838 30.9868C153.105 29.4108 154.199 28.5478 154.811 27.5808C154.292 27.3968 154.221 27.5368 153.7 27.2838C152.947 27.4438 154.827 28.2558 153.782 28.3038L153.283 28.1258C152.894 28.2608 154.557 28.5198 153.837 28.5728C153.385 28.5498 153.193 28.3748 153.144 28.4068C153.225 28.9388 152.63 29.3108 153.749 30.0948C152.61 29.9058 153.573 30.5958 152.466 30.4858C152.87 30.7268 152.725 30.8198 153.446 31.0658C152.41 32.5718 153.021 34.5628 152.479 36.2468C154.406 37.6258 151.59 37.8898 152.053 39.0308C151.976 39.0168 151.895 38.9938 151.834 38.9708C152.279 39.4228 152.407 39.9398 152.043 40.2378L152.864 40.7948C150.402 42.5098 151.096 45.1298 149.714 47.1738C148.486 49.5888 146.335 51.4138 148.485 54.6718C148.278 54.6118 148.157 54.6008 148.087 54.5128C148.324 55.3498 147.375 55.7958 147.641 56.5948L147.43 56.5358C147.763 57.0578 147.838 57.5988 147.832 57.9768C147.844 58.2898 147.737 58.5838 147.641 58.8588C147.436 59.4508 147.309 59.8228 147.871 61.5278C147.792 61.7198 147.719 61.9198 147.641 62.1588C146.116 61.6598 144.766 61.5168 142.762 61.4838L142.881 61.0608C140.968 61.5038 139.962 58.8158 138.11 59.0428C136.658 57.6098 133.925 60.5228 132.546 58.7638C132.04 56.3878 129.425 60.4818 129.004 58.0468C127.821 54.2278 125.251 55.7838 122.658 57.1788C121.067 55.5018 118.359 57.9708 117.156 55.1008C115.871 56.3838 115.826 52.7228 114.734 52.8988L114.627 53.4348C114.71 51.7438 113.244 55.4588 113.669 53.0268L113.734 52.9288C113.877 51.6708 112.538 55.6508 112.812 54.1878L112.622 54.7738C112.352 54.8848 112.778 54.0918 112.67 53.8078C112.585 53.8648 112.353 54.8848 112.309 54.5068C112.939 52.0638 111.619 54.8858 112.343 52.1468C112.465 52.1798 112.438 51.0348 112.867 50.5368C112.865 50.2348 112.453 50.2688 112.173 51.4388C111.808 52.6628 111.37 53.6968 111.341 54.7118L111.629 53.8268C111.463 54.7448 111.567 54.2908 111.411 54.9718C111.677 55.1708 111.363 56.4878 111.431 57.0858C111.436 57.0588 111.441 57.0328 111.456 56.9878C111.894 55.9518 111.923 56.6448 111.996 56.8298L111.907 57.3418C111.694 58.4068 112.799 55.3918 112.222 57.1598C112.949 56.8788 113.637 57.0878 114.319 57.2488C114.598 56.5938 114.82 57.4518 115.028 56.0978C114.793 57.6418 115.193 58.1578 115.395 58.1498C115.35 58.2888 115.299 58.4468 115.285 58.3818C115.122 60.4228 116.202 56.6998 115.898 59.1668C116.406 57.5038 116.371 59.8708 117.097 57.9488C117.037 58.3338 116.96 58.6738 116.865 58.9688C117.467 59.1718 117.978 59.9598 118.475 60.1758C119.316 58.8238 119.366 61.1328 120.296 59.2028C120.494 59.7188 120.775 60.7048 121.436 60.0068L121.326 60.2448C121.855 60.2598 122.504 60.3218 123.19 59.1358C122.81 61.1218 123.129 60.7908 123.175 61.4728C123.751 60.6608 124.348 61.1068 125.075 60.4238C124.91 61.3418 125.596 60.1548 125.268 61.4668C127.366 59.3328 128.879 60.6888 129.877 62.9988L129.83 63.0858C130.221 62.4228 130.875 60.9018 131.324 60.0318C131.313 60.1508 131.252 60.3668 131.212 60.3488C131.554 60.1808 131.466 61.5328 131.807 61.3678C131.746 61.5838 131.746 61.5838 131.646 61.7778C132.062 61.2668 131.899 62.9658 132.478 62.0388L132.402 62.3878L132.727 61.9568C132.606 62.3868 132.422 63.0328 132.357 62.8638C134.615 63.9258 137.669 62.3518 140.017 63.3348L139.817 63.7198L140.488 63.1158C140.426 63.3328 140.376 63.4318 140.327 63.5238C140.73 64.4188 141.684 63.3688 142.221 63.7118C142.161 63.9198 141.959 64.3138 141.978 64.5728C142.354 64.0438 142.424 64.4718 142.511 64.7358C142.549 64.9868 142.857 65.1398 143.251 63.9368C143.254 64.0598 143.163 64.6248 143.05 64.8038C145.132 64.4978 146.612 64.9488 148.713 65.9418C148.8 65.3168 148.98 65.0548 149.263 64.9838C149.264 64.2538 149.462 63.8598 149.578 63.3188C149.69 62.7928 149.72 62.1208 149.287 61.1918L149.665 61.5418C149.216 60.1368 149.401 59.5558 149.792 58.8288C150.181 58.1098 150.697 57.5288 150.736 56.7678C151.073 56.2298 150.659 55.6928 150.791 55.0948L151.344 55.2298C149.521 53.6708 153.787 53.6528 151.766 51.9958L152.495 52.2688C151.38 51.7948 153.071 51.7528 151.074 51.2788L151.723 51.2578C149.293 49.8468 153.277 50.3058 151.811 48.9848L152.266 49.1688C151.963 48.8418 151.745 48.4958 152.223 48.4428C152.284 48.4878 152.425 48.5118 152.535 48.5998C154.592 48.3868 152.751 47.0318 153.026 46.2938L153.879 46.6158C152.95 45.9718 154.089 45.5598 153.749 44.9518L154.151 45.0928L153.636 44.6928L154.467 44.9108C154.693 44.3008 154.136 43.5178 154.205 42.8808Z" fill="black"/>
<path d="M154.969 36.3118C154.96 36.3118 154.959 36.3148 154.941 36.3118C155.008 36.3498 155.002 36.3378 154.969 36.3118Z" fill="black"/>
<path d="M111.461 57.2747C111.445 57.2177 111.436 57.1607 111.43 57.0867C111.391 57.2557 111.447 57.2317 111.461 57.2747Z" fill="black"/>
<path d="M141.118 197.304L141.275 197.09L140.704 197.551L141.118 197.304Z" fill="black"/>
<path d="M139.561 198.051C139.482 198.158 139.324 198.31 139.245 198.418L140.939 197.17C141.641 196.213 139.09 198.69 139.561 198.051Z" fill="black"/>
<path d="M139.631 197.827C139.869 197.383 139.151 198.046 138.899 198.261C139.458 197.75 138.922 198.606 139.631 197.827Z" fill="black"/>
<path d="M130.587 189.782C130.6 189.788 130.631 189.779 130.661 189.766C130.667 189.73 130.636 189.742 130.587 189.782Z" fill="black"/>
<path d="M126.018 189.977L125.455 190.514C126.84 189.925 126.341 191.401 127.209 191.397L126.989 191.565C127.917 192.879 129.867 192.955 131.406 193.617C131.332 193.659 131.167 193.818 131.086 193.866C131.328 193.724 131.733 193.425 131.748 193.531C131.644 193.671 131.48 193.774 131.406 193.812C130.753 194.967 132.673 193.9 132.134 194.757C132.296 194.723 132.697 194.365 132.943 194.036C134.054 194.651 135.171 195.385 136.77 195.526C136.691 195.694 136.456 195.954 136.136 196.261C138.353 195.501 138.582 196.876 139.134 197.878C139.545 197.512 139.457 197.382 139.93 197.047C140.153 196.31 138.535 197.567 138.997 196.628L139.393 196.276C139.462 195.87 138.434 197.203 138.735 196.545C138.973 196.161 139.218 196.077 139.214 196.018C138.708 195.832 138.669 195.132 137.443 195.736C138.157 194.83 137.089 195.34 137.718 194.424C137.313 194.662 137.301 194.489 136.739 195.003C135.918 193.369 133.878 192.946 132.664 191.66C130.528 192.684 131.653 190.09 130.43 189.945C130.48 189.883 130.538 189.824 130.588 189.782C129.977 189.955 129.462 189.817 129.377 189.355L128.493 189.806C128.178 186.823 125.546 186.168 124.422 183.972C122.897 181.733 122.333 178.968 118.443 179.283C118.594 179.131 118.663 179.03 118.774 179.012C117.926 178.817 117.992 177.77 117.164 177.617L117.318 177.461C116.7 177.501 116.189 177.306 115.86 177.118C115.58 176.977 115.375 176.743 115.179 176.525C114.76 176.061 114.494 175.77 112.73 175.441C112.599 175.28 112.46 175.119 112.289 174.936C113.461 173.839 114.237 172.726 115.232 170.985L115.544 171.294C116.077 169.403 118.918 169.817 119.61 168.086C121.565 167.503 120.329 163.705 122.536 163.344C124.862 164.045 122.535 159.782 124.871 160.586C128.787 161.389 128.662 158.386 128.688 155.442C130.923 154.856 130.066 151.294 133.16 151.622C132.655 149.878 135.886 151.602 136.257 150.561L135.84 150.208C137.281 151.096 134.732 148.02 136.658 149.564L136.712 149.668C137.746 150.398 134.904 147.309 136.053 148.254L135.632 147.805C135.665 147.515 136.154 148.27 136.455 148.313C136.446 148.21 135.665 147.515 136.017 147.66C137.855 149.389 136.017 146.871 138.069 148.826C137.981 148.917 138.998 149.445 139.227 150.062C139.493 150.205 139.662 149.828 138.771 149.018C137.875 148.108 137.179 147.227 136.304 146.711L136.94 147.391C136.216 146.803 136.564 147.112 136.042 146.649C135.74 146.786 134.737 145.878 134.181 145.647C134.202 145.665 134.222 145.681 134.254 145.716C134.951 146.598 134.33 146.29 134.133 146.266L133.727 145.942C132.896 145.242 135.006 147.663 133.734 146.305C133.631 147.077 133.117 147.579 132.646 148.1C133.086 148.661 132.227 148.441 133.314 149.276C132.075 148.326 131.43 148.428 131.338 148.609C131.238 148.504 131.125 148.382 131.188 148.401C129.478 147.274 132.22 150.014 130.205 148.56C131.418 149.805 129.361 148.635 130.694 150.197C130.386 149.96 130.125 149.728 129.913 149.503C129.445 149.932 128.508 150.001 128.079 150.332C128.858 151.72 126.812 150.652 128.055 152.396C127.507 152.322 126.508 152.092 126.801 153.008L126.646 152.797C126.378 153.252 126.011 153.791 126.72 154.964C125.162 153.674 125.298 154.114 124.679 153.825C125.114 154.721 124.435 155.029 124.683 155.996C123.957 155.409 124.667 156.581 123.675 155.663C124.534 158.529 122.617 159.203 120.112 158.964L120.058 158.881C120.452 159.542 121.469 160.849 122.014 161.661C121.915 161.595 121.755 161.437 121.79 161.411C121.772 161.791 120.631 161.062 120.61 161.44C120.451 161.283 120.451 161.283 120.329 161.101C120.576 161.711 119.167 160.751 119.7 161.705L119.43 161.471L119.651 161.963C119.334 161.65 118.855 161.178 119.035 161.201C117.015 162.669 116.924 166.103 114.931 167.687L114.691 167.327L114.897 168.206C114.737 168.047 114.674 167.955 114.618 167.868C113.639 167.79 114.099 169.132 113.541 169.436C113.387 169.284 113.139 168.917 112.902 168.808C113.185 169.392 112.775 169.247 112.503 169.197C112.265 169.11 111.983 169.304 112.847 170.23C112.738 170.173 112.286 169.822 112.184 169.635C111.449 171.607 110.34 172.688 108.458 174.05C108.964 174.428 109.107 174.712 109.033 174.994C109.671 175.347 109.921 175.71 110.338 176.072C110.746 176.424 111.32 176.773 112.343 176.842L111.855 177.005C113.302 177.287 113.722 177.731 114.17 178.423C114.612 179.11 114.872 179.843 115.521 180.244C115.831 180.798 116.5 180.694 116.96 181.097L116.576 181.518C118.819 180.67 116.78 184.418 119.206 183.445L118.616 183.952C119.568 183.203 118.79 184.706 120.169 183.183L119.873 183.763C122.28 182.314 119.959 185.583 121.823 184.935L121.443 185.246C121.876 185.139 122.284 185.113 122.099 185.558C122.031 185.589 121.941 185.702 121.811 185.754C121.007 187.659 123.082 186.698 123.595 187.296L122.902 187.888C123.914 187.384 123.726 188.58 124.423 188.576L124.106 188.861L124.705 188.603L124.113 189.226C124.539 189.721 125.493 189.61 126.018 189.977Z" fill="black"/>
<path d="M131.406 193.812C131.411 193.804 131.409 193.802 131.421 193.788C131.354 193.827 131.367 193.828 131.406 193.812Z" fill="black"/>
<path d="M133.999 145.585C134.057 145.6 134.112 145.618 134.18 145.648C134.05 145.532 134.044 145.593 133.999 145.585Z" fill="black"/>
<path d="M0.328186 105.77L0.461182 105.998L0.26416 105.291L0.328186 105.77Z" fill="black"/>
<path d="M0.257202 104.043C0.190202 103.929 0.113166 103.724 0.045166 103.607L0.522156 105.658C1.12216 106.681 -0.142798 103.359 0.257202 104.043Z" fill="black"/>
<path d="M0.435189 104.197C0.749189 104.591 0.424218 103.669 0.327218 103.352C0.575218 104.069 0.000189483 103.237 0.435189 104.197Z" fill="black"/>
<path d="M11.4003 99.0707C11.3903 99.0807 11.3853 99.1117 11.3853 99.1457C11.4163 99.1657 11.4183 99.1327 11.4003 99.0707Z" fill="black"/>
<path d="M13.0292 94.7977L12.7582 94.0687C12.7502 95.5727 11.5942 94.5317 11.2532 95.3307L11.1862 95.0617C9.61322 95.3937 8.77224 97.1557 7.55524 98.3067C7.54524 98.2217 7.46427 98.0077 7.45227 97.9137C7.48727 98.1917 7.60123 98.6837 7.49823 98.6547C7.41123 98.5037 7.38124 98.3127 7.37524 98.2297C6.57224 97.1717 6.79421 99.3577 6.22021 98.5237C6.18721 98.6857 6.35726 99.1967 6.56226 99.5507C5.55726 100.328 4.44224 101.064 3.68024 102.477C3.55724 102.337 3.41021 102.019 3.25421 101.604C3.07621 103.94 1.72323 103.608 0.584229 103.718C0.758229 104.24 0.912227 104.211 1.03223 104.778C1.62123 105.274 1.10725 103.292 1.78625 104.087L1.95325 104.59C2.29925 104.815 1.48022 103.343 1.96722 103.879C2.22522 104.25 2.20523 104.509 2.26123 104.527C2.63123 104.136 3.28925 104.378 3.22125 103.012C3.77125 104.027 3.72426 102.844 4.31726 103.784C4.25926 103.317 4.42224 103.375 4.17224 102.655C5.99724 102.548 7.19325 100.841 8.85425 100.234C8.75825 97.8677 10.6962 99.9257 11.3132 98.8597C11.3502 98.9297 11.3813 99.0067 11.4003 99.0697C11.4833 98.4397 11.8133 98.0217 12.2703 98.1267L12.2062 97.1367C15.0712 98.0267 16.7132 95.8677 19.1752 95.7037C21.8352 95.1877 24.5973 95.7647 25.8463 92.0667C25.9263 92.2667 25.9923 92.3687 25.9653 92.4777C26.4803 91.7767 27.4153 92.2507 27.8823 91.5507L27.9653 91.7537C28.1733 91.1697 28.5543 90.7787 28.8563 90.5507C29.0963 90.3487 29.3923 90.2527 29.6693 90.1597C30.2612 89.9577 30.6342 89.8297 31.6342 88.3387C31.8332 88.2827 32.0363 88.2187 32.2733 88.1327C32.8163 89.6427 33.5332 90.7957 34.7382 92.3987L34.3312 92.5637C35.8572 93.8007 34.3532 96.2467 35.6693 97.5677C35.4323 99.5937 39.4082 99.9607 38.8672 102.13C37.3032 103.988 42.1402 103.537 40.4772 105.364C38.1912 108.643 40.9982 109.716 43.6912 110.905C43.3452 113.189 46.9572 113.81 45.4312 116.522C47.2332 116.748 44.3722 119.033 45.1812 119.786L45.6693 119.542C44.2843 120.516 48.1163 119.39 45.9373 120.549L45.8203 120.557C44.7402 121.217 48.7022 119.829 47.3792 120.511L47.9592 120.301C48.2122 120.447 47.3242 120.597 47.1672 120.858C47.2642 120.89 48.2122 120.447 47.9402 120.713C45.6272 121.717 48.6642 121.025 46.0573 122.136C46.0083 122.019 45.1202 122.744 44.4642 122.711C44.2282 122.899 44.5073 123.202 45.6033 122.704C46.7923 122.241 47.8773 121.95 48.6973 121.35L47.8223 121.666C48.6483 121.232 48.2273 121.43 48.8593 121.134C48.8533 120.802 50.0842 120.241 50.5142 119.821C50.4902 119.834 50.4672 119.845 50.4222 119.861C49.3362 120.152 49.8643 119.704 49.9653 119.532L50.4243 119.287C51.3953 118.801 48.3372 119.782 50.0862 119.15C49.4182 118.75 49.1602 118.079 48.8682 117.441C48.1802 117.624 48.7212 116.92 47.5242 117.589C48.8862 116.826 49.0472 116.193 48.9182 116.038C49.0552 115.988 49.2113 115.932 49.1693 115.982C50.8802 114.857 47.2782 116.293 49.4122 115.015C47.7882 115.637 49.6773 114.21 47.7153 114.818C48.0543 114.629 48.3703 114.48 48.6613 114.375C48.4523 113.775 48.7602 112.888 48.6252 112.362C47.0422 112.53 48.8322 111.072 46.7382 111.523C47.0232 111.049 47.6292 110.223 46.6732 110.129L46.9282 110.07C46.6162 109.643 46.2662 109.093 44.9072 109.281C46.7082 108.36 46.2512 108.311 46.7612 107.856C45.7662 107.901 45.7513 107.156 44.7653 107.002C45.5913 106.568 44.2342 106.756 45.4702 106.208C42.4972 105.863 42.6372 103.837 43.8472 101.63L43.9453 101.613C43.1823 101.713 41.5802 102.131 40.6182 102.31C40.7192 102.246 40.9263 102.161 40.9373 102.204C40.5933 102.037 41.7142 101.277 41.3752 101.109C41.5832 101.024 41.5832 101.024 41.7982 100.984C41.1402 100.969 42.5793 100.055 41.4913 100.168L41.8143 100.014L41.2742 100.022C41.6882 99.8537 42.3092 99.6007 42.2172 99.7557C41.6682 97.3207 38.5502 95.8787 37.8832 93.4227L38.3093 93.3437L37.4202 93.1867C37.6292 93.1017 37.7382 93.0817 37.8412 93.0637C38.2992 92.1957 36.8852 92.0877 36.8262 91.4537C37.0272 91.3727 37.4613 91.2907 37.6562 91.1167C37.0073 91.1447 37.3022 90.8257 37.4572 90.5957C37.6312 90.4117 37.5632 90.0747 36.3712 90.5027C36.4672 90.4247 36.9682 90.1487 37.1802 90.1277C35.6592 88.6737 35.1053 87.2287 34.5983 84.9617C34.0513 85.2757 33.7352 85.2957 33.5042 85.1157C32.9282 85.5627 32.4943 85.6477 31.9973 85.8877C31.5133 86.1227 30.9652 86.5127 30.4982 87.4247L30.5413 86.9117C29.7093 88.1287 29.1373 88.3397 28.3223 88.4777C27.5163 88.6127 26.7413 88.5607 26.1163 88.9977C25.4843 89.0627 25.3142 89.7197 24.7632 89.9817L24.5292 89.4627C24.4202 91.8587 21.7853 88.5037 21.7183 91.1167L21.4872 90.3737C21.7992 91.5447 20.7262 90.2357 21.5782 92.1037L21.1642 91.6027C21.5422 94.3867 19.4572 90.9617 19.3152 92.9307L19.1812 92.4587C19.1082 92.8977 18.9692 93.2827 18.6342 92.9377C18.6322 92.8627 18.5643 92.7347 18.5673 92.5947C17.1353 91.1027 17.1972 93.3877 16.4462 93.6237L16.1763 92.7527C16.2383 93.8807 15.2142 93.2357 14.9432 93.8777L14.8062 93.4737L14.8073 94.1257L14.4683 93.3357C13.8493 93.5397 13.5732 94.4597 13.0292 94.7977Z" fill="black"/>
<path d="M7.37524 98.2307C7.38124 98.2377 7.38325 98.2367 7.39325 98.2527C7.38125 98.1757 7.37524 98.1877 7.37524 98.2307Z" fill="black"/>
<path d="M50.6432 119.683C50.6082 119.73 50.5692 119.773 50.5132 119.824C50.6722 119.75 50.6192 119.72 50.6432 119.683Z" fill="black"/>
</svg>
