<svg width="218" height="188" viewBox="0 0 218 188" fill="none" xmlns="http://www.w3.org/2000/svg">
<path d="M91.958 8.11664L92.161 8.34665L92.6931 7.73364L91.958 8.11664Z" fill="black"/>
<path d="M95.4873 6.79971C95.3883 6.68271 95.4464 6.49771 95.3444 6.38171L93.2363 8.11871C94.1183 9.14571 94.8923 6.11271 95.4873 6.79971Z" fill="black"/>
<path d="M96.0883 7.01669C96.8653 7.47969 97.2423 6.66468 97.4503 6.39368C97.1313 7.02368 95.9573 6.10469 96.0883 7.01669Z" fill="black"/>
<path d="M154.824 39.5287C154.787 39.4657 154.722 39.3887 154.667 39.3367C154.698 39.4577 154.758 39.5157 154.824 39.5287Z" fill="black"/>
<path d="M162.384 56.6088L163.057 56.7778C162.382 54.9938 162.186 53.1178 161.932 51.1878C161.69 49.2658 161.37 47.2928 160.555 45.5508L160.852 45.7287C159.58 41.0317 157.207 36.9008 154.414 33.2438C151.607 29.5718 148.258 26.4158 144.62 23.4657C144.775 23.5107 144.944 23.3988 145.109 23.4438C144.615 23.3088 143.961 23.2938 143.624 22.9128C143.624 22.7128 143.933 22.7748 144.099 22.8338C143.74 21.7398 142.453 20.9678 141.277 20.2608C140.048 19.6118 138.913 19.0328 138.641 18.3398C138.11 18.1218 137.649 18.3638 137.704 18.8238C131.601 14.8868 124.365 11.7338 117.125 10.4028C116.834 10.1548 116.859 9.84876 117.064 9.51476C115.435 9.44976 113.82 9.36376 112.243 9.12276C110.646 8.96176 109.086 8.63676 107.502 8.38576C104.356 7.79176 101.177 7.17775 97.9911 6.80275C97.7161 7.25775 98.604 7.33777 97.946 7.78777C98.942 8.12277 99.8841 7.95877 100.818 7.78777C101.75 7.61577 102.668 7.49577 103.528 8.05977L103.233 8.47576C104.519 8.94976 103.66 7.38177 104.962 8.15377C105.449 8.60477 104.738 8.70476 104.986 8.77376C107.839 9.04076 110.637 10.0078 113.51 9.64876C113.708 10.2118 114.447 10.4098 115.232 10.6278C116.008 10.8708 116.837 11.1238 117.196 11.7268C118.02 11.5618 118.684 11.9048 119.16 11.3848C123.806 13.2728 128.462 15.2258 132.906 17.6968C137.331 20.1678 141.619 23.0678 145.206 26.7128C147.602 27.6978 149.318 29.8158 150.792 32.1458C152.293 34.4828 153.412 37.1058 154.999 39.4468C154.957 39.5118 154.89 39.5387 154.823 39.5308C156.117 40.9227 157.373 43.3628 157.87 45.5228C157.87 45.5228 157.957 45.6168 158.089 45.7578C158.21 45.9038 158.372 46.0978 158.534 46.2918C158.86 46.6878 159.186 47.0828 159.186 47.0828C160.256 53.7728 160.415 60.5038 159.096 67.0838C157.802 73.6428 154.892 79.9688 150.564 85.1448C145.757 91.1298 139.893 95.4698 133.832 99.1458C127.73 102.833 121.348 105.866 114.324 109.064C114.296 108.881 114.15 108.813 114.509 108.638C110.357 110.16 106.286 110.229 102.247 111.118L102.238 110.93C99.736 111.594 97.119 111.997 94.467 112.138C91.814 112.328 89.134 112.146 86.472 112.055C81.144 111.652 75.975 110.808 70.895 110.471C69.507 110.069 68.097 109.659 66.666 109.245C65.245 108.802 63.8311 108.263 62.3771 107.771C60.9221 107.282 59.5131 106.611 58.0421 106.032C57.3031 105.749 56.5831 105.41 55.8661 105.051C55.0991 104.681 54.3261 104.307 53.5481 103.931C53.3391 103.864 53.11 103.79 52.873 103.714C52.754 103.675 52.6341 103.636 52.5111 103.596C52.3891 103.557 52.2691 103.665 52.1481 103.693C51.7391 103.852 51.2611 104.037 50.7621 104.212C49.9891 104.495 49.395 104.806 48.698 105.105C48.016 105.391 47.3311 105.678 46.6431 105.966C45.2701 106.551 43.881 107.127 42.468 107.654C41.057 108.186 39.66 108.769 38.239 109.273C36.815 109.773 35.3941 110.272 33.9851 110.767L33.905 110.398C31.807 111.29 29.6121 111.808 27.4431 112.37C26.3531 112.627 25.2701 112.908 24.1691 113.099L20.8561 113.591C16.4571 114.349 12.007 114.442 7.58801 115.067C7.86501 115.794 8.14911 116.537 8.43311 117.28C9.47311 116.472 10.519 115.62 11.54 114.731C12.665 113.98 13.7951 113.22 14.8411 112.335C15.8791 111.439 16.8941 110.504 17.8911 109.545C18.3841 109.06 18.894 108.595 19.363 108.078L20.7351 106.494L22.0891 104.899C22.5461 104.375 22.9861 103.835 23.3781 103.25C24.1801 102.101 25.023 100.996 25.79 99.8448C26.485 98.6378 27.2511 97.4928 27.9221 96.3018L28.853 94.4778L29.3361 93.5808C29.4861 93.2758 29.5951 92.9538 29.7311 92.6438C29.9911 92.0178 30.2631 91.3978 30.5491 90.7808C30.7981 90.1478 30.979 89.5098 31.228 88.8518C31.337 88.6518 31.4441 88.4408 31.5471 88.2208L31.6991 87.8848C31.7411 87.7718 31.6621 87.6678 31.6461 87.5568C31.5251 87.1238 31.352 86.6398 31.192 86.1988C30.89 85.3608 30.525 84.5278 30.123 83.6918C29.319 82.0218 28.3411 80.3538 27.4081 78.6708C25.5281 75.3218 23.776 71.8858 23.781 68.5878C23.645 66.9658 23.51 65.3498 23.375 63.7378C23.267 62.1628 23.1041 60.5828 23.1831 59.1488C23.3691 56.0908 23.679 53.0228 24.161 49.9838C25.097 43.8958 26.957 37.7637 30.009 31.8967C33.914 27.2977 37.8491 22.7838 42.4541 18.9278C44.7301 16.9798 47.2081 15.2938 49.7871 13.8338C52.3901 12.4158 55.137 11.2948 57.998 10.6268C60.257 8.93376 63.1521 8.26678 66.1271 7.93078C69.1021 7.53978 72.1561 7.49677 75.05 6.70177L74.7471 6.28176C75.9491 6.78876 77.0271 6.07977 78.0591 5.49077C79.0901 4.93277 80.062 4.46975 80.863 5.42275L80.65 5.54876C81.888 6.44476 83.034 2.76375 83.873 3.94475L84.014 3.40078C85.409 3.11478 84.231 3.96877 85.326 4.10677C85.7271 4.01677 85.4131 3.13775 86.2871 3.38875C86.4481 4.46275 87.2911 4.29476 88.1311 4.16076C88.9721 4.04276 89.8091 3.98877 89.8821 5.19777C89.1341 5.21277 91.074 6.11576 89.411 6.65676C89.893 6.89676 92.1581 6.73076 91.9591 5.70376C92.1571 4.61276 93.0771 3.64976 91.6471 2.81576L91.3621 3.61776C90.8731 2.83076 90.991 3.22677 90.811 2.63277C88.923 2.57477 88.6301 1.38377 87.2271 0.998769C87.243 1.02077 87.257 1.04177 87.238 1.08477C86.349 2.09877 85.0291 1.59378 84.2711 1.52578L83.9351 1.11275C83.3891 0.233752 81.936 3.13375 82.358 1.49175C78.511 2.28375 74.1051 2.99278 69.8771 4.07778C69.4371 4.81978 66.6411 4.87678 67.8701 5.75878C66.4791 4.76378 63.234 5.40375 62.118 5.89275C62.119 5.75975 62.121 5.60876 62.317 5.59276C59.471 4.75076 60.2741 8.04378 57.4351 6.90478C57.5551 7.64478 56.5961 7.94678 55.5391 8.32778C54.4771 8.69178 53.337 9.19477 53.175 10.2658C52.785 10.0908 52.5681 9.86576 52.5381 9.58376C48.9491 11.3288 44.8731 13.2098 42.0391 15.1748C41.6421 15.8778 41.072 16.4598 40.421 16.9878C39.774 17.5198 39.077 18.0448 38.38 18.5518C37.678 19.0518 37.0341 19.6088 36.5121 20.2108C35.9951 20.8178 35.5831 21.4488 35.4641 22.2258C33.7241 23.3658 30.802 25.3538 29.562 28.1238L29.5681 27.7668C27.5731 30.3948 25.4251 34.0018 25.3671 36.5038C23.4271 36.5608 23.0091 37.9898 21.9491 39.1018C21.6941 41.4338 19.9761 45.6428 20.0171 49.1278C19.0761 49.4708 19.8561 51.9208 18.6781 51.9118C18.7301 53.1348 18.916 54.3898 18.963 55.6398C19.021 56.2648 19.08 56.8967 19.139 57.5347C19.204 58.1837 19.2051 58.7628 19.3191 59.5138C19.6951 62.3518 20.386 64.7888 21.004 67.3288C22.283 72.3468 23.4991 77.3878 24.5271 82.1848L24.3981 82.0848C25.4581 83.0118 27.3071 83.7958 28.5601 84.6218C28.5171 84.7748 28.3351 84.8388 28.2351 84.5938C28.6781 85.3508 28.8071 86.2138 28.9491 87.0828C28.9631 87.1848 28.991 87.3158 28.994 87.3938C28.985 87.4418 28.9881 87.5128 28.9851 87.5678C28.9821 87.6838 28.9801 87.7918 28.9861 87.8918C29.0541 88.0888 28.9241 88.2728 28.9331 88.4718C28.7401 88.4518 28.743 88.4428 28.582 88.3318C28.629 88.4078 28.6421 88.4918 28.6331 88.5748C28.6241 88.6568 28.5981 88.7118 28.5211 88.9268C28.3741 89.2738 28.2191 89.6188 27.9951 89.9508C27.5311 90.6168 27.1211 91.2868 27.2261 92.2628L26.9141 92.2238C26.9421 92.2268 26.7821 93.3808 26.7821 93.3808C26.4551 93.1828 25.9611 92.8848 26.3501 92.4378C24.2181 96.4238 21.2191 100.32 17.7051 103.959L16.427 105.357L15.045 106.687L12.274 109.37C10.353 111.101 8.35512 112.78 6.37012 114.478L0 119.927L7.91504 118.527C10.235 118.117 12.5571 117.724 14.8811 117.367L16.6261 117.106L18.3511 116.752L21.806 116.077L21.3241 116.546L24.119 115.313C24.146 115.505 24.028 115.625 23.906 115.738C24.881 115.725 25.8271 115.542 26.7561 115.279C27.6881 115.027 28.6071 114.715 29.5171 114.387C31.3411 113.74 33.128 113.043 34.906 112.535C34.944 112.719 34.515 113.241 35.073 113.287C37.37 111.458 39.733 113.284 40.333 110.754C40.485 110.807 40.727 111.238 40.52 111.497C42.356 110.628 44.2331 109.857 46.1021 109.03C47.9271 108.233 49.7621 107.432 51.6011 106.629L52.25 106.339C52.305 106.322 52.36 106.271 52.415 106.284L52.577 106.366L52.901 106.532L54.337 107.277C54.958 107.589 55.5641 107.938 56.1951 108.229C57.4591 108.813 58.72 109.396 59.978 109.977C61.666 110.118 63.332 110.369 64.958 110.805C66.593 111.211 68.255 111.599 69.9 112.079C71.553 112.528 73.251 112.839 74.932 113.134C76.617 113.41 78.3371 113.412 80.0181 113.296L79.9341 113.679C81.0151 113.697 82.1071 113.642 83.1951 113.651C84.2831 113.657 85.371 113.699 86.462 113.767C88.651 113.752 90.853 113.941 93.073 113.978C97.507 114.09 102.036 114.007 106.406 113.16C110.076 112.688 112.42 111.698 115.968 110.701L116.192 111.146C118.925 109.369 122.107 108.743 125.33 107.816C128.524 106.887 131.775 105.688 134.088 103.172L134.027 103.965C134.387 102.586 137.603 102.206 136.333 100.934L137.571 100.742C138.16 99.6418 138.892 98.8888 139.688 98.2318C140.497 97.5938 141.413 97.1148 142.335 96.5738C142.802 96.3078 143.276 96.0378 143.762 95.7618C144.231 95.4628 144.693 95.1328 145.151 94.7698C146.08 94.0588 146.907 93.1178 147.587 91.9068L147.635 92.4488C148.039 91.8388 148.453 91.1658 148.897 90.5878C149.337 90.0068 149.837 89.5428 150.312 89.2518C150.251 89.4178 150.399 89.4408 150.259 89.7728C152.336 88.5858 153.842 86.6358 154.958 84.4568C156.14 82.3048 156.888 79.9238 157.967 77.8178L158.425 78.6358C158.498 78.0238 158.646 77.3228 158.907 76.5958C159.172 75.8698 159.504 75.0988 159.803 74.2858C160.467 72.6898 161.076 70.9528 161.244 69.4288L161.556 69.6988L161.398 68.0798L162.127 68.1948C163.014 64.2598 162.662 60.4258 162.384 56.6088Z" fill="black"/>
<path d="M144.099 22.8318C144.102 22.8448 144.116 22.8558 144.115 22.8768C144.242 22.9068 144.196 22.8738 144.099 22.8318Z" fill="black"/>
<path d="M86.7231 0.876709C86.9111 0.909709 87.0682 0.945704 87.2262 0.996704C87.1812 0.849704 86.8831 0.899709 86.7231 0.876709Z" fill="black"/>
<path d="M55.4089 78.3797C55.0749 78.3267 54.7149 78.2127 54.3279 78.0367C53.9059 77.8257 53.5899 77.5267 53.3789 77.1407C53.3789 76.7197 53.572 76.5088 53.959 76.5088C54.345 76.5088 54.8369 76.6327 55.4349 76.8777C55.9969 77.1597 56.4709 77.2997 56.8579 77.2997C57.6299 77.2997 58.3419 76.9837 58.9919 76.3507C59.6419 75.7187 60.1419 74.8927 60.4939 73.8737C61.1959 71.8708 61.548 70.0968 61.548 68.5508C61.548 66.8298 61.3019 65.0907 60.8099 63.3327C60.3179 61.5767 59.668 59.9248 58.86 58.3788C58.684 57.9928 58.385 57.4127 57.964 56.6397C57.085 54.8827 56.4169 53.5127 55.9609 52.5287C55.5039 51.5457 55.0999 50.4557 54.7489 49.2607C54.2569 47.6797 54.011 45.9757 54.011 44.1487C54.011 42.9887 54.1959 41.8748 54.5649 40.8018C54.9339 39.7308 55.5219 38.8077 56.3309 38.0347C57.2079 37.2267 58.193 36.8228 59.282 36.8228C59.704 36.8228 60.2129 36.9898 60.8099 37.3228C61.4069 37.6568 61.7059 37.9817 61.7059 38.2977C61.7059 38.5797 61.6009 38.7188 61.3899 38.7188C61.1789 38.7188 60.897 38.6317 60.547 38.4557C60.231 38.2797 59.9319 38.1917 59.6509 38.1917C58.8419 38.1917 58.13 38.4907 57.516 39.0877C56.901 39.6857 56.453 40.4238 56.172 41.3008C55.925 42.0388 55.803 42.8477 55.803 43.7257C55.803 45.0957 55.978 46.5107 56.33 47.9688C56.681 49.4268 57.1549 50.7887 57.7529 52.0527L59.5979 55.9008L60.1249 57.0067C60.8629 58.5177 61.4339 59.7657 61.8379 60.7487C62.2409 61.7327 62.584 62.8398 62.866 64.0688C63.252 65.7208 63.4459 67.3017 63.4459 68.8127C63.4459 70.8507 62.919 72.9237 61.865 75.0317C61.338 76.0517 60.635 76.8757 59.757 77.5087C58.878 78.1407 57.9119 78.4577 56.8579 78.4577C56.2259 78.4587 55.7419 78.4327 55.4089 78.3797Z" fill="black"/>
<path d="M80.1528 77.7738C80.1528 77.7738 80.0819 77.7118 79.9429 77.5898C79.8019 77.4658 79.6958 77.1418 79.6268 76.6148C79.3108 74.0508 79.1169 72.4508 79.0469 71.8188L78.7828 69.7108C78.0098 69.5358 77.1308 69.4468 76.1478 69.4468L74.2509 69.3418C73.4079 69.2368 72.7928 69.1838 72.4058 69.1838C72.1958 69.1838 72.0719 69.2718 72.0369 69.4478C72.0369 69.5528 72.0188 69.6058 71.9838 69.6058L71.8788 70.6598C71.8428 71.2918 71.6498 72.5568 71.2988 74.4538C71.1228 75.4028 70.9118 76.1408 70.6658 76.6678C70.3848 77.2658 70.1208 77.5638 69.8748 77.5638C69.6648 77.5638 69.4358 77.4668 69.1898 77.2738C68.9438 77.0808 68.8208 76.8778 68.8208 76.6678L68.8738 76.5098L68.9258 76.3518C69.5588 73.8578 70.0858 71.3798 70.5078 68.9208L71.1398 65.6528L71.7719 61.6478L72.3518 58.1688C72.5278 57.2198 72.8438 55.6918 73.3008 53.5838C73.7928 51.1948 74.0918 49.5608 74.1968 48.6828C74.2318 48.5778 74.3018 47.9278 74.4078 46.7328C74.5478 45.3978 74.6719 44.4138 74.7769 43.7818C74.8819 42.8678 74.9868 42.3418 75.0928 42.1998H75.4618C75.5668 42.2358 75.6898 42.2528 75.8308 42.2528C76.2528 42.2528 76.5688 42.1478 76.7798 41.9368C77.0258 41.9368 77.2448 42.0158 77.4388 42.1738C77.6318 42.3318 77.7288 42.5168 77.7288 42.7278C77.7288 44.4148 77.8518 46.3468 78.0978 48.5248C78.2378 49.6498 78.3428 50.5808 78.4138 51.3178C78.7998 55.8508 79.7848 64.3538 81.3658 76.8268V76.9848C81.3658 77.3358 81.2248 77.5998 80.9438 77.7758C80.4158 77.7738 80.1528 77.7738 80.1528 77.7738ZM78.5188 68.2868C78.1668 63.2268 77.4988 55.7618 76.5168 45.8878L73.6708 59.9598C72.8618 64.0008 72.4589 66.5478 72.4589 67.6018C72.4589 67.7778 73.1258 67.9358 74.4618 68.0768C75.7968 68.2178 76.9738 68.2868 77.9928 68.2868H78.5188Z" fill="black"/>
<path d="M87.1089 76.7727C87.1789 76.5617 87.214 75.9817 87.214 75.0337C87.214 71.8017 87.2669 67.0047 87.3719 60.6447C87.4769 54.3197 87.5299 49.7527 87.5299 46.9417L87.6349 45.0447L87.793 43.4637C87.793 43.2177 87.916 43.0947 88.162 43.0947C88.337 43.0947 88.5839 43.1477 88.8999 43.2527L89.058 43.3057C89.058 44.0787 89.0399 44.7817 89.0049 45.4137V47.4687V53.2137C89.0399 54.9007 89.058 56.8157 89.058 58.9587C89.023 59.1347 89.0049 59.5207 89.0049 60.1187L88.9519 61.2257C88.9169 61.9287 88.8989 62.6487 88.8989 63.3867C88.8989 64.1957 88.9169 64.9327 88.9519 65.5997L89.0049 67.8667L88.8469 68.2877L88.8999 68.2347C88.8999 68.3397 88.8819 68.4107 88.8469 68.4457V68.6567C88.8469 68.9387 88.8999 69.1837 89.0049 69.3947L88.8469 74.4547V74.7707C88.8469 75.3687 88.8649 75.7197 88.8999 75.8247C88.8999 76.0007 88.9869 76.0877 89.1639 76.0877L91.9049 76.1927C92.7129 76.1927 93.2659 76.2017 93.5649 76.2187C93.8629 76.2367 94.0469 76.2447 94.1179 76.2447H94.2759C94.4509 76.2447 94.627 76.3417 94.803 76.5347C94.979 76.7277 95.0669 76.9297 95.0669 77.1407C95.0669 77.5627 94.7849 77.7907 94.2239 77.8257C93.6259 77.7907 92.1689 77.7727 89.8489 77.7727L89.954 77.8257C89.602 77.8257 89.2689 77.8437 88.9529 77.8787C88.6719 77.9487 88.3549 77.9837 88.0039 77.9837C87.5129 77.9847 87.2139 77.5797 87.1089 76.7727Z" fill="black"/>
<path d="M103.895 77.5367C103.245 77.1677 102.709 76.7377 102.288 76.2447C101.796 75.6127 101.41 73.8387 101.128 70.9217C100.847 68.0057 100.671 64.6687 100.601 60.9077C100.601 60.0647 100.583 59.4317 100.548 59.0107C100.477 50.1917 100.337 44.9737 100.127 43.3577L100.443 42.6197C101.251 42.7247 101.655 43.6917 101.655 45.5187L101.813 59.4857C101.813 60.4697 101.9 62.3317 102.076 65.0717C102.287 67.5317 102.392 69.3937 102.392 70.6587C102.392 74.6637 103.709 76.6667 106.345 76.6667C107.961 76.6667 108.998 72.9777 109.455 65.5987L109.508 64.5447C109.753 54.8817 109.877 47.7317 109.877 43.0937L109.824 42.6197C109.789 42.4797 109.771 42.3217 109.771 42.1447C109.771 41.7587 110.069 41.5647 110.667 41.5647C111.089 41.5647 111.352 41.6697 111.458 41.8807C111.528 42.2327 111.563 42.8477 111.563 43.7257C111.563 46.3957 111.458 48.1877 111.247 49.1007L111.3 49.4167C111.3 49.8737 111.247 50.5767 111.142 51.5247L111.037 53.6327V54.1597C111.072 54.3007 111.09 54.4757 111.09 54.6867C111.019 55.5297 110.985 56.3387 110.985 57.1107C110.949 57.3577 110.932 57.7437 110.932 58.2707C110.861 61.6087 110.791 64.5077 110.721 66.9667C110.616 70.0237 110.194 72.6057 109.456 74.7147C108.683 76.9637 107.435 78.0877 105.714 78.0877C105.151 78.0897 104.545 77.9047 103.895 77.5367Z" fill="black"/>
<path d="M122.948 76.5617L122.895 74.6118C122.86 74.0498 122.842 73.4178 122.842 72.7148C122.842 72.3638 122.86 72.0658 122.895 71.8188L122.948 70.8698C122.948 70.5188 122.877 70.0977 122.737 69.6047C122.737 67.2507 122.56 62.8767 122.21 56.4807C121.858 50.2967 121.665 46.0978 121.631 43.8838C119.451 43.8838 117.994 43.8317 117.256 43.7257C116.553 43.5497 116.202 43.2688 116.202 42.8828C116.377 42.4968 116.711 42.3027 117.203 42.3027C118.257 42.3027 119.786 42.3737 121.788 42.5137C123.615 42.6897 125.143 42.7777 126.374 42.7777H127.48L128.586 42.7247C129.219 42.7247 129.535 42.9537 129.535 43.4097C129.535 43.6207 129.421 43.7877 129.192 43.9097C128.963 44.0337 128.691 44.0948 128.376 44.0948C127.672 44.0948 126.935 44.0597 126.162 43.9897L123.895 43.8847C123.754 43.8847 123.684 43.9378 123.684 44.0428C123.649 44.1478 123.631 44.4827 123.631 45.0437C123.631 48.4527 123.842 53.6178 124.264 60.5388C124.65 67.7068 124.844 72.8547 124.844 75.9818C124.844 76.2277 124.694 76.4557 124.396 76.6667C124.097 76.8767 123.807 76.9827 123.526 76.9827L122.948 76.5617Z" fill="black"/>
<path d="M138.822 86.4257C172.998 86.4257 200.705 108.084 200.705 134.801C200.705 140.793 194.898 155.117 192.35 160.41C193.504 166.75 198.057 174.322 213.254 185.519C192.35 183.546 173.74 174.749 173.736 174.746C163.795 180.066 151.783 183.18 138.822 183.18C104.653 183.18 76.9473 161.52 76.9473 134.801C76.9473 108.084 104.653 86.4257 138.822 86.4257Z" fill="white"/>
<path d="M138.822 82.4117L138.624 82.1907L138.115 82.8237L138.822 82.4117Z" fill="black"/>
<path d="M135.507 83.8656C135.609 83.9736 135.569 84.1636 135.672 84.2756L137.582 82.4586C136.668 81.4696 136.094 84.5256 135.507 83.8656Z" fill="black"/>
<path d="M134.927 83.7196C134.148 83.3486 133.88 84.2026 133.726 84.4946C133.95 83.8326 135.134 84.6116 134.927 83.7196Z" fill="black"/>
<path d="M79.2871 115.661C79.3161 115.595 79.339 115.499 79.348 115.422C79.269 115.519 79.2581 115.6 79.2871 115.661Z" fill="black"/>
<path d="M77.4562 132.854L78.1162 133.059C77.5912 131.507 77.7722 129.84 78.1522 128.224C78.5232 126.596 79.0992 125.021 79.3352 123.39L79.4962 123.671C80.8022 119.77 82.4242 116.151 84.3672 112.648C86.3142 109.149 88.7042 105.832 91.6582 102.816C91.6072 102.957 91.7072 103.131 91.6592 103.279C91.8022 102.839 91.8542 102.217 92.2322 101.952C92.4182 101.984 92.3402 102.27 92.2772 102.419C93.2872 102.226 94.1892 101.311 95.0012 100.37C95.8512 99.4857 96.6212 98.5927 97.3252 98.6307C97.6682 98.2567 97.5933 97.7527 97.1623 97.6227C102.474 93.5617 108.873 90.3067 115.177 87.4517C115.539 87.4987 115.683 87.7677 115.708 88.1567C118.226 86.4327 121.134 85.4477 124.118 84.9007C127.104 84.3207 130.175 84.2227 133.173 84.1527C133.373 83.6707 132.524 83.6927 133.084 83.1707C132.087 82.9207 131.216 83.3227 130.378 83.6537C129.537 83.9847 128.733 84.2977 127.804 84.0077L127.969 83.5287C126.649 83.4187 127.868 84.6957 126.466 84.3017C125.888 83.9987 126.51 83.7127 126.262 83.7127C123.591 84.3247 120.659 84.4907 118.45 86.2337C118.019 85.8397 117.302 86.0147 116.546 86.2207C115.796 86.4487 115.006 86.6947 114.376 86.3967C113.811 86.9667 113.106 87.1127 113.064 87.8207C108.468 89.1387 104.036 91.2307 99.9383 93.8787C95.8403 96.5357 92.0212 99.6417 88.5172 103.098C87.5352 105.37 85.8623 107.158 84.0633 109.088C82.2613 110.996 80.4512 113.168 79.4592 115.757C79.3822 115.76 79.3212 115.722 79.2882 115.663C78.8482 117.465 78.0642 119.92 77.1492 121.856C77.1492 121.856 77.1592 121.978 77.1732 122.161C77.1962 122.346 77.2292 122.592 77.2612 122.837C77.3272 123.321 77.3942 123.807 77.3942 123.807C74.8352 129.637 74.3732 136.446 75.6782 142.843C76.9602 149.289 79.9532 155.239 83.5812 160.627C87.8392 166.682 92.9562 171.612 98.7672 175.34C104.571 179.064 111.149 181.524 118.269 182.141C118.204 182.315 118.288 182.444 117.915 182.425C121.927 183.115 125.453 184.474 129.323 184.542L129.289 184.727C131.7 184.593 134.112 184.61 136.541 184.585C138.969 184.605 141.408 184.483 143.842 184.434C148.694 184.142 153.53 183.389 157.721 181.519C158.966 181.188 160.23 180.852 161.513 180.51C162.787 180.137 164.052 179.664 165.351 179.229C166.653 178.801 167.908 178.192 169.215 177.663L170.193 177.247L171.15 176.765C171.744 176.463 172.343 176.159 172.947 175.853C173.107 175.77 173.281 175.68 173.463 175.587L173.741 175.443C173.837 175.463 173.933 175.521 174.03 175.558C174.354 175.702 174.738 175.859 175.127 176.015C176.254 176.488 177.503 176.964 178.716 177.401C179.328 177.625 179.942 177.849 180.557 178.075L182.428 178.685C183.682 179.08 184.923 179.516 186.189 179.864C187.455 180.208 188.717 180.551 189.97 180.89L189.835 181.243C197.709 182.878 205.056 185.873 213.141 186.746L217.466 187.214L213.986 184.532C213.079 183.834 212.132 183.145 211.154 182.486C210.301 181.675 209.371 180.947 208.472 180.18C207.58 179.406 206.656 178.662 205.705 177.936C205.235 177.568 204.737 177.224 204.273 176.846L202.888 175.7L201.479 174.559C200.999 174.185 200.53 173.799 200.105 173.371C199.237 172.534 198.321 171.718 197.49 170.828C196.724 169.891 195.908 168.973 195.224 167.966C194.91 167.445 194.602 166.919 194.304 166.389L193.865 165.589C193.734 165.317 193.642 165.024 193.534 164.741C193.327 164.171 193.132 163.597 192.952 163.025C192.806 162.444 192.742 161.828 192.665 161.259L192.695 160.735L192.701 160.483C192.709 160.401 192.804 160.329 192.847 160.252C193.069 159.949 193.271 159.653 193.443 159.359C193.835 158.675 194.171 157.928 194.459 157.156C195.033 155.606 195.443 153.935 195.81 152.271C196.562 148.937 197.161 145.685 198.878 143.327C199.647 142.074 200.29 140.771 200.834 139.418C201.348 138.05 201.811 136.669 201.948 135.095C202.173 132.153 201.844 129.244 201.084 126.439C199.582 120.801 196.225 115.895 192.317 111.847C189.73 107.319 185.674 103.825 181.457 100.957C177.209 98.0537 172.797 95.7107 168.589 92.7317C166.12 92.4177 163.963 91.1357 161.623 89.8677C159.311 88.5597 156.814 87.2937 154.11 86.9367L154.211 87.4297C153.392 86.5637 152.223 86.8487 151.19 87.0907C150.148 87.3597 149.238 87.5597 148.77 86.4297L148.985 86.3647C148.074 85.1437 146.35 88.6197 145.878 87.2837L145.669 87.7927C144.443 87.8287 145.577 87.1717 144.648 86.8967C144.287 86.9407 144.445 87.8477 143.728 87.5017C143.716 86.4177 142.951 86.4897 142.203 86.5287C141.455 86.5827 140.722 86.6297 140.704 85.4117C141.394 85.4257 139.642 84.4487 141.21 83.9717C140.772 83.7137 138.628 83.7917 138.824 84.8267C138.645 85.9237 137.845 86.8697 139.092 87.7267L139.346 86.9347C139.759 87.7397 139.661 87.3387 139.804 87.9397C141.416 88.0857 141.595 89.2157 142.698 89.7747C142.688 89.7507 142.677 89.7277 142.697 89.6877C143.52 88.7847 144.572 89.3997 145.167 89.5907L145.374 90.0577C145.648 91.0187 147.338 88.4307 146.7 89.9677C149.933 89.9007 153.596 90.5257 157.082 91.3837C157.719 90.9267 159.732 92.1417 159.283 90.8157C159.809 92.3437 162.227 93.4337 163.161 93.7427C163.085 93.8477 162.999 93.9687 162.87 93.8707C164.057 96.1017 165.569 93.1627 166.443 95.7787C166.863 95.1317 167.558 95.5767 168.341 96.0247C169.134 96.4597 169.987 96.9407 170.829 96.3907C170.88 96.7867 170.809 97.0857 170.619 97.2867C173.474 98.7427 176.177 101.046 178.276 102.646C179.573 102.789 180.606 103.744 181.565 104.673C182.547 105.589 183.46 106.477 184.802 106.504C185.733 107.934 186.943 110.301 188.886 111.613L188.574 111.581C190.257 113.495 191.988 116.078 193.835 117.099C192.634 118.601 193.476 119.366 193.38 120.586C194.849 121.754 195.739 125.004 196.954 127.353C196.298 127.882 197.663 129.386 196.546 129.695C196.995 130.519 197.248 131.417 197.551 132.342C197.683 132.807 197.765 133.284 197.86 133.768C197.94 134.236 198.054 134.788 198.061 135.172C198.191 136.885 197.756 139.038 197.131 141.051C195.853 145.139 193.721 149.109 191.415 152.553L191.384 152.413C191.578 153.627 192.404 155.298 192.721 156.627C192.586 156.685 192.414 156.597 192.511 156.39C192.312 157.125 191.806 157.7 191.296 158.26C191.001 158.636 190.632 159.14 190.327 159.621L190.099 159.997C190.067 160.061 190.016 160.123 190.001 160.19L190.042 160.4C190.101 160.68 190.177 160.966 190.273 161.25C190.074 161.241 190.076 161.249 189.793 160.863C190.063 161.42 190.211 161.994 190.298 162.551C190.361 162.964 190.337 163.417 190.4 163.855C190.534 164.718 190.748 165.642 191.507 166.339L191.268 166.565C191.249 166.585 192.205 167.427 192.206 167.427C191.852 167.576 191.316 167.797 191.121 167.171C193.325 171.885 196.738 175.642 200.397 178.763L201.758 179.969L203.185 181.07L206.042 183.259C207.998 184.613 209.958 185.969 211.921 187.327C212.436 185.98 212.949 184.633 213.466 183.279C211.483 183.114 209.489 182.93 207.498 182.71L206.005 182.539C205.51 182.46 205.018 182.352 204.526 182.257C203.541 182.058 202.558 181.849 201.579 181.627L202.127 181.368L199.481 181.493C199.538 181.307 199.677 181.24 199.817 181.18C199.05 180.876 198.266 180.622 197.468 180.41C196.667 180.207 195.85 180.063 195.029 179.935C193.386 179.683 191.725 179.495 190.233 178.909C190.302 178.736 190.869 178.525 190.505 178.19C187.942 178.467 187.323 175.803 185.526 177.45C185.455 177.318 185.544 176.832 185.826 176.747C184.191 176.35 182.541 175.935 180.922 175.412C180.119 175.134 179.314 174.854 178.507 174.574C178.106 174.429 177.701 174.286 177.31 174.122L176.719 173.88L176.423 173.758C176.367 173.742 176.34 173.708 176.261 173.706L175.991 173.721C175.357 173.568 174.724 173.412 174.145 173.254L173.707 173.136L173.237 173.172L172.297 173.243L170.332 174.179C169.811 174.41 169.307 174.675 168.77 174.872C167.7 175.264 166.63 175.655 165.566 176.045C164.487 177.001 163.222 177.664 161.913 178.274C160.595 178.858 159.17 179.21 157.761 179.618C156.344 180.002 154.885 180.238 153.472 180.644C152.054 181.035 150.633 181.367 149.263 181.989L149.24 181.597C148.347 181.93 147.424 182.119 146.49 182.298C145.556 182.474 144.61 182.616 143.657 182.733C141.743 182.833 139.802 182.912 137.86 182.795C133.968 182.591 130.106 181.966 126.281 181.485C123.156 180.786 120.944 180.775 117.81 179.943L117.866 179.453C115.01 179.577 112.373 178.255 109.887 176.779C107.384 175.284 105.024 173.703 102.067 173.176L102.74 172.79C101.454 173.249 100.035 170.716 99.3692 172.38L98.8262 171.371C97.7032 171.314 96.7902 170.978 96.0382 170.436C95.2732 169.911 94.6311 169.237 94.0311 168.484C93.4121 167.753 92.8152 166.972 92.1142 166.223C91.3862 165.5 90.5842 164.785 89.4702 164.207L89.9892 164.135C88.8632 163.486 87.6912 162.529 87.3642 161.577C87.5032 161.65 87.5501 161.521 87.8281 161.676C87.1941 159.634 85.9091 158.1 84.5781 156.485C83.2031 154.912 81.8232 153.232 80.9282 151.353L81.8402 151.435C81.3992 151.101 81.0722 150.59 80.7542 150.006C80.4322 149.423 80.1572 148.751 79.9412 148.039C79.4492 146.632 79.1262 145.105 78.6032 143.891L78.9932 143.957L78.1972 142.788L78.9102 142.6C78.2592 139.338 77.3792 136.205 77.4562 132.854Z" fill="black"/>
<path d="M92.277 102.418C92.264 102.42 92.2539 102.43 92.2339 102.426C92.1999 102.543 92.232 102.504 92.277 102.418Z" fill="black"/>
<path d="M143.092 89.9467C142.944 89.8937 142.82 89.8417 142.696 89.7737C142.719 89.9247 142.965 89.9067 143.092 89.9467Z" fill="black"/>
<path d="M125.404 152.142C125.304 152.008 125.255 151.809 125.255 151.542V150.943C125.288 150.81 125.305 150.627 125.305 150.393C125.305 145.833 125.138 140.058 124.806 133.068H124.456H123.507H122.559C120.695 133.068 119.53 133.118 119.064 133.217C119.064 135.648 119.197 138.659 119.463 142.254C119.763 146.349 119.912 149.361 119.912 151.292C119.912 151.791 119.729 152.041 119.363 152.041C118.864 152.041 118.614 151.808 118.614 151.342C118.581 149.711 118.506 147.455 118.389 144.576C118.272 141.697 118.164 139.259 118.065 137.261C117.432 129.34 117.116 121.75 117.116 114.493C117.116 114.16 117.332 113.993 117.765 113.993C117.964 113.993 118.122 114.052 118.239 114.168C118.355 114.285 118.397 114.443 118.364 114.643V118.338C118.364 119.236 118.447 120.934 118.614 123.431L118.714 125.128C118.78 126.992 118.814 128.107 118.814 128.474V130.92C118.814 131.786 118.897 132.218 119.064 132.218L120.961 132.118L121.96 132.018C123.624 131.885 124.572 131.818 124.806 131.818L124.856 131.718C124.856 130.254 124.772 127.442 124.606 123.28C124.439 119.053 124.357 116.223 124.357 114.792C124.357 114.393 124.589 114.193 125.055 114.193C125.288 114.193 125.488 114.252 125.655 114.368C125.821 114.485 125.905 114.642 125.905 114.843C125.905 121.333 126.021 128.474 126.255 136.263C126.487 144.085 126.604 148.879 126.604 150.643V151.342C126.604 151.609 126.546 151.841 126.429 152.041C126.313 152.24 126.155 152.34 125.955 152.34C125.687 152.342 125.504 152.275 125.404 152.142Z" fill="black"/>
<path d="M133.244 134.417V132.67C133.244 123.383 134.442 118.739 136.839 118.739C137.005 118.739 137.238 118.789 137.538 118.888C138.602 119.255 139.651 119.488 140.684 119.587C141.316 119.72 141.949 120.369 142.581 121.534C143.279 122.732 143.804 124.313 144.153 126.277C144.503 128.242 144.677 130.256 144.677 132.319L144.577 132.568C144.577 133.667 144.593 134.649 144.627 135.514L144.677 138.51C144.677 140.207 144.61 141.739 144.477 143.103C144.278 145.167 143.945 146.948 143.479 148.446C143.179 149.345 142.837 150.093 142.456 150.693C142.072 151.293 141.599 151.792 141.033 152.191C140.5 152.59 139.85 152.79 139.086 152.79C135.191 152.791 133.244 146.667 133.244 134.417ZM141.781 148.597C142.414 146.733 142.797 144.835 142.929 142.905C143.062 140.908 143.129 139.31 143.129 138.112C143.129 136.781 143.029 134.816 142.829 132.219C142.662 129.323 142.58 127.36 142.58 126.327L142.38 125.928L142.48 125.679C142.48 124.214 142.072 122.95 141.257 121.884C140.441 120.819 139.45 120.286 138.286 120.286C136.754 120.286 135.839 121.018 135.539 122.482C135.473 122.982 135.406 123.698 135.34 124.629C135.34 127.093 135.24 128.774 135.04 129.672C135.04 130.171 134.99 130.953 134.891 132.019L134.791 134.366C134.791 135.098 134.807 135.748 134.841 136.313L134.891 138.31C134.891 139.875 135.024 141.672 135.29 143.703C135.489 145.201 135.722 146.467 135.989 147.498C136.255 148.53 136.637 149.412 137.137 150.144C137.636 150.943 138.218 151.342 138.884 151.342C140.183 151.343 141.149 150.428 141.781 148.597Z" fill="black"/>
<path d="M152.516 151.343C152.349 151.343 152.216 151.36 152.117 151.393H151.718C150.985 151.393 150.52 151.227 150.32 150.894C150.32 150.661 150.453 150.461 150.719 150.294L150.969 150.044H152.416L152.616 149.845L152.716 149.396L152.766 148.796C152.766 146.766 152.716 144.951 152.617 143.354L152.517 141.506L152.416 137.861C152.416 136.563 152.467 134.616 152.566 132.019L152.666 126.227C152.666 123.698 152.583 121.767 152.416 120.435C152.117 120.335 151.617 120.286 150.919 120.286L150.369 120.336C150.17 120.369 149.953 120.386 149.721 120.386C149.088 120.386 148.772 120.104 148.772 119.537C148.772 119.404 148.921 119.27 149.221 119.138C149.521 119.006 149.771 118.938 149.97 118.938C151.235 118.938 152.499 119.005 153.765 119.138C154.531 119.171 155.295 119.321 156.062 119.587C156.661 119.786 156.96 120.069 156.96 120.436C156.96 120.503 156.91 120.636 156.811 120.835L155.663 120.935C155.43 120.736 154.946 120.636 154.215 120.636L153.965 120.785C154.066 121.085 154.115 121.967 154.115 123.431C154.115 125.627 154.097 127.609 154.065 129.372L153.964 135.313C153.964 136.811 154.03 138.625 154.164 140.755C154.264 143.186 154.313 145.017 154.313 146.248V146.896C154.28 147.129 154.263 147.429 154.263 147.795C154.263 148.561 154.313 149.026 154.413 149.192L154.362 149.292C154.362 149.626 154.728 149.792 155.461 149.792C155.761 149.792 156.011 149.775 156.21 149.742H156.959C157.924 149.742 158.407 149.974 158.407 150.44C158.407 150.74 158.307 150.982 158.107 151.165C157.908 151.349 157.64 151.439 157.308 151.439C157.008 151.439 156.742 151.406 156.509 151.339C156.242 151.306 155.96 151.289 155.66 151.289C155.46 151.289 155.16 151.372 154.761 151.538C154.362 151.738 154.063 151.838 153.863 151.838C153.098 151.842 152.649 151.676 152.516 151.343Z" fill="black"/>
</svg>
