<svg width="174" height="229" viewBox="0 0 174 229" fill="none" xmlns="http://www.w3.org/2000/svg">
<path d="M71.014 212.212L57.1631 208.499L110.571 9.17381C110.571 9.17381 115.301 0.942815 119.967 1.81681C124.633 2.68981 124.422 12.8858 124.422 12.8858L71.014 212.212Z" fill="white"/>
<path d="M74.8911 213.251L75.1641 213.103L74.7051 212.406L74.8911 213.251Z" fill="black"/>
<path d="M74.494 209.372C74.357 209.446 74.19 209.348 74.052 209.423L75.216 211.95C76.437 211.287 73.68 209.806 74.494 209.372Z" fill="black"/>
<path d="M74.8309 208.811C75.4469 208.118 74.7279 207.569 74.5049 207.309C75.0559 207.756 73.9139 208.751 74.8309 208.811Z" fill="black"/>
<path d="M93.34 138.132C93.324 138.207 93.32 138.313 93.325 138.395C93.385 138.276 93.381 138.188 93.34 138.132Z" fill="black"/>
<path d="M95.533 118.985L94.9409 118.621C95.1679 122.362 92.9619 125.927 92.4899 129.693L92.33 129.387C89.609 138.539 88.4059 147.33 86.4439 156.609C86.4139 156.449 86.2379 156.349 86.2029 156.182C86.3069 156.683 86.588 157.283 86.4 157.763C86.222 157.853 86.138 157.544 86.117 157.367C84.535 159.013 85.271 163.222 84.127 164.21C84.095 164.783 84.475 165.143 84.893 164.93C83.247 172.162 81.397 179.877 80.278 187.393C80.039 187.705 79.7309 187.691 79.3909 187.497C79.4469 194.192 77.008 200.541 75.02 206.844C75.409 207.21 75.675 206.323 75.978 207.076C77.095 205.178 75.874 203.023 77.197 201.385L77.5709 201.74C78.2149 200.463 76.54 201.17 77.481 199.918C77.996 199.463 78.0009 200.205 78.1019 199.957C78.6939 197.033 79.8919 194.139 79.5529 191.146C80.6839 190.731 80.4139 188.064 81.6079 187.245C81.4319 186.4 81.728 185.68 81.174 185.228C84.373 175.297 86.209 164.768 89.041 154.476C88.495 149.159 92.2359 143.968 93.1539 138.076C93.2299 138.055 93.297 138.08 93.341 138.133C93.387 136.144 93.903 133.366 94.726 131.198L94.455 129.102C99.644 116.122 102.194 102.119 106.508 88.6788C111.112 73.3258 116.07 60.1228 117.686 44.4038C117.859 44.4708 117.991 44.3758 117.961 44.7848C118.756 40.3358 120.48 36.5508 121.191 32.3508L121.369 32.4128C121.973 27.1278 123.441 21.8528 124.883 16.6198L125.42 14.6598L125.694 13.6398C125.742 13.4208 125.829 13.2068 125.845 12.9838L125.842 12.3158C125.807 10.8498 125.667 9.49178 125.39 8.09778C125.105 6.71978 124.689 5.34578 123.959 4.06678C123.243 2.77478 121.96 1.48178 120.491 1.31278C120.341 1.27678 120.192 1.21878 120.011 1.19678C119.576 1.17678 119.136 1.07878 118.7 1.17478C118.481 1.20778 118.259 1.21777 118.043 1.26877L117.405 1.47177C116.966 1.59677 116.618 1.83278 116.228 2.01078C115.877 2.23678 115.514 2.45477 115.184 2.70777C113.86 3.71677 112.746 4.94178 111.737 6.24478C111.237 6.90478 110.77 7.57179 110.317 8.28879L109.951 8.89276L109.765 9.57376L109.454 10.7598C109.047 12.3408 108.637 13.9318 108.225 15.5278C106.598 21.9178 105.027 28.4138 103.585 34.7178L103.23 34.5908C101.291 44.8988 96.7439 54.1438 94.6249 64.3798C91.0179 74.5228 91.002 86.2558 87.093 96.4128C83.571 102.401 85.131 111.925 81.648 117.504C75.507 129.236 74.063 141.827 72.395 154.755C68.313 166 67.7909 178.18 62.7719 188.784C62.7149 191.599 61.5669 194.271 60.2839 196.985C59.6409 198.342 58.9659 199.711 58.3759 201.113C58.0809 201.815 57.8079 202.524 57.5689 203.246C57.4459 203.627 57.3519 203.926 57.2299 204.382C57.1079 204.836 56.9979 205.292 56.9019 205.742C56.9019 205.742 57.0419 205.675 57.1799 205.608C57.3169 205.546 57.4539 205.485 57.4539 205.485C56.9749 206.023 56.7229 206.687 56.6209 207.275C56.5189 207.87 56.5699 208.385 56.6569 208.792C57.5949 208.81 58.3859 208.778 58.9119 208.884C59.4439 208.99 59.7319 209.238 59.8469 209.864L59.538 209.88C59.714 210.204 60.1259 210.29 60.5469 210.232C60.9899 210.178 61.3699 209.961 61.742 209.748C62.492 209.322 63.181 208.907 63.356 209.612L63.6729 209.151C65.0659 209.366 63.6779 209.772 64.6669 210.255C65.0769 210.297 65.0649 209.365 65.8059 209.878C65.4239 212.015 69.2409 210.314 68.7039 212.685C67.9649 212.487 69.62 213.906 67.827 213.951C68.236 214.319 70.534 214.81 70.598 213.76C71.075 212.755 72.2059 212.072 71.0479 210.884L70.5659 211.579C70.3079 210.685 70.316 211.1 70.304 210.478C68.532 209.893 68.5909 208.709 67.4249 207.9C67.4309 207.925 67.4389 207.951 67.4069 207.985C66.2779 208.671 65.2039 207.797 64.5419 207.477L64.3759 206.973C64.1919 205.962 61.8589 208.176 62.8189 206.785C61.8149 206.599 61.8719 206.681 61.5319 206.64C61.2529 206.617 60.942 206.572 60.609 206.51C60.66 206.168 60.7489 205.762 60.8499 205.341C61.1279 204.279 61.4119 203.192 61.6959 202.112C61.2649 201.383 62.589 198.996 61.221 199.587C62.78 198.907 63.921 195.952 64.174 194.809C64.283 194.884 64.407 194.968 64.312 195.132C66.567 193.387 63.465 192.121 66.054 190.612C64.701 189.906 67.5139 187.004 66.1329 185.388C66.5199 185.22 66.8319 185.213 67.0629 185.374C68.0859 181.685 69.7009 177.738 70.6039 174.626C70.0589 171.614 72.9109 168.306 71.7839 165.539C72.6629 163.733 74.217 160.846 74.229 157.999L74.374 158.314C75.075 155.286 75.9889 151.513 75.4439 149.162C77.3509 148.722 77.365 147.335 78.247 146.182C78.011 143.971 79.321 139.989 79.437 136.744C80.333 136.481 79.7859 134.135 80.9479 134.277C81.0829 125.133 84.6769 114.747 88.7589 106.038L88.8019 106.192C88.5069 104.841 87.5159 103.109 87.0469 101.69C87.1769 101.598 87.3589 101.661 87.2839 101.913C87.5239 100.187 89.0419 98.9188 89.2839 97.1958C89.4659 97.2588 89.4659 97.2588 89.5689 97.5768C89.4909 95.8778 91.331 94.5808 90.96 92.5008L91.2839 92.4768L91.184 91.1908C91.545 91.3178 92.089 91.5128 91.801 92.1078C96.004 77.8648 98.0509 62.5478 102.274 47.8998L102.48 48.5338L102.617 45.5108C102.8 45.5758 102.854 45.7368 102.901 45.8948C104.503 42.4268 104.469 38.3728 105.577 34.8718C105.753 34.9368 105.967 35.5688 106.304 35.1278C105.997 32.2338 108.743 31.2648 107.001 29.3898C107.131 29.2938 107.624 29.3368 107.722 29.6488C108.352 25.9058 109.179 22.1638 110.138 18.4498C110.617 16.5928 111.128 14.7418 111.665 12.9028L112.466 10.2338C112.505 10.1198 112.534 10.0038 112.616 9.91178L112.899 9.51978C113.155 9.16478 113.422 8.81379 113.698 8.47379C114.173 6.99579 114.993 5.61176 116.078 4.56076C116.603 4.00676 117.238 3.61177 117.835 3.29477C118.396 3.06077 119.015 2.92276 119.63 3.02176C120.225 3.11076 120.761 3.45379 121.153 3.90479C121.358 4.13279 121.522 4.36076 121.691 4.64676C121.878 4.94376 122.034 5.27978 122.194 5.61478C122.808 6.98978 123.268 8.52876 123.811 10.0738L123.418 10.0808C123.555 10.5858 123.666 11.1018 123.754 11.6228L123.867 12.3918C123.902 12.6288 123.933 12.8688 123.869 13.1018C123.693 14.1158 123.455 15.2188 123.205 16.2698C122.697 18.3958 122.082 20.5148 121.432 22.6348C120.129 26.8738 118.684 31.1148 117.674 35.4188C116.57 38.9228 116.377 41.4368 115.446 45.0048L114.951 44.9678C115.139 51.4438 109.963 57.1378 110.261 63.9218L109.736 63.3178C110.469 64.5538 108.373 67.0078 110.171 67.0928L109.36 68.0588C110.468 72.9098 106.253 75.5158 106.314 81.1128L106.002 80.6628C105.943 82.1308 105.76 83.8118 105.115 84.7388C105.099 84.5628 104.961 84.6058 104.943 84.2478C102.183 88.1568 102.654 93.4558 101.367 98.0148L100.756 97.2948C101.044 99.7428 99.1369 103.58 98.7609 106.595L98.455 106.324L98.559 107.928L97.8369 107.776C96.7789 111.545 96.439 115.27 95.533 118.985Z" fill="black"/>
<path d="M86.1171 157.367C86.1271 157.358 86.1311 157.342 86.1501 157.333C86.1181 157.203 86.1101 157.261 86.1171 157.367Z" fill="black"/>
<path d="M67.001 207.629C67.163 207.718 67.296 207.8 67.427 207.898C67.43 207.743 67.142 207.699 67.001 207.629Z" fill="black"/>
<path d="M126.892 208.499L113.04 212.212L59.6319 12.8848C59.6319 12.8848 58.7179 3.43683 64.0879 1.81683C69.4599 0.194833 73.4839 9.17383 73.4839 9.17383L126.892 208.499Z" fill="white"/>
<path d="M130.769 207.46L130.931 207.196L130.185 206.821L130.769 207.46Z" fill="black"/>
<path d="M128.485 204.297C128.404 204.429 128.209 204.428 128.127 204.563L130.398 206.17C131.124 204.985 127.998 205.08 128.485 204.297Z" fill="black"/>
<path d="M128.496 203.642C128.684 202.732 127.786 202.616 127.463 202.501C128.163 202.614 127.67 204.049 128.496 203.642Z" fill="black"/>
<path d="M109.167 133.11C109.191 133.183 109.241 133.277 109.286 133.344C109.279 133.212 109.232 133.138 109.167 133.11Z" fill="black"/>
<path d="M101.489 115.414L100.794 115.393C102.861 118.524 102.734 122.716 104.211 126.219L103.918 126.033C106.141 135.329 109.496 143.552 112.439 152.576C112.333 152.452 112.13 152.454 112.015 152.327C112.357 152.709 112.9 153.088 112.978 153.598C112.869 153.765 112.642 153.539 112.535 153.398C111.988 155.616 114.731 158.896 114.234 160.325C114.494 160.839 115.002 160.96 115.257 160.566C117.448 167.66 119.706 175.272 122.497 182.347C122.446 182.738 122.173 182.879 121.78 182.881C125.178 188.657 126.243 195.38 127.673 201.839C128.193 201.962 127.98 201.059 128.619 201.562C128.637 199.357 126.501 198.1 126.827 196.018L127.329 196.139C127.247 194.709 126.151 196.16 126.339 194.604C126.558 193.953 126.935 194.593 126.898 194.328C125.947 191.497 125.538 188.389 123.748 185.964C124.519 185.039 122.951 182.862 123.574 181.555C123 180.91 122.896 180.138 122.191 180.023C119.994 169.814 116.316 159.768 113.62 149.429C110.488 145.092 111.131 138.72 108.978 133.154C109.033 133.096 109.103 133.085 109.167 133.109C108.212 131.362 107.269 128.696 106.897 126.405L105.614 124.724C103.616 110.875 98.819 97.4598 95.831 83.6508C92.138 68.0378 89.827 54.1118 83.362 39.6758C83.546 39.6478 83.612 39.4988 83.792 39.8688C82.254 35.6148 81.854 31.4708 80.37 27.4738L80.555 27.4378C78.435 22.5548 77.067 17.2468 75.697 11.9898L75.181 10.0218L74.907 8.99276C74.83 8.55976 74.533 8.11978 74.404 7.83078C73.732 6.56178 72.957 5.36975 72.027 4.27175C71.095 3.18375 70.003 2.17578 68.65 1.49578C67.324 0.804784 65.61 0.58178 64.254 1.15478C63.809 1.19478 63.428 1.43277 63.013 1.57977C62.616 1.76477 62.262 2.04475 61.902 2.29776C61.256 2.89475 60.682 3.58178 60.309 4.35778C59.507 5.88878 59.151 7.56776 58.992 9.23776C58.905 10.0758 58.884 10.9178 58.899 11.7628L58.92 12.3988C58.94 12.6258 58.932 12.8758 58.991 13.1038L59.33 14.3468C59.772 15.9388 60.218 17.5408 60.664 19.1488C62.471 25.5738 64.38 32.0658 66.307 38.3208L65.936 38.3888C69.414 48.2948 70.1 58.5838 73.385 68.5168C75.334 79.1148 81.19 89.2938 82.886 100.055C82.83 107.009 88.948 114.485 88.721 121.063C89.274 134.306 94.321 145.944 99.342 157.986C101.434 169.776 107.074 180.596 108.031 192.299C109.391 194.769 109.733 197.658 109.98 200.654C110.103 202.152 110.202 203.675 110.392 205.187C110.488 205.942 110.605 206.695 110.761 207.439C110.843 207.83 110.913 208.14 111.034 208.589C111.155 209.043 111.287 209.494 111.43 209.932C111.43 209.932 111.517 209.805 111.604 209.678C111.693 209.557 111.781 209.436 111.781 209.436C111.635 210.143 111.75 210.848 111.958 211.41C112.169 211.977 112.473 212.399 112.753 212.709C113.57 212.257 114.236 211.838 114.742 211.668C115.254 211.496 115.626 211.568 116.035 212.051L115.775 212.22C116.439 212.597 117.287 211.718 117.621 211.001C118.059 210.258 118.449 209.553 118.953 210.075L118.998 209.517C120.312 209.007 119.312 210.053 120.412 209.977C120.788 209.808 120.312 209.007 121.211 209.081C121.949 211.121 124.405 207.739 125.128 210.06C124.387 210.259 126.532 210.659 125 211.596C125.539 211.709 127.777 210.985 127.307 210.043C127.217 208.935 127.856 207.775 126.258 207.327L126.188 208.172C125.517 207.526 125.731 207.881 125.411 207.349C123.581 207.73 123.041 206.675 121.624 206.558C121.644 206.577 121.661 206.594 121.652 206.639C121.016 207.799 119.648 207.578 118.914 207.634L118.518 207.28C117.853 206.497 116.938 209.581 117.074 207.896C116.112 208.237 116.214 208.275 115.895 208.412C115.643 208.532 115.352 208.647 115.033 208.762C114.905 208.44 114.778 208.042 114.655 207.625C114.364 206.561 114.065 205.472 113.77 204.391C113.032 203.974 112.984 201.244 112.096 202.44C113.106 201.071 112.616 197.938 112.262 196.82C112.394 196.831 112.544 196.841 112.543 197.032C113.622 194.391 110.305 194.844 111.791 192.243C110.266 192.306 111.25 188.385 109.246 187.675C109.498 187.335 109.764 187.173 110.045 187.197C109.085 183.486 108.509 179.258 107.734 176.108C105.755 173.77 106.57 169.475 104.21 167.64C104.068 165.634 103.969 162.355 102.555 159.88L102.838 160.081C101.932 157.105 100.836 153.377 99.188 151.611C100.62 150.275 99.938 149.066 100.125 147.625C98.813 145.827 97.957 141.719 96.435 138.848C97.079 138.172 95.431 136.41 96.508 135.953C92.052 127.959 89.968 117.157 89.146 107.566L89.261 107.678C88.328 106.655 86.605 105.649 85.489 104.653C85.554 104.508 85.744 104.472 85.806 104.727C85.15 103.111 85.829 101.252 85.177 99.6378C85.366 99.6018 85.366 99.6018 85.616 99.8248C84.698 98.3918 85.641 96.3468 84.28 94.7288L84.548 94.5458L83.819 93.4808C84.196 93.4098 84.764 93.3068 84.811 93.9668C81.327 79.5168 75.438 65.2148 71.766 50.4028L72.262 50.8498L70.867 48.1608C71.058 48.1268 71.185 48.2378 71.305 48.3518C70.958 44.5438 68.9 41.0468 68.109 37.4568C68.293 37.4258 68.795 37.8668 68.865 37.3148C67.153 34.9598 69.046 32.7458 66.599 31.9918C66.663 31.8438 67.113 31.6338 67.353 31.8558C66.027 28.2958 64.871 24.6378 63.843 20.9388C63.328 19.0888 62.846 17.2298 62.39 15.3658L61.748 12.6528C61.716 12.5318 61.726 12.4238 61.727 12.2858L61.735 11.6558C61.749 11.2268 61.772 10.7938 61.821 10.3698C61.396 8.92578 61.37 7.36976 61.77 5.98376C62.146 4.57176 63.047 3.46578 64.251 3.04278C65.453 2.54078 66.726 2.96176 67.974 3.71276C69.206 4.52776 70.371 5.63976 71.582 6.76376L71.238 6.95178C71.927 7.69378 72.615 8.60876 73.061 9.44476C73.414 10.4068 73.761 11.4868 74.07 12.5218C74.694 14.6188 75.22 16.7638 75.717 18.9268C76.71 23.2528 77.58 27.6528 78.859 31.8888C79.656 35.4778 80.746 37.7548 81.725 41.3128L81.278 41.5288C84.679 47.0498 83.047 54.5738 86.697 60.3058L85.941 60.0458C87.194 60.7508 86.606 63.9268 88.207 63.1008L87.987 64.3438C91.374 67.9948 89.025 72.3638 91.88 77.1848L91.385 76.9508C92.07 78.2528 92.751 79.8018 92.656 80.9278C92.555 80.7828 92.456 80.8898 92.262 80.5888C91.827 85.3578 94.886 89.7158 96.053 94.3118L95.162 93.9938C96.637 95.9718 96.904 100.252 98.086 103.054L97.688 102.971L98.581 104.31L97.879 104.539C98.846 108.341 100.415 111.741 101.489 115.414Z" fill="black"/>
<path d="M112.535 153.4C112.539 153.387 112.535 153.371 112.547 153.353C112.454 153.256 112.476 153.31 112.535 153.4Z" fill="black"/>
<path d="M121.12 206.538C121.306 206.534 121.462 206.539 121.623 206.559C121.548 206.424 121.277 206.529 121.12 206.538Z" fill="black"/>
<path d="M51.5837 77.5529L51.3547 77.5919L51.9608 77.8039L51.5837 77.5529Z" fill="black"/>
<path d="M52.8719 78.6989C52.9859 78.6789 53.1719 78.7109 53.2889 78.6909L51.5739 77.9299C50.5439 78.1039 53.5579 78.5849 52.8719 78.6989Z" fill="black"/>
<path d="M52.6748 78.8579C52.2388 79.0509 53.0639 79.2249 53.3399 79.3049C52.7029 79.1639 53.5798 78.8909 52.6748 78.8579Z" fill="black"/>
<path d="M51.1969 99.3009C51.1949 99.2789 51.1749 99.2479 51.1499 99.2239C51.1209 99.2579 51.1439 99.2839 51.1969 99.3009Z" fill="black"/>
<path d="M53.5288 104.887L54.1868 105.004C53.0978 103.901 54.4038 102.892 53.9848 101.794L54.2128 101.887C54.7168 99.2449 53.8369 96.6839 53.5769 93.9919C53.6429 94.0389 53.8378 94.0719 53.9108 94.1209C53.6918 93.9719 53.2808 93.7909 53.3508 93.6529C53.5008 93.6299 53.6548 93.7219 53.7178 93.7739C54.8658 93.3169 53.1728 92.0689 54.0518 91.7979C53.9498 91.6299 53.4978 91.5179 53.1428 91.5739C53.0548 89.4779 53.0498 87.2429 52.3848 85.0549C52.5438 84.9679 52.8448 84.9769 53.2198 85.0389C51.6088 83.0719 52.4909 81.2489 52.9519 79.4319C52.4889 79.3179 52.4378 79.5739 51.9698 79.3479C51.3288 79.8869 53.0138 80.5399 52.1138 80.9989L51.6698 80.8879C51.3438 81.2519 52.8008 81.0729 52.1808 81.4249C51.7878 81.5499 51.6098 81.3319 51.5698 81.4029C51.6778 82.2519 51.1908 83.0809 52.2158 83.9659C51.2178 84.0689 52.0988 84.8559 51.1338 85.0769C51.5008 85.3279 51.3818 85.5349 52.0228 85.6769C51.2358 88.5389 51.9088 91.5999 51.5608 94.5749C53.3258 96.1459 50.9108 97.6069 51.3928 99.3219C51.3248 99.3269 51.2528 99.3189 51.1988 99.3019C51.6168 99.8849 51.7648 100.692 51.4718 101.315L52.2218 101.935C50.2158 105.659 51.0048 109.728 49.9558 113.602C49.0678 118.033 47.3398 121.827 49.4328 126.415C49.2488 126.393 49.1438 126.418 49.0778 126.299C49.3438 127.592 48.5548 128.674 48.8418 129.896L48.6558 129.875C49.9448 132.958 47.8788 135.972 49.3018 138.961C48.8128 142.395 48.6198 146.31 48.7648 150.005L48.3908 149.961C48.9118 152.956 46.6598 155.594 46.9898 158.564C45.8548 161.482 48.5708 164.927 47.1478 167.844C45.1298 169.543 48.8578 172.366 46.7828 173.946C43.5658 177.288 45.0968 180.961 46.4898 184.729C45.1538 187.962 47.4838 191.531 45.0888 194.56C46.2908 196.211 43.1288 197.62 43.3598 199.356L43.8308 199.338C42.3618 199.817 45.6808 200.88 43.5468 201.067L43.4578 200.994C42.3598 201.219 45.8968 201.977 44.6118 202.056L45.1328 202.157C45.2478 202.562 44.5308 202.148 44.2928 202.43C44.3488 202.549 45.2478 202.562 44.9238 202.771C42.7658 202.623 45.3018 203.772 42.8808 203.575C42.9008 203.361 41.9118 203.823 41.4498 203.296C41.1888 203.41 41.2478 204.077 42.2808 204.113C43.3648 204.27 44.2908 204.614 45.1708 204.294L44.3848 204.141C45.1918 204.08 44.7908 204.076 45.3908 204.082C45.5438 203.571 46.7038 203.608 47.2168 203.28C47.1938 203.281 47.1718 203.283 47.1308 203.273C46.2028 202.93 46.8008 202.629 46.9548 202.44L47.4038 202.4C48.3408 202.363 45.6538 201.64 47.2238 201.946C46.9278 200.851 47.0599 199.64 47.1499 198.456C46.5639 198.234 47.2899 197.556 46.1029 197.707C47.4549 197.533 47.8728 196.685 47.8508 196.353C47.9738 196.376 48.1148 196.404 48.0598 196.45C49.8368 195.975 46.5388 195.552 48.6948 195.152C47.2198 194.922 49.2688 194.117 47.5558 193.62C47.8918 193.577 48.1928 193.58 48.4528 193.632C48.5858 192.566 49.2298 191.434 49.3818 190.535C48.1528 189.641 50.1448 188.718 48.4088 187.887C48.8408 187.371 49.6728 186.55 49.0218 185.714L49.2348 185.809C49.2108 184.932 49.2168 183.839 48.1428 183.139C49.8868 183.042 49.5788 182.635 50.1638 182.312C49.4198 181.659 49.7628 180.511 49.1188 179.56C49.9258 179.498 48.8488 178.799 50.0078 178.861C48.0118 176.178 49.0738 173.189 51.0018 170.7L51.0798 170.746C50.4778 170.345 49.1158 169.819 48.3318 169.394C48.4358 169.37 48.6268 169.391 48.6128 169.463C48.4428 168.96 49.6188 168.613 49.4528 168.111C49.6418 168.133 49.6418 168.133 49.8178 168.228C49.3458 167.728 50.8258 167.377 49.9828 166.761L50.2908 166.759L49.8948 166.379C50.2748 166.423 50.8468 166.489 50.7068 166.659C51.4628 162.547 49.8818 158.084 50.5618 153.853L50.9088 154.042L50.3378 153.157C50.5298 153.178 50.6198 153.226 50.7028 153.274C51.4468 152.283 50.4709 151.091 50.7279 150.082C50.9139 150.104 51.2678 150.294 51.4918 150.17C50.5218 149.315 52.9548 149.076 50.8318 148.497C50.9358 148.471 51.4239 148.491 51.5899 148.585C51.0699 146.408 51.3118 144.245 51.8588 142.151C50.0688 140.199 52.0218 138.383 50.6388 136.401L51.0278 136.446C49.8818 133.938 51.5768 131.548 51.5318 129.053C51.7838 128.043 51.3868 127.308 51.4578 126.276L51.9458 126.296C50.2568 124.391 53.9448 122.806 52.0778 120.81L52.7268 120.996C51.7288 120.621 53.1879 119.935 51.4259 119.88L51.9868 119.61C49.7858 118.167 53.2618 117.472 51.8988 115.827L52.3058 115.965C52.0208 115.535 51.8068 115.044 52.2168 114.783C52.2718 114.835 52.3968 114.825 52.4968 114.93C54.2598 113.829 52.5698 112.265 52.7558 110.948L53.5168 111.17C52.6668 110.446 53.6218 109.352 53.2848 108.473L53.6428 108.558L53.1678 108.085L53.9028 108.142C54.0538 107.051 53.5158 105.963 53.5288 104.887Z" fill="black"/>
<path d="M53.7179 93.7749C53.7099 93.7769 53.7089 93.7819 53.6929 93.7839C53.7539 93.8219 53.7479 93.8059 53.7179 93.7749Z" fill="black"/>
<path d="M47.3759 203.157C47.3269 203.204 47.2779 203.241 47.2139 203.278C47.3649 203.281 47.3389 203.197 47.3759 203.157Z" fill="black"/>
<path d="M56.5043 77.0765L50.2939 76.5342L48.2871 99.5135L54.4974 100.056L56.5043 77.0765Z" fill="white"/>
<path d="M56.5049 100.245L56.6209 100.227L56.3159 100.129L56.5049 100.245Z" fill="black"/>
<path d="M55.856 99.7137C55.798 99.7227 55.7059 99.7078 55.6479 99.7168L56.5089 100.071C57.0219 99.9907 55.513 99.7657 55.856 99.7137Z" fill="black"/>
<path d="M55.9529 99.6408C56.1699 99.5518 55.7569 99.4708 55.6179 99.4338C55.9369 99.4988 55.5009 99.6248 55.9529 99.6408Z" fill="black"/>
<path d="M56.5708 90.1937C56.5718 90.2037 56.5838 90.2177 56.5948 90.2297C56.6098 90.2137 56.5968 90.2017 56.5708 90.1937Z" fill="black"/>
<path d="M55.3719 87.6098L55.0418 87.5548C55.5938 88.0658 54.9459 88.5308 55.1629 89.0388L55.0489 88.9958C54.8119 90.2168 55.2669 91.4008 55.4129 92.6448C55.3799 92.6228 55.2818 92.6078 55.2448 92.5848C55.3548 92.6538 55.5609 92.7378 55.5279 92.8008C55.4519 92.8118 55.3759 92.7688 55.3429 92.7448C54.7719 92.9548 55.6248 93.5338 55.1878 93.6578C55.2398 93.7358 55.4649 93.7878 55.6429 93.7618C55.6999 94.7308 55.7148 95.7628 56.0598 96.7748C55.9808 96.8158 55.8309 96.8108 55.6429 96.7808C56.4589 97.6918 56.0298 98.5328 55.8098 99.3728C56.0408 99.4258 56.0659 99.3078 56.3009 99.4128C56.6169 99.1648 55.7718 98.8608 56.2188 98.6498L56.4419 98.7018C56.6039 98.5338 55.8769 98.6158 56.1839 98.4528C56.3789 98.3958 56.4688 98.4958 56.4898 98.4638C56.4298 98.0718 56.6699 97.6888 56.1529 97.2788C56.6509 97.2328 56.2058 96.8678 56.6858 96.7668C56.5008 96.6498 56.5589 96.5548 56.2389 96.4888C56.6149 95.1668 56.2598 93.7518 56.4168 92.3768C55.5258 91.6488 56.7248 90.9768 56.4738 90.1838C56.5068 90.1818 56.5428 90.1848 56.5708 90.1928C56.3588 89.9228 56.2809 89.5498 56.4239 89.2618L56.0448 88.9748C57.0248 87.2548 56.6068 85.3738 57.1078 83.5838C57.3158 82.5608 57.6308 81.6108 57.7588 80.6518C57.7908 80.4118 57.8118 80.1718 57.8158 79.9298C57.8178 79.8078 57.8158 79.6868 57.8098 79.5648L57.7838 79.1068C57.7458 78.2918 57.6208 77.5268 57.3488 77.0368C57.4468 76.9788 57.5028 76.9198 57.5368 76.9708C57.4958 76.7378 57.5118 76.4878 57.5468 76.2258C57.0348 76.1538 56.5588 75.9968 55.9298 76.0778L55.9848 75.9888C55.3768 76.1328 54.8738 76.1798 54.4278 76.1818C54.0758 76.1908 53.7249 76.1488 53.3749 76.1098C53.0049 76.0678 52.7248 76.0358 52.2838 76.0458C51.8328 76.0548 51.4018 76.1208 51.1228 76.3088C50.7688 76.2678 50.4078 76.2268 49.9978 76.1798C49.9238 76.9308 49.8689 77.7598 49.8459 78.5548C49.8279 79.2738 49.8408 79.9708 49.8788 80.6678L49.6908 80.6468C49.9678 82.0308 48.8589 83.2488 49.0409 84.6218C48.4919 85.9688 49.8689 87.5638 49.1759 88.9108C48.1769 89.6938 50.0568 91.0018 49.0298 91.7298C47.4418 93.2718 48.2278 94.9708 48.9458 96.7128C48.5368 97.7198 48.8629 98.4478 48.9029 99.0178C49.4009 99.0068 49.6548 99.0858 50.0548 99.5218C50.7598 98.9058 51.4509 100.482 52.2409 100.355L52.2328 100.12C52.4528 100.851 52.9468 99.1858 53.0318 100.251L52.9978 100.296C53.1008 100.843 53.4539 99.0708 53.4889 99.7128L53.5359 99.4528C53.7239 99.3928 53.5318 99.7528 53.6618 99.8698C53.7178 99.8418 53.7239 99.3918 53.8199 99.5528C53.7499 100.632 54.2829 99.3588 54.1899 100.569C54.0899 100.561 54.3029 101.052 54.0589 101.286C54.1119 101.415 54.4198 101.382 54.4378 100.866C54.5108 100.323 54.6698 99.8588 54.5238 99.4208L54.4519 99.8148C54.4249 99.4128 54.4229 99.6118 54.4269 99.3128C54.1909 99.2388 54.2088 98.6588 54.0578 98.4048C54.0578 98.4168 54.0589 98.4278 54.0539 98.4478C53.8959 98.9128 53.7569 98.6158 53.6689 98.5408L53.6509 98.3158C53.6339 97.8488 53.2979 99.1948 53.4399 98.4088C52.9339 98.5628 52.3749 98.5048 51.8279 98.4668C51.7249 98.7608 51.4118 98.4028 51.4798 98.9948C51.4008 98.3198 51.0089 98.1168 50.8559 98.1288C50.8679 98.0668 50.8789 97.9968 50.9009 98.0238C50.7929 97.5818 50.6878 97.7728 50.5888 97.9408C50.5288 98.1118 50.4779 98.2598 50.5639 97.7378C50.4829 98.1048 50.4599 98.0428 50.4499 97.9988C50.4349 97.9548 50.4428 97.9278 50.1848 98.3458C50.2588 98.1858 50.3408 98.0428 50.4148 97.9168C50.3508 97.8978 50.4328 97.7358 50.5288 97.6558C50.5508 97.6368 50.5669 97.6228 50.5829 97.6098C50.2329 97.8508 50.3169 97.7408 50.3639 97.7068C50.4109 97.6578 50.4208 97.6768 49.9638 97.7308C50.1688 97.5778 50.5359 97.7038 50.2179 97.1718L50.3249 97.2158C50.3069 96.8098 50.3049 96.3048 49.7629 95.9808C50.6339 95.9378 50.4769 95.7488 50.7679 95.5998C50.3929 95.2968 50.5569 94.7668 50.2309 94.3268C50.6329 94.2988 50.0908 93.9748 50.6698 94.0048C49.6558 92.7628 50.1698 91.3818 51.1178 90.2338L51.1579 90.2548C50.8549 90.0678 50.1709 89.8248 49.7759 89.6278C49.8279 89.6168 49.9228 89.6268 49.9178 89.6598C49.8298 89.4278 50.4158 89.2678 50.3288 89.0358C50.4238 89.0458 50.4239 89.0458 50.5129 89.0898C50.2739 88.8588 51.0118 88.6978 50.5858 88.4118H50.7398L50.5398 88.2358C50.7298 88.2568 51.0169 88.2868 50.9469 88.3658C51.3009 86.4668 50.4838 84.4018 50.7998 82.4478L50.9748 82.5358L50.6839 82.1258C50.7799 82.1368 50.8249 82.1588 50.8669 82.1808C51.2329 81.7228 50.7388 81.1718 50.8618 80.7058C50.9538 80.7158 51.1328 80.8038 51.2428 80.7468C50.7538 80.3508 51.9679 80.2428 50.9029 79.9728C50.9559 79.9608 51.1999 79.9708 51.2829 80.0148C51.2159 79.7638 51.1708 79.5118 51.1458 79.2618C51.1198 79.0298 51.1239 78.7028 51.1219 78.6228C51.1279 78.3538 51.1989 78.0938 51.3009 77.9408C51.1629 77.7408 51.0718 77.5538 51.0108 77.3858C51.0608 77.1868 51.3808 77.2458 51.6358 77.2668C51.9128 77.2898 52.1088 77.2748 52.4738 76.9778L52.4529 77.1718C53.0329 76.8778 53.5989 76.9398 54.1639 77.0688C54.7449 77.1998 55.1028 77.3808 55.6288 77.3578C55.7898 77.4108 55.9769 77.3918 56.1949 77.3628C56.2339 77.4908 56.2869 77.6278 56.2729 77.8488L56.0149 78.0048C56.4749 78.0758 56.2119 78.6778 55.9868 79.0028C55.7588 79.3418 55.5328 79.8048 56.0078 80.2518L55.6819 80.1658C56.1829 80.3398 55.4569 80.6558 56.3379 80.6828L56.0598 80.8068C57.1678 81.4758 55.4359 81.7938 56.1249 82.5558L55.9218 82.4918C56.0668 82.6908 56.1759 82.9178 55.9729 83.0378C55.9459 83.0138 55.8828 83.0178 55.8318 82.9698C54.9568 83.4768 55.8108 84.2018 55.7268 84.8098L55.3448 84.7068C55.7738 85.0418 55.3028 85.5468 55.4768 85.9538L55.2968 85.9138L55.5368 86.1328L55.1698 86.1058C55.0978 86.6098 55.3719 87.1128 55.3719 87.6098Z" fill="black"/>
<path d="M55.344 92.7458C55.348 92.7448 55.348 92.7428 55.357 92.7418C55.326 92.7238 55.329 92.7308 55.344 92.7458Z" fill="black"/>
<path d="M54 98.3247C54.021 98.3487 54.038 98.3727 54.056 98.4047C54.058 98.3297 54.019 98.3427 54 98.3247Z" fill="black"/>
<path d="M52.0928 75.3248L51.9758 75.3258L52.2568 75.4808L52.0928 75.3248Z" fill="black"/>
<path d="M52.6299 76.0078C52.6889 76.0078 52.7768 76.0388 52.8368 76.0378L52.0558 75.5118C51.5338 75.5178 52.9799 76.0058 52.6299 76.0078Z" fill="black"/>
<path d="M52.5199 76.0739C52.2889 76.1369 52.6789 76.2919 52.8089 76.3559C52.5069 76.2319 52.9619 76.1639 52.5199 76.0739Z" fill="black"/>
<path d="M49.848 86.3578C49.849 86.3468 49.8419 86.3288 49.8319 86.3148C49.8139 86.3288 49.824 86.3438 49.848 86.3578Z" fill="black"/>
<path d="M50.4039 89.4269L50.7149 89.5519C50.3009 88.8819 51.0468 88.4969 50.9568 87.8949L51.0589 87.9639C51.5849 86.6639 51.4138 85.2729 51.5528 83.8759C51.5799 83.9059 51.6719 83.9399 51.7029 83.9729C51.6099 83.8769 51.4259 83.7469 51.4739 83.6829C51.5499 83.6849 51.6168 83.7459 51.6418 83.7779C52.2518 83.6489 51.5419 82.8589 51.9999 82.7989C51.9659 82.7039 51.7548 82.6069 51.5738 82.6029C51.7338 81.5259 51.9439 80.3839 51.8179 79.2099C51.9049 79.1789 52.0509 79.2099 52.2309 79.2739C51.6179 78.1319 52.2179 77.2789 52.6049 76.3879C52.3869 76.2919 52.3389 76.4179 52.1269 76.2639C51.7649 76.4859 52.5368 76.9579 52.0528 77.1179L51.8429 77.0239C51.6499 77.1829 52.3839 77.2119 52.0469 77.3399C51.8419 77.3709 51.7739 77.2449 51.7479 77.2779C51.7249 77.7199 51.4099 78.1009 51.8329 78.6389C51.3319 78.6059 51.6929 79.0829 51.1979 79.1129C51.3549 79.2729 51.2769 79.3669 51.5799 79.4949C50.9279 80.8849 50.9669 82.5039 50.4999 83.9859C51.2129 84.9499 49.8779 85.4679 49.9389 86.3839C49.9059 86.3799 49.8709 86.3689 49.8459 86.3559C49.9919 86.6919 49.9799 87.1169 49.7709 87.4049L50.0749 87.7929C48.6999 89.4859 48.6418 91.6259 47.6728 93.4629C46.7108 95.6039 45.4119 97.2529 45.7529 99.7899C45.6679 99.7529 45.6138 99.7509 45.5998 99.6829C45.5708 100.02 45.4139 100.29 45.2659 100.557C45.1239 100.794 44.9379 101.146 44.9679 101.317L44.8869 101.27C45.0359 101.899 44.7438 102.456 44.4828 102.873C44.3498 103.092 44.2119 103.29 44.0589 103.593C43.8989 103.886 43.7299 104.328 43.3649 104.909C43.1839 104.954 42.9709 104.853 42.8609 104.681C42.7349 104.522 42.6589 104.332 42.5879 104.147C42.4539 103.771 42.3779 103.389 42.2919 103.005C42.1399 102.226 42.0049 101.448 41.8539 100.476L42.0419 100.469C41.8399 99.7319 42.0319 98.9679 42.2099 98.2469C42.3819 97.5179 42.7259 96.8309 42.6579 96.0709C42.9369 95.3459 42.9339 94.5539 42.8559 93.7049C42.7679 92.8569 42.8779 92.0219 43.3829 91.3649C43.9579 91.0579 43.9329 90.4619 43.9159 89.8459C43.9019 89.2369 43.8719 88.5969 44.5179 88.3969C45.6139 87.8789 46.0879 87.1289 46.4399 86.2729C46.6029 85.8399 46.7059 85.3679 46.7839 84.8689C46.8819 84.3829 46.9579 83.8729 47.0419 83.3549C48.4269 82.2149 48.4659 80.0009 50.3899 79.3819C50.4049 78.3199 52.1259 78.6749 52.5789 77.9169L52.3899 77.7769C53.1169 78.0479 52.1779 76.5739 53.0649 77.1739L53.0759 77.2319C53.5679 77.4959 52.4719 76.0609 52.9909 76.4409L52.8279 76.2329C52.9239 76.0339 53.0539 76.4309 53.2399 76.3969C53.2599 76.3319 52.9239 76.0329 53.1189 76.0559C53.8769 76.8209 53.3309 75.5379 54.1619 76.4219C54.0839 76.4949 54.6019 76.6559 54.5989 77.0059C54.7379 77.0449 54.9178 76.8009 54.5608 76.4309C54.2228 75.9999 54.0139 75.5479 53.5759 75.3699L53.8058 75.6989C53.4868 75.4489 53.6319 75.5869 53.4119 75.3819C53.1699 75.5339 52.7509 75.1329 52.4329 75.0999C52.4419 75.1069 52.4508 75.1139 52.4618 75.1309C52.6868 75.5739 52.3579 75.5009 52.2309 75.5289L52.0439 75.3999C51.6709 75.1149 52.4459 76.2739 51.9509 75.6449C51.6809 76.1919 51.2139 76.6459 50.7909 77.1229C50.9519 77.3939 50.4399 77.4609 50.9639 77.7549C50.3699 77.4209 49.9149 77.6559 49.8209 77.8079C49.7789 77.7619 49.7309 77.7089 49.7679 77.7039C48.8949 77.3939 50.1019 78.5369 49.0969 78.0879C49.6289 78.6109 48.5318 78.3789 49.0818 79.0809C48.9298 79.0049 48.8069 78.9189 48.7139 78.8229C48.3359 79.2609 47.7268 79.5959 47.3888 79.9609C47.6448 80.6859 46.5399 80.6069 47.0489 81.4309C46.7249 81.5599 46.1109 81.7229 46.1839 82.2849L46.1159 82.1879C45.8969 82.6099 45.6069 83.1309 45.9069 83.7059C45.1039 83.3519 45.1338 83.6159 44.7898 83.6409C44.9658 84.1269 44.5388 84.6159 44.6078 85.2129C44.2248 85.0769 44.5529 85.6369 44.0379 85.3729C44.3489 87.1059 43.2879 88.3289 41.9529 89.3799L41.9239 89.3449C42.1419 89.6429 42.7079 90.1029 43.0179 90.4229C42.9629 90.4219 42.8739 90.3839 42.8929 90.3499C42.8869 90.6219 42.2919 90.6589 42.3019 90.9429C42.2119 90.9079 42.2119 90.9079 42.1399 90.8369C42.3039 91.1559 41.5379 91.1699 41.8679 91.5919L41.7179 91.5589L41.8619 91.8019C41.6819 91.7389 41.4109 91.6419 41.5029 91.5659C41.0009 92.6079 40.9819 93.8369 40.8949 95.0019C40.8929 95.5979 40.9289 96.1949 40.9139 96.7789C40.9079 97.0709 40.8939 97.3619 40.8669 97.6499C40.8589 97.9409 40.8579 98.2319 40.8289 98.5219L40.6499 98.4259L40.9609 98.8919C40.8649 98.8859 40.8179 98.8629 40.7749 98.8399C40.4409 99.4239 40.9388 99.9889 40.8788 100.596C40.7868 100.601 40.5978 100.515 40.4958 100.612C41.0388 101.033 39.8478 101.467 40.9488 101.584C40.9018 101.622 40.6639 101.708 40.5729 101.666C40.8119 102.491 40.9669 103.229 41.1399 103.935C41.2929 104.667 41.4939 105.302 41.7629 105.89C42.0089 105.821 42.1858 105.874 42.3788 105.986C42.5658 106.094 42.8178 106.25 43.0998 106.224C43.6358 106.156 44.0239 105.832 44.3019 104.98L44.3219 105.23C44.6929 104.297 44.9589 103.741 45.3339 103.214C45.6889 102.705 46.1609 102.027 46.3539 101.4C46.6389 100.934 46.5629 100.509 46.7499 100.004L46.9809 100.082C46.4489 98.9059 48.4509 98.5869 47.8139 97.3389L48.1029 97.5129C47.6689 97.2009 48.4659 97.0329 47.6189 96.7909L47.9269 96.7229C47.0419 95.7349 48.8199 95.7939 48.3589 94.8029L48.5409 94.9189C48.4539 94.6689 48.4089 94.3969 48.6399 94.3109C48.6609 94.3429 48.7238 94.3519 48.7588 94.4159C49.7528 94.0539 49.1129 93.0719 49.3549 92.4249L49.7009 92.6189C49.3689 92.1609 49.9609 91.7059 49.8939 91.2229L50.0599 91.3039L49.8799 91.0139L50.2339 91.1189C50.4249 90.5819 50.2819 89.9729 50.4039 89.4269Z" fill="black"/>
<path d="M51.6419 83.7788C51.6379 83.7788 51.6379 83.7818 51.6289 83.7818C51.6559 83.8068 51.6539 83.7978 51.6419 83.7788Z" fill="black"/>
<path d="M52.3269 75.0988C52.3619 75.0958 52.3949 75.0968 52.4329 75.1018C52.3769 75.0508 52.3549 75.0938 52.3269 75.0988Z" fill="black"/>
<path d="M37.8021 203.63L38.0251 203.56L37.394 203.434L37.8021 203.63Z" fill="black"/>
<path d="M36.3691 202.675C36.2581 202.71 36.069 202.704 35.957 202.74L37.7621 203.256C38.7551 202.941 35.7041 202.883 36.3691 202.675Z" fill="black"/>
<path d="M36.5399 202.489C36.9439 202.237 36.1038 202.18 35.8188 202.139C36.4698 202.191 35.6409 202.583 36.5399 202.489Z" fill="black"/>
<path d="M35.1599 182.04C35.1649 182.061 35.1889 182.089 35.2169 182.109C35.2419 182.071 35.2139 182.05 35.1599 182.04Z" fill="black"/>
<path d="M32.073 176.833L31.4039 176.809C32.6359 177.749 31.484 178.931 32.052 179.96L31.814 179.899C31.681 182.586 32.9099 185 33.5419 187.628C33.4699 187.59 33.2729 187.585 33.1929 187.546C33.4299 187.663 33.863 187.785 33.812 187.932C33.666 187.976 33.501 187.906 33.432 187.863C32.359 188.475 34.2079 189.476 33.3759 189.867C33.4999 190.018 33.963 190.066 34.307 189.963C34.687 192.025 35.001 194.237 35.965 196.312C35.819 196.421 35.52 196.454 35.14 196.444C37.01 198.168 36.388 200.096 36.187 201.96C36.66 202.009 36.675 201.748 37.171 201.907C37.73 201.284 35.9699 200.872 36.7979 200.292L37.2529 200.34C37.5259 199.934 36.1079 200.315 36.6729 199.88C37.0439 199.701 37.251 199.893 37.281 199.817C37.055 198.992 37.423 198.102 36.286 197.369C37.26 197.129 36.276 196.472 37.202 196.118C36.804 195.921 36.8929 195.7 36.2379 195.648C36.6199 192.705 35.528 189.766 35.458 186.773C33.491 185.462 35.6809 183.68 34.9639 182.048C35.0299 182.033 35.103 182.032 35.1589 182.041C34.6629 181.521 34.4049 180.743 34.6079 180.085L33.7789 179.576C35.2469 175.608 33.8989 171.689 34.3989 167.707C34.6609 163.195 35.8439 159.198 33.1329 154.945C33.3179 154.942 33.4179 154.902 33.5009 155.011C33.0589 153.767 33.689 152.585 33.234 151.416L33.422 151.411C31.716 148.537 33.343 145.265 31.518 142.503C31.524 139.035 31.169 135.132 30.512 131.493L30.8889 131.483C29.9549 128.59 31.819 125.665 31.08 122.769C31.797 119.722 28.6269 116.689 29.6309 113.602C31.3929 111.639 27.309 109.362 29.143 107.509C31.864 103.752 29.8359 100.328 27.9329 96.7897C28.8049 93.4017 26.002 90.1927 27.953 86.8597C26.533 85.3917 29.469 83.5567 28.999 81.8697L28.5349 81.9528C29.9229 81.2738 26.488 80.6817 28.575 80.2017L28.674 80.2617C29.73 79.8867 26.122 79.6288 27.382 79.3708L26.853 79.3437C26.683 78.9587 27.4499 79.2688 27.6459 78.9568C27.5759 78.8458 26.683 78.9588 26.974 78.7068C29.132 78.5528 26.4599 77.7677 28.8859 77.6257C28.8959 77.8407 29.81 77.2448 30.341 77.7028C30.583 77.5538 30.4319 76.9017 29.4039 77.0097C28.3079 77.0057 27.3439 76.7937 26.5159 77.2337L27.317 77.2758C26.527 77.4478 26.9229 77.3968 26.3289 77.4738C26.2489 78.0008 25.095 78.1247 24.632 78.5217C24.655 78.5167 24.677 78.5127 24.718 78.5157C25.685 78.7267 25.1349 79.1077 25.0089 79.3167L24.57 79.4187C23.648 79.5857 26.4089 79.9267 24.8109 79.8437C25.2549 80.8867 25.2939 82.1047 25.3699 83.2897C25.9819 83.4277 25.357 84.2007 26.512 83.8867C25.198 84.2457 24.9029 85.1448 24.9689 85.4698C24.8439 85.4638 24.7009 85.4557 24.7479 85.4027C23.0549 86.1197 26.3789 86.0807 24.2999 86.7767C25.7929 86.7997 23.8749 87.8807 25.6419 88.1357C25.3149 88.2247 25.0179 88.2627 24.7509 88.2487C24.7679 89.3227 24.287 90.5337 24.262 91.4437C25.604 92.1577 23.7599 93.3497 25.5939 93.9307C25.2389 94.5017 24.529 95.4307 25.289 96.1677L25.064 96.1037C25.21 96.9697 25.3549 98.0517 26.5169 98.5957C24.8029 98.9347 25.1659 99.2947 24.6309 99.6967C25.4579 100.24 25.2779 101.425 26.0479 102.277C25.2579 102.45 26.42 102.993 25.265 103.093C27.615 105.471 26.9789 108.58 25.4169 111.312L25.333 111.277C25.984 111.591 27.406 111.922 28.242 112.234C28.143 112.273 27.9509 112.278 27.9539 112.204C28.1909 112.679 27.0749 113.185 27.3109 113.659C27.1189 113.664 27.119 113.664 26.932 113.595C27.468 114.025 26.0509 114.577 26.9719 115.071L26.6679 115.115L27.112 115.436C26.73 115.446 26.1539 115.459 26.2689 115.271C26.0929 119.448 28.28 123.647 28.195 127.932L27.8239 127.792L28.513 128.59C28.32 128.595 28.2239 128.56 28.1359 128.524C27.5359 129.61 28.669 130.653 28.554 131.689C28.368 131.693 27.99 131.555 27.786 131.709C28.865 132.421 26.4889 132.995 28.6729 133.274C28.5729 133.314 28.0869 133.361 27.9089 133.292C28.7269 135.375 28.789 137.551 28.539 139.7C30.583 141.384 28.902 143.453 30.546 145.224L30.1549 145.234C31.6389 147.558 30.2939 150.161 30.6859 152.624C30.5769 153.66 31.071 154.333 31.145 155.364L30.6589 155.413C32.5969 157.064 29.1649 159.147 31.2919 160.865L30.624 160.771C31.664 161.003 30.3129 161.885 32.0659 161.695L31.5479 162.041C33.9299 163.163 30.582 164.335 32.161 165.773L31.739 165.694C32.082 166.081 32.361 166.537 31.992 166.852C31.93 166.808 31.8079 166.835 31.6929 166.746C30.1009 168.082 31.992 169.395 31.992 170.725L31.2069 170.612C32.1489 171.21 31.3559 172.426 31.8129 173.251L31.447 173.217L31.9819 173.619L31.2459 173.665C31.2509 174.764 31.935 175.767 32.073 176.833Z" fill="black"/>
<path d="M33.4321 187.863C33.4391 187.86 33.439 187.855 33.454 187.85C33.389 187.821 33.3981 187.837 33.4321 187.863Z" fill="black"/>
<path d="M24.49 78.6638C24.531 78.6118 24.575 78.5667 24.633 78.5217C24.484 78.5397 24.52 78.6198 24.49 78.6638Z" fill="black"/>
<path d="M28.5875 76.1253L22.3633 76.4507L23.5674 99.4854L29.7916 99.16L28.5875 76.1253Z" fill="white"/>
<path d="M31.828 99.0618L31.939 99.0288L31.624 98.9728L31.828 99.0618Z" fill="black"/>
<path d="M31.111 98.6267C31.055 98.6437 30.962 98.6417 30.906 98.6587L31.808 98.8887C32.304 98.7387 30.779 98.7257 31.111 98.6267Z" fill="black"/>
<path d="M31.197 98.5408C31.399 98.4228 30.9789 98.3998 30.8369 98.3828C31.1619 98.4028 30.748 98.5878 31.197 98.5408Z" fill="black"/>
<path d="M30.4949 89.0997C30.4979 89.1097 30.5099 89.1217 30.5229 89.1317C30.5359 89.1137 30.5219 89.1037 30.4949 89.0997Z" fill="black"/>
<path d="M28.9489 86.7078L28.6149 86.6998C29.2309 87.1288 28.6559 87.6788 28.9399 88.1528L28.8209 88.1258C28.7569 89.3678 29.372 90.4778 29.689 91.6888C29.653 91.6718 29.554 91.6698 29.515 91.6528C29.633 91.7058 29.849 91.7598 29.825 91.8278C29.752 91.8488 29.6699 91.8168 29.6349 91.7978C29.0989 92.0858 30.0239 92.5398 29.6079 92.7238C29.6699 92.7938 29.903 92.8138 30.075 92.7638C30.264 93.7158 30.4249 94.7358 30.9069 95.6898C30.8349 95.7408 30.6839 95.7568 30.4949 95.7538C31.4309 96.5418 31.121 97.4358 31.02 98.2968C31.256 98.3178 31.264 98.1968 31.512 98.2678C31.791 97.9778 30.912 97.7948 31.325 97.5238L31.5529 97.5438C31.6899 97.3558 30.981 97.5368 31.262 97.3338C31.448 97.2498 31.551 97.3368 31.567 97.3018C31.454 96.9218 31.6369 96.5098 31.0679 96.1758C31.5549 96.0608 31.063 95.7608 31.525 95.5938C31.327 95.5048 31.3709 95.4018 31.0439 95.3808C31.2319 94.0188 30.6849 92.6668 30.6479 91.2838C29.6649 90.6878 30.7569 89.8538 30.3979 89.1038C30.4319 89.0968 30.4669 89.0958 30.4959 89.0998C30.2479 88.8618 30.1179 88.5028 30.2199 88.1988L29.8059 87.9668C30.5359 86.1278 29.8609 84.3228 30.1089 82.4808C30.1729 81.4378 30.3519 80.4538 30.3449 79.4858C30.3439 79.2438 30.3309 79.0028 30.3019 78.7628C30.2859 78.6418 30.268 78.5218 30.244 78.4018L30.1539 77.9528C30.0039 77.1508 29.772 76.4108 29.434 75.9628C29.524 75.8918 29.5709 75.8258 29.6119 75.8708C29.5389 75.6448 29.5189 75.3948 29.5179 75.1288C29.0019 75.1288 28.5079 75.0398 27.8989 75.2078L27.9399 75.1118C27.3569 75.3388 26.867 75.4558 26.424 75.5198C26.076 75.5778 25.7229 75.5848 25.3709 75.5948C24.9999 75.6048 24.716 75.6128 24.283 75.6828C23.837 75.7538 23.4199 75.8798 23.1679 76.1048C22.8129 76.1138 22.4489 76.1238 22.0349 76.1338C22.0649 76.8878 22.128 77.7158 22.215 78.5068C22.299 79.2208 22.406 79.9088 22.541 80.5928L22.353 80.5988C22.821 81.9318 21.89 83.2908 22.262 84.6248C21.906 86.0358 23.491 87.4238 22.991 88.8538C22.112 89.7688 24.155 90.8028 23.239 91.6658C21.882 93.4138 22.8959 94.9868 23.8499 96.6128C23.5839 97.6668 24.009 98.3428 24.127 98.9028C24.618 98.8228 24.8809 98.8658 25.3369 99.2418C25.9499 98.5338 26.8539 99.9988 27.6169 99.7638L27.577 99.5318C27.896 100.225 28.154 98.5078 28.387 99.5518L28.3599 99.6008C28.5379 100.129 28.6409 98.3248 28.7659 98.9548L28.7759 98.6898C28.9539 98.6048 28.8129 98.9878 28.9579 99.0858C29.0099 99.0498 28.9539 98.6048 29.0709 98.7498C29.1509 99.8288 29.5029 98.4928 29.5789 99.7048C29.4789 99.7098 29.7589 100.167 29.5499 100.433C29.6189 100.554 29.9189 100.478 29.8649 99.9648C29.8619 99.4168 29.9559 98.9348 29.7499 98.5218L29.7329 98.9218C29.6509 98.5268 29.675 98.7258 29.637 98.4278C29.394 98.3878 29.3309 97.8108 29.1459 97.5798C29.1489 97.5918 29.1509 97.6028 29.1489 97.6228C29.0549 98.1058 28.8779 97.8308 28.7799 97.7688L28.731 97.5488C28.651 97.0878 28.5039 98.4688 28.5359 97.6698C28.0569 97.8928 27.494 97.9128 26.947 97.9508C26.885 98.2568 26.526 97.9448 26.676 98.5218C26.504 97.8648 26.0879 97.7178 25.9379 97.7508C25.9399 97.6888 25.9429 97.6168 25.9669 97.6408C25.7989 97.2178 25.7219 97.4218 25.6469 97.6008C25.6119 97.7788 25.581 97.9318 25.593 97.4028C25.565 97.7778 25.5309 97.7188 25.5159 97.6768C25.4949 97.6348 25.5 97.6078 25.301 98.0558C25.354 97.8878 25.4149 97.7348 25.4709 97.5988C25.4049 97.5888 25.4629 97.4168 25.5469 97.3248C25.5669 97.3028 25.5799 97.2868 25.5939 97.2708C25.2819 97.5578 25.3499 97.4378 25.3909 97.3968C25.4309 97.3418 25.4439 97.3588 24.9979 97.4758C25.1799 97.2968 25.5599 97.3678 25.1719 96.8858L25.2839 96.9148C25.2109 96.5158 25.1379 96.0168 24.5559 95.7698C25.4119 95.6058 25.2309 95.4408 25.4969 95.2528C25.0829 95.0058 25.173 94.4578 24.788 94.0668C25.183 93.9838 24.6 93.7378 25.179 93.6868C24.003 92.5988 24.32 91.1598 25.098 89.8908L25.14 89.9068C24.814 89.7648 24.1029 89.6178 23.6849 89.4778C23.7349 89.4588 23.831 89.4558 23.83 89.4898C23.711 89.2718 24.268 89.0328 24.15 88.8148C24.246 88.8118 24.2459 88.8118 24.3389 88.8428C24.0699 88.6468 24.7779 88.3848 24.3179 88.1608L24.4699 88.1398L24.2469 87.9938C24.4379 87.9878 24.7259 87.9788 24.6689 88.0658C24.7549 86.1358 23.6589 84.2048 23.6979 82.2258L23.8839 82.2888L23.5389 81.9228C23.6359 81.9198 23.6829 81.9358 23.7269 81.9518C24.0259 81.4478 23.4589 80.9708 23.5159 80.4918C23.6099 80.4888 23.797 80.5518 23.9 80.4788C23.36 80.1548 24.5469 79.8788 23.4559 79.7598C23.5059 79.7408 23.749 79.7168 23.838 79.7478C23.735 79.5078 23.656 79.2658 23.598 79.0208C23.54 78.7938 23.4969 78.4718 23.4839 78.3928C23.4529 78.1258 23.488 77.8578 23.567 77.6918C23.404 77.5138 23.2869 77.3418 23.2029 77.1848C23.2239 76.9798 23.5509 76.9938 23.8049 76.9788C24.0839 76.9638 24.2759 76.9218 24.5969 76.5758L24.6039 76.7708C25.1369 76.3988 25.7059 76.3808 26.2839 76.4318C26.8759 76.4808 27.2569 76.6098 27.7729 76.5148C27.9399 76.5448 28.1219 76.4998 28.3339 76.4408C28.3909 76.5628 28.4619 76.6908 28.4799 76.9128L28.2459 77.1038C28.7119 77.1108 28.5359 77.7428 28.3569 78.0958C28.1789 78.4638 28.0189 78.9538 28.5499 79.3298L28.2159 79.2888C28.7359 79.3918 28.062 79.8058 28.937 79.7098L28.679 79.8718C29.87 80.3798 28.1989 80.9358 28.9879 81.5938L28.7769 81.5588C28.9489 81.7358 29.0889 81.9458 28.9039 82.0928C28.8729 82.0728 28.8119 82.0858 28.7559 82.0448C27.9599 82.6688 28.9059 83.2678 28.9059 83.8818L28.5139 83.8328C28.9859 84.1048 28.5889 84.6708 28.8179 85.0488L28.6349 85.0348L28.903 85.2188L28.5349 85.2428C28.5369 85.7548 28.8789 86.2158 28.9489 86.7078Z" fill="black"/>
<path d="M29.634 91.7977C29.638 91.7967 29.638 91.7937 29.646 91.7917C29.613 91.7777 29.617 91.7847 29.634 91.7977Z" fill="black"/>
<path d="M29.0811 97.5088C29.1041 97.5298 29.1261 97.5508 29.1461 97.5798C29.1381 97.5068 29.1011 97.5248 29.0811 97.5088Z" fill="black"/>
<path d="M23.001 75.5098L22.8931 75.5508L23.2111 75.5878L23.001 75.5098Z" fill="black"/>
<path d="M23.7458 75.9178C23.8008 75.8968 23.8939 75.8938 23.9499 75.8728L23.0338 75.6848C22.5468 75.8678 24.0718 75.7958 23.7458 75.9178Z" fill="black"/>
<path d="M23.6651 76.0128C23.4721 76.1468 23.8921 76.1478 24.0351 76.1588C23.7101 76.1538 24.1121 75.9388 23.6651 76.0128Z" fill="black"/>
<path d="M24.7911 85.8798C24.7881 85.8698 24.7751 85.8568 24.7621 85.8468C24.7501 85.8658 24.7641 85.8758 24.7911 85.8798Z" fill="black"/>
<path d="M26.388 88.3718L26.723 88.3768C26.1 87.9308 26.665 87.3428 26.37 86.8478L26.489 86.8738C26.525 85.5618 25.875 84.4038 25.512 83.1398C25.549 83.1568 25.648 83.1558 25.688 83.1728C25.567 83.1208 25.35 83.0698 25.372 82.9978C25.444 82.9738 25.528 83.0038 25.563 83.0238C26.088 82.7048 25.145 82.2558 25.553 82.0488C25.489 81.9778 25.256 81.9648 25.086 82.0228C24.856 81.0298 24.649 79.9628 24.117 78.9838C24.187 78.9268 24.336 78.9038 24.526 78.8988C23.55 78.1138 23.81 77.1668 23.856 76.2578C23.619 76.2498 23.619 76.3758 23.367 76.3148C23.105 76.6318 23.996 76.7778 23.598 77.0828L23.369 77.0738C23.245 77.2778 23.941 77.0518 23.672 77.2788C23.492 77.3758 23.383 77.2898 23.37 77.3268C23.505 77.7198 23.345 78.1588 23.932 78.4818C23.452 78.6248 23.957 78.9158 23.505 79.1108C23.708 79.1958 23.669 79.3048 23.997 79.3128C23.877 80.7468 24.482 82.1428 24.569 83.5928C25.574 84.1918 24.508 85.0948 24.887 85.8728C24.854 85.8808 24.818 85.8828 24.789 85.8798C25.044 86.1238 25.182 86.4978 25.088 86.8188L25.508 87.0558C24.816 88.9958 25.508 90.8818 25.24 92.8088C25.083 94.9988 24.436 96.8518 25.62 98.9658C25.528 98.9598 25.475 98.9748 25.439 98.9198C25.612 99.5198 25.233 100.084 25.393 100.6L25.299 100.588C25.644 101.177 25.559 101.674 25.436 102.149C25.375 102.382 25.305 102.6 25.238 102.898C25.168 103.187 25.1 103.613 24.884 104.088C24.504 104.084 24.194 103.791 23.951 103.525C23.705 103.246 23.48 102.954 23.266 102.646L22.611 101.681C22.39 101.328 22.107 100.933 21.902 100.549L22.074 100.474C21.627 99.9018 21.499 99.1888 21.394 98.5018C21.368 97.7828 21.363 97.0908 21.034 96.4578C21.08 95.7228 20.75 95.0518 20.373 94.3418C20.018 93.6348 19.799 92.8668 20.036 92.1248C20.456 91.6668 20.263 91.1568 20.012 90.6188C19.783 90.0878 19.528 89.5288 20.079 89.1528C20.918 88.3558 21.121 87.5598 21.162 86.6968C21.154 85.8298 20.934 84.8958 20.764 83.9158C21.217 83.1918 21.317 82.3728 21.444 81.5468C21.618 80.7428 21.835 79.9378 22.651 79.4298C22.335 78.4518 24.064 78.3498 24.256 77.5488L24.035 77.4668C24.799 77.5408 23.472 76.4108 24.484 76.7508L24.511 76.8018C25.054 76.9288 23.593 75.8678 24.195 76.0938L23.979 75.9408C24.009 75.7338 24.25 76.0698 24.416 75.9938C24.415 75.9288 24.01 75.7338 24.199 75.7078C25.139 76.2358 24.246 75.1778 25.287 75.8018C25.234 75.8868 25.767 75.9168 25.869 76.2398C26.011 76.2428 26.103 75.9838 25.66 75.7208C25.218 75.3978 24.89 75.0268 24.428 74.9628L24.74 75.2138C24.368 75.0568 24.544 75.1508 24.278 75.0118C24.094 75.2108 23.583 74.9378 23.274 74.9838C23.285 74.9878 23.295 74.9918 23.311 75.0048C23.651 75.3628 23.323 75.3738 23.21 75.4308L22.996 75.3558C22.56 75.1828 23.635 76.0678 22.982 75.6058C22.888 76.1778 22.589 76.7128 22.334 77.2558C22.567 77.4658 22.107 77.6548 22.689 77.7948C22.027 77.6348 21.675 77.9678 21.628 78.1298C21.574 78.0978 21.513 78.0618 21.546 78.0478C20.63 77.9858 22.118 78.7278 21.034 78.5728C21.696 78.9158 20.591 78.9878 21.328 79.4878C21.161 79.4578 21.018 79.4108 20.901 79.3468C20.674 79.8438 20.212 80.3148 20.008 80.7398C20.467 81.3278 19.41 81.5598 20.151 82.1718C19.885 82.3768 19.37 82.6988 19.606 83.1848L19.51 83.1158C19.444 83.5618 19.34 84.1178 19.811 84.5518C18.94 84.4608 19.056 84.6918 18.737 84.8138C19.049 85.1978 18.823 85.7698 19.086 86.2868C18.681 86.2778 19.177 86.6848 18.603 86.5998C19.472 88.0648 18.887 89.4648 18.011 90.8418L17.97 90.8208C18.28 91.0148 18.972 91.2378 19.374 91.4188C19.323 91.4358 19.228 91.4318 19.231 91.3948C19.323 91.6368 18.749 91.8638 18.874 92.1128C18.778 92.1118 18.778 92.1118 18.685 92.0728C18.953 92.2988 18.244 92.5698 18.705 92.8318L18.553 92.8538L18.776 93.0198C18.585 93.0248 18.297 93.0318 18.354 92.9338C18.267 94.0288 18.657 95.1178 19.03 96.1668C19.186 96.6978 19.491 97.1958 19.684 97.7088C19.912 98.2148 20.032 98.7478 20.22 99.2608L20.018 99.2458L20.484 99.5288C20.392 99.5608 20.34 99.5578 20.293 99.5538C20.194 100.177 20.909 100.496 21.03 101.008C20.945 101.045 20.747 101.048 20.678 101.161C21.291 101.304 20.332 102.031 21.385 101.724C21.348 101.763 21.135 101.883 21.04 101.887C21.144 101.993 21.225 102.074 21.334 102.21L21.689 102.683L22.334 103.602C22.753 104.195 23.167 104.81 23.652 105.264C24.126 104.971 24.464 105.297 25.022 105.267C25.567 105.206 25.943 104.772 25.927 103.966L26.03 104.171C26.105 103.255 26.179 102.69 26.367 102.099C26.539 101.519 26.76 100.789 26.724 100.203C26.836 99.7018 26.62 99.3488 26.626 98.8448L26.87 98.8398C25.97 97.9728 27.739 97.0518 26.71 96.1588L27.042 96.2178C26.527 96.0848 27.22 95.6778 26.34 95.7408L26.604 95.5808C25.432 95.0028 27.121 94.4748 26.343 93.7568L26.554 93.7988C26.386 93.6078 26.249 93.3848 26.436 93.2338C26.466 93.2548 26.528 93.2428 26.584 93.2868C27.388 92.6418 26.448 91.9928 26.447 91.3478L26.839 91.4028C26.37 91.1118 26.763 90.5168 26.532 90.1168L26.716 90.1318L26.446 89.9388L26.814 89.9128C26.814 89.3738 26.465 88.8898 26.388 88.3718Z" fill="black"/>
<path d="M25.564 83.0238C25.56 83.0258 25.56 83.0278 25.552 83.0308C25.586 83.0438 25.581 83.0358 25.564 83.0238Z" fill="black"/>
<path d="M23.175 75.0048C23.208 74.9938 23.239 74.9858 23.277 74.9828C23.209 74.9478 23.201 74.9928 23.175 75.0048Z" fill="black"/>
<path d="M0.845947 201.806C0.845947 201.806 45.6439 191.611 64.9699 193.48C84.2979 195.351 127.234 209.566 133.779 210.501" fill="white"/>
<path d="M134.442 205.865L134.432 205.595L134.199 206.288L134.442 205.865Z" fill="black"/>
<path d="M133.306 207.283C133.307 207.418 133.251 207.63 133.253 207.765C133.253 207.765 133.482 207.283 133.711 206.799C133.923 206.314 134.136 205.827 134.136 205.827C134.136 204.628 133.33 208.089 133.306 207.283Z" fill="black"/>
<path d="M133.192 207.047C133.091 206.532 132.8 207.472 132.67 207.779C132.914 207.06 133.019 208.085 133.192 207.047Z" fill="black"/>
<path d="M112.157 201.703C112.181 201.704 112.219 201.686 112.249 201.663C112.219 201.623 112.187 201.646 112.157 201.703Z" fill="black"/>
<path d="M105.746 203.325L105.477 204.057C106.878 203.015 107.656 204.697 108.906 204.421L108.758 204.663C111.428 205.739 114.326 205.216 117.222 205.434C117.157 205.5 117.078 205.716 117.01 205.79C117.216 205.569 117.5 205.133 117.629 205.239C117.619 205.416 117.488 205.574 117.419 205.635C117.641 207.036 119.338 205.339 119.426 206.395C119.625 206.31 119.846 205.815 119.867 205.398C122.094 205.697 124.451 206.112 126.89 205.748C126.948 205.947 126.872 206.29 126.726 206.709C129.14 205.213 130.834 206.535 132.603 207.31C132.798 206.793 132.547 206.698 132.857 206.189C132.433 205.377 131.461 207.223 131.164 206.123L131.362 205.628C131.06 205.202 130.952 206.899 130.717 206.139C130.67 205.671 130.927 205.497 130.863 205.441C129.962 205.423 129.206 204.723 128.067 205.747C128.175 204.589 127.163 205.46 127.139 204.311C126.797 204.685 126.607 204.511 126.318 205.219C123.493 203.8 120.12 203.979 117.061 203.015C115.008 204.735 114.011 201.694 112.092 201.92C112.102 201.841 112.126 201.761 112.155 201.702C111.446 202.069 110.562 202.085 109.97 201.632L109.148 202.375C105.657 199.383 101.181 199.532 97.2889 197.663C92.7869 195.868 89.0189 193.272 83.7499 195.011C83.8069 194.803 83.7969 194.678 83.9359 194.618C82.5099 194.74 81.4729 193.697 80.1199 193.865L80.171 193.652C76.692 194.749 73.6999 192.025 70.3179 193.481C69.4109 193.262 68.4579 193.1 67.4769 192.988C66.4969 192.882 65.504 192.724 64.486 192.722C63.468 192.714 62.4449 192.729 61.4309 192.769C60.4179 192.828 59.4159 192.987 58.4349 193.125L58.4399 192.687C56.8659 193.134 55.3209 192.883 53.7469 192.587C52.1729 192.271 50.587 191.999 49.046 192.49C47.38 192.116 45.7749 192.913 44.1919 193.696C42.6009 194.46 41.0249 195.193 39.3309 194.756C37.0339 192.866 35.0719 197.829 32.8899 195.902C28.5349 193.137 25.1159 195.925 21.6729 198.59C17.9319 198.039 15.0149 201.738 11.1519 200.007C9.85791 201.872 7.37794 198.78 5.67394 199.606L5.84991 200.127C4.86291 198.642 4.90091 202.693 3.98791 200.375L4.03192 200.252C3.42792 199.103 3.86293 203.295 3.34393 201.889L3.41992 202.502C3.04692 202.764 3.22294 201.829 2.85394 201.657C2.74994 201.759 3.04691 202.763 2.72491 202.472C2.12891 200.021 1.83993 203.227 1.19793 200.467C1.42493 200.417 0.603942 199.473 0.983942 198.781C0.778942 198.528 0.101916 198.824 0.432916 199.983C0.656916 201.241 0.636905 202.386 1.27191 203.255L1.14996 202.329C1.49496 203.205 1.35791 202.759 1.56091 203.428C2.12691 203.428 2.49595 204.733 3.00195 205.195C2.99195 205.169 2.98194 205.144 2.97894 205.096C3.00394 203.95 3.51195 204.514 3.75695 204.625L3.95092 205.112C4.30692 206.144 4.12092 202.912 4.34692 204.763C5.35192 204.072 6.62593 203.827 7.85693 203.549C7.88693 202.821 8.81791 203.414 8.27191 202.137C8.89591 203.59 9.89393 203.792 10.2239 203.663C10.2399 203.809 10.2589 203.974 10.1939 203.928C11.2559 205.767 10.611 201.943 11.718 204.23C11.474 202.506 12.9519 204.545 12.9069 202.474C13.0589 202.838 13.152 203.175 13.184 203.485C14.311 203.305 15.6659 203.68 16.6269 203.574C17.1519 201.92 18.7129 203.887 19.0229 201.686C19.6829 202.017 20.7729 202.707 21.4279 201.726L21.3959 201.995C22.2849 201.713 23.4019 201.407 23.7989 199.992C24.4159 201.93 24.7389 201.465 25.2429 202.032C25.6899 201 26.9639 201.062 27.7539 200.077C28.0479 200.971 28.4559 199.561 28.7239 200.888C30.9019 197.874 34.31 198.293 37.353 199.844L37.3259 199.944C37.5819 199.162 37.7739 197.483 38.0149 196.486C38.0679 196.597 38.0939 196.82 38.0149 196.824C38.4939 196.507 39.148 197.76 39.624 197.446C39.648 197.669 39.6479 197.669 39.5939 197.891C39.9949 197.231 40.7179 198.831 41.1479 197.719L41.2239 198.07L41.5209 197.525C41.5669 197.969 41.6359 198.637 41.4269 198.518C45.8129 198.436 50.1019 195.62 54.6309 195.752L54.4869 196.185L55.3209 195.38C55.3259 195.606 55.2899 195.717 55.2529 195.82C56.3899 196.5 57.4829 195.221 58.5669 195.414C58.5629 195.631 58.4069 196.064 58.5579 196.31C59.3459 195.085 59.811 197.882 60.223 195.349C60.259 195.467 60.2779 196.036 60.1959 196.24C61.3039 195.778 62.3839 195.717 63.4929 195.712C64.5909 195.695 65.6939 195.972 66.7629 196.314C68.9099 194.235 70.6799 196.701 72.9179 195.221L72.8249 195.668C75.6299 194.591 77.9579 196.793 80.5909 197.081C81.6199 197.508 82.4679 197.128 83.5499 197.366L83.4449 197.927C85.7639 196.269 86.775 200.725 89.228 198.902L88.908 199.619C89.4949 198.531 89.9389 200.32 90.3369 198.304L90.5159 198.992C92.4729 196.698 92.5299 200.792 94.5359 199.512L94.3099 199.956C94.8219 199.702 95.384 199.542 95.577 200.057C95.511 200.112 95.4959 200.256 95.3649 200.354C96.1649 202.569 98.1639 200.89 99.5169 201.34L99.1219 202.173C100.065 201.328 101.018 202.62 102.017 202.391L101.851 202.787L102.453 202.329L102.234 203.16C103.349 203.526 104.614 203.11 105.746 203.325Z" fill="black"/>
<path d="M117.418 205.638C117.417 205.629 117.412 205.628 117.413 205.609C117.359 205.671 117.378 205.667 117.418 205.638Z" fill="black"/>
<path d="M3.177 205.338C3.115 205.299 3.05998 205.257 3.00098 205.198C3.04898 205.366 3.124 205.311 3.177 205.338Z" fill="black"/>
<path d="M142.402 202.829H20.519V228.393H142.402V202.829Z" fill="white"/>
<path d="M84.1709 203.958C90.7199 204.876 125.843 194.106 141.433 195.614C157.023 197.122 170.058 207.915 170.058 207.915" fill="white"/>
<path d="M173.044 204.309L173.165 204.068L172.587 204.535L173.044 204.309Z" fill="black"/>
<path d="M171.365 205.042C171.303 205.16 171.161 205.327 171.097 205.446L172.751 204.106C173.303 203.046 170.986 205.743 171.365 205.042Z" fill="black"/>
<path d="M171.386 204.794C171.54 204.302 170.89 205.034 170.659 205.273C171.165 204.708 170.777 205.653 171.386 204.794Z" fill="black"/>
<path d="M158.14 197.473C158.157 197.475 158.187 197.458 158.215 197.437C158.203 197.398 158.174 197.419 158.14 197.473Z" fill="black"/>
<path d="M153.314 199.05L153.002 199.763C154.144 198.73 154.373 200.293 155.265 200.042L155.113 200.273C156.689 201.279 158.792 200.828 160.75 201.204C160.686 201.263 160.569 201.461 160.5 201.526C160.706 201.33 161.029 200.938 161.089 201.046C161.031 201.211 160.894 201.351 160.828 201.404C160.564 202.723 162.256 201.232 161.99 202.234C162.154 202.17 162.461 201.727 162.605 201.341C164.072 201.795 165.572 202.4 167.422 202.411C167.389 202.599 167.208 202.9 166.948 203.26C169.207 202.235 169.928 203.758 170.825 204.85C171.198 204.445 171.059 204.299 171.513 203.928C171.552 203.095 170.052 204.517 170.311 203.474L170.662 203.077C170.619 202.626 169.837 204.125 169.985 203.39C170.142 202.958 170.4 202.859 170.377 202.794C169.738 202.61 169.46 201.84 168.258 202.58C168.774 201.545 167.724 202.184 168.131 201.139C167.748 201.43 167.676 201.244 167.213 201.85C165.699 200.169 163.225 199.997 161.319 198.922C159.408 200.427 159.492 197.526 158.045 197.678C158.07 197.604 158.106 197.528 158.141 197.472C157.546 197.81 156.918 197.817 156.592 197.376L155.862 198.08C155.408 197.349 154.83 196.856 154.216 196.443C153.605 196.026 152.929 195.75 152.233 195.53C150.855 195.04 149.406 194.801 148.08 194.037C146.51 193.41 145.051 192.516 143.455 192.237C141.898 191.866 140.166 192.172 138.516 193.555C138.522 193.339 138.496 193.219 138.582 193.132C137.644 193.567 136.797 192.821 135.93 193.304L135.924 193.085C134.869 194.01 133.785 194.05 132.687 194.103C131.592 194.148 130.497 194.212 129.612 195.334C127.141 195.414 124.413 196.033 121.952 197.011L121.886 196.576C120.007 197.848 117.613 195.89 115.7 196.985C113.403 196.393 111.897 200.308 109.534 199.42C107.794 197.574 107.038 202.469 105.36 200.531C102.155 197.758 100.186 200.396 98.0888 202.898C95.5498 202.193 93.7958 205.692 91.0888 203.673C90.2608 205.411 88.5209 202.113 87.4519 202.707L87.5558 203.244C86.9868 201.636 86.8128 205.638 86.3438 203.212L86.3798 203.097C86.0918 201.868 86.0309 206.079 85.8009 204.612L85.7908 205.23C85.4838 205.404 85.7248 204.532 85.4918 204.281C85.4118 204.356 85.4728 205.403 85.2818 205.045C85.2658 203.783 85.1058 203.916 84.9308 204.009C84.7588 204.103 84.5768 204.155 84.7008 202.745C84.8138 202.745 84.6308 201.65 84.9198 201.059C84.8808 200.768 84.5848 200.917 84.4338 202.108C84.2228 203.364 83.8719 204.448 84.0379 205.455L84.2208 204.536C84.2118 205.462 84.2438 205 84.2038 205.694C84.6278 205.833 84.5968 207.184 84.9638 207.756C84.9608 207.729 84.9578 207.703 84.9658 207.655C85.2488 206.549 85.5618 207.216 85.7798 207.376L85.8828 207.894C86.0498 208.97 86.2468 205.741 86.2238 207.608C87.0228 207.06 88.0348 207.034 88.8788 206.866C88.9048 206.148 89.5518 206.831 89.1718 205.511C89.6028 207.016 90.3188 207.306 90.5518 207.21C90.5658 207.356 90.5808 207.521 90.5338 207.469C91.3288 209.382 90.7948 205.553 91.6248 207.9C91.3958 206.175 92.4988 208.306 92.3838 206.25C92.5038 206.621 92.5828 206.961 92.6178 207.269C93.3878 207.166 94.3668 207.636 95.0198 207.582C95.2728 205.978 96.4778 207.995 96.5358 205.837C97.0098 206.196 97.8168 206.934 98.1858 205.994V206.258C98.7668 206.011 99.5018 205.745 99.6468 204.362C100.237 206.299 100.417 205.849 100.811 206.426C101.023 205.427 101.899 205.527 102.334 204.566C102.62 205.456 102.758 204.072 103.069 205.388C104.248 202.472 106.564 202.916 108.791 204.464L108.785 204.564C108.87 203.788 108.809 202.126 108.857 201.138C108.904 201.248 108.947 201.468 108.894 201.472C109.178 201.157 109.761 202.39 110.044 202.079C110.086 202.299 110.086 202.299 110.075 202.518C110.266 201.866 110.938 203.445 111.097 202.346L111.19 202.692L111.324 202.153C111.407 202.591 111.533 203.252 111.379 203.134C114.319 202.978 116.827 200.12 119.841 199.922L119.808 200.359L120.246 199.511C120.283 199.734 120.274 199.846 120.266 199.95C121.122 200.57 121.66 199.193 122.403 199.257C122.436 199.472 122.4 199.917 122.54 200.143C122.866 198.845 123.636 201.565 123.49 199.028C123.534 199.14 123.641 199.7 123.62 199.909C124.94 198.868 126.46 198.649 127.977 198.878C128.914 196.466 130.536 198.316 131.623 196.399L131.662 196.853C133.19 195.115 135.112 196.646 136.799 196.313C137.515 196.491 137.996 195.887 138.719 195.902L138.728 196.472C139.348 195.416 139.999 195.934 140.593 196.42C141.201 196.885 141.758 197.405 142.529 196.31L142.347 197.067C142.692 195.903 143.035 197.585 143.246 195.542L143.381 196.188C144.01 194.911 144.384 195.25 144.717 195.773C145.061 196.284 145.375 196.911 146.077 196.156L145.908 196.618C146.262 196.305 146.656 196.079 146.762 196.557C146.714 196.619 146.698 196.762 146.603 196.873C147.013 198.923 148.433 197.142 149.342 197.448L148.989 198.293C149.722 197.37 150.215 198.589 150.917 198.307L150.751 198.7L151.222 198.222L150.958 199.039C151.656 199.322 152.58 198.862 153.314 199.05Z" fill="black"/>
<path d="M160.828 201.404C160.83 201.395 160.826 201.394 160.834 201.376C160.777 201.432 160.79 201.43 160.828 201.404Z" fill="black"/>
<path d="M85.0949 207.937C85.0429 207.884 85.001 207.831 84.96 207.759C84.965 207.934 85.0509 207.898 85.0949 207.937Z" fill="black"/>
</svg>
