<svg width="173" height="219" viewBox="0 0 173 219" fill="none" xmlns="http://www.w3.org/2000/svg">
<path d="M57.5689 213.67C57.5689 213.67 105.587 135.938 93.6629 76.3149C93.6629 76.3149 86.0499 73.0888 85.6019 77.7118C83.6369 98.0198 83.5489 157.948 30.9209 213.67" fill="white"/>
<path d="M63.8767 173.043C63.8567 173.093 63.8467 173.167 63.8477 173.228C63.9187 173.165 63.9187 173.1 63.8767 173.043Z" fill="black"/>
<path d="M66.6378 160.016L65.9848 159.573C66.1428 160.95 65.5868 162.095 64.9298 163.206C64.2718 164.316 63.5428 165.405 63.2438 166.665L63.0788 166.391C59.9338 171.941 58.1418 177.68 55.2438 183.424C55.2278 183.297 55.0528 183.146 55.0318 183.012C55.0938 183.413 55.3278 183.968 55.0828 184.223C54.8888 184.205 54.8318 183.948 54.8258 183.812C53.0128 184.242 53.3608 187.586 52.0618 187.742C51.9598 188.13 52.3078 188.568 52.7668 188.621C50.1948 192.946 47.2718 197.461 44.8248 202.092C44.5328 202.176 44.2298 201.993 43.9268 201.664C43.6518 202.846 43.2198 203.93 42.6818 204.94C42.1268 205.938 41.4458 206.844 40.7148 207.713C39.9818 208.58 39.1888 209.401 38.3808 210.203C37.5678 211 36.7008 211.745 35.8848 212.524C36.1738 213.02 36.6248 212.574 36.7468 213.285C38.2318 212.657 37.5618 210.446 39.1478 210.093L39.4348 210.57C40.3158 210.062 38.5568 209.546 39.7178 209.237C40.3068 209.228 40.1628 209.752 40.3118 209.638C41.4578 207.935 43.2568 206.649 43.4468 204.325C44.6348 204.679 44.8418 202.64 46.1718 202.733C46.1458 202.039 46.5678 201.696 46.0938 201.071C50.9608 195.806 54.2598 189.192 58.1648 183.066C58.1008 181.022 59.1508 179.495 60.4038 177.97C61.6058 176.42 63.0208 174.876 63.6778 172.933C63.7598 172.946 63.8308 172.99 63.8758 173.044C64.0028 171.612 64.6548 169.799 65.6238 168.531L65.3898 166.927C68.3118 163.129 70.4948 158.842 72.2768 154.39C73.2208 152.183 73.9958 149.906 74.8768 147.669C75.6778 145.403 76.5878 143.174 77.4848 140.939C79.4488 135.836 81.3368 131.02 82.6258 126.073C83.9158 121.134 84.6088 116.061 84.0278 110.598C84.2378 110.647 84.3698 110.581 84.4158 110.867C84.4628 107.78 85.6658 105.138 85.5638 102.218L85.7808 102.254C84.8958 94.9748 87.5278 87.4948 86.0828 80.5498C86.1378 80.0348 86.1918 79.5148 86.2478 78.9918L86.3308 78.2029L86.3718 77.8058L86.4428 77.5068C86.6128 76.7018 87.1108 76.2308 88.0368 76.0928C88.9218 75.9418 90.0158 76.0768 90.8778 76.2658C91.3338 76.3708 91.7908 76.4888 92.2438 76.6358C92.4718 76.7058 92.6968 76.7848 92.9238 76.8678L93.0068 76.9008L93.0238 76.9868L93.0568 77.1598L93.1238 77.5068C93.3178 78.4898 93.5148 79.4768 93.7098 80.4638L94.0398 82.1098L94.2848 83.7688C94.4578 84.8758 94.6298 85.9788 94.8008 87.0778C94.9878 88.1758 95.0598 89.2798 95.2028 90.3698L94.7628 90.3728C95.0918 92.1068 95.2218 93.8468 95.1128 95.5788C95.0178 97.3098 94.9118 99.0298 94.6068 100.738C94.3278 102.446 94.0998 104.148 93.8568 105.852C93.6018 107.557 93.4408 109.269 93.4618 111.019C92.9878 112.768 92.7938 114.565 92.7318 116.403C92.6358 118.236 92.6178 120.101 92.6168 121.982C92.5418 125.727 92.3348 129.52 90.8398 132.911C89.3188 134.861 89.2078 137.49 89.1728 140.148C89.0528 142.775 88.9548 145.416 87.2508 147.113C81.4938 154.402 80.7508 162.857 79.3378 171.735C77.2668 175.228 76.1198 179.09 74.7688 182.858C73.4148 186.617 71.8658 190.284 69.0418 193.227C68.8098 197.244 63.8258 199.267 62.3018 203.051L62.8518 203.181C60.7008 203.673 63.3208 207.169 60.7158 206.779L60.6948 206.591C59.2278 206.653 62.3798 209.608 60.8488 209.291L61.3218 209.705C61.0078 210.615 60.6578 209.456 60.0848 209.967C60.0158 210.243 61.0088 210.617 60.4148 210.938C58.1728 209.78 59.7208 213.218 57.2448 211.83C57.5038 211.392 55.8948 211.952 55.9648 210.67C55.5498 210.809 54.8848 212.187 55.9828 212.691C57.0008 213.472 57.6178 214.593 58.9688 214.281L58.2758 213.631C59.2388 213.833 58.8008 213.658 59.4598 213.918C60.2148 212.891 61.4658 213.431 62.4098 212.92C62.3818 212.914 62.3538 212.909 62.3208 212.873C61.6728 211.774 62.6718 211.36 63.0528 211.009L63.6008 211.093C64.6938 211.364 62.4718 208.795 63.8998 210.043C64.7638 207.565 66.1908 204.986 67.5138 202.432C67.0818 201.75 68.5848 200.51 67.0898 200.439C68.7948 200.52 70.1368 198.795 70.4338 198.054C70.5508 198.146 70.6828 198.251 70.5758 198.336C73.0688 197.859 69.7348 195.869 72.5838 195.673C71.1238 194.701 74.2388 193.55 72.7598 191.922C73.1868 191.93 73.5268 192.027 73.7768 192.221C74.9358 189.889 76.7358 187.549 77.7148 185.563C77.1208 183.229 80.2128 181.664 78.9358 179.336C79.8908 178.292 81.5268 176.615 81.4788 174.564L81.6468 174.831C82.3498 172.833 83.2138 170.322 82.5258 168.5C84.6308 168.654 84.5788 167.647 85.5078 167.022C85.1488 165.369 86.4118 162.791 86.3238 160.467C87.3118 160.468 86.5528 158.663 87.8648 159.006C87.4038 152.434 90.4648 145.713 94.0258 139.917L94.0948 140.033C93.5888 139.024 92.2438 137.678 91.5268 136.627C91.6628 136.575 91.8778 136.639 91.8258 136.81C91.8818 135.619 93.4378 134.868 93.4488 133.658C93.6648 133.719 93.6648 133.719 93.8308 133.954C93.4898 132.743 95.3928 131.962 94.6638 130.459L95.0288 130.465L94.7238 129.549C95.1558 129.661 95.8048 129.833 95.5638 130.237C96.8218 125.298 97.3198 120.1 97.4708 114.871C97.7148 109.648 97.5318 104.402 97.8818 99.1988L98.2968 99.5918C98.2968 99.5918 98.1178 99.0798 97.9248 98.5698C97.7348 98.0618 97.5438 97.5538 97.5438 97.5538C97.7698 97.5668 97.8788 97.6628 97.9808 97.7618C98.3578 96.4728 98.2288 95.1478 98.0298 93.8448C97.8068 92.5398 97.4418 91.2558 97.4808 89.9958C97.6988 89.9948 98.1498 90.3538 98.3768 89.9858C97.7198 89.0858 98.0748 88.3148 98.2728 87.6588C98.4598 87.0068 98.4548 86.4748 97.1498 86.1258C97.2578 86.0288 97.8188 85.9168 98.0418 86.0878C97.6938 84.8058 97.4008 83.5188 97.1528 82.2248C96.8608 80.8448 96.5678 79.4598 96.2748 78.0738L95.7258 75.3378L95.5958 74.6478C95.4518 74.5008 95.1918 74.4518 94.9948 74.3518C94.5708 74.1768 94.1518 73.9978 93.7208 73.8328C92.8638 73.4868 91.9568 73.2258 91.0208 72.9888L90.3058 72.8438C90.1178 72.8008 89.9098 72.7758 89.7048 72.7478C89.3078 72.6828 88.8688 72.6538 88.4128 72.6478C88.0618 72.7848 87.6378 73.0038 87.2808 73.1688C86.8898 73.3798 86.4978 73.5958 86.1248 73.8688C85.3588 74.4288 84.6838 75.2649 84.4258 76.1339C84.3288 76.3519 84.2868 76.5568 84.2658 76.7568L84.1788 77.3618C84.1428 77.5858 84.1508 77.7198 84.1448 77.8568L84.1278 78.2798C84.1018 78.8468 84.0488 79.4078 84.0028 79.9818C83.8108 82.2778 83.5808 84.5518 84.3128 86.8318L83.8598 86.7738C85.0028 92.6208 82.7208 98.5178 82.2138 104.405C81.6998 106.815 81.9638 108.534 81.6008 110.986L81.0288 110.953C81.7358 113.182 80.8798 115.27 79.9838 117.339C79.1228 119.422 78.1968 121.478 78.8838 123.864L78.1998 123.398C79.2098 124.325 77.1728 125.843 79.2268 126.079L78.4418 126.678C79.4258 128.448 78.7388 129.68 77.9628 130.95C77.1908 132.227 76.2268 133.512 76.5628 135.502L76.1628 135.136C76.2548 136.165 76.2308 137.339 75.5748 137.883C75.5418 137.756 75.3888 137.763 75.3368 137.507C73.9518 138.653 73.5318 140.173 73.2918 141.789C73.0278 143.394 72.9778 145.109 72.4138 146.599L71.6818 145.95C72.1408 147.752 70.2338 150.045 69.9308 152.088L69.5828 151.816L69.7508 152.985L68.9438 152.685C68.4158 153.882 68.0998 155.125 67.7778 156.364C67.4358 157.589 67.1158 158.824 66.6378 160.016Z" fill="black"/>
<path d="M54.8267 183.811C54.8377 183.809 54.8447 183.799 54.8647 183.802C54.8437 183.696 54.8307 183.733 54.8267 183.811Z" fill="black"/>
<path d="M62.7227 212.721C62.6177 212.802 62.5197 212.865 62.4077 212.918C62.5707 212.985 62.6377 212.793 62.7227 212.721Z" fill="black"/>
<path d="M7.6626 213.848C39.3616 191.627 102.761 224.959 115.507 217.444L7.6626 213.848Z" fill="white"/>
<path d="M113.128 213.41L112.985 213.185L113.313 213.829L113.128 213.41Z" fill="black"/>
<path d="M113.544 214.993C113.608 215.109 113.685 215.314 113.751 215.431C113.751 215.431 113.645 214.926 113.462 214.426C113.29 213.928 113.074 213.456 113.074 213.456C112.787 212.942 113.05 213.478 113.285 214.083C113.533 214.688 113.733 215.34 113.544 214.993Z" fill="black"/>
<path d="M113.384 214.827C113.115 214.408 113.402 215.346 113.47 215.672C113.266 214.941 113.782 215.802 113.384 214.827Z" fill="black"/>
<path d="M97.4814 214.02C97.5014 214.019 97.5315 213.997 97.5555 213.971C97.5315 213.934 97.5044 213.96 97.4814 214.02Z" fill="black"/>
<path d="M92.2267 216.232L92.0017 216.978C93.1647 215.829 93.8087 217.42 94.8447 217.033L94.7247 217.286C96.9527 218.094 99.3517 217.27 101.717 217.09C101.667 217.164 101.615 217.388 101.564 217.47C101.72 217.224 101.927 216.756 102.039 216.843C102.041 217.019 101.942 217.193 101.89 217.263C102.159 218.619 103.433 216.69 103.575 217.72C103.732 217.605 103.871 217.082 103.857 216.669C105.653 216.611 107.601 216.58 109.3 215.615C109.375 215.793 109.384 216.144 109.351 216.586C110.839 214.541 112.07 215.272 113.248 215.287C113.12 214.755 112.978 214.756 112.902 214.19C112.663 213.895 112.641 214.249 112.571 214.579C112.487 214.894 112.361 215.179 112.12 214.718L112.072 214.19C111.801 213.893 112.243 215.524 111.878 214.879C111.716 214.451 111.814 214.209 111.761 214.175C111.268 214.454 110.69 214.023 110.122 215.305C109.976 214.162 109.448 215.271 109.234 214.159C109.06 214.606 108.901 214.486 108.804 215.244C106.579 214.533 103.981 215.27 101.474 214.728C99.8827 216.692 98.9717 213.813 97.4327 214.242C97.4397 214.163 97.4587 214.082 97.4817 214.02C96.9127 214.46 96.1877 214.566 95.7017 214.176L95.0327 214.988C92.1717 212.366 88.5097 212.867 85.3407 211.268C81.6697 209.802 78.6717 207.42 74.2637 209.408C74.3177 209.199 74.3137 209.076 74.4307 209.01C73.2517 209.196 72.4427 208.196 71.3217 208.419L71.3727 208.206C68.4587 209.432 66.1377 206.822 63.2987 208.286C60.3607 207.511 56.9317 207.115 53.6797 207.227L53.7487 206.793C51.0977 207.353 48.8997 204.741 46.2407 205.21C44.9597 204.596 43.5367 205.128 42.1497 205.641C40.7547 206.162 39.4037 206.665 38.0887 205.976C37.2767 204.902 36.3037 205.497 35.3837 206.137C34.4557 206.759 33.5857 207.395 32.7627 206.318C29.3867 203.103 26.2207 205.671 23.6277 208.268C22.0927 207.955 20.7857 208.782 19.5237 209.468C18.2537 210.185 17.0407 210.76 15.2937 210.15C14.9807 211.134 14.1687 210.932 13.2507 210.686C12.3307 210.412 11.2957 210.082 10.7237 210.65L11.0317 211.105C9.72768 209.911 11.1287 213.701 9.61067 211.744L9.60268 211.619C8.70068 210.7 10.5557 214.472 9.64168 213.289L9.92868 213.834C9.73968 214.158 9.52368 213.261 9.17268 213.194C9.13168 213.314 9.74467 214.162 9.38667 213.975C7.97267 211.886 9.00667 214.883 7.40367 212.547C7.56967 212.437 6.52467 211.812 6.56767 211.071C6.29667 210.902 5.85268 211.366 6.59268 212.318C7.28368 213.393 7.74068 214.428 8.59068 215.044L8.11568 214.243C8.74168 214.943 8.45368 214.577 8.88368 215.128C9.31768 214.989 10.1177 216.08 10.6687 216.388C10.6507 216.367 10.6347 216.346 10.6117 216.304C10.1717 215.259 10.7697 215.654 10.9867 215.702L11.3157 216.108C11.9627 216.984 10.6117 214.067 11.4727 215.715C11.9447 214.879 12.8187 214.428 13.6507 213.974C13.4497 213.277 14.3397 213.718 13.5527 212.58C14.4567 213.87 15.2417 213.934 15.4517 213.769C15.5017 213.906 15.5597 214.062 15.4997 214.026C16.7537 215.675 15.3197 212.082 16.7067 214.167C16.1227 212.526 17.6817 214.358 17.2067 212.368C17.3977 212.709 17.5387 213.029 17.6287 213.326C18.4357 213.056 19.5217 213.363 20.2167 213.23C20.3707 211.581 21.8107 213.498 21.7837 211.316C22.3397 211.645 23.2207 212.334 23.6417 211.372L23.6367 211.636C24.3027 211.385 25.1257 211.088 25.3917 209.711C25.9487 211.663 26.1747 211.217 26.5777 211.805C26.8897 210.793 27.8787 210.952 28.4957 210.01C28.7147 210.914 29.0527 209.551 29.2397 210.89C30.9847 208.065 33.7827 208.808 35.9757 210.763L35.9467 210.86C36.2177 210.109 36.5387 208.477 36.8387 207.518C36.8687 207.635 36.8657 207.86 36.8027 207.853C37.2207 207.602 37.6017 208.93 38.0117 208.682C38.0057 208.906 38.0057 208.906 37.9377 209.12C38.3327 208.521 38.7107 210.216 39.1837 209.179L39.1997 209.537L39.5007 209.043C39.4817 209.488 39.4527 210.159 39.3047 210.011C42.7397 210.523 46.5647 208.523 50.2017 209.291L50.0167 209.694L50.8157 209.031C50.7837 209.255 50.7367 209.359 50.6897 209.455C51.4907 210.317 52.5877 209.19 53.4427 209.508C53.4077 209.723 53.2137 210.132 53.3007 210.393C54.1257 209.277 54.1047 212.109 54.8047 209.658C54.8167 209.779 54.7517 210.345 54.6557 210.536C56.5807 209.972 58.4357 210.345 60.1737 211.07C62.1047 209.098 63.4097 211.457 65.3367 209.997L65.2377 210.442C67.6037 209.287 69.4157 211.429 71.5847 211.589C72.4187 211.964 73.1277 211.574 74.0147 211.749L73.9087 212.308C75.8827 210.54 76.5637 214.929 78.6537 212.979L78.3667 213.707C78.8867 212.598 79.1987 214.342 79.5897 212.324L79.7157 212.995C81.4027 210.609 81.3247 214.672 83.0237 213.274L82.8237 213.726C83.2547 213.443 83.7227 213.247 83.8697 213.744C83.8127 213.803 83.7977 213.946 83.6857 214.052C84.2957 216.187 85.9907 214.406 87.0997 214.752L86.7577 215.603C87.5527 214.702 88.3197 215.906 89.1517 215.606L89.0087 216.009L89.5117 215.511L89.3207 216.349C90.2417 216.629 91.2917 216.117 92.2267 216.232Z" fill="black"/>
<path d="M101.889 217.262C101.888 217.253 101.884 217.252 101.884 217.233C101.843 217.302 101.858 217.296 101.889 217.262Z" fill="black"/>
<path d="M10.8495 216.477C10.7885 216.456 10.7335 216.429 10.6675 216.389C10.7695 216.529 10.8015 216.463 10.8495 216.477Z" fill="black"/>
<path d="M120.277 36.3158C120.277 36.3158 120.867 21.4938 116.744 5.65881C93.7625 8.44581 82.5645 33.7828 82.5645 33.7828C82.5645 33.7828 43.7835 -7.3042 10.0845 35.1448C10.0845 35.1448 56.0485 21.8428 60.1735 45.9128" fill="white"/>
<path d="M64.7885 45.1209L65.0195 44.9469L64.2285 44.7509L64.7885 45.1209Z" fill="black"/>
<path d="M62.7228 43.3828C62.6098 43.4768 62.3928 43.5068 62.2778 43.5998C62.2778 43.5998 62.8478 43.7498 63.4238 43.9328C63.9988 44.1128 64.5798 44.3268 64.5798 44.3268C65.5898 43.4708 62.0388 43.9028 62.7228 43.3828Z" fill="black"/>
<path d="M62.8396 42.9769C63.1746 42.3689 62.1466 42.4799 61.8066 42.4909C62.5906 42.4049 61.8766 43.3749 62.8396 42.9769Z" fill="black"/>
<path d="M29.3525 28.9359C29.3905 28.9279 29.4395 28.8969 29.4755 28.8639C29.4085 28.8379 29.3695 28.8709 29.3525 28.9359Z" fill="black"/>
<path d="M20.5407 33.3778L20.5777 34.1608C22.0307 32.5078 24.1497 33.6098 25.8487 32.8068L25.7607 33.0928C28.0387 32.9648 30.1837 32.5358 32.3587 32.0838C34.5307 31.6198 36.7367 31.1508 39.0607 31.0008C38.9847 31.0778 38.9457 31.3048 38.8677 31.3908C39.1027 31.1358 39.3847 30.6558 39.6317 30.7388C39.6847 30.9148 39.5347 31.0938 39.4497 31.1668C39.8887 31.8318 40.6007 31.6838 41.2907 31.5298C41.9777 31.3688 42.6447 31.1488 42.8727 31.7008C43.1607 31.6098 43.3657 31.0988 43.2727 30.6718C46.9867 30.9278 50.9257 31.6708 55.0197 33.1308C55.0957 33.3878 54.9297 33.6968 54.6407 34.0378C55.1567 34.0368 55.6417 34.1258 56.1017 34.2818C56.5687 34.4278 57.0197 34.6148 57.4557 34.8348C57.8787 35.0738 58.2597 35.3838 58.6367 35.6968C59.0037 36.0208 59.3847 36.3378 59.6657 36.7488C60.2637 37.5398 60.8277 38.3638 61.1757 39.2918C61.3667 39.7458 61.5667 40.1938 61.7247 40.6498L62.1037 42.0358C62.6727 41.9908 62.5077 41.4628 63.1797 41.6308C63.2627 40.9068 62.7617 40.4518 62.2417 40.0698C61.7017 39.6838 61.2247 39.3458 61.3717 38.5848L61.8997 38.4488C61.7487 37.5158 60.7117 38.9738 60.7947 37.8858C60.9557 37.3548 61.4057 37.5828 61.3427 37.4278C60.6867 36.7538 60.2337 35.8868 59.5037 35.2948C58.8137 34.6708 58.0277 34.1438 56.9647 34.1608C57.1717 33.5908 56.7987 33.2788 56.4017 32.9628C55.9977 32.6538 55.5477 32.4038 55.5637 31.7568C54.9347 31.8958 54.6067 31.5568 54.0887 32.1308C51.6507 30.4158 48.7957 29.6188 46.0337 29.2228C43.2537 28.8258 40.5147 28.8018 37.8187 28.6488C37.1677 29.1878 36.5117 29.4208 35.8367 29.4808C35.1627 29.5628 34.4697 29.4698 33.7537 29.3318C32.3307 29.0808 30.8097 28.6758 29.3677 29.1628C29.3417 29.0858 29.3387 29.0018 29.3527 28.9358C28.4357 29.5588 27.0837 29.9368 25.9247 29.8038L25.0837 30.8478C22.4277 30.4398 19.7827 30.6068 17.1847 31.0308C14.5687 31.4628 12.0527 32.1258 9.41269 32.8228C10.2647 34.0938 11.1197 35.3688 11.9757 36.6458C13.0057 35.4648 14.0747 34.3128 15.2227 33.2508C17.9927 30.7638 20.7967 28.7348 23.5647 26.8958C24.8967 25.8788 26.2897 25.0388 27.5747 23.9138C28.9297 22.9388 30.1927 21.6798 31.5997 20.3978C31.6717 20.6008 31.7687 20.6908 31.6327 20.8428C32.0647 20.5488 32.5177 20.3298 32.9747 20.1488C33.4337 19.9688 33.9207 19.9038 34.3887 19.7968C35.3347 19.6108 36.2367 19.3768 37.1317 18.9948L37.1737 19.2098C37.7027 18.8678 38.2617 18.5808 38.8397 18.3348C39.4197 18.1048 40.0287 17.9858 40.6387 17.8588C41.8607 17.5738 43.1267 17.6068 44.3747 17.5798C44.9987 17.5438 45.6227 17.6398 46.2437 17.6438C46.8637 17.6808 47.4857 17.6388 48.1007 17.6748C49.3327 17.7218 50.5717 17.5858 51.8377 17.3668C57.5687 18.5798 63.7677 20.9978 69.4367 23.7628L69.1987 24.1308C71.5857 25.0238 73.4577 26.7188 75.1697 28.5018L76.4447 29.8468C76.8817 30.2948 77.2337 30.7008 77.8727 31.3008C78.4477 31.8648 79.0427 32.4358 79.6477 32.9848C80.2477 33.5518 80.8577 34.0808 81.4407 34.5318C81.9527 35.1778 82.5017 35.8438 83.0157 36.3508C83.6787 34.9898 84.3457 33.2838 84.8997 31.7558C85.3847 30.4358 85.8737 29.1078 86.3627 27.7808C87.2087 25.5218 88.3207 23.3198 90.2607 21.8858C92.1037 21.3168 92.8287 19.5708 93.6877 17.8178C94.5227 16.0728 95.5437 14.3578 97.4347 14.2378C100.92 13.5598 103.419 12.2308 105.879 10.5548C107.114 9.73984 108.317 8.79782 109.605 7.89282C110.244 7.42682 110.899 6.95884 111.584 6.52484C112.283 6.04884 113.11 5.60983 114.056 5.16983C114.855 5.13683 115.624 5.12283 116.405 5.03583L116.993 4.96384L117.141 4.94284L117.214 4.93384L117.231 5.00684L117.298 5.29483C117.391 5.67583 117.49 6.04784 117.596 6.41684C118.019 7.88384 118.556 9.33982 119.095 10.9448C119.554 12.4268 119.867 13.7548 120.047 15.1948C120.238 16.6098 120.145 18.0578 119.698 19.5198C120.633 20.7388 120.357 22.1898 119.825 23.6658C119.303 25.1458 118.71 26.6348 118.984 28.0728L119.523 27.9378C117.92 29.0558 121.955 30.1778 119.523 30.9288L119.41 30.8228C118.171 31.4038 122.374 32.0388 120.898 32.4178L121.514 32.4988C121.705 33.1788 120.817 32.5908 120.581 33.1168C120.662 33.3128 121.705 33.1798 121.359 33.5958C118.844 33.6918 121.899 35.2698 119.067 35.2858C119.069 34.9268 117.965 35.8308 117.377 35.0208C117.092 35.2648 117.208 36.2888 118.41 36.2448C119.681 36.3888 120.778 36.8848 121.789 36.2228L120.863 36.0498C121.799 35.8388 121.333 35.8818 122.032 35.8128C122.166 34.8908 123.514 34.7848 124.08 34.1068C124.053 34.1138 124.026 34.1198 123.978 34.1098C122.874 33.6508 123.509 33.0308 123.666 32.6648L124.181 32.5118C125.26 32.2678 122.045 31.5018 123.908 31.7418C123.671 30.8018 123.504 29.8028 123.398 28.7728C123.29 27.7438 123.254 26.6828 123.141 25.6428C122.413 25.4038 123.074 24.0438 121.754 24.6078C123.255 23.9668 123.525 22.3638 123.404 21.7928C123.551 21.7998 123.719 21.8078 123.673 21.9038C125.536 20.5608 121.659 20.7858 123.975 19.4518C122.231 19.5038 124.289 17.4588 122.191 17.1438C122.557 16.9608 122.897 16.8678 123.21 16.8718C122.96 14.9808 123.2 12.7888 123.009 11.1618C122.792 11.0258 122.631 10.8709 122.512 10.7029C122.37 10.4749 122.234 10.1338 122.141 9.83585C121.948 9.21685 121.852 8.54184 121.736 7.86584C121.511 6.53684 121.189 5.13184 120.109 5.07184C120.118 4.18184 120.138 2.90384 119.995 1.62784L119.933 1.15485L119.897 0.922821C119.887 0.888821 119.893 0.833848 119.869 0.818848L119.758 0.828827C119.459 0.855827 119.146 0.90082 118.822 0.96582C118.176 1.09482 117.489 1.30583 116.819 1.62283L117.159 1.30984C115.782 1.56484 114.267 1.93083 112.913 2.38083C112.239 2.58883 111.616 2.92485 111.1 3.25885C110.972 3.34285 110.845 3.43083 110.737 3.51883C110.667 3.59783 110.6 3.67984 110.538 3.76584C110.415 3.93584 110.309 4.11885 110.224 4.31485C109.164 2.50385 108.591 3.15382 107.684 2.78082C106.925 4.00882 104.746 4.65683 103.626 6.16983C102.963 5.45483 102.607 7.16983 101.88 6.02383C100.433 8.31683 98.6017 10.0448 96.4907 11.5358C94.3867 13.0188 92.0007 14.2678 89.5837 15.3998L89.5627 15.2818C89.6637 16.2678 90.3717 17.8948 90.6927 18.9948C90.5647 18.9628 90.4007 18.8098 90.4927 18.7158C90.1147 19.5168 88.5807 19.2768 88.2197 20.1138C88.0507 19.9678 88.0497 19.9678 87.9757 19.7228C87.9277 20.7248 86.0597 20.3848 86.3057 21.7988L85.9887 21.6278L86.0227 22.4208C85.6727 22.1448 85.1457 21.7278 85.4607 21.5468C84.8077 22.3218 84.2117 23.1488 83.6657 24.0098C83.3887 24.4378 83.1277 24.8778 82.8777 25.3238L82.5077 25.9978L82.3307 26.3398L82.2417 26.5108C82.2197 26.5568 82.2317 26.5468 82.2247 26.5678C82.1397 27.0408 81.9957 27.8118 81.7467 28.8988C81.3627 28.8258 80.7487 28.5328 80.0227 28.1068L79.7457 27.9408L79.5957 27.8448L79.3267 27.6478L78.2537 26.8598C77.5467 26.3238 76.8377 25.7938 76.1487 25.2348L76.6247 25.0608C76.6247 25.0608 76.2177 24.9938 75.8097 24.9268C75.3987 24.8699 74.9887 24.8118 74.9887 24.8118C75.1257 24.6328 75.2457 24.5828 75.3627 24.5418C74.2557 22.8288 71.9247 22.7918 70.4667 21.7118C70.5847 21.5298 71.0477 21.3038 70.9527 20.9598C69.1897 21.2978 69.8107 18.4838 67.9947 20.3568C67.9967 20.2228 68.2287 19.7018 68.4477 19.5908C64.7017 18.5058 61.2197 16.9248 57.6387 15.3958C56.7127 15.6728 55.8307 15.7998 54.9967 15.7288C54.1637 15.6528 53.3427 15.4958 52.5117 15.3428C50.8747 14.9798 49.1447 14.7388 47.4677 15.4918L47.5177 15.0378C46.4347 15.4058 45.3807 15.4888 44.3187 15.5948C43.2587 15.7248 42.1837 15.6228 41.1027 15.6808C38.9427 15.6978 36.6847 15.7538 34.6237 16.4958C33.7317 16.6678 33.0287 16.9728 32.3447 17.3008C31.6737 17.6738 31.0327 18.0998 30.2047 18.4448L29.9407 17.9368C29.6907 18.3308 29.4037 18.6298 29.0867 18.8678C28.7837 19.1338 28.4477 19.3348 28.0887 19.4928C27.3717 19.8098 26.5517 19.9628 25.7157 20.1318C24.9127 20.3518 24.1027 20.6028 23.3987 21.0218C22.6947 21.4398 22.0957 22.0238 21.8257 23.0038L21.5547 22.2408C21.8597 23.5098 19.7517 23.0618 21.1407 24.5868L20.3207 24.4238C20.2847 26.1018 19.4267 26.4998 18.3677 26.8468C17.3377 27.2048 16.0737 27.4888 15.8087 29.0758L15.5857 28.6058C15.3647 29.3738 15.0237 30.1528 14.3437 30.2088C14.3497 30.1038 14.2187 30.0308 14.2417 29.8238C13.5267 29.8778 12.9707 30.1198 12.5187 30.4728C12.0767 30.8338 11.7747 31.3338 11.4987 31.8578C10.9527 32.9148 10.5947 34.1188 9.86969 34.9778L9.3167 35.6328L10.1577 35.4078L10.2797 35.3748L10.2837 35.8408L9.55469 34.7278L9.24269 34.3108C9.24669 34.3618 9.2477 34.4118 9.2347 34.4738L8.30469 39.2198L10.3827 36.1838C11.1787 35.0198 13.2907 35.4328 14.5337 34.6718L14.5427 35.1068L15.1227 34.3618L15.3257 35.1978C17.1607 34.8558 18.7447 33.7828 20.5407 33.3778Z" fill="black"/>
<path d="M39.4499 31.1668C39.4449 31.1578 39.4359 31.1578 39.4309 31.1378C39.3699 31.2088 39.3969 31.2018 39.4499 31.1668Z" fill="black"/>
<path d="M124.257 33.8599C124.205 33.9509 124.153 34.0269 124.082 34.1029C124.256 34.0839 124.22 33.9369 124.257 33.8599Z" fill="black"/>
<path d="M112.676 68.0809C112.676 68.0809 138.012 47.4629 165.881 65.1989C165.881 65.1989 137.537 14.0929 95.0371 41.4579" fill="white"/>
<path d="M97.5732 45.3949L97.7682 45.5849L97.5142 44.8909L97.5732 45.3949Z" fill="black"/>
<path d="M97.629 43.483C97.532 43.387 97.431 43.1929 97.333 43.0959L97.892 45.175C98.753 46.032 97.049 42.913 97.629 43.483Z" fill="black"/>
<path d="M97.901 43.5659C98.365 43.8559 97.945 42.9699 97.826 42.6569C98.142 43.3479 97.305 42.6959 97.901 43.5659Z" fill="black"/>
<path d="M117.799 36.2668C117.777 36.2718 117.748 36.2998 117.728 36.3308C117.768 36.3608 117.79 36.3298 117.799 36.2668Z" fill="black"/>
<path d="M123.643 33.0769L123.783 32.3069C123.142 32.9579 122.554 32.9129 121.946 32.7699C121.343 32.6299 120.72 32.3669 120.117 32.7069L120.2 32.4319C118.665 32.3219 117.18 32.5539 115.782 33.1319C115.08 33.4009 114.387 33.6659 113.709 33.9759C113.034 34.3189 112.364 34.6529 111.681 34.9449C111.707 34.8559 111.674 34.6289 111.702 34.5299C111.619 34.8229 111.575 35.3399 111.407 35.3059C111.329 35.1459 111.37 34.9459 111.403 34.8589C110.959 34.3009 110.542 34.5729 110.191 34.9209C109.839 35.2769 109.539 35.6569 109.218 35.2359C109.087 35.4179 109.163 35.9549 109.365 36.3189C107.29 37.2139 105.127 38.3549 103.502 40.1699C103.333 40.0579 103.168 39.7489 103.01 39.3329C102.574 40.7109 101.858 41.4159 100.985 41.8559C100.117 42.2999 99.1451 42.6009 98.2031 42.9439C98.4211 43.4519 98.6721 43.3409 98.8011 43.9269C99.6761 44.2039 99.1101 42.1829 100.094 42.7569L100.29 43.2549C100.806 43.3429 99.7121 42.0479 100.411 42.4249C100.768 42.7269 100.699 43.0359 100.785 43.0309C101.443 42.4159 102.462 42.4839 102.629 40.9559C103.308 41.9019 103.49 40.5749 104.233 41.4289C104.247 40.9209 104.492 40.9169 104.266 40.1979C105.035 40.0589 105.757 39.8219 106.461 39.5239C107.164 39.2209 107.848 38.8519 108.562 38.5689C109.274 38.2549 109.987 37.9389 110.701 37.6229C111.427 37.3289 112.185 37.1649 112.948 37.0149C113.449 35.7749 114.297 35.6919 115.176 35.9189C116.062 36.1239 116.952 36.4639 117.788 36.0409C117.805 36.1189 117.808 36.2029 117.801 36.2679C118.325 35.7089 119.165 35.4319 119.846 35.6879L120.435 34.7349C121.476 35.2349 122.484 35.6179 123.499 35.8269C124.509 36.0879 125.515 36.3179 126.538 36.4599C127.551 36.6649 128.563 36.8989 129.572 37.1439C130.56 37.4699 131.536 37.8509 132.448 38.3639C134.552 39.4829 136.32 40.8459 138.151 42.0099C138.611 42.2989 139.083 42.5629 139.577 42.7939C140.06 43.0459 140.558 43.2819 141.094 43.4719C142.175 43.8329 143.333 44.1359 144.728 44.2339C144.595 44.4029 144.555 44.5219 144.403 44.5249C145.777 44.9629 146.239 46.3819 147.522 46.8269L147.378 46.9919C148.272 47.1619 149.036 47.5349 149.72 48.0109C150.387 48.5079 150.979 49.0989 151.57 49.6819C152.727 50.8829 153.843 52.0679 155.631 52.5679C158.061 55.5369 160.885 58.7969 163.622 61.8799L163.252 62.1159C164.315 63.0209 164.901 64.2639 165.292 65.5269C165.612 65.2249 165.93 64.9259 166.247 64.6279C165.534 63.9659 164.841 63.2519 164.085 62.6199C163.313 62.0159 162.456 61.5309 161.495 61.2599C160.144 60.0679 158.225 59.9199 156.38 59.9009C154.52 59.8699 152.758 59.9319 151.255 58.9109C150.46 57.6069 149.078 58.0119 147.824 58.4339C146.544 58.8879 145.386 59.3549 144.474 58.2019C142.548 56.3799 140.369 56.1299 138.354 56.6629C136.322 57.1919 134.457 58.5689 132.734 59.9529C130.81 59.7649 129.124 60.7169 127.517 61.5869C125.898 62.4769 124.344 63.2589 122.206 62.8799C121.765 63.9529 120.773 63.8859 119.66 63.7569C118.555 63.6229 117.326 63.4249 116.596 64.1129L116.931 64.5489C115.469 63.4889 116.829 67.3099 115.169 65.4569L115.171 65.3239C114.17 64.4739 116.065 68.2459 115.075 67.1239L115.369 67.6669C115.113 68.0519 114.936 67.1129 114.521 67.0989C114.46 67.2349 115.117 68.0519 114.704 67.9079C113.201 65.8759 114.171 68.9549 112.469 66.6969C112.676 66.5419 111.484 66.0619 111.603 65.2319C111.299 65.0909 110.707 65.7199 111.5 66.6349C112.249 67.6719 112.754 68.6929 113.688 69.2079L113.181 68.4249C113.865 69.0719 113.551 68.7259 114.015 69.2489C114.525 69.0189 115.387 70.0689 116.011 70.3099C115.992 70.2889 115.974 70.2709 115.951 70.2279C115.525 69.1689 116.206 69.4969 116.467 69.5159L116.825 69.8989C117.525 70.7349 116.168 67.7949 117.054 69.4379C117.717 68.4509 118.834 67.8059 119.911 67.1839C119.725 66.4819 120.785 66.7859 119.9 65.7159C120.913 66.9229 121.906 66.8699 122.182 66.6599C122.236 66.7959 122.296 66.9509 122.223 66.9229C123.683 68.4399 122.127 64.9039 123.734 66.8619C123.098 65.2299 124.967 66.9179 124.475 64.9039C124.698 65.2279 124.857 65.5389 124.953 65.8349C125.991 65.4329 127.35 65.5869 128.238 65.3609C128.506 63.6539 130.238 65.4189 130.296 63.2219C130.982 63.4929 132.062 64.0969 132.633 63.1089L132.617 63.3779C133.453 63.0339 134.508 62.7439 134.897 61.3169C135.503 63.2459 135.808 62.8089 136.279 63.3899C136.498 62.8889 136.916 62.6549 137.377 62.4399C137.841 62.2419 138.346 62.0489 138.767 61.5819C138.976 62.4879 139.491 61.1239 139.624 62.4779C141.983 59.6899 145.526 60.7469 147.786 63.1169L147.734 63.2049C148.178 62.5319 148.852 60.9869 149.401 60.1119C149.417 60.2349 149.372 60.4539 149.296 60.4329C149.859 60.2799 150.072 61.6509 150.609 61.5389C150.556 61.7569 150.556 61.7559 150.431 61.9459C151.032 61.4719 151.12 63.2219 151.91 62.3349L151.85 62.6879L152.322 62.2859C152.196 62.7139 152.009 63.3599 151.866 63.1769C153.833 63.9659 156.011 64.1679 158.226 64.6689C160.454 65.0959 162.697 65.8139 164.559 67.1409L164.19 67.4139L164.504 67.3619L172.302 66.0649L168.142 63.9449C167.833 63.7879 167.56 63.7059 167.27 63.5899C167.466 63.4789 167.584 63.4639 167.696 63.4529C167.707 61.9769 165.949 61.5899 165.459 60.5099C165.642 60.3929 166.103 60.3019 166.213 60.0269C164.715 59.9879 166.717 57.9479 164.385 59.0389C164.458 58.9379 164.907 58.5879 165.125 58.5439C163.025 57.0269 161.581 55.0389 160.308 52.8959C158.779 52.8449 158.035 52.0929 157.323 51.2779C156.587 50.4929 155.911 49.6169 154.514 49.5249L154.847 49.2129C151.857 48.4109 150.928 45.2759 148.52 43.7279C147.714 42.8659 146.789 42.7769 145.817 42.1409L146.128 41.6639C144.691 41.9689 144.168 40.9719 143.519 40.0359C142.895 39.0849 142.192 38.1169 140.69 38.6659L141.199 38.0629C140.329 38.9499 140.307 37.0779 139.429 38.9379L139.412 38.2149C138.178 39.0629 137.769 38.5629 137.363 37.8729C136.956 37.2099 136.544 36.3479 135.403 36.8629L135.697 36.4569C135.129 36.6349 134.539 36.7209 134.394 36.1809C134.468 36.1349 134.498 35.9929 134.645 35.9129C134.342 34.7479 133.599 34.4929 132.768 34.5449C131.941 34.5759 131.06 34.8329 130.362 34.5719L130.771 33.7499C129.784 34.5839 128.727 33.3329 127.681 33.5799L127.824 33.1769C127.824 33.1769 127.676 33.2959 127.527 33.4159C127.38 33.5319 127.232 33.6619 127.232 33.6609L127.382 32.8149C126.127 32.5799 124.852 33.0809 123.643 33.0769Z" fill="black"/>
<path d="M111.402 34.8588C111.407 34.8658 111.413 34.8649 111.421 34.8829C111.439 34.8019 111.424 34.8138 111.402 34.8588Z" fill="black"/>
<path d="M116.222 70.3738C116.151 70.3608 116.085 70.3418 116.01 70.3088C116.12 70.4448 116.165 70.3678 116.222 70.3738Z" fill="black"/>
<path d="M76.2351 47.4208C76.2351 47.4208 18.3891 23.1868 1.93408 94.2018C1.93408 94.2018 27.1641 54.1208 56.7821 64.6598" fill="white"/>
<path d="M58.3518 60.2478V59.9728L57.8848 60.5898L58.3518 60.2478Z" fill="black"/>
<path d="M56.3798 61.3338C56.3828 61.4728 56.2988 61.6748 56.3008 61.8148C56.3008 61.8148 56.6678 61.3848 57.0338 60.9548C57.4138 60.5288 57.7928 60.1028 57.7928 60.1028C57.7578 58.8618 56.3808 62.1558 56.3798 61.3338Z" fill="black"/>
<path d="M56.1941 61.0568C56.0011 60.4908 55.5931 61.3868 55.4321 61.6828C55.7511 60.9908 55.9631 62.0878 56.1941 61.0568Z" fill="black"/>
<path d="M27.6359 65.4268C27.6599 65.4078 27.6829 65.3648 27.6959 65.3238C27.6349 65.3208 27.6209 65.3628 27.6359 65.4268Z" fill="black"/>
<path d="M23.2969 72.1288L23.6949 72.7998C23.9399 70.8868 25.9859 71.2318 26.8059 69.9738L26.8719 70.2558C29.9739 68.6708 32.2349 66.0618 35.4559 64.2878C35.4309 64.3858 35.4889 64.6078 35.4659 64.7138C35.5339 64.3928 35.5579 63.8688 35.7669 63.8728C35.8709 64.0218 35.8299 64.2308 35.7959 64.3238C36.9029 65.3358 37.6759 62.8638 38.4189 63.7168C38.5909 63.5368 38.5519 62.9948 38.3329 62.6288C41.0399 61.5478 44.0869 60.9488 47.1769 59.9818C47.3229 60.1608 47.3419 60.5118 47.2939 60.9528C48.6049 59.8888 50.0279 59.7618 51.3979 59.9048C52.0859 59.9678 52.7449 60.2228 53.4019 60.4378C54.0529 60.6778 54.7059 60.8898 55.3209 61.1908C55.5669 60.6918 55.2059 60.5488 55.6149 60.0788C55.2779 59.6068 54.7879 59.8318 54.3289 60.0498C53.8699 60.2568 53.4499 60.4328 53.1529 59.8628L53.3579 59.3658C52.8369 58.9118 52.9879 60.6508 52.5179 59.8588C52.3599 59.3748 52.6959 59.2078 52.5919 59.1468C51.3279 59.1088 50.0119 58.5568 48.7599 59.6978C48.5329 58.5438 47.4369 59.6288 46.9899 58.5238C46.6579 58.9708 46.3309 58.8488 46.2189 59.6078C45.1379 59.4628 44.0469 59.5358 42.9569 59.6178C41.8849 59.7978 40.8079 60.0118 39.7639 60.3198C37.6779 60.9678 35.6779 61.7838 33.6809 62.5238C33.4119 63.2228 33.0279 63.6388 32.5619 63.8998C32.1079 64.1838 31.5749 64.3228 31.0019 64.4218C29.8509 64.5978 28.5999 64.7558 27.7409 65.6228C27.6889 65.5618 27.6499 65.4868 27.6339 65.4228C27.2209 66.2588 26.4379 67.0568 25.5179 67.2758C25.5179 67.2758 25.4789 67.5718 25.4419 67.8688C25.4109 68.1698 25.3799 68.4718 25.3799 68.4718C22.6099 69.0808 20.3159 70.6208 18.2119 72.3318C16.0969 74.0498 14.2169 76.0038 12.0149 77.6308C9.64591 79.6148 7.29991 81.4118 5.36891 83.5648C3.44491 85.7118 1.92991 88.2158 1.42191 91.5088C1.24991 91.3798 1.1229 91.3518 1.1369 91.1718C0.874902 91.8818 0.473902 92.4128 0.0249023 92.9958C1.4379 93.5848 2.7859 94.1458 4.1329 94.7068C4.4529 93.8368 4.82991 93.0188 4.79691 92.0748L5.00691 92.1338C4.60991 90.0418 5.1399 88.0768 5.8399 86.2108C6.5039 84.3238 7.0729 82.4508 6.8849 80.3738C7.3489 79.3268 7.80291 78.2378 8.24091 77.1188C8.73191 76.0228 9.2479 74.9128 9.7249 73.7738L10.4379 72.0558L11.2369 70.3768C11.7769 69.2618 12.2209 68.0908 12.7749 67.0018L13.1399 67.2438C13.8449 65.4018 15.1089 63.9148 16.6279 62.7048C17.3649 62.0798 18.0839 61.4548 18.7589 60.7978C19.4759 60.1778 20.1189 59.5018 20.6359 58.6818C21.4539 58.1128 22.1649 57.4448 22.7849 56.6498C23.4129 55.8648 23.9159 54.9068 24.5619 54.0848C25.1879 53.2388 25.8169 52.3558 26.5829 51.6528C27.3739 50.9878 28.2629 50.4478 29.2799 50.1848C30.8999 50.4758 31.8209 49.3058 32.8289 48.0878C33.8699 46.9908 34.9679 45.7638 36.4909 46.4398C39.3459 47.1868 41.5239 46.8448 43.7149 46.0218C44.2609 45.8148 44.7999 45.5658 45.3409 45.2848C45.8869 45.0278 46.4379 44.7608 46.9919 44.4608C48.0979 43.8378 49.2439 43.2398 50.4329 42.6408C52.7209 43.0738 54.9299 42.6138 57.2019 42.3808C59.4499 42.2048 61.7549 42.2388 63.7179 43.8038C64.8589 43.1628 65.8639 43.8648 66.8219 44.6788C67.7799 45.5278 68.6869 46.5018 69.8179 46.5668L69.8769 46.0188C70.2209 47.7998 72.2439 44.2638 72.0609 46.7628L71.9479 46.8458C71.9849 48.1568 73.7599 44.3278 73.5819 45.8238L73.8369 45.2588C74.3999 45.2498 73.6849 45.9398 73.9939 46.3018C74.1629 46.2778 74.4019 45.2548 74.5969 45.6938C73.8439 48.0938 76.0169 45.6078 75.0739 48.2838C74.8199 48.1918 75.0869 49.4568 74.3149 49.8088C74.3949 50.1408 75.1299 50.2788 75.5139 49.1388C76.0689 47.9878 76.8389 47.1018 76.6949 45.9738L76.2419 46.7938C76.4099 45.8618 76.2809 46.3108 76.4709 45.6358C75.8259 45.2608 76.1989 43.9608 75.8679 43.2518C75.8639 43.2788 75.8609 43.3048 75.8379 43.3478C75.1289 44.2858 74.8729 43.4978 74.6449 43.2598L74.6939 42.7328C74.8469 41.6458 73.2589 44.5028 74.0249 42.7948C72.4539 42.7878 70.8259 42.3288 69.2019 41.9818C68.8189 42.6198 67.9809 41.6458 68.0429 43.0538C67.9799 41.4378 66.8239 40.8198 66.3579 40.7968C66.4009 40.6568 66.4519 40.4978 66.5119 40.5678C65.9709 38.4198 65.1569 42.2018 64.7249 39.6528C64.3339 41.3548 63.2739 38.8658 62.5309 40.8368C62.4769 40.4418 62.4869 40.0918 62.5629 39.7898C61.8089 39.6858 61.0309 39.4318 60.2739 39.1758C59.5159 38.9428 58.7759 38.7198 58.1279 38.6348C56.9589 40.0588 55.4309 37.8588 54.4559 39.9278C53.6849 39.4808 52.3599 38.6508 51.2939 39.5228L51.3879 39.2618C50.1509 39.4568 48.5849 39.7028 47.8999 41.0968C47.3139 39.1418 46.8139 39.6178 46.1869 39.0538C45.8319 39.5748 45.2289 39.8258 44.5739 40.0748C43.9259 40.3608 43.2219 40.6518 42.6889 41.1938C42.3019 40.3238 41.7529 41.7888 41.3859 40.4848C38.4859 43.8478 34.4389 44.3058 30.0149 44.3218L30.0229 44.2098C29.9049 45.1138 30.1659 46.8348 30.2049 47.9018C30.1059 47.8208 30.0039 47.6218 30.0969 47.5798C29.6409 48.1238 28.4039 47.2418 27.9499 47.8288C27.8389 47.6338 27.8389 47.6338 27.8229 47.3908C27.6019 48.2498 26.1209 47.2058 26.0429 48.5038L25.8099 48.2288L25.6809 48.9108C25.4409 48.5348 25.0809 47.9678 25.3839 47.9438C22.7319 49.4178 20.6459 51.7768 18.8029 54.1978C17.8629 55.3968 17.0839 56.7218 16.1769 57.9098C15.2999 59.1248 14.5109 60.3848 13.5129 61.4888L13.3079 61.0628C13.3079 61.0628 13.2829 61.4038 13.2569 61.7438C13.2309 62.0818 13.2179 62.4238 13.2179 62.4238C13.0379 62.2868 12.9789 62.1778 12.9289 62.0738C11.4909 62.8608 11.6939 64.8418 10.7579 65.9078C10.5769 65.7878 10.3289 65.3788 10.0099 65.4158C10.4709 66.9268 7.7919 66.0878 9.7019 67.8178C9.5769 67.8008 9.06691 67.5458 8.94391 67.3498C8.76391 68.0968 8.53991 68.8148 8.27191 69.5108C8.00091 70.2038 7.6899 70.8758 7.4129 71.5598C6.8209 72.9128 6.08891 74.1968 5.27591 75.4448C5.85991 77.0228 5.46591 78.2208 4.98691 79.4158C4.50591 80.6048 3.96891 81.8008 4.47791 83.2818L4.0489 83.1228C4.3219 84.9108 3.77191 86.4458 3.11391 87.9868C2.51591 89.5408 1.75591 91.0828 1.49391 92.7298C1.30491 93.1948 1.2209 93.6258 1.1819 94.0218L0.729904 98.7968L2.59291 94.6098C2.89991 93.9218 3.1089 93.2128 3.5939 92.4858L4.0789 92.7848C3.8499 91.2188 4.9799 90.5128 6.0789 89.8228C7.1889 89.1298 8.27491 88.4528 8.11591 86.7708L8.60791 87.3888C7.91991 86.3398 9.85591 86.5478 8.19391 85.3378L8.94191 85.4108C7.97091 82.3818 11.8289 83.9838 11.8969 81.3458L12.1609 81.7748C12.2519 81.1298 12.4679 80.4638 13.0609 80.4878C13.0689 80.5818 13.1919 80.6608 13.1979 80.8418C15.7299 81.0028 15.5259 78.2138 16.8969 77.0578L17.3629 77.8588C17.2779 76.5088 19.0869 76.1938 19.6299 75.1268L19.8529 75.4968L19.8979 74.6728L20.4579 75.3258C21.0199 74.8768 21.4689 74.3278 21.8979 73.7458C22.3209 73.1648 22.7469 72.5758 23.2969 72.1288Z" fill="black"/>
<path d="M35.7969 64.3247C35.7909 64.3177 35.7839 64.3197 35.7739 64.3037C35.7559 64.3877 35.7739 64.3737 35.7969 64.3247Z" fill="black"/>
<path d="M75.7407 43.0288C75.7927 43.1008 75.8327 43.1698 75.8667 43.2558C75.9097 43.0868 75.7867 43.0848 75.7407 43.0288Z" fill="black"/>
<path d="M73.7346 61.4167C73.7346 61.4167 38.4186 61.8747 49.8476 117.682C49.8476 117.682 72.6506 62.0077 92.2856 82.2767" fill="white"/>
<path d="M95.6487 79.0188L95.7817 78.7798L95.1177 79.1498L95.6487 79.0188Z" fill="black"/>
<path d="M93.5917 79.2767C93.5297 79.3987 93.3667 79.5467 93.3027 79.6697C93.3027 79.6697 93.7907 79.4197 94.2797 79.1707C94.7797 78.9327 95.2787 78.6947 95.2787 78.6947C95.8387 77.5997 93.1987 79.9887 93.5917 79.2767Z" fill="black"/>
<path d="M93.5798 78.9718C93.6828 78.4178 92.9388 79.0688 92.6768 79.2778C93.2498 78.7748 92.9208 79.7918 93.5798 78.9718Z" fill="black"/>
<path d="M70.1657 80.8197C70.1817 80.7997 70.1887 80.7578 70.1867 80.7188C70.1347 80.7218 70.1347 80.7627 70.1657 80.8197Z" fill="black"/>
<path d="M68.4008 87.2768L68.9458 87.8348C68.5958 86.1238 70.4468 86.2278 70.7798 85.0368L70.9188 85.2828C73.0908 83.5898 74.1718 80.9748 76.4778 79.0488C76.4768 79.1418 76.5719 79.3508 76.5739 79.4518C76.5659 79.1518 76.4758 78.6378 76.6498 78.6228C76.7638 78.7578 76.7728 78.9648 76.7648 79.0578C77.3238 79.4828 77.6138 79.1248 77.9018 78.7378C78.1758 78.3388 78.4698 77.9578 78.8138 78.3508C78.9248 78.1628 78.8258 77.6278 78.5968 77.2788C80.7718 76.1678 83.4568 75.5728 86.4678 75.3228C86.5578 75.5268 86.4858 75.8758 86.3368 76.2918C87.7118 75.5838 89.0759 75.8088 90.1599 76.3958C91.2309 77.0128 92.0768 77.9408 92.8098 78.8188C93.2348 78.4608 93.0018 78.2208 93.5488 77.9378C93.3848 76.8778 91.6218 78.1188 91.6498 76.9058L92.0238 76.5248C91.7748 75.9388 91.1948 77.5688 91.1148 76.7078C91.1688 76.2198 91.5228 76.1688 91.4578 76.0818C90.4218 75.6468 89.4208 74.6518 87.9438 75.4588C88.0728 74.2778 86.7899 75.0278 86.6319 73.8718C86.2139 74.2428 85.9289 74.0638 85.6729 74.7878C83.7209 74.0778 81.5178 74.3298 79.6558 74.9678C77.7598 75.6048 76.1728 76.6208 74.5978 77.4858C74.4298 78.8598 73.6828 79.2328 72.7618 79.5428C71.8478 79.8418 70.7929 80.0928 70.3148 80.9938C70.2528 80.9428 70.1998 80.8788 70.1668 80.8208C70.0628 81.6468 69.5928 82.4208 68.8888 82.7308L69.1178 83.8228C66.9318 84.6538 65.3609 86.2258 64.0219 87.9178C62.6739 89.6178 61.5278 91.4428 59.9928 92.9998C56.8338 96.7208 53.2428 99.7318 53.6238 105.271C53.4358 105.165 53.3118 105.143 53.2888 104.994C53.0548 106.4 51.7798 107.136 51.6258 108.489L51.4318 108.388C51.6598 111.832 48.6909 113.992 48.9229 117.303C49.5869 117.365 50.2078 117.424 50.8288 117.482C50.7198 117.335 50.5998 117.199 50.4718 117.066C49.9838 113.445 49.0768 109.441 48.1768 105.637L48.6148 105.603C48.3088 104.857 48.2038 104.094 48.2118 103.329C48.2508 102.561 48.3959 101.793 48.5479 101.03C48.8209 99.4998 49.2428 98.0128 48.9008 96.4908C49.1358 95.7108 49.1388 94.9268 49.0268 94.1238C48.9088 93.3208 48.6359 92.4948 48.4099 91.6588C48.0169 90.0018 47.6278 88.2418 48.6178 86.7838C49.2418 86.3958 49.4338 85.9018 49.4578 85.3488C49.4978 84.8008 49.3368 84.1828 49.1808 83.5548C48.8318 82.2998 48.6768 81.0048 50.0178 80.4718C51.0938 79.8268 51.9648 79.1918 52.5078 78.4398C53.0888 77.7058 53.4948 76.9228 53.7308 76.0248C54.3128 74.3088 54.3878 72.1688 54.9378 70.0148C55.7289 69.4858 56.4169 68.9048 56.9789 68.1848C57.5999 67.5298 58.1138 66.7348 58.7598 66.0728C59.9748 64.6838 61.5568 63.5318 63.6738 63.8398C64.0548 62.7498 65.1099 62.8318 66.1449 63.0908C67.1999 63.3558 68.2388 63.8138 69.0038 63.3648L68.7958 62.8558C69.3228 63.5728 69.4939 62.9208 69.7029 62.3778C69.9069 61.8418 70.1388 61.4028 70.5818 62.5638L70.5398 62.6878C71.0858 63.8448 70.7658 59.6538 71.2528 61.0688L71.2078 60.4518C71.6108 60.2088 71.3718 61.1328 71.7328 61.3278C71.8418 61.2338 71.6168 60.2098 71.9268 60.5218C72.2938 63.0068 72.9288 59.8538 73.2098 62.6788C73.0138 62.6948 73.5998 63.7498 73.2208 64.3748C73.3838 64.6498 73.8699 64.4788 73.7589 63.2838C73.7859 62.0078 74.0949 60.8878 73.5889 59.9108L73.5308 60.8448C73.3318 59.9248 73.3898 60.3868 73.2928 59.6938C72.6688 59.6148 72.4609 58.2828 71.9229 57.7798C71.9309 57.8068 71.9389 57.8318 71.9379 57.8798C71.7589 59.0208 71.2688 58.4318 70.9908 58.3108L70.8088 57.8148C70.4658 56.7758 70.4718 60.0268 70.3298 58.1648C69.1508 58.8568 67.7608 59.1708 66.4338 59.6468C66.4678 60.3628 65.4068 59.9468 66.1498 61.1208C65.3108 59.7698 64.1518 59.7908 63.8178 60.0188C63.7738 59.8788 63.7238 59.7198 63.8038 59.7488C62.2598 58.2278 63.7438 61.7898 62.0458 59.8968C62.7308 61.5008 60.5728 60.0008 61.2128 62.0168C60.9478 61.7238 60.7488 61.4358 60.6248 61.1508C59.4668 61.7528 57.8898 62.0468 56.9268 62.6868C57.0018 63.5958 56.4378 63.7938 55.9398 64.0848C55.4548 64.3808 55.0118 64.7378 55.4278 65.7788C54.6278 65.8708 53.2398 66.0998 53.1968 67.3488L53.0688 67.1098C52.4778 68.0038 51.6598 69.0918 52.3488 70.4628C50.5498 69.5118 50.6028 70.1328 49.8038 70.1448C50.1278 71.2348 49.2188 72.3358 49.4038 73.6498C48.5058 73.3468 49.3638 74.6008 48.1398 74.0228C48.3958 74.9968 48.4009 75.8548 48.3409 76.6818C48.2729 77.5068 48.0298 78.2658 47.6648 78.9908C47.3438 79.7268 46.8858 80.4248 46.3288 81.1008C45.7608 81.7748 45.1978 82.4408 44.5168 83.0778L44.4348 83.0108C45.0558 83.5848 46.5418 84.3958 47.3848 84.9688C47.2608 84.9798 47.0418 84.9288 47.0698 84.8508C47.2048 85.4188 45.8249 85.6508 45.9659 86.2338C45.7469 86.1888 45.7468 86.1888 45.5518 86.0628C46.0538 86.6658 44.2978 86.9248 45.2238 87.6918L44.8648 87.6708L45.2988 88.1248C44.8618 88.0508 44.1898 87.9378 44.3708 87.7538C44.1108 88.9098 44.0428 90.1058 44.0538 91.3048C44.1178 92.5018 44.2988 93.7018 44.4708 94.8918C44.9048 97.2688 45.3928 99.5888 45.3788 101.913L44.9468 101.765L45.7498 102.623C45.5238 102.632 45.4129 102.596 45.3109 102.56C44.5859 103.769 46.0018 104.853 45.9088 105.973C45.6918 105.99 45.2448 105.863 45.0158 106.043C46.3068 106.739 43.5728 107.549 46.1258 107.678C46.0128 107.73 45.4498 107.822 45.2398 107.761C45.7788 108.861 46.1668 109.975 46.3628 111.122C46.5578 112.269 46.6208 113.435 46.6438 114.601C48.2268 115.503 48.2338 116.75 48.4808 117.967L49.4208 122.592L51.1418 118.216C51.4198 117.51 51.6298 116.741 51.2868 115.758L51.7009 115.952C51.2669 112.986 53.9718 111.278 54.8568 108.822C55.5128 107.941 55.3668 107.041 55.8528 106.062L56.3688 106.304C55.3278 103.639 59.8979 103.87 58.7849 101.052L59.3888 101.555C58.5018 100.695 60.3328 100.774 58.5108 99.8278L59.2198 99.8538C57.5708 97.3198 61.5129 98.4798 60.8799 96.2048L61.2328 96.5568C61.1448 95.9968 61.1628 95.4108 61.7128 95.3958C61.7438 95.4748 61.8768 95.5348 61.9278 95.6888C64.2568 95.6528 63.3178 93.2628 64.2108 92.1528L64.8539 92.8128C64.3869 91.6398 65.9178 91.2338 66.0788 90.2468L66.3819 90.5508L66.1838 89.8268L66.8669 90.3498C67.6129 89.4908 67.7268 88.1888 68.4008 87.2768Z" fill="black"/>
<path d="M76.7637 79.0568C76.7567 79.0508 76.7517 79.0538 76.7407 79.0378C76.7427 79.1218 76.7537 79.1058 76.7637 79.0568Z" fill="black"/>
<path d="M71.7319 57.6257C71.8009 57.6687 71.8619 57.7157 71.9219 57.7787C71.8889 57.6077 71.7899 57.6557 71.7319 57.6257Z" fill="black"/>
<path d="M84.0317 72.1868C107.44 55.8008 132.165 107.635 130.604 127.143C130.604 127.143 160.254 68.6218 110.317 58.9088" fill="white"/>
<path d="M109.422 63.5047L109.443 63.7798L109.769 63.1097L109.422 63.5047Z" fill="black"/>
<path d="M110.982 62.2138C110.974 62.0768 111.039 61.8668 111.03 61.7278L109.875 63.5848C109.947 64.8108 110.926 61.3918 110.982 62.2138Z" fill="black"/>
<path d="M111.153 62.4688C111.328 63.0098 111.664 62.0858 111.807 61.7808C111.536 62.4938 111.322 61.4278 111.153 62.4688Z" fill="black"/>
<path d="M131.996 74.8748C131.977 74.8558 131.934 74.8427 131.893 74.8387C131.892 74.8907 131.934 74.8968 131.996 74.8748Z" fill="black"/>
<path d="M137.877 79.6188L138.637 79.4428C137.798 78.9998 137.532 78.3488 137.333 77.6338C137.129 76.9298 137.07 76.1248 136.444 75.6298L136.736 75.5938C136.362 74.7518 135.903 73.9648 135.397 73.2288C134.824 72.5328 134.183 71.9008 133.543 71.2948C133.235 70.9808 132.875 70.7148 132.508 70.4588L131.427 69.6878C131.063 69.4388 130.73 69.1648 130.352 68.9358C129.968 68.7128 129.589 68.4858 129.219 68.2508C129.314 68.2268 129.483 68.0698 129.585 68.0418C129.276 68.1258 128.807 68.3728 128.715 68.1998C128.793 68.0378 128.992 67.9648 129.09 67.9468C129.244 67.2198 128.694 66.9978 128.167 66.8458C127.605 66.7308 127.06 66.6868 127.169 66.1538C126.917 66.1418 126.529 66.5238 126.38 66.9178C125.799 66.6018 125.208 66.2788 124.61 65.9548C123.974 65.6948 123.333 65.4408 122.686 65.2068C121.427 64.6828 119.994 64.4908 118.615 64.4188C118.567 64.2058 118.677 63.8718 118.877 63.4758C118.517 63.6018 118.177 63.6878 117.855 63.7378C117.521 63.8098 117.2 63.8518 116.891 63.8618C116.275 63.8818 115.705 63.7798 115.158 63.6048C114.081 63.2148 113.01 62.6828 111.907 62.2548C111.694 62.7688 112.002 62.8738 111.649 63.3758C112.189 64.2068 113.3 62.3858 113.701 63.5018L113.476 63.9908C113.847 64.4428 113.934 62.7318 114.224 63.5388C114.286 64.0248 113.989 64.1698 114.064 64.2358C115.095 64.3498 115.921 65.1218 117.284 64.2148C117.119 65.3358 118.285 64.6698 118.212 65.8268C118.621 65.5118 118.814 65.7228 119.209 65.0658C120.76 65.9928 122.296 66.7958 123.944 67.5338C124.722 67.9728 125.504 68.4138 126.286 68.8548C127.024 69.3578 127.703 69.9448 128.363 70.5498C129.771 70.3188 130.301 71.1988 130.74 72.0978C130.973 72.5428 131.088 73.0818 131.284 73.5528C131.48 74.0258 131.742 74.4438 132.188 74.7528C132.129 74.8068 132.057 74.8498 131.995 74.8738C132.829 75.1058 133.484 75.8828 133.639 76.6938L134.809 76.8748C134.83 77.5508 134.893 78.1918 134.993 78.8098C135.043 79.1188 135.101 79.4208 135.168 79.7198L135.311 80.6378C135.418 81.2438 135.554 81.8368 135.71 82.4238C135.823 83.0258 135.939 83.6288 136.073 84.2258C136.385 85.4098 136.497 86.6568 136.684 87.8768C136.732 88.4968 136.746 89.1228 136.748 89.7458C136.756 90.3688 136.729 90.9918 136.618 91.6188C136.435 94.4548 135.642 97.0658 135.242 99.6578C134.806 102.264 134.63 104.867 135.402 107.978C135.195 107.92 135.067 107.936 135.015 107.773C135.03 108.619 134.75 109.359 134.477 110.082C134.186 110.803 133.894 111.505 133.906 112.314L133.698 112.248C134.023 114.345 133.338 116.259 132.609 118.109C131.892 119.974 131.138 121.778 131.3 123.89C130.859 124.796 130.404 125.73 129.891 126.782C130.302 126.898 130.85 127.053 131.399 127.207C131.656 123.425 130.884 119.378 129.62 115.771L130.051 115.686C129.157 113.874 129.009 111.942 128.803 109.973C128.598 108.014 128.346 106.025 127.323 104.298C127.07 102.218 125.68 100.506 124.294 98.8608C122.899 97.2068 121.512 95.6198 121.16 93.5248C121.515 91.9148 120.277 90.9058 119.014 90.0018C117.783 89.0658 116.516 88.2508 116.827 86.6478C116.87 85.1778 116.566 83.8988 116.058 82.7638C115.496 81.6628 114.784 80.6668 113.837 79.8658C112.914 79.0478 111.86 78.3518 110.7 77.7878C109.581 77.1858 108.328 76.7558 107.138 76.3198C105.9 74.4398 103.848 73.4028 101.856 72.6738C100.881 72.2388 99.8809 71.9788 98.9789 71.4828C98.5209 71.2578 98.0588 71.0558 97.6178 70.7468C97.3948 70.5978 97.1758 70.4268 96.9549 70.2438C96.7278 70.0908 96.5008 69.9168 96.2708 69.7198C95.7048 70.0318 95.2228 69.9808 94.7258 69.8448C94.2288 69.7278 93.7218 69.4308 93.1658 69.0978C92.6118 68.7438 92.0158 68.5338 91.3908 68.3398C91.0788 68.2548 90.7628 68.1968 90.4518 68.1838C90.1468 68.2028 89.8498 68.2838 89.5688 68.4158L89.7818 68.9228C89.1698 68.2308 88.8249 68.9248 88.5739 69.4888C88.3049 70.0408 88.1469 70.5838 87.4399 69.5318L87.4809 69.3928C87.0379 68.9038 87.0608 69.6938 87.1428 70.4278C87.2178 71.1648 87.3418 71.8478 86.9028 71.2318L87.1128 71.8098C86.7488 72.1658 86.7428 71.1948 86.2818 71.1568C86.1888 71.3028 86.7609 72.1778 86.3389 72.0218C85.7039 70.9338 85.4889 71.2238 85.2719 71.4718C85.0519 71.7198 84.8258 71.9268 84.0408 70.7468C84.3108 70.5808 83.0188 70.0848 83.3158 69.2068C82.9798 69.0698 82.1868 69.7268 82.9618 70.6598C83.6308 71.7538 83.9928 72.8448 84.9888 73.3708L84.5499 72.5518C85.2189 73.2318 84.9218 72.8688 85.3618 73.4168C85.9758 73.1878 86.7579 74.2948 87.3819 74.5698C87.3649 74.5478 87.3488 74.5278 87.3308 74.4838C87.0198 73.3818 87.6848 73.6988 87.9518 73.7838L88.2628 74.2138C88.8308 75.1508 87.9429 72.0518 88.5669 73.8048C88.9839 73.3908 89.4929 72.9668 90.0799 72.8078C90.6579 72.6048 91.2638 72.3808 91.8828 72.3538C91.9698 71.6368 92.8438 72.3048 92.4608 70.9808C92.9268 72.4278 93.7648 72.9328 94.0938 72.8588C94.0728 73.0038 94.0488 73.1688 94.0018 73.1098C94.2448 74.1308 94.4268 73.6348 94.6608 73.2718C94.8788 72.8988 95.1418 72.5878 95.2228 73.8538C95.4118 73.0048 95.6658 73.1918 95.9418 73.3378C96.2208 73.4598 96.5128 73.6678 96.9738 72.7288C96.9438 73.1248 96.8678 73.4658 96.7538 73.7548C97.2738 73.9478 97.7758 74.2328 98.2248 74.6638C98.6738 75.0798 99.0979 75.3808 99.4939 75.6958C100.217 75.2358 100.597 75.6538 100.974 75.9818C101.353 76.3378 101.725 76.6598 102.656 76.0188C102.956 76.7328 103.187 78.0778 104.429 78.0078L104.193 78.1488C105.077 78.6848 106.049 79.5538 107.541 79.1068C106.332 80.7598 106.924 80.8068 106.767 81.5828C107.343 81.5188 107.837 81.7868 108.341 82.1208C108.835 82.4698 109.354 82.8628 110.039 83.0168C109.428 83.7338 110.938 83.4658 109.909 84.3638C113.904 85.1568 115.477 89.1668 115.411 93.0268L115.304 93.0328C116.166 93.0318 117.851 92.6578 118.902 92.6008C118.82 92.6978 118.622 92.8028 118.583 92.7148C119.106 93.1528 118.222 94.3058 118.737 94.7358C118.538 94.8368 118.537 94.8368 118.3 94.8478C119.12 95.0808 117.906 96.4108 119.144 96.5508L118.843 96.7458L119.487 96.9128C119.084 97.1028 118.475 97.3888 118.501 97.1158C119.517 99.5738 121.026 101.844 122.507 104.207C123.984 106.565 125.35 109.052 125.989 111.75L125.529 111.675L126.546 112.494C126.327 112.55 126.208 112.53 126.098 112.509C125.752 114.01 127.291 115.056 127.417 116.403C127.204 116.443 126.735 116.344 126.538 116.576C127.928 117.282 125.287 118.391 127.868 118.392C127.761 118.458 127.207 118.591 126.987 118.532C128.293 120.996 128.574 123.861 128.043 126.362C128.24 126.56 128.403 126.764 128.537 126.98L132.988 134.178L132.458 128.084C132.338 126.707 132.827 125.703 133.302 124.619C133.773 123.551 134.203 122.448 133.838 121.096L134.258 121.273C133.923 117.732 136.62 115.109 137.22 111.783C137.785 110.504 137.465 109.453 137.782 108.111L138.344 108.209C137.528 106.816 138.308 105.76 138.964 104.614C139.302 104.046 139.635 103.466 139.765 102.853C139.878 102.237 139.774 101.585 139.272 100.9L140.014 101.175C138.879 100.636 140.644 99.7558 138.586 99.6468L139.248 99.2958C137.979 98.3238 138.36 97.6438 138.868 96.8868C139.36 96.1388 139.935 95.3038 139.109 94.2688L139.589 94.4168C139.249 93.8658 138.946 93.2468 139.386 92.8538C139.456 92.9158 139.6 92.8878 139.729 93.0168C140.679 92.1768 140.649 91.2488 140.321 90.3488C139.974 89.4428 139.398 88.5718 139.371 87.6848L140.289 87.7958C139.124 87.0488 139.906 85.3428 139.213 84.2908L139.647 84.2798L138.931 83.8298L139.77 83.6428C139.633 82.8968 139.314 82.2138 138.961 81.5598C138.557 80.9118 138.142 80.2928 137.877 79.6188Z" fill="black"/>
<path d="M129.091 67.9468C129.088 67.9558 129.093 67.9598 129.084 67.9778C129.166 67.9508 129.145 67.9428 129.091 67.9468Z" fill="black"/>
<path d="M87.5899 74.6438C87.5199 74.6278 87.4549 74.6048 87.3809 74.5688C87.4789 74.7138 87.5339 74.6358 87.5899 74.6438Z" fill="black"/>
</svg>
