<svg width="191" height="191" viewBox="0 0 191 191" fill="none" xmlns="http://www.w3.org/2000/svg">
<path d="M47.7339 169.308H5.75293L13.804 124.798H51.9949L47.7339 169.308Z" fill="white"/>
<path d="M51.7289 169.691L51.9609 169.632L51.3599 169.364L51.7289 169.691Z" fill="black"/>
<path d="M50.4791 168.195C50.3631 168.224 50.1781 168.186 50.0601 168.216L51.754 169.186C52.791 168.924 49.7861 168.365 50.4791 168.195Z" fill="black"/>
<path d="M50.6808 167.976C51.1238 167.705 50.3038 167.497 50.0298 167.397C50.6638 167.567 49.7758 167.957 50.6808 167.976Z" fill="black"/>
<path d="M52.8857 140.584C52.8877 140.614 52.9067 140.654 52.9307 140.686C52.9617 140.64 52.9387 140.607 52.8857 140.584Z" fill="black"/>
<path d="M50.7449 133.178L50.0889 133.04C51.1429 134.484 49.7979 135.871 50.1789 137.329L49.9549 137.212C49.3539 140.76 50.1469 144.161 50.3119 147.755C50.2479 147.693 50.0539 147.655 49.9819 147.591C50.1959 147.784 50.6018 148.015 50.5268 148.201C50.3748 148.236 50.2239 148.118 50.1639 148.05C48.9949 148.694 50.6479 150.316 49.7579 150.702C49.8549 150.924 50.3039 151.06 50.6619 150.976C50.6769 153.778 50.6018 156.767 51.1908 159.675C51.0279 159.796 50.7269 159.793 50.3529 159.719C51.9009 162.305 50.9499 164.77 50.4239 167.213C50.8829 167.353 50.9439 167.009 51.4059 167.299C52.0659 166.56 50.3998 165.734 51.3188 165.094L51.7609 165.23C52.1009 164.734 50.6328 165.015 51.2668 164.527C51.6648 164.348 51.8369 164.635 51.8799 164.539C51.8009 163.407 52.3189 162.283 51.3229 161.129C52.3279 160.963 51.4709 159.935 52.4469 159.612C52.0879 159.287 52.2149 159.007 51.5759 158.835C52.4679 154.983 51.9009 150.907 52.3549 146.919C50.6389 144.867 53.1138 142.844 52.6908 140.564C52.7589 140.555 52.8308 140.565 52.8838 140.585C52.4858 139.817 52.3659 138.741 52.6819 137.9L51.9519 137.091C52.7809 135.144 53.1918 133.14 53.4538 131.112L53.6288 129.563L53.8419 127.284L54.2749 122.724C52.4989 122.703 50.7668 122.643 48.9488 122.487C48.3808 122.455 47.8169 122.422 47.2569 122.389C46.8859 122.351 46.5169 122.314 46.1509 122.277C45.4189 122.196 44.6949 122.117 43.9779 122.038C42.5439 121.882 41.1358 121.745 39.7328 121.7C36.9268 121.612 34.1398 121.895 31.2068 123.149C31.2138 122.965 31.1668 122.862 31.3188 122.785C29.6248 123.169 28.0828 122.483 26.4878 122.882L26.4928 122.694C24.5138 123.478 22.4549 123.425 20.4139 123.388C19.3929 123.369 18.3769 123.355 17.3779 123.45C16.0859 123.546 14.8198 123.752 14.0168 124.176C13.7828 124.17 13.5469 124.163 13.2689 124.155C13.0129 125.384 12.7599 126.698 12.5229 128.037C12.3129 129.224 12.1289 130.375 11.9559 131.57C11.6129 133.945 11.3378 136.363 11.1468 138.718L10.7789 138.64C10.8619 142.652 8.21687 146.036 8.11187 150.005C6.54787 153.823 8.76187 158.557 6.90887 162.358C6.42787 162.813 6.19689 163.349 6.11089 163.931C6.02389 164.522 6.05788 165.279 6.16588 165.85C6.26888 166.446 6.43185 166.929 6.53185 167.351C6.63085 167.781 6.66584 168.151 6.48284 168.698C6.75684 168.758 6.91386 168.914 6.99486 169.207C7.51586 169.931 8.89787 170.357 10.4349 170.562C10.8619 170.613 11.1179 170.651 11.4249 170.675C11.7249 170.7 12.0248 170.712 12.3238 170.713C12.9228 170.715 13.5209 170.671 14.1189 170.591C16.5129 170.27 18.9059 169.37 21.3349 168.503C25.8169 169.534 30.2929 166.886 34.6329 168.991C36.6899 167.641 38.9619 170.661 41.2499 170.27L41.1678 169.803C41.9898 171.221 42.9989 167.819 43.5119 169.926L43.4259 170.022C43.8609 171.094 44.4359 167.502 44.6999 168.774L44.7699 168.247C45.2969 168.095 44.8319 168.846 45.2389 169.057C45.3919 168.992 45.2969 168.095 45.6159 168.398C45.6849 170.56 46.9059 167.929 46.9429 170.358C46.6549 170.358 47.3939 171.3 46.7469 171.808C46.9319 172.057 47.8139 171.937 47.7349 170.906C47.8099 169.812 48.1549 168.858 47.6189 168.011L47.5109 168.808C47.3299 168.011 47.3739 168.41 47.3089 167.812C46.6079 167.707 46.5149 166.548 46.0119 166.068C46.0169 166.091 46.0218 166.113 46.0138 166.154C45.6708 167.109 45.1959 166.543 44.9239 166.406L44.8149 165.963C44.6489 165.033 44.0179 167.775 44.2309 166.184C42.8059 166.58 41.1729 166.561 39.5809 166.58C39.3579 167.184 38.3619 166.524 38.7099 167.692C38.3119 166.362 37.1269 166.024 36.6869 166.076C36.7029 165.952 36.7219 165.809 36.7909 165.859C35.9369 164.133 35.7789 167.456 34.9789 165.346C34.8539 166.836 33.5258 164.869 33.0738 166.621C32.9748 166.291 32.9429 165.992 32.9779 165.726C31.5379 165.693 29.9479 165.155 28.7289 165.087C27.6879 166.394 26.2079 164.495 25.3129 166.3C24.5709 165.917 23.3709 165.165 22.3349 165.89L22.4358 165.669C21.2678 165.774 19.8089 165.868 19.0069 167.003C18.6609 165.274 18.1558 165.62 17.6518 165.066C16.8718 165.868 15.2978 165.631 14.1078 166.36C13.9248 165.563 13.1259 166.698 13.0649 165.54C12.5099 165.912 11.9329 166.2 11.3399 166.415C11.1919 166.469 11.0428 166.518 10.8918 166.562C10.7588 166.606 10.7598 166.646 10.6808 166.682C10.5578 166.753 10.4218 166.808 10.2798 166.846C9.70884 166.999 9.09286 166.896 8.97686 166.614C9.39986 165.869 9.98384 165.236 10.5818 165.099L10.6669 165.089C9.99986 165.202 8.60386 165.033 7.86986 164.483C7.97786 164.454 8.16487 164.499 8.14287 164.587C8.04487 163.916 9.27484 163.515 9.18084 162.84C9.36884 162.879 9.36884 162.879 9.52984 163.015C9.13084 162.324 10.6649 161.941 9.91088 161.073L10.2189 161.089L9.87786 160.562C10.2529 160.641 10.8159 160.761 10.6489 160.98C12.0099 155.552 11.0818 149.528 12.3838 143.938L12.7038 144.209L12.2619 142.999C12.4509 143.04 12.5339 143.108 12.6099 143.176C13.5019 141.899 12.6978 140.261 13.1048 138.932C13.2868 138.972 13.6149 139.244 13.8559 139.09C13.0099 137.9 15.4829 137.717 13.4399 136.828C13.5479 136.799 14.0339 136.854 14.1869 136.987C14.0859 135.525 14.1758 134.078 14.3968 132.652C14.5078 131.939 14.6509 131.231 14.8209 130.53L15.0939 129.482L15.2429 128.961L15.3209 128.702C15.3449 128.627 15.3589 128.611 15.3779 128.564C14.6239 127.835 14.6789 126.776 14.8039 125.993C15.3069 125.983 15.8259 126.019 16.3119 125.949C16.8039 125.88 17.2589 125.704 18.0229 125.271L18.0109 125.662C21.2179 124.289 24.6189 125.756 27.9429 125.48C29.3229 125.638 30.2548 125.175 31.6418 125.15L31.6769 125.638C34.0109 123.781 36.5829 127.306 39.0179 125.263L38.8498 125.927C39.2268 124.898 40.3229 126.288 40.1789 124.529L40.6089 125.062C42.2639 122.736 43.6199 126.134 45.6479 124.626L45.5149 125.043C46.0539 124.72 46.6818 124.462 47.0818 124.845C47.0198 124.906 47.0489 125.029 46.9199 125.138C47.3579 125.531 47.6549 125.728 47.9559 125.8C48.2599 125.871 48.5798 125.82 48.9669 125.715C49.7139 125.506 50.8449 125.088 51.7319 125.032C51.7299 125.114 51.7238 125.198 51.7118 125.287C51.7118 125.287 51.5029 125.426 51.2939 125.564C51.0849 125.712 50.8749 125.861 50.8749 125.861C51.3449 125.743 51.3059 126.315 51.2049 126.887C51.1009 127.479 50.9379 128.046 51.1049 128.498L50.7389 128.497C50.7409 128.476 51.2169 128.913 51.2149 128.933L50.4729 128.963C50.4519 129.104 50.4468 129.219 50.4438 129.379C50.4388 129.561 50.4429 129.742 50.4529 129.924C50.4729 130.287 50.5149 130.65 50.5629 131.011C50.6579 131.738 50.7709 132.458 50.7449 133.178Z" fill="black"/>
<path d="M50.1641 148.05C50.1711 148.046 50.1721 148.04 50.1881 148.036C50.1281 147.987 50.1331 148.009 50.1641 148.05Z" fill="black"/>
<path d="M45.8301 165.919C45.8981 165.964 45.954 166.009 46.011 166.069C45.997 165.919 45.8881 165.952 45.8301 165.919Z" fill="black"/>
<path d="M185.575 169.308H136.436V129.058H185.575" fill="white"/>
<path d="M185.575 125.044L185.509 124.819L185.339 125.443L185.575 125.044Z" fill="black"/>
<path d="M184.458 126.431C184.491 126.544 184.476 126.732 184.509 126.846L185.164 125.068C184.872 124.06 184.652 127.105 184.458 126.431Z" fill="black"/>
<path d="M184.266 126.251C184.012 125.835 183.907 126.671 183.847 126.954C183.936 126.307 184.321 127.154 184.266 126.251Z" fill="black"/>
<path d="M161.892 126.665C161.915 126.661 161.947 126.638 161.97 126.611C161.93 126.585 161.905 126.612 161.892 126.665Z" fill="black"/>
<path d="M156.054 129.503L155.992 130.169C157.082 128.983 158.31 130.19 159.463 129.671L159.385 129.905C162.308 130.165 165.003 129.051 167.904 128.545C167.859 128.615 167.843 128.812 167.797 128.89C167.938 128.658 168.093 128.232 168.249 128.288C168.29 128.436 168.205 128.598 168.155 128.665C168.767 129.767 169.954 127.966 170.337 128.815C170.509 128.698 170.585 128.239 170.489 127.889C172.759 127.608 175.187 127.397 177.499 126.534C177.61 126.684 177.631 126.985 177.601 127.364C179.577 125.577 181.648 126.289 183.669 126.579C183.747 126.108 183.463 126.081 183.662 125.593C183.012 125.006 182.472 126.743 181.882 125.89L181.958 125.437C181.528 125.146 181.871 126.58 181.426 125.996C181.25 125.616 181.47 125.418 181.388 125.385C180.477 125.571 179.526 125.162 178.667 126.264C178.455 125.28 177.688 126.231 177.35 125.289C177.115 125.678 176.878 125.578 176.788 126.23C173.597 125.709 170.337 126.662 167.067 126.589C165.538 128.492 163.706 126.222 161.89 126.86C161.877 126.793 161.879 126.721 161.892 126.665C161.3 127.136 160.437 127.356 159.731 127.122L159.132 127.927C154.881 126.273 150.537 127.435 146.219 126.747C144.502 126.581 142.86 126.306 141.245 126.125L140.616 126.062L139.58 126.01C138.887 125.98 138.186 125.959 137.49 125.95C136.097 125.932 134.713 125.964 133.448 126.07C133.632 128.585 134.035 131.231 134.787 133.241C134.603 133.23 134.5 133.287 134.423 133.104C134.471 133.398 134.502 133.482 134.521 133.677C134.541 133.846 134.546 134.013 134.544 134.179C134.54 134.511 134.503 134.838 134.466 135.162C134.393 135.81 134.32 136.449 134.52 137.099L134.332 137.095C135.9 140.318 134.121 143.802 135.814 146.908C135.644 150.689 135.814 154.966 136.298 158.968L135.922 158.959C136.319 160.561 136.019 162.135 135.693 163.708C135.368 165.014 135.018 167.56 135.319 169.343C135.246 169.757 135.201 170.164 135.179 170.562C137.069 170.678 139.523 170.127 141.041 169.678C142.589 169.229 144.137 168.882 145.652 169.407C147.703 171.261 150.396 167.288 152.322 169.208C156.279 172.103 160.119 170.239 164.075 168.505C167.724 169.536 171.369 166.888 174.903 168.993C176.579 167.643 178.428 170.663 180.292 170.272L180.226 169.805C180.895 171.223 181.716 167.821 182.134 169.928L182.064 170.024C182.418 171.096 182.886 167.504 183.102 168.776L183.159 168.249C183.589 168.097 183.21 168.848 183.541 169.059C183.666 168.994 183.589 168.097 183.849 168.4C183.905 170.562 184.899 167.931 184.928 170.36C184.694 170.36 185.296 171.302 184.769 171.81C184.919 172.059 185.638 171.939 185.574 170.908C185.636 169.814 185.916 168.86 185.479 168.013L185.391 168.81C185.245 168.013 185.28 168.412 185.227 167.814C184.656 167.709 184.58 166.55 184.17 166.07C184.174 166.093 184.178 166.115 184.172 166.156C183.892 167.111 183.505 166.545 183.284 166.408L183.195 165.965C183.06 165.035 182.546 167.777 182.719 166.186C181.558 166.582 180.228 166.563 178.932 166.582C178.75 167.186 177.94 166.526 178.222 167.694C177.898 166.364 176.933 166.026 176.575 166.078C176.589 165.954 176.604 165.811 176.66 165.861C175.966 164.135 175.837 167.458 175.185 165.348C175.082 166.838 174.001 164.871 173.633 166.623C173.553 166.293 173.526 165.994 173.555 165.728C172.383 165.695 171.087 165.157 170.095 165.089C169.247 166.396 168.043 164.497 167.314 166.302C166.71 165.919 165.733 165.167 164.89 165.892L164.972 165.671C164.02 165.776 162.832 165.87 162.179 167.005C161.898 165.276 161.487 165.622 161.075 165.068C160.44 165.87 159.158 165.633 158.189 166.362C158.04 165.565 157.389 166.7 157.339 165.542C154.623 167.776 151.266 166.995 148.366 165.306L148.408 165.224C148.032 165.86 147.598 167.265 147.216 168.085C147.178 167.983 147.183 167.792 147.263 167.798C146.734 168.013 146.239 166.874 145.709 167.087C145.713 166.896 145.713 166.896 145.799 166.712C145.303 167.228 144.774 165.786 144.188 166.683L144.155 166.376L143.783 166.806C143.792 166.423 143.806 165.848 144.006 165.972C143.383 165.921 142.758 165.914 142.131 165.94C141.818 165.953 141.503 165.973 141.189 166.001L140.716 166.047C140.613 166.065 140.623 166.082 140.569 166.102C140.252 166.258 139.75 166.497 139.022 166.721C138.65 166.199 138.314 165.521 138.444 162.974L138.807 163.145L138.157 162.24C138.35 162.245 138.444 162.288 138.53 162.331C139.18 161.179 138.098 159.982 138.262 158.858C138.448 158.864 138.819 159.034 139.03 158.877C137.985 158.045 140.386 157.541 138.218 157.124C138.319 157.086 138.807 157.06 138.981 157.144C138.262 154.831 138.303 152.455 138.655 150.123C136.692 148.182 138.469 146.012 136.911 143.995L137.302 144.005C135.929 141.394 137.396 138.624 137.12 135.918C137.278 134.809 136.815 134.002 136.79 132.939L137.278 132.961C136.682 132.403 136.64 131.685 136.791 131.192C136.941 130.675 137.284 130.39 137.458 130.084C138.222 130.278 138.57 130.262 138.826 129.529C138.826 129.529 138.88 129.695 138.933 129.861C138.992 130.027 139.05 130.193 139.05 130.193C138.898 129.678 139.213 129.769 139.412 129.768C139.612 129.767 139.754 129.674 139.47 128.794C139.47 128.794 139.593 128.928 139.716 129.062C139.828 129.195 139.941 129.328 139.941 129.328C141.189 127.002 142.366 130.4 143.995 128.892L143.887 129.309C144.325 128.986 144.837 128.728 145.162 129.111C145.111 129.172 145.136 129.295 145.031 129.404C146.406 131.058 147.935 129.232 149.386 129.295L149.221 130.072C149.922 129.16 151.209 130.01 152.13 129.592L152.074 129.957L152.541 129.441L152.553 130.177C153.754 130.226 154.883 129.589 156.054 129.503Z" fill="black"/>
<path d="M168.155 128.665C168.151 128.657 168.146 128.657 168.142 128.642C168.106 128.706 168.123 128.698 168.155 128.665Z" fill="black"/>
<path d="M184.024 165.919C184.08 165.964 184.126 166.009 184.171 166.069C184.161 165.919 184.072 165.952 184.024 165.919Z" fill="black"/>
<path d="M107.608 54.5997L107.792 54.7567L107.695 54.0997L107.608 54.5997Z" fill="black"/>
<path d="M108.255 52.6737C108.163 52.5947 108.093 52.4197 107.999 52.3397L108.077 54.3187C108.899 55.0207 107.709 52.2017 108.255 52.6737Z" fill="black"/>
<path d="M108.567 52.7097C109.062 52.9147 108.788 52.1127 108.723 51.8267C108.926 52.4517 108.074 51.9507 108.567 52.7097Z" fill="black"/>
<path d="M134.564 38.2048C134.539 38.2238 134.512 38.2638 134.498 38.3018C134.556 38.2998 134.574 38.2608 134.564 38.2048Z" fill="black"/>
<path d="M140.05 32.0187L139.805 31.3937C139.093 33.1257 137.081 32.8398 135.979 34.0248L135.959 33.7698C132.413 35.3888 129.786 38.0717 126.632 40.3507C126.652 40.2597 126.576 40.0787 126.594 39.9797C126.54 40.2727 126.561 40.7458 126.35 40.7938C126.233 40.6898 126.255 40.4937 126.282 40.4027C125.042 39.8207 124.509 42.1548 123.657 41.6488C123.511 41.8608 123.64 42.3137 123.918 42.5597C121.395 44.2417 118.651 45.9618 116.356 48.1838C116.155 48.1218 115.988 47.8697 115.843 47.5167C114.379 50.3377 111.615 51.0207 109.111 52.0427C109.244 52.5057 109.59 52.3508 109.588 52.9058C110.629 53.0108 110.436 51.1408 111.532 51.5198L111.658 51.9658C112.299 51.9508 111.217 50.9048 112.015 51.1388C112.401 51.3618 112.238 51.6737 112.35 51.6527C113.329 50.9127 114.636 50.6718 115.118 49.1598C115.835 49.8908 116.281 48.5698 117.123 49.1838C117.215 48.6938 117.539 48.6308 117.334 48.0008C121.317 46.4408 124.682 43.5437 128.542 41.5407C129.43 38.8988 132.652 39.7387 134.475 38.0297C134.522 38.0807 134.553 38.1458 134.566 38.2028C135.036 37.4148 135.94 36.6748 136.878 36.4338L137.196 35.3478C138.254 35.1218 139.269 34.8108 140.257 34.4408C140.75 34.2548 141.236 34.0548 141.718 33.8428L142.104 33.6668L142.625 33.4128L143.674 32.8897C146.493 31.4567 149.197 29.9188 151.963 28.4398C150.007 27.2938 148.162 26.1607 146.329 24.8827C145.283 24.1927 144.253 23.5128 143.236 22.8418L142.465 22.3238L141.985 21.9757L141.034 21.2848C139.769 20.3688 138.519 19.4827 137.227 18.6807C134.643 17.0757 131.89 15.8037 128.512 15.2907C128.613 15.1357 128.619 15.0198 128.8 15.0358C127.021 14.4458 125.921 13.0138 124.227 12.4888L124.326 12.3298C119.832 11.5318 116.718 7.66275 112.294 7.05075C111.769 6.72775 111.235 6.39975 110.681 6.05975C110.053 5.68875 109.403 5.30275 108.713 4.89575C108.217 5.17075 107.715 5.45075 107.208 5.73175C106.732 6.00275 106.252 6.27775 105.769 6.55375C104.897 7.07275 104.013 7.59875 103.124 8.12775C101.359 9.20575 99.6 10.3348 97.908 11.4798L97.737 11.1438C94.389 13.8978 89.818 14.1348 86.386 16.7148C82.142 18.0728 79.556 22.9488 75.141 24.0738C73.658 23.8538 72.03 25.3128 71.323 26.2878C70.934 26.7938 70.709 27.2157 70.314 27.5387C69.91 27.8667 69.327 28.1007 67.961 28.3787C67.94 28.4037 67.913 28.4277 67.881 28.4517C67.558 29.1007 68.367 30.0787 69.569 31.0317C70.173 31.5107 70.879 31.9857 71.62 32.4287C71.991 32.6497 72.371 32.8638 72.752 33.0667L73.302 33.3478L73.747 33.5508C76.14 34.6008 78.827 35.1528 81.532 35.7528C85.178 39.1208 90.699 39.3227 93.665 43.5357C96.27 43.5147 96.842 47.3678 99.172 48.3008L99.335 47.8547C99.375 49.5287 102.054 47.1627 101.454 49.2577L101.324 49.2918C101.181 50.4538 103.553 47.6858 103.149 48.9248L103.484 48.5107C104.052 48.6717 103.236 49.0608 103.506 49.4668C103.682 49.4938 104.052 48.6718 104.194 49.1088C103.153 51.0048 105.634 49.4207 104.426 51.5277C104.157 51.3687 104.364 52.5878 103.503 52.6668C103.547 52.9828 104.43 53.3678 104.884 52.4378C105.513 51.5398 106.322 50.9108 106.255 49.8848L105.747 50.5107C105.986 49.7257 105.823 50.0918 106.068 49.5418C105.469 49.0628 105.974 48.0158 105.752 47.3238C105.745 47.3468 105.738 47.3688 105.71 47.3998C104.902 48.0298 104.749 47.2798 104.565 47.0118L104.691 46.5698C105.011 45.6798 103.021 47.6867 104.034 46.4367C102.505 45.9877 100.994 45.0667 99.502 44.2017C98.985 44.5977 98.396 43.4788 98.123 44.6748C98.432 43.3118 97.501 42.3647 97.064 42.1657C97.143 42.0677 97.233 41.9557 97.272 42.0368C97.36 40.0817 95.514 42.8488 95.847 40.5938C94.969 41.8048 94.738 39.3798 93.421 40.6348C93.498 40.2958 93.62 40.0208 93.789 39.8128C92.466 38.9868 91.26 37.6437 90.159 36.9118C88.522 37.4578 88.115 35.0067 86.359 36.0617C85.864 35.3227 85.131 34.0108 83.797 34.0608L84.003 33.9258C82.861 33.3688 81.455 32.6417 80.128 33.1737C80.69 31.4967 80.044 31.5148 79.857 30.7588C78.721 31.0158 77.376 29.9417 75.895 29.9067C76.031 29.5237 75.706 29.4287 75.544 29.3787C75.472 29.3827 75.415 29.3418 75.779 28.8848C74.755 29.7768 72.763 28.9238 72.589 28.4528C73.692 28.1078 75.104 27.9607 75.849 28.3637L75.926 28.4157C75.288 28.0407 74.315 26.9747 74.146 26.1307C74.242 26.1927 74.358 26.3487 74.294 26.3767C74.358 26.2787 74.481 26.2468 74.615 26.2568C74.746 26.2678 74.885 26.3228 75.113 26.3288C75.523 26.3668 75.933 26.4047 76.19 26.1417C76.278 26.3127 76.278 26.3127 76.266 26.5277C76.595 25.7567 77.908 26.6798 78.158 25.5178L78.345 25.7647L78.572 25.1498C78.746 25.4908 79.008 26.0038 78.716 26.0228C84.193 23.4288 88.701 18.6747 94.278 15.9277L94.255 16.3568L94.995 15.2057C95.083 15.3787 95.078 15.4878 95.069 15.5918C96.726 15.4208 97.597 13.7037 98.986 13.1257C99.069 13.2927 99.05 13.7268 99.335 13.8108C99.8 12.3618 101.547 14.1398 100.985 11.9738C101.079 12.0368 101.345 12.4478 101.331 12.6548C102.505 11.5958 103.79 10.6948 105.141 9.90875C105.817 9.51575 106.509 9.15275 107.213 8.81175C107.636 8.60275 107.758 8.56675 107.949 8.49975C108.132 8.43775 108.307 8.38475 108.472 8.34375C108.528 8.17775 108.595 8.02075 108.677 7.86875C109.317 7.40575 110.186 7.92175 111.394 8.63175C112.511 9.28875 113.638 9.94775 115.096 9.94875L114.888 10.2798C118.58 10.8398 121.03 13.9588 124.281 15.5298C125.495 16.4178 126.6 16.5248 127.912 17.2588L127.699 17.6988C130.819 17.3638 131.456 21.8128 134.763 21.3718L134.273 21.8538C135.143 21.1698 135.47 22.9688 136.219 21.3698L136.354 22.0638C139.073 20.9538 138.635 24.6298 141.293 24.4298L140.958 24.7178C141.585 24.7078 142.443 24.9078 142.509 25.3908C142.403 25.3988 142.326 25.4968 142.129 25.5088C142.18 26.4948 142.63 26.7068 143.658 27.0248C144.629 27.3088 146.192 27.7078 146.948 28.1838L145.272 28.1097C145.699 28.1677 146.049 28.2468 146.357 28.3478C146.322 28.5418 145.77 28.7837 145.263 29.0037C144.745 29.2317 144.274 29.4377 144.125 29.7127L143.679 29.5387C143.698 29.5287 143.913 29.9988 143.894 30.0088L142.961 29.6758C141.914 30.1918 141.508 31.1327 140.05 32.0187Z" fill="black"/>
<path d="M126.282 40.4037C126.29 40.4077 126.297 40.4047 126.308 40.4167C126.32 40.3357 126.302 40.3537 126.282 40.4037Z" fill="black"/>
<path d="M105.661 47.1008C105.702 47.1758 105.731 47.2468 105.753 47.3298C105.816 47.1938 105.698 47.1608 105.661 47.1008Z" fill="black"/>
<path d="M33.362 86.7457C33.362 90.3627 36.286 93.2897 39.905 93.2897H59.037C62.654 93.2897 65.581 90.3627 65.581 86.7457V66.2457C65.581 62.6257 62.654 59.6997 59.037 59.6997H44.592C38.989 59.6997 38.608 67.7617 38.608 67.7617C38.608 67.7617 33.362 84.6737 33.362 86.7457ZM187.94 48.4867H39.477C33.652 48.4867 28.473 54.8607 24.874 58.8917L9.97803 140.119H187.939L187.94 48.4867Z" fill="white"/>
<path d="M187.94 136.105L187.738 135.879L187.214 136.503L187.94 136.105Z" fill="black"/>
<path d="M184.497 137.491C184.599 137.604 184.55 137.792 184.652 137.906L186.673 136.128C185.77 135.12 185.092 138.165 184.497 137.491Z" fill="black"/>
<path d="M183.902 137.312C183.118 136.896 182.793 137.732 182.61 138.015C182.884 137.367 184.072 138.214 183.902 137.312Z" fill="black"/>
<path d="M114.861 137.726C114.934 137.722 115.032 137.699 115.104 137.672C114.981 137.646 114.903 137.672 114.861 137.726Z" fill="black"/>
<path d="M96.8478 140.564L96.6598 141.23C100.02 140.044 103.812 141.251 107.367 140.732L107.127 140.966C116.147 141.226 124.465 140.112 133.414 139.606C133.274 139.676 133.227 139.873 133.083 139.951C133.515 139.719 133.993 139.293 134.478 139.349C134.604 139.497 134.343 139.659 134.187 139.726C136.077 140.828 139.738 139.027 140.919 139.876C141.45 139.759 141.685 139.3 141.389 138.95C148.393 138.669 155.887 138.458 163.021 137.595C163.364 137.745 163.426 138.046 163.333 138.425C169.431 136.638 175.821 137.35 182.061 137.64C182.3 137.169 181.425 137.142 182.04 136.654C180.033 136.067 178.366 137.804 176.547 136.951L176.78 136.498C175.456 136.207 176.511 137.641 175.138 137.057C174.596 136.677 175.273 136.479 175.022 136.446C172.209 136.632 169.274 136.223 166.625 137.325C165.971 136.341 163.603 137.292 162.563 136.35C161.834 136.739 161.104 136.639 160.828 137.291C150.981 136.77 140.922 137.723 130.835 137.65C126.114 139.553 120.462 137.283 114.859 137.921C114.82 137.854 114.827 137.782 114.864 137.726C113.038 138.197 110.377 138.417 108.197 138.183L106.35 138.988C93.2328 137.334 79.8278 138.496 66.5038 137.808C51.3638 137.333 38.1008 135.962 23.3568 138.47C23.3758 138.286 23.2568 138.183 23.6378 138.106C21.5108 138.298 19.4768 138.222 17.4748 138.149L15.9778 138.098L14.7668 138.074C14.2508 138.071 13.7428 138.103 13.1118 138.203L13.2758 138.015C12.9568 138.094 12.6148 138.164 12.2498 138.228C11.9258 136.707 13.1318 130.599 13.9918 126.089C14.8998 121.312 15.7478 116.572 15.7778 111.951C18.0498 100.505 20.2618 87.4957 22.0128 75.2607L22.3778 75.3577C22.8778 70.4247 24.0498 65.7007 25.2458 60.9837L25.6568 59.4177C25.6638 59.2907 25.7708 59.2147 25.8588 59.1297L26.1218 58.8777L26.7048 58.3057L29.2708 55.7647C30.9878 54.1057 32.7188 52.5077 34.5998 51.1777C35.6668 50.6617 36.7348 50.2257 37.8148 49.9677C38.0858 49.9207 38.3558 49.8507 38.6268 49.8097L39.4428 49.7327L41.3748 49.6447C43.9648 49.4997 46.5748 49.2397 49.1868 48.9867C54.4118 48.4827 59.6458 48.0137 64.7598 48.5877C71.0868 50.4407 79.3988 46.4677 85.3428 48.3887C97.5538 51.2837 109.4 49.4197 121.608 47.6857C132.871 48.7167 144.116 46.0687 155.022 48.1727C160.19 46.8237 165.898 49.8427 171.649 49.4537L171.443 48.9857C173.507 50.4037 176.044 47.0007 177.332 49.1087L177.114 49.2037C178.207 50.2757 179.653 46.6837 180.317 47.9557L180.494 47.4287C181.817 47.2767 180.65 48.0287 181.672 48.2397C182.056 48.1737 181.818 47.2767 182.619 47.5807C182.793 49.7427 185.86 47.1117 185.952 49.5407C185.227 49.5407 187.086 50.4817 185.461 50.9907C185.924 51.2397 188.142 51.1197 187.942 50.0887C188.131 48.9937 188.998 48.0407 187.65 47.1937L187.379 47.9907C186.926 47.1937 187.034 47.5927 186.872 46.9947C185.11 46.8897 184.875 45.7297 183.612 45.2497C183.625 45.2727 183.636 45.2957 183.618 45.3367C182.755 46.2917 181.56 45.7247 180.878 45.5887L180.604 45.1447C180.189 44.2167 178.601 46.9587 179.136 45.3667C175.556 45.7627 171.451 45.7427 167.45 45.7627C166.89 46.3677 164.388 45.7067 165.262 46.8737C164.261 45.5437 161.283 45.2077 160.179 45.2587C160.22 45.1337 160.267 44.9917 160.44 45.0417C158.295 43.3157 157.899 46.6387 155.889 44.5287C155.575 46.0177 152.239 44.0527 151.101 45.8047C150.853 45.4727 150.771 45.1737 150.861 44.9087C147.243 44.8747 143.247 44.3377 140.185 44.2697C137.57 45.5767 133.852 43.6777 131.602 45.4827C129.739 45.1007 126.723 44.3467 124.122 45.0727L124.375 44.8507C121.439 44.9557 117.772 45.0497 115.759 46.1857C114.891 44.4567 113.622 44.8027 112.354 44.2487C110.394 45.0497 106.437 44.8137 103.447 45.5417C102.989 44.7447 100.98 45.8807 100.826 44.7217C92.4468 46.9577 82.0878 46.1747 73.1408 44.4867L73.2698 44.4047C72.1088 45.0407 70.7708 46.4447 69.5898 47.2647C69.4738 47.1637 69.4858 46.9717 69.7348 46.9777C68.1008 47.1937 66.5728 46.0557 64.9408 46.2677C64.9548 46.0757 64.9548 46.0757 65.2178 45.8927C63.6868 46.4087 62.0528 44.9667 60.2448 45.8637L60.1428 45.5577L58.9938 45.9867C59.0218 45.6047 59.0658 45.0287 59.6808 45.1537C56.1738 45.0597 52.6378 45.1137 49.0818 45.2437C47.3048 45.3237 45.5218 45.4037 43.7348 45.4837L41.0518 45.6297L39.7088 45.7057C39.5178 45.7117 39.1808 45.7467 38.8898 45.7777C38.5928 45.8107 38.2938 45.8407 38.0018 45.8847C35.6718 46.3337 33.7338 47.4107 32.0978 48.6037C30.4528 49.8067 29.0768 51.1707 27.7858 52.5497C26.4938 53.9377 25.3228 55.3337 24.1228 56.7297L23.4708 57.4777C23.2798 57.7397 22.9528 57.9347 22.9688 58.2957L22.6468 60.0727L22.1318 62.7237L21.8698 62.1387L22.0058 65.0027C21.8178 64.9527 21.7498 64.8057 21.6888 64.6587C20.4078 68.0407 20.8068 71.8667 20.0198 75.2477C19.8398 75.1977 19.5698 74.6147 19.2748 75.0547C19.8388 77.7677 17.1968 78.8657 19.0978 80.5197C18.9768 80.6197 18.4828 80.6117 18.3578 80.3227C17.7768 87.4757 16.4148 94.6807 14.7718 101.693C15.6218 107.94 12.6658 114.207 13.0768 120.608L12.6978 120.507C12.6568 123.752 12.1608 126.993 11.5018 130.238C11.1708 131.865 10.8028 133.475 10.4238 135.119C10.0148 136.925 9.58283 138.839 9.17383 140.792C11.1098 140.844 13.1888 140.86 15.1578 140.804C18.6258 140.962 20.9678 140.499 24.4518 140.474L24.5388 140.962C30.4038 139.105 36.8678 142.63 42.9858 140.587L42.5638 141.251C43.5128 140.222 46.2658 141.612 45.9028 139.853L46.9838 140.386C51.1408 138.06 54.5498 141.458 59.6438 139.95L59.3098 140.367C60.6638 140.044 62.2438 139.786 63.2478 140.169C63.0908 140.23 63.1638 140.353 62.8418 140.462C67.0848 142.116 71.8058 140.29 76.2818 140.353L75.7738 141.13C77.9378 140.218 81.9068 141.068 84.7508 140.65L84.5778 141.015L86.0168 140.499L86.0538 141.235C89.7518 141.286 93.2358 140.65 96.8478 140.564Z" fill="black"/>
<path d="M134.186 139.726C134.175 139.718 134.159 139.718 134.147 139.703C134.036 139.767 134.09 139.759 134.186 139.726Z" fill="black"/>
<path d="M183.156 45.0987C183.327 45.1417 183.468 45.1877 183.61 45.2467C183.575 45.0987 183.301 45.1297 183.156 45.0987Z" fill="black"/>
<path d="M34.5898 86.7457L35.6418 86.7107C35.6418 86.7107 36.3238 86.6997 37.0058 86.6897H37.2518L37.1968 86.6827C37.1618 86.6777 37.1288 86.6737 37.0998 86.6697C37.0438 86.6627 37.0058 86.6577 37.0058 86.6577C37.0058 86.6577 37.0288 86.6637 37.0638 86.6727C37.0808 86.6777 37.1018 86.6827 37.1228 86.6887C36.9178 86.6907 36.6988 86.6927 36.4798 86.6947C35.5358 86.7207 34.5898 86.7457 34.5898 86.7457Z" fill="black"/>
<path d="M36.1099 86.1917C35.9949 86.1927 35.8108 86.1587 35.6938 86.1617C35.6938 86.1617 36.1189 86.3127 36.5469 86.4237C36.9739 86.5377 37.4009 86.6117 37.4009 86.6117C37.9199 86.5937 37.4219 86.5337 36.8839 86.4287C36.3459 86.3297 35.7679 86.1957 36.1099 86.1917Z" fill="black"/>
<path d="M36.304 86.1237C36.732 86.0797 35.913 85.8767 35.647 85.7687C36.271 85.9547 35.412 85.9997 36.304 86.1237Z" fill="black"/>
<path d="M40.9541 68.1127C40.9591 68.1297 40.9651 68.1457 40.9631 68.1607L40.9921 68.2237C41.0111 68.1977 41.0121 68.1747 41.0001 68.1667C40.9931 68.1377 40.9761 68.1237 40.9541 68.1127Z" fill="black"/>
<path d="M39.4231 62.8057L38.8501 62.4607C39.1701 63.1807 38.9721 63.6147 38.7261 64.0817C38.4761 64.5377 38.1691 65.0117 38.3151 65.5607L38.1021 65.4437C37.8891 66.0757 37.8031 66.7617 37.8321 67.3607C37.8401 67.4357 37.8471 67.5117 37.8541 67.5857C37.8611 67.6617 37.8441 67.7347 37.8421 67.8097C37.6771 69.3357 37.7931 71.0317 37.6581 72.6497C37.6011 72.5937 37.4171 72.5247 37.3541 72.4647C37.5421 72.6437 37.9131 72.8897 37.8201 72.9987C37.6691 72.9877 37.5351 72.8747 37.4821 72.8147C36.2771 72.9877 37.7241 74.4527 36.8181 74.5157C36.8891 74.6877 37.3131 74.8787 37.6691 74.9017C37.3981 76.7927 37.0421 78.7977 37.3541 80.8707C37.1851 80.9187 36.8911 80.8537 36.5321 80.7277C37.1781 81.7557 37.2191 82.6237 37.0081 83.4337C36.8111 84.2307 36.3851 84.9527 36.0471 85.7097C36.4921 85.8697 36.5721 85.6577 37.0111 85.9157C37.7051 85.5557 36.1151 84.7427 37.0571 84.4867L37.4821 84.6527C37.8451 84.3957 36.3901 84.3097 37.0401 84.1097C37.4401 84.0687 37.5911 84.2857 37.6391 84.2317C37.6251 83.4927 38.2461 82.8307 37.3621 81.8687C38.3581 81.9617 37.6071 81.1007 38.5851 81.0877C38.2611 80.7977 38.4111 80.6357 37.8041 80.3877C39.0281 77.9937 38.8731 75.1307 39.7311 72.5447C39.0531 71.7197 39.2591 71.1017 39.6591 70.5157C39.8731 70.2277 40.0921 69.9327 40.3121 69.6347C40.4151 69.4847 40.5081 69.3287 40.5811 69.1667C40.6171 69.0867 40.6481 69.0047 40.6731 68.9207C40.6991 68.8317 40.7421 68.6677 40.7621 68.5427C40.7721 68.4037 40.7831 68.2647 40.7681 68.1237L40.7621 68.0757C40.8301 68.0717 40.9001 68.0867 40.9521 68.1117C40.9031 67.9957 40.8611 67.8757 40.8271 67.7197C40.5281 67.2147 40.4751 66.7097 40.7591 66.2957C40.7591 66.2957 40.5871 66.1477 40.4151 65.9977C40.2451 65.8417 40.0741 65.6857 40.0741 65.6857C41.2531 64.3027 41.9971 63.0647 42.8281 62.4027C43.2261 62.0457 43.6601 61.8637 44.2041 61.8097L44.6301 61.7867L45.3071 61.8287C45.7581 61.8657 46.2091 61.9237 46.6601 62.0097C50.7571 62.4847 54.3461 63.8557 58.3361 61.3477C58.3301 61.5317 58.3621 61.6347 58.2601 61.7117C58.5381 61.6187 58.8501 61.5797 59.0861 61.5977C59.2821 61.6287 59.4731 61.6877 59.6561 61.7407L59.9301 61.8107C60.0181 61.8437 60.1001 61.8927 60.1881 61.9197C60.3631 61.9797 60.5451 62.0007 60.7671 61.9587L60.6951 62.1317C61.8631 61.7707 62.8691 62.6217 63.3851 63.5457C63.5011 63.7927 63.6291 64.0297 63.7621 64.2647C63.8401 64.5227 63.9371 64.7707 64.0681 65.0147C64.2251 65.2547 64.2561 65.5257 64.4221 65.7857C64.5721 66.0397 64.7601 66.3357 64.9591 66.6767C64.7891 69.8337 64.9591 73.4047 65.4441 76.7457L65.0671 76.7377C65.8621 79.4127 63.8631 81.9967 64.4651 84.6647C64.2491 85.3507 64.2771 86.0477 64.4211 86.7467C64.4941 87.3177 64.7491 87.9657 64.7381 88.6607C64.7481 88.8357 64.7661 89.0197 64.7601 89.1987L64.6691 89.7217C64.5921 90.0707 64.5261 90.4507 64.3171 90.7427C64.1241 91.0417 63.9371 91.3667 63.6471 91.5797C63.3521 91.7867 63.0261 91.9537 62.6821 92.0527C62.0601 91.8847 61.6711 91.9747 61.3181 92.2507C60.9321 92.4317 60.5891 92.8827 60.1431 93.2017C59.7151 93.4937 59.1611 93.8517 58.7061 93.9057C58.2431 93.9787 57.8011 93.8677 57.3981 93.3867C54.0941 90.4917 50.8881 92.3557 47.5851 94.0897C46.0611 93.5737 44.5391 93.9787 43.0281 94.2487C42.2731 94.3837 41.5211 94.4847 40.7731 94.4207C40.3851 94.3777 40.0591 94.3417 39.6231 94.1597C39.2081 93.9867 38.8161 93.7637 38.4881 93.4527C38.0671 93.6767 37.6471 93.6157 37.2981 93.4127C36.9461 93.2097 36.7131 92.7537 36.5131 92.3567C36.2981 91.9727 36.2351 91.4517 36.0991 91.0927C35.9481 90.7407 35.8521 90.4027 35.5661 90.2087L35.2341 90.5407C35.6331 89.8987 35.0591 90.0417 34.5931 89.9917C34.1171 89.9727 33.6801 89.8447 34.5561 89.2537L34.6671 89.2587C35.0931 88.9147 34.4381 89.0707 33.8391 89.1317C33.2311 89.2077 32.6271 89.2227 33.2021 88.9307L32.6841 89.0407C32.4161 88.6887 33.2421 88.8157 33.3581 88.4787C33.2631 88.3927 32.4131 88.6757 32.6361 88.3677C33.6701 88.1047 33.5251 87.9297 33.4271 87.7217C33.3221 87.5187 33.2491 87.2937 34.4591 87.1917C34.4741 87.3327 35.3761 86.9057 35.9131 87.1547C36.1571 87.0547 35.9851 86.7247 34.9561 86.7417C33.8651 86.6967 32.9001 86.4407 32.0691 86.8357L32.8731 86.9047C32.0891 87.0627 32.4851 87.0197 31.8921 87.0947C31.8411 87.6727 30.6971 87.8887 30.2861 88.4807C30.3081 88.4717 30.3291 88.4627 30.3711 88.4627C31.3351 88.6227 30.9451 89.1387 30.8841 89.4537L30.4921 89.6877C30.0741 89.9097 30.5721 89.9777 30.9661 89.9917C31.3611 90.0067 31.6591 89.9947 30.8831 90.1817C31.3011 90.7857 31.7851 91.3777 32.2031 92.0077C32.4531 92.2937 32.7061 92.5837 32.9611 92.8747L33.3431 93.3067L33.7841 93.6767C34.3391 93.3587 34.6451 94.4497 35.0901 93.3117C34.5191 94.6277 35.4941 95.4887 35.9061 95.6537C35.8401 95.7587 35.7641 95.8807 35.7211 95.8017C35.7601 96.8127 36.2321 96.4987 36.5781 96.2567C36.9511 96.0077 37.2221 95.7767 37.3741 96.9177C37.6221 96.2147 37.9361 96.4447 38.3431 96.5607C38.7391 96.6967 39.2261 96.7947 39.4821 95.9367C39.5621 96.2757 39.5891 96.5777 39.5421 96.8387C39.9791 96.8877 40.1401 96.9067 40.4141 96.9687C40.6661 97.0257 40.9191 97.0977 41.1671 97.1707C41.6631 97.3177 42.1411 97.4697 42.5551 97.5027C43.2631 96.1957 44.2691 98.0947 44.8781 96.2897C45.3821 96.6727 46.1981 97.4247 46.9021 96.6997L46.8341 96.9207C47.6281 96.8157 48.6211 96.7217 49.1661 95.5867C49.4001 97.3157 49.7441 96.9697 50.0871 97.5237C50.6171 96.7217 51.6891 96.9587 52.4971 96.2297C52.6211 97.0267 53.1651 95.8917 53.2061 97.0497C54.3401 95.9327 55.6071 95.5697 56.8941 95.6957C57.5381 95.7587 58.1861 95.9457 58.8251 96.2217C58.9111 96.2537 58.9691 96.2947 59.0791 96.3257L59.4311 96.4157L60.1561 96.6037C60.6501 96.7307 61.1641 96.8817 61.6821 96.9237L61.6481 97.0197C62.0011 96.2557 62.0521 94.7607 62.0721 93.8887C62.1441 93.9617 62.2191 94.1467 62.1391 94.1707C62.5071 93.7467 63.5181 94.4907 63.9431 93.9997C64.0471 94.1627 64.0491 94.1627 64.0641 94.3637C64.1611 93.9947 64.5051 93.9917 64.8741 93.9357C65.2301 93.8777 65.6031 93.7487 65.5381 93.1987L65.7811 93.3847C65.7811 93.3847 65.7761 93.2267 65.7711 93.0687C65.7631 92.9137 65.7541 92.7577 65.7541 92.7577C66.0321 93.0197 66.4491 93.4187 66.1921 93.5267C67.2201 92.5337 68.0041 91.2277 68.2971 89.8047C68.3751 89.4507 68.4421 89.0957 68.4971 88.7427C68.5201 88.3857 68.5071 88.0237 68.4991 87.6697C68.4841 87.3307 68.4761 86.9277 68.4321 86.6547L68.2791 85.9267C67.8651 83.9857 67.4401 82.0307 67.5841 80.0827L67.9471 80.2257L67.2971 79.4697C67.4901 79.4747 67.5841 79.5097 67.6711 79.5457C68.3211 78.5837 67.2381 77.5847 67.4021 76.6467C67.5891 76.6507 67.9591 76.7927 68.1701 76.6617C67.1261 75.9677 69.5261 75.5467 67.3581 75.1987C67.4601 75.1667 67.9471 75.1437 68.1221 75.2157C67.4021 73.2827 67.4431 71.2997 67.7951 69.3527C66.8141 68.5417 66.7671 67.6837 66.7711 66.8177C66.7691 66.5957 66.7841 66.3977 66.7631 66.1547C66.7341 65.8997 66.6931 65.6447 66.6251 65.3977C66.5551 65.1517 66.4741 64.9097 66.3281 64.6917C66.1561 64.4797 65.9481 64.2877 65.6951 64.1297L66.0701 64.0207C65.0891 63.0527 64.4821 62.1877 63.7481 61.2107C63.3461 60.7687 62.9531 60.2657 62.4141 59.9367C61.9221 59.5277 61.3041 59.3357 60.6901 59.2167C60.2071 59.0057 59.7411 59.0897 59.3151 59.1317C58.8771 59.1767 58.5141 59.3377 58.0341 59.3387L58.0101 58.8507C56.4231 60.7077 54.6741 57.1827 53.0191 59.2257L53.1331 58.5617C52.8761 59.5907 52.1311 58.2007 52.2301 59.9597L51.9371 59.4267C50.8121 61.7527 49.8901 58.3547 48.5111 59.8627L48.6021 59.4457C48.2351 59.7687 47.8081 60.0267 47.5371 59.6437C47.5791 59.5827 47.5591 59.4597 47.6461 59.3507C46.4881 57.7207 45.2441 59.4687 43.9861 59.5137C43.9861 59.5137 44.0031 59.3177 44.0201 59.1197C44.0421 58.9227 44.0641 58.7247 44.0641 58.7247C43.9091 58.9677 43.7281 59.1037 43.5221 59.1797C43.3181 59.2797 43.0911 59.3467 42.8471 59.3917C42.5981 59.4257 42.3491 59.4887 42.1291 59.6097C41.9091 59.7237 41.6901 59.8397 41.5791 60.0557L41.4191 59.7197C41.4191 59.7197 41.4031 59.8947 41.3861 60.0687C41.3781 60.2377 41.3701 60.4067 41.3701 60.4067L40.9081 59.8337C39.8891 60.5967 39.7851 61.8857 39.4231 62.8057Z" fill="black"/>
<path d="M37.4818 72.8147C37.4898 72.8137 37.4908 72.8097 37.5078 72.8107C37.4548 72.7637 37.4568 72.7787 37.4818 72.8147Z" fill="black"/>
<path d="M30.1689 88.6957C30.2029 88.6177 30.2399 88.5517 30.2919 88.4847C30.1459 88.5257 30.1929 88.6307 30.1689 88.6957Z" fill="black"/>
<path d="M188.023 185.5L187.939 185.273L187.698 185.892L188.023 185.5Z" fill="black"/>
<path d="M186.488 186.857C186.53 186.97 186.505 187.158 186.548 187.273L187.469 185.512C187.093 184.496 186.735 187.535 186.488 186.857Z" fill="black"/>
<path d="M186.231 186.671C185.897 186.248 185.738 187.081 185.652 187.362C185.785 186.718 186.288 187.574 186.231 186.671Z" fill="black"/>
<path d="M156.006 186.474C156.038 186.47 156.081 186.448 156.113 186.421C156.061 186.394 156.026 186.42 156.006 186.474Z" fill="black"/>
<path d="M148.065 189.151L147.969 189.816C149.464 188.66 151.099 189.9 152.665 189.413L152.555 189.645C156.497 189.984 160.16 188.945 164.087 188.517C164.025 188.586 164 188.782 163.936 188.859C164.129 188.631 164.348 188.209 164.559 188.27C164.611 188.419 164.494 188.579 164.423 188.644C165.228 189.762 166.867 187.995 167.366 188.855C167.601 188.743 167.714 188.285 167.591 187.933C170.662 187.714 173.946 187.57 177.086 186.769C177.233 186.922 177.254 187.223 177.205 187.602C179.91 185.87 182.693 186.638 185.418 186.983C185.532 186.515 185.149 186.48 185.428 185.998C184.563 185.393 183.797 187.115 183.018 186.245L183.129 185.794C182.556 185.491 182.989 186.935 182.4 186.338C182.171 185.954 182.471 185.762 182.362 185.727C181.127 185.887 179.85 185.453 178.669 186.531C178.402 185.541 177.347 186.47 176.91 185.521C176.584 185.903 176.266 185.796 176.132 186.446C171.833 185.839 167.411 186.702 162.998 186.541C160.894 188.401 158.466 186.081 156 186.67C155.985 186.603 155.989 186.53 156.007 186.476C155.198 186.929 154.028 187.127 153.079 186.873L152.255 187.661C146.548 185.89 140.657 186.933 134.84 186.129C128.224 185.52 122.446 184.031 115.943 186.408C115.956 186.223 115.905 186.12 116.074 186.046C114.203 186.392 112.52 185.672 110.759 186.035L110.769 185.847C106.385 187.327 101.715 185.452 97.4858 187.061C92.3818 186.788 86.6038 186.84 81.1888 187.215L81.2098 186.839C76.8678 187.547 72.7288 185.463 68.4007 185.978C63.9797 185.029 59.2297 187.955 54.7767 186.717C52.0447 184.809 48.3267 188.706 45.7637 186.734C40.4777 183.732 35.2557 185.49 29.8777 187.116C24.9697 185.985 19.9947 188.533 15.2637 186.332C12.9747 187.636 10.5377 184.566 8.01275 184.905L8.09374 185.374C7.21874 183.937 6.03973 187.317 5.51873 185.198L5.61578 185.105C5.15878 184.023 4.45377 187.601 4.18877 186.325L4.10076 186.85C3.51876 186.991 4.04474 186.249 3.60174 186.03C3.43274 186.092 3.51876 186.991 3.17376 186.68C3.14076 184.517 1.74575 187.12 1.75475 184.691C2.07175 184.698 1.27677 183.74 1.99877 183.246C1.80077 182.993 0.828767 183.094 0.894767 184.126C0.789767 185.219 0.391737 186.164 0.963737 187.022L1.09875 186.228C1.28175 187.029 1.24177 186.629 1.30077 187.228C2.06977 187.349 2.14876 188.51 2.69176 189.001C2.68676 188.978 2.68173 188.955 2.69073 188.915C3.08773 187.968 3.59874 188.545 3.89574 188.687L4.00677 189.132C4.16977 190.065 4.92074 187.337 4.65374 188.924C6.22874 188.561 8.02475 188.616 9.77575 188.632C10.0337 188.032 11.1147 188.715 10.7557 187.54C11.1677 188.879 12.4637 189.242 12.9477 189.2C12.9267 189.324 12.9037 189.466 12.8287 189.415C13.7317 191.159 13.9737 187.841 14.8097 189.968C14.9767 188.482 16.3977 190.477 16.9307 188.735C17.0327 189.068 17.0628 189.368 17.0178 189.632C18.6008 189.697 20.3387 190.271 21.6777 190.365C22.8487 189.082 24.4377 191.012 25.4587 189.228C26.2667 189.626 27.5717 190.406 28.7247 189.705L28.6097 189.924C29.8967 189.844 31.5038 189.783 32.4078 188.666C32.7528 190.401 33.3147 190.067 33.8597 190.632C34.7337 189.849 36.4607 190.119 37.7837 189.418C37.9687 190.219 38.8707 189.102 38.9147 190.261C42.6267 188.101 47.1447 188.975 51.0267 190.742L50.9678 190.823C51.4888 190.198 52.1028 188.805 52.6368 187.996C52.6858 188.098 52.6757 188.289 52.5677 188.281C53.2867 188.081 53.9327 189.232 54.6517 189.034C54.6417 189.225 54.6417 189.225 54.5217 189.406C55.2027 188.904 55.8887 190.36 56.6987 189.48L56.7358 189.787L57.2488 189.368C57.2278 189.75 57.1968 190.325 56.9318 190.195C63.0638 190.693 69.4418 188.836 75.7408 189.25L75.5018 189.608L76.7377 188.983C76.7267 189.176 76.6667 189.269 76.6067 189.354C78.1497 190.036 79.7887 188.986 81.3018 189.181C81.2907 189.367 81.0538 189.733 81.2618 189.948C82.4068 188.927 83.0378 191.341 83.6448 189.184C83.6958 189.287 83.7208 189.775 83.6028 189.947C86.7438 189.292 89.9517 189.397 93.0917 189.812C95.7537 187.903 98.6487 189.739 101.404 188.236L101.383 188.627C104.937 187.326 108.648 188.868 112.308 188.667C113.823 188.855 114.858 188.413 116.383 188.419L116.411 188.908C119.015 187.102 121.772 190.685 124.492 188.696L124.294 189.356C124.731 188.336 125.907 189.751 125.784 187.988L126.246 188.531C128.112 186.242 129.536 189.67 131.796 188.207L131.642 188.621C132.241 188.309 132.937 188.066 133.369 188.459C133.3 188.518 133.329 188.641 133.185 188.748C135.008 190.439 137.112 188.654 139.07 188.757L138.833 189.53C139.798 188.636 141.518 189.521 142.771 189.13L142.687 189.493L143.328 188.99L143.33 189.726C144.945 189.81 146.483 189.205 148.065 189.151Z" fill="black"/>
<path d="M164.423 188.644C164.419 188.637 164.411 188.636 164.406 188.621C164.357 188.684 164.381 188.677 164.423 188.644Z" fill="black"/>
<path d="M2.88495 189.154C2.81195 189.109 2.75094 189.062 2.68994 189.001C2.70194 189.15 2.82295 189.12 2.88495 189.154Z" fill="black"/>
<path d="M0.855957 2.97472L0.943909 3.04971L1.17395 2.84271L0.855957 2.97472Z" fill="black"/>
<path d="M2.3642 2.51672C2.3202 2.47972 2.34218 2.41672 2.29718 2.37872L1.41016 2.96872C1.80516 3.30572 2.1042 2.29172 2.3642 2.51672Z" fill="black"/>
<path d="M2.62419 2.57771C2.96719 2.71771 3.11017 2.4387 3.19017 2.3457C3.07017 2.5617 2.55119 2.27771 2.62419 2.57771Z" fill="black"/>
<path d="M32.8418 2.54071C32.8098 2.54171 32.7668 2.54972 32.7358 2.55872C32.7888 2.56772 32.8238 2.55971 32.8418 2.54071Z" fill="black"/>
<path d="M40.7279 1.62173L40.8108 1.39874C39.3388 1.78974 37.6809 1.38074 36.1239 1.54874L36.2289 1.47073C32.2819 1.37073 28.6399 1.73073 24.7229 1.88673C24.7839 1.86373 24.8048 1.79774 24.8678 1.77274C24.6788 1.84874 24.4689 1.99073 24.2569 1.97073C24.2019 1.92073 24.3169 1.86673 24.3849 1.84573C23.5589 1.47573 21.9549 2.07074 21.4389 1.78474C21.2059 1.82274 21.1029 1.97573 21.2319 2.09373C18.1669 2.17673 14.8859 2.23673 11.7629 2.51373C11.6129 2.46273 11.5859 2.36273 11.6279 2.23673C8.95686 2.82373 6.16086 2.57673 3.42986 2.47073C3.32486 2.62673 3.70789 2.63774 3.43889 2.79874C4.31589 2.99774 5.04788 2.42173 5.84288 2.70873L5.73986 2.85873C6.31886 2.95773 5.85885 2.47774 6.45885 2.67474C6.69485 2.80174 6.39884 2.86574 6.50884 2.87774C7.73984 2.81974 9.02386 2.96073 10.1849 2.59773C10.4709 2.92673 11.5078 2.61373 11.9618 2.92873C12.2808 2.79973 12.5999 2.83374 12.7219 2.61674C17.0309 2.80474 21.4349 2.50273 25.8489 2.54073C27.9169 1.91273 30.3889 2.67874 32.8409 2.47374C32.8579 2.49674 32.8549 2.52073 32.8389 2.53873C33.6389 2.38573 34.8039 2.31474 35.7569 2.39574L36.5658 2.13074C42.3048 2.70074 48.1728 2.33273 54.0038 2.58173C60.6288 2.76173 66.4328 3.23774 72.8888 2.42374C72.8798 2.48574 72.9319 2.51974 72.7649 2.54474C74.6279 2.42374 76.3239 2.65774 78.0779 2.53074L78.0719 2.59274C82.4259 2.08374 87.1299 2.69274 91.3269 2.14274C96.4329 2.21574 102.208 2.17874 107.614 2.03674L107.601 2.16174C111.927 1.91074 116.105 2.59174 120.421 2.40474C124.859 2.70674 129.55 1.71474 134.025 2.11274C136.792 2.73874 140.434 1.42674 143.033 2.07574C148.375 3.05774 153.561 2.45474 158.906 1.89374C163.834 2.25474 168.759 1.38774 173.53 2.10574C175.793 1.66374 178.288 2.67874 180.805 2.55674L180.715 2.40073C181.617 2.87673 182.731 1.74574 183.292 2.45074L183.196 2.48174C183.674 2.84074 184.31 1.64574 184.599 2.07074L184.677 1.89574C185.256 1.84674 184.745 2.09473 185.192 2.16673C185.36 2.14573 185.256 1.84674 185.607 1.94774C185.681 2.66874 187.026 1.79674 187.064 2.60574C186.747 2.60474 187.559 2.92074 186.847 3.08774C187.049 3.17174 188.02 3.13473 187.934 2.79073C188.018 2.42673 188.399 2.10874 187.81 1.82574L187.69 2.09074C187.493 1.82374 187.54 1.95674 187.469 1.75774C186.698 1.72074 186.597 1.33374 186.044 1.17174C186.05 1.17974 186.055 1.18774 186.047 1.20074C185.668 1.51674 185.146 1.32674 184.847 1.28074L184.728 1.13274C184.547 0.821736 183.849 1.73474 184.085 1.20374C182.518 1.32974 180.721 1.31773 178.97 1.31773C178.725 1.51873 177.63 1.29474 178.011 1.68474C177.574 1.24074 176.272 1.12373 175.788 1.13973C175.806 1.09773 175.827 1.04973 175.902 1.06773C174.965 0.489734 174.788 1.59573 173.911 0.889732C173.771 1.38573 172.313 0.725739 171.814 1.30774C171.706 1.19774 171.669 1.09774 171.71 1.00874C170.127 0.992736 168.378 0.807739 167.038 0.779739C165.892 1.21174 164.267 0.573737 163.28 1.17274C162.466 1.04174 161.146 0.785735 160.007 1.02473L160.118 0.951736C158.833 0.982736 157.227 1.00974 156.346 1.38474C155.968 0.806735 155.412 0.919734 154.858 0.734734C153.999 0.998734 152.268 0.914733 150.959 1.15273C150.759 0.885733 149.878 1.26173 149.813 0.875732C146.143 1.60773 141.61 1.33274 137.696 0.756737L137.754 0.729736C137.244 0.940736 136.657 1.40673 136.14 1.67773C136.089 1.64373 136.095 1.57973 136.203 1.58173C135.488 1.65073 134.82 1.26974 134.105 1.33874C134.112 1.27474 134.112 1.27474 134.227 1.21374C133.556 1.38374 132.843 0.90074 132.05 1.19574L132.007 1.09373L131.503 1.23473C131.516 1.10773 131.535 0.916733 131.804 0.958733C125.665 0.812733 119.325 1.45474 113.021 1.33874L113.253 1.21774L112.029 1.43073C112.036 1.36673 112.094 1.33474 112.153 1.30674C110.596 1.08474 108.979 1.44074 107.463 1.37974C107.47 1.31774 107.7 1.19473 107.488 1.12373C106.363 1.46873 105.685 0.665734 105.12 1.38673C105.068 1.35273 105.033 1.19074 105.147 1.13274C102.021 1.36174 98.8119 1.33674 95.6648 1.20974C93.0398 1.85574 90.1109 1.25273 87.3869 1.76373L87.4009 1.63374C83.8729 2.07874 80.1339 1.57674 76.4789 1.65674C74.9609 1.59874 73.9349 1.75074 72.4109 1.75274L72.3729 1.59074C69.8039 2.20074 66.9789 1.01674 64.2989 1.68874L64.4849 1.46774C64.0689 1.80974 62.8658 1.34273 63.0218 1.92873L62.5489 1.74973C60.7279 2.51873 59.2379 1.38174 57.0079 1.87674L57.1539 1.73774C56.5609 1.84374 55.8699 1.92674 55.4299 1.79774C55.4989 1.77774 55.4668 1.73674 55.6078 1.70074C53.7538 1.14274 51.6849 1.74474 49.7259 1.71774L49.9488 1.45974C49.0008 1.76074 47.2649 1.47174 46.0199 1.60574L46.0959 1.48473L45.4659 1.65474L45.4499 1.40874C43.8339 1.39174 42.3099 1.59873 40.7279 1.62173Z" fill="black"/>
<path d="M24.3857 1.84674C24.3897 1.84874 24.3978 1.84874 24.4028 1.85474C24.4518 1.83274 24.4277 1.83474 24.3857 1.84674Z" fill="black"/>
<path d="M185.852 1.12573C185.926 1.14173 185.988 1.15673 186.05 1.17673C186.036 1.12673 185.915 1.13773 185.852 1.12573Z" fill="black"/>
<path d="M104.818 64.5587L104.845 64.7857L104.984 64.1677L104.818 64.5587Z" fill="black"/>
<path d="M105.578 63.2107C105.564 63.0977 105.585 62.9107 105.571 62.7957L105.07 64.5487C105.193 65.5657 105.498 62.5317 105.578 63.2107Z" fill="black"/>
<path d="M105.686 63.3977C105.818 63.8227 105.929 62.9907 105.981 62.7097C105.891 63.3537 105.703 62.4947 105.686 63.3977Z" fill="black"/>
<path d="M119.405 63.7487C119.39 63.7527 119.37 63.7747 119.353 63.8007C119.376 63.8277 119.393 63.8027 119.405 63.7487Z" fill="black"/>
<path d="M123.136 61.1147L123.21 60.4517C122.478 61.5987 121.792 60.3517 121.059 60.8307L121.12 60.5997C119.346 60.2417 117.633 61.2597 115.83 61.6667C115.861 61.5987 115.882 61.4027 115.914 61.3267C115.816 61.5537 115.697 61.9727 115.604 61.9107C115.587 61.7617 115.648 61.6037 115.682 61.5377C115.37 60.4177 114.542 62.1747 114.356 61.3127C114.244 61.4237 114.171 61.8797 114.21 62.2317C112.805 62.4347 111.307 62.5627 109.844 63.3457C109.784 63.1917 109.788 62.8907 109.828 62.5137C108.518 64.2307 107.291 63.4487 106.069 63.0897C105.995 63.5567 106.168 63.5937 106.018 64.0737C106.383 64.6817 106.811 62.9667 107.124 63.8397L107.053 64.2887C107.299 64.5947 107.169 63.1507 107.409 63.7497C107.495 64.1347 107.349 64.3237 107.398 64.3607C107.966 64.2067 108.526 64.6467 109.112 63.5757C109.187 64.5657 109.711 63.6427 109.864 64.5947C110.03 64.2147 110.17 64.3227 110.26 63.6747C112.185 64.3027 114.234 63.4637 116.23 63.6477C117.273 61.7997 118.267 64.1287 119.415 63.5537C119.419 63.6207 119.413 63.6937 119.403 63.7477C119.792 63.2987 120.332 63.1067 120.751 63.3647L121.162 62.5827C123.672 64.3797 126.396 63.3677 129.001 64.2017C131.978 64.8437 134.532 66.3587 137.597 64.0187C137.582 64.2027 137.601 64.3057 137.521 64.3787C138.386 64.0427 139.118 64.7707 139.934 64.4167L139.921 64.6047C141.981 63.1487 144.015 65.0437 146.011 63.4597C148.316 63.7587 150.943 63.7347 153.419 63.3877L153.393 63.7637C155.398 63.0787 157.181 65.1817 159.17 64.6897C161.134 65.6607 163.428 62.7617 165.393 64.0207C166.544 65.9407 168.414 62.0667 169.487 64.0497C171.748 67.0747 174.202 65.3457 176.72 63.7487C178.896 64.9037 181.275 62.3837 183.321 64.6057C184.422 63.3167 185.385 66.3937 186.548 66.0687L186.533 65.5997C186.864 67.0377 187.556 63.6687 187.694 65.7877L187.646 65.8797C187.802 66.9627 188.29 63.3927 188.351 64.6697L188.415 64.1457C188.686 64.0077 188.412 64.7457 188.603 64.9667C188.683 64.9047 188.686 64.0077 188.829 64.3197C188.742 66.4807 189.498 63.8877 189.381 66.3137C189.237 66.3057 189.553 67.2667 189.202 67.7557C189.28 68.0097 189.726 67.9137 189.745 66.8817C189.844 65.7917 190.068 64.8497 189.849 63.9887L189.75 64.7807C189.704 63.9807 189.704 64.3797 189.705 63.7807C189.361 63.6557 189.38 62.4967 189.155 62.0037C189.157 62.0267 189.158 62.0487 189.152 62.0897C188.927 63.0337 188.722 62.4547 188.594 62.3107L188.564 61.8657C188.534 60.9327 188.066 63.6537 188.261 62.0697C187.529 62.4247 186.715 62.3607 185.92 62.3357C185.775 62.9337 185.316 62.2457 185.424 63.4217C185.3 62.0817 184.728 61.7127 184.506 61.7517C184.521 61.6277 184.538 61.4867 184.569 61.5377C184.24 59.7917 183.976 63.1037 183.695 60.9757C183.549 62.4587 182.998 60.4587 182.674 62.1967C182.643 61.8627 182.644 61.5637 182.676 61.3007C181.96 61.2267 181.197 60.6457 180.594 60.5447C180.002 61.8197 179.37 59.8837 178.823 61.6597C178.475 61.2577 177.919 60.4717 177.362 61.1677L177.424 60.9497C176.836 61.0217 176.104 61.0757 175.641 62.1857C175.565 60.4507 175.294 60.7817 175.074 60.2147C174.64 60.9927 173.869 60.7137 173.235 61.4067C173.188 60.6057 172.726 61.7177 172.76 60.5587C170.973 62.6977 168.962 61.8017 167.281 60.0167L167.311 59.9357C167.045 60.5577 166.702 61.9457 166.421 62.7507C166.403 62.6487 166.417 62.4577 166.466 62.4657C166.129 62.6627 165.89 61.5097 165.554 61.7037C165.568 61.5127 165.568 61.5127 165.63 61.3317C165.298 61.8297 165.054 60.3727 164.646 61.2477L164.643 60.9407L164.391 61.3567C164.417 60.9747 164.458 60.4007 164.574 60.5317C161.811 60.0037 158.828 61.8267 155.987 61.3807L156.112 61.0237L155.522 61.6417C155.536 61.4497 155.567 61.3577 155.598 61.2727C154.929 60.5837 154.136 61.6237 153.457 61.4207C153.471 61.2347 153.596 60.8707 153.511 60.6547C152.944 61.6697 152.769 59.2547 152.393 61.4047C152.375 61.3027 152.386 60.8147 152.448 60.6437C150.992 61.2827 149.54 61.1607 148.133 60.7297C146.835 62.6237 145.606 60.7747 144.284 62.2617L144.311 61.8707C142.636 63.1517 141.023 61.5937 139.351 61.7757C138.672 61.5797 138.181 62.0157 137.489 62.0017L137.499 61.5147C136.232 63.3037 135.146 59.7117 133.819 61.6847L133.939 61.0267C133.694 62.0437 133.225 60.6247 133.199 62.3847L133.014 61.8407C132.06 64.1167 131.573 60.6857 130.478 62.1357L130.568 61.7227C130.282 62.0317 129.954 62.2707 129.776 61.8767C129.81 61.8177 129.803 61.6937 129.873 61.5887C129.124 59.8907 128.086 61.6617 127.201 61.5497L127.345 60.7787C126.866 61.6667 126.125 60.7737 125.538 61.1587L125.593 60.7967L125.279 61.2957L125.312 60.5607C124.583 60.4737 123.857 61.0697 123.136 61.1147Z" fill="black"/>
<path d="M115.682 61.5377C115.684 61.5457 115.688 61.5457 115.689 61.5617C115.714 61.4987 115.704 61.5057 115.682 61.5377Z" fill="black"/>
<path d="M189.075 61.8527C189.106 61.8977 189.132 61.9447 189.156 62.0067C189.158 61.8567 189.101 61.8857 189.075 61.8527Z" fill="black"/>
<path d="M104.818 95.8137L104.845 96.0407L104.984 95.4227L104.818 95.8137Z" fill="black"/>
<path d="M105.578 94.4658C105.564 94.3528 105.585 94.1658 105.571 94.0508L105.07 95.8038C105.193 96.8208 105.498 93.7868 105.578 94.4658Z" fill="black"/>
<path d="M105.686 94.6527C105.819 95.0777 105.929 94.2457 105.981 93.9647C105.891 94.6087 105.703 93.7497 105.686 94.6527Z" fill="black"/>
<path d="M119.405 95.0038C119.39 95.0078 119.37 95.0288 119.353 95.0558C119.376 95.0828 119.393 95.0578 119.405 95.0038Z" fill="black"/>
<path d="M123.136 92.3698L123.21 91.7068C122.478 92.8538 121.792 91.6068 121.059 92.0858L121.12 91.8548C119.346 91.4958 117.633 92.5148 115.83 92.9218C115.861 92.8538 115.882 92.6568 115.914 92.5818C115.816 92.8078 115.697 93.2278 115.604 93.1658C115.587 93.0168 115.648 92.8578 115.682 92.7928C115.37 91.6728 114.542 93.4298 114.356 92.5678C114.244 92.6778 114.171 93.1348 114.21 93.4868C112.805 93.6898 111.307 93.8178 109.844 94.6008C109.784 94.4468 109.788 94.1458 109.828 93.7678C108.518 95.4848 107.291 94.7038 106.069 94.3448C105.996 94.8118 106.168 94.8488 106.018 95.3288C106.383 95.9368 106.811 94.2218 107.124 95.0948L107.053 95.5438C107.299 95.8498 107.169 94.4058 107.409 95.0048C107.495 95.3898 107.349 95.5788 107.398 95.6158C107.966 95.4608 108.526 95.9018 109.113 94.8308C109.187 95.8208 109.711 94.8978 109.864 95.8488C110.03 95.4698 110.17 95.5778 110.26 94.9298C112.185 95.5578 114.234 94.7188 116.23 94.9028C117.273 93.0548 118.267 95.3838 119.415 94.8088C119.419 94.8758 119.414 94.9478 119.403 95.0028C119.792 94.5538 120.332 94.3618 120.751 94.6198L121.162 93.8378C123.672 95.6348 126.396 94.6228 129.001 95.4568C131.978 96.0988 134.532 97.6138 137.597 95.2728C137.582 95.4578 137.601 95.5608 137.521 95.6338C138.386 95.2978 139.118 96.0258 139.934 95.6718L139.921 95.8588C141.981 94.4028 144.015 96.2988 146.011 94.7138C148.316 95.0138 150.943 94.9898 153.419 94.6428L153.393 95.0188C155.398 94.3328 157.181 96.4358 159.17 95.9438C161.134 96.9158 163.428 94.0158 165.393 95.2748C166.544 97.1958 168.414 93.3208 169.487 95.3038C171.748 98.3288 174.202 96.5998 176.72 95.0038C178.896 96.1578 181.275 93.6388 183.321 95.8598C184.422 94.5708 185.385 97.6478 186.548 97.3228L186.533 96.8538C186.864 98.2918 187.556 94.9228 187.694 97.0418L187.646 97.1348C187.802 98.2168 188.29 94.6468 188.35 95.9238L188.415 95.3998C188.686 95.2618 188.412 95.9998 188.603 96.2208C188.683 96.1588 188.686 95.2618 188.829 95.5738C188.742 97.7348 189.498 95.1418 189.381 97.5678C189.237 97.5598 189.553 98.5208 189.202 99.0098C189.28 99.2638 189.726 99.1678 189.745 98.1358C189.844 97.0458 190.068 96.1038 189.849 95.2428L189.75 96.0348C189.704 95.2348 189.704 95.6338 189.705 95.0348C189.361 94.9098 189.379 93.7508 189.155 93.2578C189.157 93.2808 189.158 93.3028 189.152 93.3438C188.927 94.2878 188.722 93.7088 188.594 93.5648L188.564 93.1198C188.534 92.1868 188.066 94.9078 188.261 93.3238C187.529 93.6788 186.715 93.6148 185.92 93.5898C185.775 94.1878 185.316 93.4998 185.424 94.6758C185.3 93.3368 184.728 92.9668 184.506 93.0058C184.521 92.8818 184.538 92.7408 184.569 92.7918C184.24 91.0458 183.976 94.3578 183.695 92.2298C183.549 93.7128 182.998 91.7128 182.674 93.4508C182.643 93.1168 182.644 92.8178 182.676 92.5548C181.96 92.4808 181.197 91.8998 180.594 91.7988C180.002 93.0738 179.37 91.1378 178.823 92.9148C178.475 92.5128 177.919 91.7268 177.362 92.4218L177.424 92.2038C176.836 92.2768 176.104 92.3298 175.641 93.4408C175.565 91.7058 175.294 92.0368 175.074 91.4688C174.64 92.2468 173.869 91.9678 173.235 92.6608C173.188 91.8608 172.726 92.9718 172.76 91.8128C170.973 93.9518 168.962 93.0558 167.281 91.2708L167.311 91.1898C167.045 91.8118 166.702 93.1998 166.421 94.0058C166.403 93.9028 166.417 93.7118 166.466 93.7208C166.129 93.9168 165.89 92.7638 165.554 92.9578C165.568 92.7668 165.568 92.7668 165.63 92.5868C165.298 93.0838 165.054 91.6268 164.646 92.5018L164.643 92.1948L164.391 92.6108C164.417 92.2288 164.458 91.6548 164.574 91.7858C161.811 91.2578 158.828 93.0808 155.987 92.6348L156.112 92.2788L155.522 92.8968C155.536 92.7038 155.567 92.6118 155.598 92.5268C154.929 91.8388 154.136 92.8788 153.457 92.6758C153.471 92.4898 153.596 92.1258 153.511 91.9088C152.944 92.9238 152.769 90.5098 152.393 92.6598C152.375 92.5568 152.386 92.0688 152.448 91.8978C150.992 92.5378 149.54 92.4148 148.133 91.9838C146.835 93.8778 145.606 92.0298 144.284 93.5168L144.311 93.1258C142.636 94.4068 141.023 92.8488 139.351 93.0308C138.672 92.8338 138.181 93.2698 137.489 93.2568L137.499 92.7688C136.232 94.5588 135.146 90.9668 133.819 92.9388L133.939 92.2818C133.694 93.2978 133.225 91.8798 133.199 93.6398L133.014 93.0948C132.06 95.3708 131.573 91.9408 130.478 93.3908L130.568 92.9778C130.282 93.2858 129.954 93.5258 129.776 93.1308C129.81 93.0728 129.803 92.9488 129.873 92.8428C129.124 91.1448 128.086 92.9158 127.201 92.8038L127.345 92.0328C126.866 92.9198 126.125 92.0278 125.538 92.4128L125.593 92.0508L125.279 92.5498L125.312 91.8138C124.583 91.7278 123.857 92.3238 123.136 92.3698Z" fill="black"/>
<path d="M115.682 92.7928C115.684 92.8008 115.688 92.8008 115.689 92.8168C115.714 92.7538 115.704 92.7608 115.682 92.7928Z" fill="black"/>
<path d="M189.075 93.1068C189.106 93.1518 189.132 93.1987 189.156 93.2607C189.158 93.1107 189.101 93.1398 189.075 93.1068Z" fill="black"/>
<path d="M190.013 75.4847L189.984 75.2567L189.852 75.8757L190.013 75.4847Z" fill="black"/>
<path d="M189.269 76.8397C189.284 76.9527 189.266 77.1407 189.281 77.2547L189.761 75.4967C189.627 74.4817 189.357 77.5187 189.269 76.8397Z" fill="black"/>
<path d="M189.159 76.6537C189.022 76.2317 188.921 77.0637 188.872 77.3447C188.955 76.7007 189.152 77.5577 189.159 76.6537Z" fill="black"/>
<path d="M175.445 76.4567C175.46 76.4527 175.48 76.4307 175.496 76.4037C175.472 76.3767 175.456 76.4037 175.445 76.4567Z" fill="black"/>
<path d="M171.745 79.1317L171.679 79.7957C172.398 78.6407 173.097 79.8797 173.825 79.3937L173.767 79.6247C175.544 79.9637 177.245 78.9257 179.042 78.4987C179.011 78.5667 178.992 78.7637 178.961 78.8397C179.057 78.6117 179.171 78.1907 179.264 78.2517C179.283 78.4007 179.224 78.5597 179.19 78.6247C179.515 79.7427 180.322 77.9767 180.519 78.8357C180.629 78.7237 180.697 78.2657 180.653 77.9147C182.055 77.6957 183.551 77.5517 185.005 76.7517C185.067 76.9047 185.066 77.2057 185.03 77.5837C186.319 75.8537 187.555 76.6207 188.78 76.9657C188.848 76.4977 188.676 76.4627 188.819 75.9807C188.448 75.3767 188.04 77.0967 187.716 76.2277L187.782 75.7777C187.533 75.4747 187.678 76.9177 187.431 76.3207C187.341 75.9367 187.484 75.7457 187.435 75.7097C186.869 75.8707 186.305 75.4377 185.731 76.5137C185.645 75.5247 185.132 76.4527 184.968 75.5047C184.806 75.8857 184.665 75.7797 184.581 76.4287C182.651 75.8227 180.613 76.6847 178.615 76.5237C177.594 78.3817 176.574 76.0637 175.434 76.6527C175.429 76.5857 175.434 76.5127 175.444 76.4587C175.061 76.9117 174.523 77.1087 174.101 76.8557L173.699 77.6427C171.171 75.8737 168.46 76.9147 165.847 76.1117C162.865 75.5037 160.295 74.0157 157.258 76.3897C157.271 76.2057 157.251 76.1027 157.33 76.0287C156.469 76.3747 155.73 75.6547 154.918 76.0167L154.929 75.8297C152.887 77.3087 150.833 75.4347 148.856 77.0417C146.549 76.7697 143.924 76.8217 141.453 77.1967L141.475 76.8207C139.479 77.5277 137.674 75.4447 135.691 75.9597C133.718 75.0107 131.458 77.9347 129.48 76.6977C128.308 74.7907 126.482 78.6857 125.388 76.7147C123.095 73.7147 120.662 75.4717 118.163 77.0957C115.975 75.9657 113.626 78.5117 111.557 76.3127C110.471 77.6147 109.474 74.5477 108.316 74.8857L108.336 75.3547C107.99 73.9197 107.335 77.2967 107.174 75.1797L107.221 75.0867C107.052 74.0057 106.605 77.5807 106.531 76.3047L106.472 76.8297C106.202 76.9707 106.467 76.2297 106.274 76.0107C106.195 76.0727 106.203 76.9707 106.057 76.6597C106.119 74.4987 105.393 77.0987 105.483 74.6727C105.627 74.6797 105.3 73.7217 105.645 73.2287C105.565 72.9757 105.12 73.0767 105.113 74.1087C105.027 75.1997 104.812 76.1447 105.042 77.0027L105.132 76.2097C105.186 77.0097 105.183 76.6097 105.188 77.2087C105.533 77.3297 105.528 78.4897 105.757 78.9807C105.755 78.9567 105.754 78.9347 105.759 78.8937C105.973 77.9477 106.185 78.5247 106.314 78.6657L106.349 79.1117C106.39 80.0437 106.828 77.3177 106.65 78.9037C107.378 78.5407 108.191 78.5947 108.986 78.6117C109.124 78.0117 109.59 78.6947 109.469 77.5207C109.609 78.8577 110.184 79.2207 110.406 79.1797C110.392 79.3037 110.377 79.4457 110.344 79.3937C110.693 81.1367 110.919 77.8217 111.224 79.9467C111.353 78.4617 111.927 80.4547 112.231 78.7147C112.265 79.0477 112.268 79.3477 112.239 79.6107C112.955 79.6757 113.723 80.2487 114.328 80.3427C114.905 79.0607 115.558 80.9897 116.085 79.2067C116.438 79.6047 117.002 80.3847 117.551 79.6837L117.49 79.9027C118.077 79.8237 118.809 79.7617 119.26 78.6457C119.355 80.3797 119.621 80.0457 119.849 80.6107C120.273 79.8277 121.047 80.0977 121.673 79.3967C121.729 80.1977 122.178 79.0817 122.156 80.2397C123.918 78.0817 125.938 78.9547 127.637 80.7207L127.608 80.8017C127.867 80.1767 128.195 78.7847 128.465 77.9767C128.484 78.0787 128.473 78.2697 128.423 78.2617C128.757 78.0617 129.01 79.2117 129.343 79.0137C129.331 79.2047 129.331 79.2047 129.271 79.3857C129.598 78.8847 129.858 80.3387 130.256 79.4587L130.263 79.7667L130.51 79.3477C130.488 79.7297 130.452 80.3037 130.336 80.1737C133.103 80.6717 136.064 78.8157 138.908 79.2307L138.787 79.5887L139.37 78.9637C139.358 79.1557 139.328 79.2487 139.298 79.3337C139.975 80.0157 140.755 78.9667 141.436 79.1607C141.424 79.3467 141.303 79.7127 141.39 79.9277C141.946 78.9067 142.148 81.3197 142.499 79.1647C142.519 79.2667 142.513 79.7547 142.453 79.9267C143.901 79.2717 145.354 79.3777 146.765 79.7917C148.04 77.8847 149.289 79.7187 150.594 78.2167L150.571 78.6077C152.23 77.3077 153.86 78.8487 155.529 78.6477C156.21 78.8357 156.695 78.3947 157.387 78.4007L157.382 78.8887C158.629 77.0847 159.753 80.6647 161.059 78.6777L160.946 79.3367C161.179 78.3167 161.664 79.7307 161.671 77.9697L161.861 78.5127C162.79 76.2257 163.314 79.6507 164.392 78.1887L164.307 78.6027C164.59 78.2907 164.914 78.0477 165.096 78.4407C165.063 78.4997 165.072 78.6227 165.003 78.7297C165.771 80.4187 166.788 78.6357 167.674 78.7387L167.538 79.5107C168.008 78.6177 168.758 79.5027 169.34 79.1107L169.29 79.4737L169.599 78.9707L169.573 79.7077C170.305 79.7897 171.025 79.1857 171.745 79.1317Z" fill="black"/>
<path d="M179.189 78.6247C179.187 78.6177 179.184 78.6177 179.182 78.6017C179.158 78.6647 179.168 78.6577 179.189 78.6247Z" fill="black"/>
<path d="M105.839 79.1317C105.807 79.0867 105.781 79.0397 105.756 78.9797C105.756 79.1287 105.812 79.0987 105.839 79.1317Z" fill="black"/>
<path d="M62.2599 170.28C55.9269 163.946 55.9259 153.676 62.2599 147.342C68.5939 141.012 78.8639 141.012 85.1959 147.342C91.5299 153.674 91.5319 163.946 85.1959 170.278C78.8619 176.614 68.5939 176.613 62.2599 170.28Z" fill="white"/>
<path d="M59.4221 173.119L59.3071 173.32L59.8601 172.98L59.4221 173.119Z" fill="black"/>
<path d="M61.1071 172.779C61.1631 172.676 61.2981 172.547 61.3541 172.443C61.3541 172.443 60.9501 172.676 60.5441 172.909C60.1291 173.133 59.7151 173.357 59.7151 173.357C59.2281 174.277 61.4501 172.18 61.1071 172.779Z" fill="black"/>
<path d="M61.1097 173.024C60.9997 173.484 61.6167 172.915 61.8357 172.731C61.3567 173.171 61.6727 172.317 61.1097 173.024Z" fill="black"/>
<path d="M79.028 176.654C79.01 176.664 78.991 176.692 78.979 176.722C79.019 176.739 79.033 176.71 79.028 176.654Z" fill="black"/>
<path d="M82.013 172.218L81.698 171.63C81.687 172.32 81.3199 172.545 80.9179 172.663C80.4969 172.76 80.055 172.775 79.788 173.185L79.747 172.946C78.76 173.218 77.9159 173.706 76.9959 174.222C76.0819 174.726 75.098 175.252 73.998 175.53C74.031 175.458 74.039 175.26 74.072 175.181C73.973 175.417 73.858 175.85 73.736 175.798C73.706 175.652 73.77 175.487 73.807 175.418C73.382 174.311 72.422 176.056 72.18 175.196C72.042 175.3 71.935 175.746 71.974 176.104C70.15 176.199 68.2429 175.917 66.1079 175.918C66.0839 175.74 66.193 175.46 66.372 175.125C65.826 175.358 65.3029 175.456 64.8419 175.407C64.3849 175.349 63.9679 175.184 63.5869 174.963C63.1959 174.755 62.886 174.425 62.577 174.106C62.278 173.774 61.9669 173.466 61.7039 173.115C61.3499 173.429 61.5169 173.616 61.0739 173.873C61.1479 174.728 62.612 173.604 62.505 174.599L62.188 174.927C62.333 175.394 62.9079 174.039 62.8889 174.748C62.8009 175.152 62.533 175.202 62.573 175.272C63.345 175.563 63.916 176.368 65.086 175.741C64.815 176.701 65.837 176.131 65.726 177.113C66.075 176.845 66.228 177.025 66.545 176.454C67.146 176.803 67.7919 177.093 68.4699 177.27C69.1579 177.41 69.848 177.563 70.557 177.566C71.264 177.584 71.962 177.609 72.661 177.547C73.01 177.528 73.355 177.515 73.701 177.511C74.047 177.484 74.3909 177.457 74.7379 177.45C75.3299 176.492 75.967 176.483 76.724 176.623C77.471 176.784 78.3199 176.941 78.9749 176.465C79.0029 176.527 79.023 176.596 79.029 176.653C79.371 176.038 79.945 175.606 80.578 175.626L80.703 174.684C82.599 174.8 84.227 173.86 85.591 172.729C86.979 171.579 88.016 170.131 89.312 168.827C90.636 167.238 91.823 165.54 92.422 163.619C92.737 162.665 92.819 161.652 92.736 160.643C92.58 159.628 92.252 158.614 91.544 157.686C91.729 157.68 91.83 157.641 91.912 157.739C91.711 157.181 91.705 156.647 91.698 156.105C91.695 155.835 91.695 155.565 91.654 155.301C91.594 155.041 91.5 154.787 91.34 154.552L91.524 154.511C91.252 154.233 91.042 153.946 90.849 153.657C90.64 153.373 90.469 153.081 90.322 152.781C90.051 152.174 89.7619 151.576 89.5039 150.962C89.2489 150.348 88.8779 149.789 88.4799 149.275C88.0419 148.789 87.477 148.405 86.801 148.191C85.103 145.861 82.202 143.879 79.203 143.416L79.335 143.063C79.015 143.057 78.7169 143.009 78.4279 142.936C78.1309 142.887 77.8469 142.806 77.5659 142.704L75.869 142.004C74.721 141.514 73.433 141.165 72.197 141.553C71.537 141.412 70.8699 141.532 70.2509 141.794C69.6419 142.109 69.0489 142.459 68.5299 142.938C67.9999 143.385 67.4989 143.811 66.9959 144.191C66.7399 144.374 66.468 144.508 66.185 144.627C65.91 144.757 65.61 144.843 65.271 144.876C64.697 144.663 64.2779 144.816 63.9829 145.151C63.6859 145.485 63.4629 145.929 63.3189 146.422C63.1679 146.91 63.036 147.378 62.797 147.693C62.566 148.019 62.256 148.225 61.656 148.164C60.601 148.2 59.842 148.604 59.203 149.106C58.635 149.656 58.199 150.33 58.028 151.106C57.595 152.636 58.0409 154.408 58.5919 155.905C57.8889 157.085 58.133 158.478 58.518 159.694C58.845 160.948 59.206 162.017 58.551 163.533C59.407 163.889 59.1509 164.595 58.9699 165.413C58.8639 165.823 58.7409 166.267 58.7069 166.686C58.7009 167.088 58.79 167.463 59.058 167.726L59.432 167.44C58.961 168.025 59.522 168.034 60.011 168.006C60.504 167.985 60.8919 167.965 60.1339 168.714L60.025 168.727C59.34 169.605 62.394 167.696 61.472 168.589L61.908 168.291C62.207 168.429 61.46 168.698 61.453 169.011C61.564 169.036 62.214 168.418 62.102 168.747C60.501 170.199 62.944 168.979 61.18 170.649C61.051 170.506 60.7 171.521 60.034 171.545C59.937 171.81 60.443 172.185 61.132 171.41C61.941 170.669 62.751 170.139 63.136 169.316L62.528 169.83C63.028 169.195 62.7599 169.493 63.1649 169.05C62.9839 168.691 63.803 167.868 64.002 167.372C63.985 167.39 63.971 167.406 63.938 167.43C63.107 167.934 63.365 167.382 63.387 167.2L63.701 166.878C64.389 166.245 62.0449 167.681 63.3629 166.788C63.0099 166.626 62.6869 166.388 62.4409 166.084C62.2059 165.772 62.001 165.427 61.788 165.093C61.204 165.271 61.582 164.511 60.607 165.185C61.716 164.4 61.776 163.779 61.661 163.598C61.779 163.56 61.914 163.515 61.878 163.565C63.37 162.593 60.2189 163.643 62.0869 162.6C61.3719 162.803 61.415 162.603 61.448 162.396C61.487 162.184 61.493 161.978 60.615 162.079C60.926 161.952 61.212 161.867 61.473 161.82C61.314 161.155 61.782 160.342 61.782 159.814C61.123 159.633 61.256 159.318 61.326 159.04C61.38 158.755 61.45 158.503 60.55 158.248C60.75 158.074 61.043 157.861 61.196 157.633C61.372 157.404 61.4219 157.162 61.0949 156.865L61.307 156.945C61.248 156.379 61.357 155.734 60.347 155.024C62.038 155.325 61.7979 155.025 62.3969 154.981C62.0749 154.691 62.031 154.384 62.003 154.051C62.01 153.732 62.034 153.39 61.827 152.965C62.572 153.242 61.727 152.371 62.776 152.899C62.489 152.31 62.375 151.727 62.451 151.228C62.554 150.748 62.772 150.299 63.135 149.973C63.518 149.665 63.957 149.405 64.489 149.289C65.033 149.188 65.5819 149.14 66.1649 149.231L66.197 149.308C65.966 148.694 65.332 147.416 65.071 146.589C65.15 146.656 65.2589 146.815 65.2119 146.842C65.3769 146.44 66.272 147.209 66.445 146.877C66.543 147.042 66.5429 147.042 66.5919 147.225C66.6069 146.622 67.583 147.707 67.463 146.748L67.622 147.012L67.636 146.535C67.8 146.88 68.049 147.398 67.888 147.335C69.139 146.896 70.261 146.133 71.611 145.482C72.937 144.834 74.521 144.398 75.994 144.8L75.83 145.144C75.83 145.144 75.998 145.003 76.167 144.863C76.342 144.724 76.5169 144.586 76.5169 144.586C76.4769 144.774 76.432 144.861 76.388 144.943C76.95 145.746 77.957 144.855 78.617 145.292C78.55 145.465 78.325 145.779 78.346 146.01C78.768 145.61 78.862 145.984 78.939 146.241C79.022 146.5 79.1129 146.607 79.6809 145.677C79.6629 145.78 79.475 146.231 79.356 146.367C80.17 146.31 80.901 146.573 81.573 146.926C82.202 147.35 82.7779 147.862 83.1859 148.516C84.3389 148.187 84.838 148.739 85.313 149.25C85.539 149.523 85.722 149.827 86.003 150.06C86.289 150.291 86.6379 150.478 87.1419 150.59L86.805 150.789C87.88 151.203 88.3059 152.143 88.5139 153.1C88.5909 153.592 88.67 154.079 88.718 154.565C88.751 155.055 88.844 155.52 88.999 155.975C88.947 156.778 89.52 157.245 89.559 158.067L89.073 158.109C90.064 158.742 89.5809 159.519 89.1599 160.18C88.9339 160.516 88.6789 160.833 88.6209 161.173C88.5679 161.516 88.6669 161.874 89.0689 162.328L88.4439 162.09C89.3939 162.533 87.899 162.801 89.617 163.178L89.0429 163.283C90.0099 164.081 89.576 164.481 89.075 164.799C88.561 165.131 87.907 165.343 88.336 166.235L87.997 165.974C88.168 166.413 88.172 166.864 87.724 166.881C87.691 166.819 87.576 166.773 87.518 166.653C86.543 166.661 86.374 167.101 86.247 167.643C86.138 168.186 86.19 168.917 85.791 169.275L85.2799 168.68C85.6349 169.654 84.408 169.762 84.196 170.468L83.981 170.17L84.0789 170.777L83.591 170.226C83.282 170.497 83.044 170.831 82.817 171.205C82.582 171.576 82.362 171.983 82.013 172.218Z" fill="black"/>
<path d="M73.8071 175.419C73.8101 175.426 73.8141 175.426 73.8171 175.441C73.8431 175.376 73.8311 175.384 73.8071 175.419Z" fill="black"/>
<path d="M64.0521 167.211C64.0401 167.264 64.025 167.314 63.998 167.373C64.106 167.27 64.0461 167.253 64.0521 167.211Z" fill="black"/>
<path d="M102.303 147.341C108.635 141.013 118.907 141.013 125.241 147.341C131.571 153.675 131.571 163.946 125.241 170.279C118.907 176.613 108.636 176.613 102.303 170.279C95.9665 163.946 95.9685 153.675 102.303 147.341Z" fill="white"/>
<path d="M99.4647 144.503L99.2637 144.388L99.6037 144.94L99.4647 144.503Z" fill="black"/>
<path d="M99.8048 146.188C99.9078 146.243 100.037 146.379 100.141 146.435C100.141 146.435 99.9078 146.03 99.6748 145.624C99.4508 145.21 99.2278 144.796 99.2278 144.796C98.3078 144.308 100.404 146.529 99.8048 146.188Z" fill="black"/>
<path d="M99.5596 146.191C99.0996 146.08 99.6696 146.697 99.8526 146.916C99.4126 146.437 100.267 146.754 99.5596 146.191Z" fill="black"/>
<path d="M95.9257 164.108C95.9167 164.09 95.8877 164.071 95.8577 164.059C95.8407 164.099 95.8717 164.113 95.9257 164.108Z" fill="black"/>
<path d="M100.363 167.094L100.951 166.78C100.26 166.768 100.035 166.402 99.9177 165.999C99.8197 165.578 99.8057 165.136 99.3957 164.869L99.6337 164.828C99.3627 163.841 98.8747 162.997 98.3587 162.077C97.8547 161.163 97.3297 160.178 97.0517 159.078C97.1237 159.111 97.3217 159.119 97.4007 159.152C97.1647 159.054 96.7327 158.939 96.7847 158.817C96.9307 158.786 97.0947 158.85 97.1637 158.887C98.2717 158.462 96.5267 157.503 97.3857 157.26C97.2817 157.122 96.8367 157.015 96.4787 157.054C96.3837 155.23 96.6657 153.323 96.6647 151.188C96.8427 151.164 97.1227 151.273 97.4577 151.452C97.2247 150.906 97.1277 150.384 97.1767 149.922C97.2347 149.465 97.3997 149.049 97.6207 148.668C97.8287 148.277 98.1587 147.967 98.4777 147.657C98.8097 147.359 99.1177 147.047 99.4687 146.785C99.1557 146.431 98.9677 146.598 98.7107 146.154C97.8557 146.229 98.9797 147.693 97.9847 147.586L97.6567 147.269C97.1897 147.413 98.5447 147.989 97.8357 147.97C97.4317 147.882 97.3817 147.614 97.3117 147.654C97.0207 148.425 96.2157 148.996 96.8427 150.166C95.8817 149.895 96.4527 150.918 95.4707 150.807C95.7377 151.155 95.5587 151.308 96.1297 151.625C95.7797 152.226 95.4907 152.872 95.3127 153.55C95.1727 154.238 95.0207 154.928 95.0167 155.637C94.9987 156.344 94.9727 157.042 95.0347 157.741C95.0537 158.09 95.0667 158.436 95.0707 158.781C95.0977 159.127 95.1247 159.471 95.1317 159.818C96.0897 160.41 96.0977 161.047 95.9587 161.804C95.7967 162.551 95.6407 163.4 96.1157 164.055C96.0537 164.084 95.9847 164.103 95.9277 164.109C96.5417 164.452 96.9757 165.026 96.9547 165.659L97.8967 165.784C97.7797 167.679 98.7207 169.307 99.8507 170.672C101.002 172.061 102.449 173.098 103.753 174.394C105.343 175.717 107.04 176.904 108.961 177.504C109.915 177.818 110.928 177.901 111.937 177.818C112.952 177.662 113.966 177.334 114.894 176.627C114.9 176.812 114.939 176.912 114.841 176.994C115.4 176.794 115.933 176.788 116.475 176.781C116.745 176.778 117.015 176.778 117.279 176.737C117.539 176.677 117.793 176.583 118.029 176.424L118.069 176.607C118.347 176.335 118.634 176.125 118.923 175.932C119.206 175.724 119.498 175.552 119.798 175.405C120.406 175.135 121.004 174.846 121.618 174.588C122.232 174.333 122.791 173.962 123.304 173.564C123.792 173.126 124.175 172.562 124.389 171.886C126.72 170.189 128.701 167.287 129.166 164.288L129.519 164.421C129.525 164.101 129.572 163.802 129.646 163.513C129.695 163.217 129.776 162.932 129.878 162.652L130.579 160.954C131.068 159.807 131.418 158.518 131.031 157.283C131.172 156.623 131.052 155.955 130.79 155.337C130.475 154.727 130.124 154.135 129.647 153.616C129.199 153.086 128.774 152.584 128.394 152.081C128.211 151.825 128.076 151.553 127.958 151.27C127.828 150.994 127.742 150.695 127.709 150.356C127.922 149.782 127.77 149.362 127.434 149.068C127.101 148.771 126.656 148.548 126.163 148.403C125.675 148.252 125.208 148.121 124.893 147.881C124.567 147.65 124.361 147.34 124.422 146.74C124.386 145.685 123.982 144.926 123.479 144.287C122.93 143.719 122.255 143.284 121.479 143.113C119.949 142.681 118.177 143.127 116.68 143.678C115.5 142.974 114.107 143.218 112.891 143.603C111.636 143.929 110.567 144.291 109.051 143.634C108.695 144.491 107.989 144.234 107.172 144.053C106.762 143.947 106.317 143.824 105.899 143.79C105.496 143.783 105.121 143.872 104.858 144.14L105.144 144.514C104.559 144.042 104.551 144.604 104.578 145.093C104.598 145.586 104.618 145.973 103.87 145.215L103.857 145.106C102.979 144.421 104.886 147.476 103.994 146.554L104.292 146.989C104.154 147.289 103.886 146.542 103.572 146.534C103.547 146.645 104.165 147.295 103.836 147.184C102.384 145.582 103.604 148.025 101.935 146.261C102.077 146.132 101.063 145.781 101.039 145.115C100.774 145.018 100.399 145.523 101.173 146.212C101.914 147.022 102.444 147.832 103.267 148.217L102.753 147.61C103.387 148.11 103.09 147.841 103.532 148.247C103.892 148.065 104.714 148.885 105.21 149.083C105.193 149.067 105.177 149.053 105.152 149.02C104.648 148.189 105.201 148.447 105.383 148.469L105.705 148.783C106.338 149.471 104.902 147.127 105.795 148.445C105.957 148.092 106.195 147.769 106.499 147.523C106.811 147.289 107.155 147.084 107.49 146.871C107.312 146.287 108.072 146.666 107.398 145.69C108.183 146.8 108.804 146.86 108.985 146.745C109.024 146.863 109.068 146.998 109.018 146.962C109.989 148.454 108.941 145.303 109.983 147.171C109.78 146.456 109.98 146.499 110.187 146.532C110.399 146.571 110.606 146.577 110.505 145.7C110.632 146.01 110.716 146.297 110.763 146.557C111.429 146.398 112.242 146.866 112.77 146.867C112.951 146.208 113.266 146.341 113.544 146.411C113.829 146.465 114.082 146.535 114.336 145.635C114.51 145.835 114.723 146.129 114.951 146.281C115.18 146.458 115.423 146.507 115.72 146.18L115.64 146.392C116.206 146.333 116.851 146.442 117.561 145.432C117.261 147.123 117.56 146.884 117.605 147.482C117.895 147.16 118.202 147.117 118.534 147.088C118.854 147.095 119.196 147.119 119.621 146.913C119.344 147.658 120.215 146.812 119.687 147.861C120.276 147.574 120.859 147.459 121.358 147.536C121.838 147.639 122.288 147.857 122.613 148.22C122.921 148.603 123.182 149.04 123.296 149.573C123.397 150.117 123.446 150.665 123.354 151.249L123.276 151.281C123.891 151.049 125.169 150.416 125.996 150.155C125.93 150.234 125.77 150.343 125.744 150.297C126.146 150.461 125.375 151.356 125.708 151.529C125.543 151.627 125.543 151.627 125.36 151.676C125.962 151.691 124.878 152.666 125.836 152.548L125.572 152.707L126.05 152.72C125.705 152.885 125.186 153.133 125.249 152.973C125.688 154.223 126.451 155.345 127.101 156.696C127.749 158.023 128.185 159.606 127.783 161.079L127.439 160.915C127.439 160.915 127.58 161.084 127.719 161.252C127.858 161.427 127.996 161.603 127.996 161.603C127.808 161.563 127.722 161.517 127.64 161.474C126.836 162.036 127.727 163.042 127.29 163.703C127.117 163.635 126.803 163.41 126.572 163.432C126.972 163.854 126.599 163.948 126.341 164.025C126.082 164.108 125.975 164.199 126.905 164.768C126.802 164.749 126.351 164.561 126.215 164.442C126.272 165.256 126.009 165.987 125.655 166.659C125.232 167.288 124.719 167.864 124.066 168.272C124.394 169.425 123.842 169.924 123.331 170.399C123.058 170.624 122.754 170.807 122.521 171.088C122.29 171.375 122.102 171.723 121.99 172.227L121.791 171.89C121.377 172.965 120.437 173.391 119.48 173.598C118.987 173.676 118.501 173.755 118.015 173.802C117.525 173.835 117.06 173.928 116.605 174.083C115.802 174.031 115.335 174.604 114.513 174.642L114.47 174.156C113.838 175.147 113.06 174.663 112.4 174.243C112.063 174.017 111.747 173.762 111.407 173.704C111.064 173.651 110.706 173.75 110.251 174.152L110.49 173.527C110.046 174.477 109.779 172.981 109.401 174.7L109.296 174.126C108.498 175.092 108.098 174.659 107.781 174.158C107.449 173.643 107.237 172.99 106.345 173.419L106.605 173.079C106.167 173.251 105.715 173.254 105.698 172.806C105.76 172.773 105.807 172.658 105.927 172.601C105.918 171.626 105.479 171.456 104.937 171.329C104.394 171.221 103.662 171.272 103.304 170.874L103.899 170.363C102.925 170.717 102.817 169.49 102.111 169.279L102.409 169.064L101.802 169.161L102.354 168.673C102.083 168.364 101.749 168.126 101.375 167.899C101.003 167.663 100.598 167.443 100.363 167.094Z" fill="black"/>
<path d="M97.1627 158.887C97.1557 158.89 97.1556 158.894 97.1406 158.897C97.2056 158.924 97.1977 158.91 97.1627 158.887Z" fill="black"/>
<path d="M105.372 149.134C105.32 149.122 105.27 149.107 105.21 149.079C105.313 149.188 105.331 149.128 105.372 149.134Z" fill="black"/>
</svg>
